<svg width="25" height="25" viewBox="0 0 25 25" fill="none" xmlns="http://www.w3.org/2000/svg">
<path d="M18.2063 7.57999C17.9663 7.56088 17.7284 7.52099 17.4953 7.46077L17.6037 7.43042C17.7795 7.47178 17.9581 7.50075 18.138 7.51713C18.1628 7.53569 18.1857 7.55676 18.2063 7.57999Z" fill="#333333"/>
<path d="M18.3146 7.76741C17.9499 7.74767 17.5893 7.681 17.2416 7.56907L17.1841 7.55064L17.2839 7.52246C17.6121 7.62706 17.9522 7.69005 18.2962 7.70997C18.3035 7.7287 18.3097 7.74789 18.3146 7.76741Z" fill="#333333"/>
<path d="M18.3633 7.95079C17.9808 7.93483 17.6024 7.86701 17.2382 7.74919L17.1808 7.73077C17.0724 7.69608 16.964 7.66574 16.8556 7.63972L16.964 7.60938C17.0431 7.62888 17.1222 7.65273 17.2003 7.67766L17.2577 7.69608C17.6112 7.80986 17.9782 7.87619 18.3492 7.89334L18.3633 7.95079Z" fill="#333333"/>
<path d="M18.4143 8.13196C18.0147 8.12058 17.6187 8.05234 17.2383 7.92928L17.1809 7.91085C16.9479 7.83511 16.7084 7.78069 16.4655 7.74828L16.5956 7.71143C16.7999 7.74505 17.0013 7.79396 17.1982 7.85775L17.2557 7.87617C17.6254 7.99518 18.0099 8.06265 18.398 8.07668L18.4143 8.13196Z" fill="#333333"/>
<path d="M18.4641 8.31289C18.0476 8.30608 17.6345 8.23741 17.2382 8.10913L17.1808 8.0907C16.7863 7.96314 16.375 7.89519 15.9604 7.8891L16.1371 7.84033C16.4977 7.86036 16.8544 7.92665 17.1981 8.03759L17.2556 8.05602C17.6411 8.18082 18.0427 8.24873 18.4478 8.25761L18.4641 8.31289Z" fill="#333333"/>
<path d="M14.2566 8.36559L14.5031 8.29639C14.422 8.32234 14.3399 8.34613 14.2566 8.36559Z" fill="#333333"/>
<path d="M18.515 8.49485C18.0815 8.49144 17.6511 8.42237 17.2383 8.29L17.1808 8.27158C16.4545 8.03828 15.6786 8.00532 14.9351 8.1762L15.438 8.0353C16.031 7.97282 16.6305 8.03484 17.1982 8.21739L17.2556 8.2369C17.6578 8.36668 18.0773 8.43465 18.4999 8.43849L18.515 8.49485Z" fill="#333333"/>
<path d="M18.5661 8.67576H18.5531C18.1068 8.67636 17.6631 8.60687 17.2384 8.46983L17.1809 8.4514C16.3319 8.17667 15.4179 8.17667 14.5688 8.4514C14.1174 8.60106 13.6441 8.67432 13.1685 8.66817L13.3755 8.60964C13.7735 8.59663 14.1676 8.5273 14.5461 8.40371C15.4072 8.12163 16.3355 8.11897 17.1983 8.39613L17.2557 8.41455C17.6758 8.55039 18.1148 8.61915 18.5563 8.61832L18.5661 8.67576Z" fill="#333333"/>
<path d="M18.6159 8.8546H18.5531C18.1068 8.8552 17.6631 8.78571 17.2384 8.64867L17.1809 8.63024C16.3313 8.35703 15.4171 8.35931 14.5688 8.63675C13.9538 8.83763 13.3014 8.89728 12.6602 8.81124L12.8022 8.77114C13.3901 8.83161 13.9842 8.7681 14.5461 8.58472C15.4073 8.30315 16.3354 8.3005 17.1983 8.57713L17.2557 8.59556C17.6901 8.73579 18.1444 8.80425 18.6008 8.79824L18.6159 8.8546Z" fill="#333333"/>
<path d="M18.6657 9.03445H18.5573C18.111 9.03452 17.6675 8.96505 17.2426 8.82852L17.1852 8.80901C16.3354 8.53691 15.4215 8.53919 14.5731 8.81552C13.8313 9.06004 13.0368 9.09752 12.2753 8.9239L12.3837 8.89139C13.1047 9.03964 13.8519 8.99705 14.5514 8.76783C15.4126 8.48626 16.3408 8.4836 17.2036 8.76024L17.261 8.77867C17.7114 8.92345 18.183 8.9916 18.6559 8.98026L18.6657 9.03445Z" fill="#333333"/>
<path d="M18.7167 9.21331C18.6625 9.21331 18.6083 9.21331 18.553 9.21331C18.1067 9.21391 17.6631 9.14442 17.2383 9.00738L17.1809 8.98895C16.3313 8.71598 15.4173 8.71788 14.5688 8.99437C13.7165 9.27348 12.7982 9.27879 11.9427 9.00955L12.0445 8.98137C12.8623 9.22388 13.7344 9.2133 14.5461 8.95102C15.4073 8.66928 16.3356 8.66701 17.1982 8.94451L17.2557 8.96294C17.7221 9.11243 18.2109 9.17991 18.7004 9.16237L18.7167 9.21331Z" fill="#333333"/>
<path d="M18.7654 9.39124C18.695 9.39124 18.6234 9.39124 18.5487 9.39124C18.1023 9.39184 17.6587 9.32235 17.234 9.18531L17.1765 9.16688C16.3275 8.89215 15.4135 8.89215 14.5644 9.16688C13.6973 9.45087 12.7621 9.45087 11.8949 9.16688C11.805 9.13762 11.715 9.11161 11.624 9.08776L11.7323 9.0585C11.7941 9.07476 11.8548 9.09426 11.9155 9.11377C12.7699 9.39233 13.6906 9.39233 14.5449 9.11377C15.4062 8.8322 16.3343 8.82955 17.1971 9.10619L17.2545 9.12461C17.7356 9.28441 18.2416 9.35601 18.7481 9.33596L18.7654 9.39124Z" fill="#333333"/>
<path d="M18.8152 9.56785C18.7275 9.57436 18.6408 9.57652 18.553 9.57652C18.1066 9.57713 17.663 9.50764 17.2383 9.37059L17.1808 9.35217C16.3312 9.07896 15.417 9.08123 14.5687 9.35867C13.7015 9.64213 12.7665 9.64213 11.8992 9.35867C11.6902 9.28984 11.476 9.23801 11.2587 9.20368L11.3844 9.16791C11.5657 9.20264 11.7445 9.24898 11.9198 9.30665C12.774 9.58618 13.695 9.58618 14.5492 9.30665C15.4105 9.02507 16.3386 9.02242 17.2014 9.29906L17.2588 9.31748C17.7571 9.47774 18.2808 9.54426 18.8033 9.51366L18.8152 9.56785Z" fill="#333333"/>
<path d="M18.8652 9.74537C18.7568 9.75296 18.6571 9.75729 18.553 9.75729C18.1067 9.75737 17.6632 9.68789 17.2383 9.55136L17.1809 9.53294C16.3319 9.25762 15.4177 9.25762 14.5688 9.53294C13.7014 9.8158 12.7666 9.8158 11.8993 9.53294C11.5399 9.41468 11.1662 9.34577 10.7883 9.32809L10.9498 9.28257C11.28 9.31256 11.6055 9.38094 11.9199 9.48633C12.7741 9.76587 13.6951 9.76587 14.5493 9.48633C15.4105 9.20476 16.3386 9.20211 17.2015 9.47875L17.2589 9.49717C17.7729 9.66227 18.3136 9.72775 18.8522 9.6901L18.8652 9.74537Z" fill="#333333"/>
<path d="M18.914 9.92628C18.7937 9.93604 18.6733 9.94146 18.553 9.94146C18.1067 9.94206 17.6631 9.87257 17.2383 9.73553L17.1809 9.7171C16.3319 9.44237 15.4178 9.44237 14.5688 9.7171C13.7016 10.0011 12.7665 10.0011 11.8993 9.7171C11.2968 9.52059 10.6579 9.4617 10.0297 9.54477L10.3342 9.45915C10.8712 9.4278 11.4092 9.49841 11.9199 9.66724C12.7742 9.9458 13.695 9.9458 14.5493 9.66724C15.4104 9.38464 16.3388 9.38198 17.2015 9.65966L17.2589 9.67808C17.7889 9.84853 18.3472 9.91298 18.902 9.86776L18.914 9.92628Z" fill="#333333"/>
<path d="M18.9648 10.0965C18.8287 10.1104 18.692 10.1173 18.5551 10.1171C18.1088 10.1177 17.6652 10.0482 17.2404 9.9112L17.183 9.89277C16.3334 9.61956 15.4192 9.62184 14.5709 9.89928C13.7037 10.1827 12.7687 10.1827 11.9014 9.89928C11.0493 9.62288 10.1317 9.62288 9.27958 9.89928L9.24598 9.91011C8.84423 10.0409 8.42524 10.111 8.00281 10.1182L8.23475 10.0499C8.57162 10.0251 8.90425 9.95957 9.22539 9.85484L9.25899 9.844C10.1222 9.56329 11.0522 9.56329 11.9155 9.844C12.7698 10.1226 13.6906 10.1226 14.5449 9.844C15.4061 9.56243 16.3343 9.55977 17.1971 9.83641L17.2545 9.85484C17.8001 10.0305 18.3758 10.0932 18.9464 10.0391L18.9648 10.0965Z" fill="#333333"/>
<path d="M19.0126 10.2722C18.86 10.2886 18.7066 10.297 18.5531 10.2972C18.1069 10.2976 17.6633 10.2285 17.2384 10.0923L17.1809 10.0728C16.3313 9.7996 15.4171 9.80188 14.5689 10.0793C13.7016 10.3628 12.7666 10.3628 11.8993 10.0793C11.0473 9.8024 10.1295 9.8024 9.27752 10.0793L9.24392 10.0902C8.6654 10.2778 8.05357 10.3403 7.44907 10.2733L7.49134 10.2592L7.59972 10.23C8.14953 10.2712 8.70211 10.205 9.22658 10.0349L9.26017 10.023C10.1235 9.74277 11.0533 9.74277 11.9167 10.023C12.7709 10.3025 13.6919 10.3025 14.5461 10.023C15.4073 9.74138 16.3354 9.73873 17.1983 10.0154L17.2557 10.0338C17.8174 10.2147 18.4107 10.276 18.9975 10.2137L19.0126 10.2722Z" fill="#333333"/>
<path d="M19.0613 10.448C18.8926 10.4684 18.7229 10.4786 18.553 10.4784C18.1067 10.4785 17.6632 10.409 17.2383 10.2725L17.1808 10.254C16.3318 9.97931 15.4178 9.97931 14.5688 10.254C13.7014 10.5369 12.7666 10.5369 11.8992 10.254C11.0473 9.9766 10.1293 9.9766 9.27741 10.254L9.24381 10.2649C8.59391 10.4753 7.90327 10.5281 7.22894 10.4188C7.24418 10.4008 7.26085 10.3842 7.2788 10.3689C7.93248 10.469 8.60049 10.4152 9.22972 10.2118L9.26332 10.2009C10.1267 9.92074 11.0565 9.92074 11.9198 10.2009C12.774 10.4805 13.6951 10.4805 14.5492 10.2009C15.4105 9.91936 16.3386 9.91671 17.2014 10.1933L17.2589 10.2118C17.8363 10.3977 18.4469 10.4573 19.0494 10.3863L19.0613 10.448Z" fill="#333333"/>
<path d="M19.1102 10.6214C18.9255 10.6461 18.7394 10.6584 18.5531 10.6582C18.1067 10.6588 17.6631 10.5893 17.2383 10.4523L17.1809 10.4339C16.3319 10.1591 15.4179 10.1591 14.5688 10.4339C13.7017 10.7179 12.7665 10.7179 11.8993 10.4339C11.0472 10.1575 10.1296 10.1575 9.27749 10.4339L9.24389 10.4447C8.56204 10.6651 7.83602 10.712 7.13147 10.5813C7.13785 10.5629 7.14582 10.5451 7.15531 10.5282C7.84634 10.6555 8.55822 10.6086 9.22655 10.3916L9.26015 10.3808C10.1234 10.1001 11.0534 10.1001 11.9167 10.3808C12.771 10.6593 13.6917 10.6593 14.5461 10.3808C15.4072 10.0987 16.3355 10.096 17.1982 10.3732L17.2557 10.3916C17.8499 10.583 18.4792 10.6404 19.0982 10.5596L19.1102 10.6214Z" fill="#333333"/>
<path d="M19.1579 10.7938C18.9576 10.8228 18.7555 10.8373 18.5531 10.8371C18.1068 10.8377 17.6631 10.7682 17.2384 10.6312L17.1809 10.6128C16.3313 10.3396 15.4171 10.3418 14.5689 10.6193C13.7016 10.9027 12.7666 10.9027 11.8994 10.6193C11.0473 10.3429 10.1296 10.3429 9.27753 10.6193L9.24393 10.6312C8.55048 10.8561 7.81113 10.9005 7.09575 10.7602C7.09414 10.7414 7.09414 10.7226 7.09575 10.7038C7.8052 10.8442 8.53879 10.8005 9.22659 10.577L9.26019 10.5662C10.1234 10.2855 11.0534 10.2855 11.9167 10.5662C12.771 10.8447 13.6918 10.8447 14.5461 10.5662C15.4073 10.2846 16.3355 10.2819 17.1983 10.5586L17.2557 10.577C17.8644 10.7729 18.5096 10.8281 19.1427 10.7385L19.1579 10.7938Z" fill="#333333"/>
<path d="M19.2066 10.9683C18.5474 11.0694 17.8737 11.0163 17.2384 10.8133L17.1809 10.7938C16.3311 10.5217 15.4173 10.524 14.5689 10.8003C13.7016 11.0837 12.7666 11.0837 11.8993 10.8003C11.0473 10.5234 10.1295 10.5234 9.27751 10.8003L9.24391 10.8111C8.55858 11.033 7.8285 11.0792 7.12066 10.9455V10.9271C7.11638 10.9133 7.11312 10.8991 7.1109 10.8848C7.81724 11.0232 8.54717 10.9795 9.23199 10.758L9.26559 10.7461C10.1289 10.4659 11.0588 10.4659 11.9221 10.7461C12.7763 11.0256 13.6973 11.0256 14.5515 10.7461C15.4127 10.4645 16.3409 10.4619 17.2037 10.7385L17.2611 10.7569C17.8856 10.9581 18.5483 11.0112 19.1969 10.9119L19.2066 10.9683Z" fill="#333333"/>
<path d="M19.2553 11.1415C19.0231 11.1796 18.7882 11.1988 18.5529 11.1989C18.1066 11.1995 17.663 11.1301 17.2382 10.993L17.1808 10.9746C16.3318 10.6999 15.4177 10.6999 14.5687 10.9746C13.7014 11.2574 12.7666 11.2574 11.8992 10.9746C11.0473 10.6971 10.1293 10.6971 9.27737 10.9746L9.24377 10.9854C8.57574 11.2013 7.86512 11.2507 7.17362 11.1296L7.15628 11.0689C7.847 11.1953 8.5583 11.1484 9.22643 10.9323L9.26003 10.9215C10.1234 10.6413 11.0532 10.6413 11.9165 10.9215C12.7707 11.201 13.6918 11.201 14.546 10.9215C15.4072 10.6397 16.3355 10.6375 17.1981 10.915L17.2556 10.9334C17.8962 11.1385 18.5762 11.189 19.2401 11.0808L19.2553 11.1415Z" fill="#333333"/>
<path d="M19.303 11.3127C18.6136 11.435 17.9048 11.387 17.2383 11.1728L17.1808 11.1544C16.3318 10.8797 15.4178 10.8797 14.5687 11.1544C13.7016 11.4384 12.7664 11.4384 11.8992 11.1544C11.0471 10.878 10.1295 10.878 9.27739 11.1544L9.24379 11.1653C8.5928 11.3759 7.90096 11.4283 7.22567 11.3181L7.20941 11.2585C7.8832 11.3751 8.5752 11.3271 9.22645 11.1187L9.26005 11.1078C10.1233 10.8271 11.0533 10.8271 11.9166 11.1078C12.7709 11.3864 13.6916 11.3864 14.546 11.1078C15.4071 10.8257 16.3354 10.8231 17.1981 11.1002L17.2556 11.1187C17.9122 11.3302 18.6106 11.3782 19.29 11.2585L19.303 11.3127Z" fill="#333333"/>
<path d="M19.3508 11.4842C18.6467 11.6174 17.9206 11.5723 17.2384 11.3531L17.1809 11.3347C16.3313 11.0615 15.4171 11.0637 14.5689 11.3412C13.7016 11.6246 12.7666 11.6246 11.8993 11.3412C11.0473 11.0648 10.1296 11.0648 9.27752 11.3412L9.24392 11.3531C8.61031 11.5587 7.93747 11.6136 7.27891 11.5135L7.2594 11.4528C7.91723 11.5554 8.58996 11.5019 9.22333 11.2967L9.25693 11.2859C10.1203 11.0057 11.0501 11.0057 11.9134 11.2859C12.7678 11.5645 13.6885 11.5645 14.5429 11.2859C15.4041 11.0043 16.3322 11.0017 17.195 11.2783L17.2525 11.2967C17.9241 11.513 18.6391 11.5577 19.3324 11.4268L19.3508 11.4842Z" fill="#333333"/>
<path d="M19.3985 11.6609C18.6799 11.8057 17.9362 11.764 17.2384 11.5395L17.1809 11.52C16.3311 11.2479 15.4173 11.2502 14.5689 11.5265C13.7015 11.8094 12.7667 11.8094 11.8993 11.5265C11.0474 11.2491 10.1294 11.2491 9.27752 11.5265L9.24392 11.5373C8.62717 11.7373 7.97309 11.7948 7.33092 11.7053L7.31467 11.6457C7.95594 11.7384 8.60993 11.6832 9.22657 11.4842L9.26017 11.4734C10.1235 11.1932 11.0533 11.1932 11.9167 11.4734C12.7709 11.7529 13.6919 11.7529 14.5461 11.4734C15.4073 11.1918 16.3354 11.1892 17.1983 11.4658L17.2557 11.4842C17.943 11.705 18.6753 11.7468 19.3833 11.6056L19.3985 11.6609Z" fill="#333333"/>
<path d="M19.4462 11.8255C18.7135 11.9829 17.9523 11.9455 17.2384 11.7171L17.181 11.6987C16.3314 11.4258 15.4174 11.4277 14.5689 11.7041C13.7017 11.9881 12.7666 11.9881 11.8994 11.7041C11.0474 11.4272 10.1296 11.4272 9.27757 11.7041L9.24397 11.715C8.64445 11.9096 8.00933 11.9691 7.38409 11.8895L7.36783 11.832C7.99245 11.9139 8.62746 11.8554 9.22663 11.6608L9.26023 11.65C10.1235 11.3692 11.0535 11.3692 11.9167 11.65C12.7711 11.9285 13.6918 11.9285 14.5461 11.65C15.4072 11.3673 16.3357 11.3647 17.1983 11.6424L17.2558 11.6608C17.959 11.886 18.7089 11.9233 19.431 11.7692L19.4462 11.8255Z" fill="#333333"/>
<path d="M19.4938 11.9954C18.7463 12.1629 17.9677 12.1277 17.2383 11.8936L17.1809 11.8751C16.3318 11.6004 15.4178 11.6004 14.5688 11.8751C13.7016 12.1591 12.7665 12.1591 11.8993 11.8751C11.0472 11.5987 10.1295 11.5987 9.27745 11.8751L9.24385 11.886C8.66116 12.0751 8.04462 12.1369 7.436 12.067L7.41974 12.0095C8.02769 12.0819 8.64411 12.0217 9.22651 11.8329L9.26011 11.822C10.1234 11.5413 11.0534 11.5413 11.9166 11.822C12.771 12.1006 13.6917 12.1006 14.546 11.822C15.4073 11.5405 16.3354 11.5378 17.1982 11.8144L17.2557 11.8329C17.9744 12.0644 18.7421 12.0988 19.4786 11.9326L19.4938 11.9954Z" fill="#333333"/>
<path d="M19.5416 12.1645C18.7799 12.3441 17.9836 12.3127 17.2384 12.0735L17.181 12.055C16.3314 11.7818 15.4171 11.7841 14.5689 12.0616C13.7016 12.345 12.7666 12.345 11.8994 12.0616C11.0474 11.7846 10.1296 11.7846 9.27755 12.0616L9.24395 12.0724C8.67797 12.2558 8.07999 12.3193 7.48812 12.2588L7.4762 12.2025C8.06733 12.2658 8.66519 12.2042 9.23095 12.0214L9.26454 12.0095C10.1279 11.7293 11.0577 11.7293 11.9211 12.0095C12.7753 12.2886 13.6962 12.2886 14.5505 12.0095C15.4117 11.728 16.3398 11.7253 17.2026 12.0019L17.2601 12.0204C17.9964 12.257 18.7833 12.2885 19.5362 12.1114L19.5416 12.1645Z" fill="#333333"/>
<path d="M19.5881 12.3326C19.2496 12.4177 18.902 12.4607 18.553 12.4604C18.1067 12.4605 17.6632 12.391 17.2383 12.2545L17.1808 12.2361C16.3318 11.9614 15.4178 11.9614 14.5688 12.2361C13.7014 12.5189 12.7666 12.5189 11.8992 12.2361C11.0473 11.9587 10.1293 11.9587 9.27742 12.2361L9.24382 12.2469C8.69426 12.4251 8.11435 12.4904 7.53893 12.4388L7.52267 12.3802C8.09679 12.4376 8.67656 12.3771 9.22648 12.2025L9.26008 12.1917C10.1234 11.9115 11.0533 11.9115 11.9166 12.1917C12.7708 12.4712 13.6918 12.4712 14.546 12.1917C15.4072 11.9101 16.3354 11.9074 17.1982 12.1841L17.2556 12.2025C18.0057 12.4435 18.8081 12.4709 19.5729 12.2816L19.5881 12.3326Z" fill="#333333"/>
<path d="M19.6358 12.5015C18.8464 12.7071 18.0149 12.6838 17.2383 12.4343L17.1808 12.4159C16.3318 12.1412 15.4178 12.1412 14.5688 12.4159C13.7016 12.6999 12.7664 12.6999 11.8993 12.4159C11.0472 12.1395 10.1295 12.1395 9.27743 12.4159L9.24383 12.4267C8.71096 12.5994 8.14944 12.666 7.59096 12.6229L7.57471 12.5666C8.13264 12.6118 8.694 12.5462 9.22649 12.3736L9.26009 12.3628C10.1233 12.0821 11.0533 12.0821 11.9166 12.3628C12.7709 12.6414 13.6917 12.6414 14.546 12.3628C15.4072 12.0812 16.3354 12.0786 17.1982 12.3552L17.2556 12.3736C18.0217 12.6196 18.842 12.6425 19.6206 12.4397L19.6358 12.5015Z" fill="#333333"/>
<path d="M19.6824 12.6696C18.8795 12.8878 18.0305 12.8686 17.2383 12.6144L17.1809 12.5959C16.3313 12.3227 15.4171 12.325 14.5688 12.6024C13.7015 12.8859 12.7666 12.8859 11.8993 12.6024C11.0472 12.326 10.1296 12.326 9.27747 12.6024L9.24387 12.6144C8.72736 12.7817 8.18367 12.849 7.64194 12.8127L7.62677 12.7563C8.16766 12.794 8.71075 12.7274 9.22653 12.5602L9.26013 12.5493C10.1234 12.2686 11.0534 12.2686 11.9166 12.5493C12.771 12.8279 13.6917 12.8279 14.5461 12.5493C15.4073 12.2678 16.3354 12.2651 17.1982 12.5417L17.2557 12.5602C18.0373 12.8114 18.8751 12.8302 19.6672 12.6144L19.6824 12.6696Z" fill="#333333"/>
<path d="M19.729 12.8367C18.9121 13.0686 18.045 13.0543 17.2362 12.7955L17.1787 12.776C16.329 12.5034 15.415 12.5057 14.5667 12.7825C13.6994 13.066 12.7644 13.066 11.8971 12.7825C11.0451 12.5056 10.1273 12.5056 9.27531 12.7825L9.24171 12.7934C8.74223 12.9552 8.21717 13.0236 7.69289 12.995L7.67664 12.9375C8.20078 12.9703 8.72642 12.9048 9.22654 12.7446L9.26014 12.7327C10.1235 12.4525 11.0533 12.4525 11.9166 12.7327C12.7708 13.0122 13.6919 13.0122 14.5461 12.7327C15.4073 12.4511 16.3354 12.4484 17.1982 12.7251L17.2557 12.7435C18.053 12.9997 18.9084 13.014 19.7138 12.7847L19.729 12.8367Z" fill="#333333"/>
<path d="M19.7756 13.0023C19.3789 13.1205 18.967 13.1797 18.553 13.1778C18.1067 13.1784 17.6631 13.109 17.2383 12.9719L17.1809 12.9535C16.3313 12.6805 15.4173 12.6824 14.5688 12.9589C13.7015 13.2418 12.7667 13.2418 11.8993 12.9589C11.0474 12.6815 10.1294 12.6815 9.27749 12.9589L9.24389 12.9697C8.7604 13.1269 8.25294 13.1973 7.74493 13.1778L7.72867 13.1204C8.23602 13.1437 8.74342 13.0754 9.22654 12.9188L9.26014 12.908C10.1235 12.6278 11.0533 12.6278 11.9167 12.908C12.7708 13.1875 13.6919 13.1875 14.5461 12.908C15.4073 12.6264 16.3354 12.6237 17.1982 12.9004L17.2557 12.9199C18.069 13.1802 18.9417 13.1896 19.7605 12.947L19.7756 13.0023Z" fill="#333333"/>
<path d="M19.8222 13.1681C18.9801 13.4297 18.0778 13.4252 17.2383 13.1551L17.1809 13.1367C16.3319 12.8619 15.4179 12.8619 14.5688 13.1367C13.7017 13.4207 12.7665 13.4207 11.8993 13.1367C11.0474 12.8592 10.1294 12.8592 9.27749 13.1367L9.24389 13.1475C8.77861 13.2998 8.2907 13.3713 7.80129 13.3589L7.78503 13.3025C8.27552 13.3191 8.76514 13.2501 9.23197 13.0987L9.26557 13.0879C10.1288 12.8072 11.0588 12.8072 11.9221 13.0879C12.7764 13.3665 13.6972 13.3665 14.5515 13.0879C15.4127 12.8063 16.3408 12.8037 17.2037 13.0803L17.2611 13.0987C18.09 13.3653 18.9809 13.3698 19.8125 13.1117L19.8222 13.1681Z" fill="#333333"/>
<path d="M19.8689 13.3351C19.0136 13.6096 18.0937 13.6096 17.2384 13.3351L17.1809 13.3166C16.3313 13.0434 15.4171 13.0457 14.5689 13.3231C13.7016 13.6066 12.7666 13.6066 11.8994 13.3231C11.0473 13.0467 10.1296 13.0467 9.27753 13.3231L9.24393 13.3351C8.79259 13.4811 8.32008 13.5511 7.84577 13.5421L7.8306 13.4857C8.30417 13.497 8.77623 13.4277 9.22659 13.2809L9.26019 13.27C10.1234 12.9893 11.0534 12.9893 11.9167 13.27C12.771 13.5486 13.6918 13.5486 14.5461 13.27C15.4073 12.9885 16.3355 12.9858 17.1983 13.2624L17.2557 13.2809C18.1015 13.553 19.0112 13.553 19.857 13.2809L19.8689 13.3351Z" fill="#333333"/>
<path d="M19.9143 13.5031L19.8807 13.514C19.0231 13.7907 18.1002 13.7907 17.2426 13.514L17.1852 13.4945C16.3354 13.2224 15.4215 13.2246 14.5731 13.501C13.7057 13.7838 12.7709 13.7838 11.9036 13.501C11.0516 13.2235 10.1337 13.2235 9.28174 13.501L9.24814 13.5118C8.81169 13.6532 8.35535 13.7235 7.89658 13.7199L7.88141 13.6625C8.33788 13.6673 8.79211 13.5981 9.22646 13.4576L9.26006 13.4468C10.1234 13.1666 11.0532 13.1666 11.9166 13.4468C12.7708 13.7263 13.6918 13.7263 14.546 13.4468C15.4072 13.1652 16.3353 13.1626 17.1982 13.4392L17.2556 13.4576C18.1013 13.7297 19.0111 13.7297 19.8568 13.4576L19.8904 13.4468H19.8969L19.9143 13.5031Z" fill="#333333"/>
<path d="M19.9609 13.6664L19.91 13.6816L19.8764 13.6924C19.0188 13.9692 18.0959 13.9692 17.2383 13.6924L17.1809 13.674C16.3318 13.3993 15.4178 13.3993 14.5688 13.674C13.7016 13.958 12.7665 13.958 11.8993 13.674C11.0473 13.3966 10.1294 13.3966 9.27745 13.674L9.24385 13.6848C8.8237 13.8213 8.38496 13.8918 7.94323 13.894L7.92697 13.8377C8.36864 13.8378 8.80756 13.7683 9.22759 13.6317L9.26119 13.6209C10.1244 13.3402 11.0544 13.3402 11.9177 13.6209C12.772 13.8995 13.6928 13.8995 14.5471 13.6209C15.4082 13.3383 16.3366 13.3356 17.1993 13.6133L17.2567 13.6317C18.1025 13.9038 19.0122 13.9038 19.858 13.6317L19.8916 13.6209L19.9447 13.6046L19.9609 13.6664Z" fill="#333333"/>
<path d="M20.0075 13.8284L19.91 13.8588L19.8764 13.8696C19.0188 14.1464 18.0959 14.1464 17.2383 13.8696L17.1809 13.8512C16.3318 13.5765 15.4178 13.5765 14.5688 13.8512C13.7016 14.1352 12.7664 14.1352 11.8993 13.8512C11.0472 13.5748 10.1295 13.5748 9.27744 13.8512L9.24384 13.862C8.8411 13.9933 8.42095 14.0635 7.99741 14.0701L7.98224 14.0149C8.405 14.0094 8.8245 13.9399 9.2265 13.8089L9.2601 13.7981C10.1234 13.5174 11.0533 13.5174 11.9166 13.7981C12.7709 14.0767 13.6917 14.0767 14.546 13.7981C15.4073 13.5165 16.3354 13.5139 17.1982 13.7905L17.2556 13.8089C18.1013 14.0816 19.0112 14.0816 19.8569 13.8089L19.8905 13.7981C19.9241 13.7873 19.9566 13.7764 19.9902 13.7678L20.0075 13.8284Z" fill="#333333"/>
<path d="M20.04 14.003L19.91 14.0431L19.8764 14.0539C19.0187 14.3299 18.096 14.3299 17.2383 14.0539L17.1808 14.0355C16.3312 13.7623 15.417 13.7646 14.5688 14.042C13.7015 14.3255 12.7665 14.3255 11.8992 14.042C11.0472 13.7651 10.1294 13.7651 9.27741 14.042L9.24381 14.0528C8.85824 14.178 8.4568 14.2478 8.05158 14.2598L8.03641 14.2035C8.44159 14.1937 8.8432 14.125 9.22864 13.9997L9.26224 13.9878C10.1255 13.7071 11.0555 13.7071 11.9187 13.9878C12.7729 14.2673 13.694 14.2673 14.5482 13.9878C15.4094 13.7062 16.3375 13.7036 17.2003 13.9802L17.2578 13.9986C18.1035 14.2707 19.0133 14.2707 19.859 13.9986L19.8926 13.9867C19.9392 13.9715 19.9869 13.9564 20.0346 13.9434C20.0381 13.963 20.0399 13.983 20.04 14.003Z" fill="#333333"/>
<path d="M20.0302 14.1287C20.027 14.1497 20.0219 14.1704 20.0151 14.1905C19.9804 14.2002 19.9446 14.2111 19.9067 14.223L19.8731 14.2338C19.0155 14.5106 18.0926 14.5106 17.235 14.2338L17.1775 14.2154C16.328 13.9424 15.4139 13.9443 14.5655 14.2208C13.6981 14.5037 12.7633 14.5037 11.896 14.2208C11.044 13.9434 10.1261 13.9434 9.27413 14.2208L9.24053 14.2317C8.86953 14.3525 8.48368 14.4218 8.09382 14.4376L8.07864 14.3812C8.46771 14.3671 8.85292 14.2989 9.22319 14.1786L9.25679 14.1677C10.1201 13.8875 11.05 13.8875 11.9133 14.1677C12.7675 14.4473 13.6885 14.4473 14.5427 14.1677C15.4039 13.8862 16.3321 13.8835 17.1949 14.1601L17.2523 14.1786C18.0981 14.4507 19.0078 14.4507 19.8536 14.1786L19.8872 14.1677C19.9403 14.1536 19.9836 14.1406 20.0302 14.1287Z" fill="#333333"/>
<path d="M19.9403 14.3334C19.9204 14.3621 19.8979 14.389 19.8731 14.4136C19.0155 14.6904 18.0926 14.6904 17.2351 14.4136L17.1776 14.3952C16.3286 14.1205 15.4146 14.1205 14.5655 14.3952C13.6984 14.6792 12.7632 14.6792 11.896 14.3952C11.0439 14.1188 10.1263 14.1188 9.2742 14.3952L9.2406 14.406C8.8856 14.522 8.51674 14.5902 8.14375 14.6087L8.12857 14.5534C8.50076 14.5356 8.86891 14.4682 9.22326 14.3529L9.25686 14.3421C10.1201 14.0614 11.0501 14.0614 11.9134 14.3421C12.7677 14.6207 13.6884 14.6207 14.5428 14.3421C15.4038 14.0595 16.3323 14.0568 17.195 14.3345L17.2524 14.3529C18.0981 14.625 19.0079 14.625 19.8536 14.3529L19.8872 14.3421L19.9403 14.3334Z" fill="#333333"/>
<path d="M19.0244 14.7202L18.748 14.8037C18.683 14.8037 18.6179 14.8037 18.5529 14.8037C18.1066 14.8043 17.663 14.7348 17.2382 14.5978L17.1808 14.5793C16.3312 14.3061 15.4169 14.3084 14.5687 14.5858C13.7014 14.8693 12.7664 14.8693 11.8992 14.5858C11.0471 14.3094 10.1294 14.3094 9.27735 14.5858L9.24375 14.5978C8.90464 14.7084 8.55281 14.7754 8.19675 14.7972L8.18158 14.7419C8.53687 14.7204 8.88797 14.6538 9.22641 14.5436L9.26001 14.5327C10.1233 14.252 11.0533 14.252 11.9165 14.5327C12.7709 14.8113 13.6916 14.8113 14.5459 14.5327C15.4072 14.2511 16.3353 14.2485 17.1981 14.5251L17.2555 14.5436C17.826 14.727 18.4289 14.7872 19.0244 14.7202Z" fill="#333333"/>
<path d="M18.3145 14.9196L18.1584 14.9629C17.8464 14.936 17.5384 14.8739 17.2404 14.7776L17.183 14.7581C16.3332 14.4855 15.4192 14.4877 14.5709 14.7646C13.7036 15.048 12.7686 15.048 11.9014 14.7646C11.0494 14.4877 10.1315 14.4877 9.27954 14.7646L9.24594 14.7754C8.92269 14.881 8.58789 14.9472 8.2488 14.9727L8.23471 14.912C8.57339 14.8881 8.90789 14.823 9.23077 14.718L9.26437 14.7061C10.1278 14.4264 11.0575 14.4264 11.9209 14.7061C12.7751 14.9856 13.6961 14.9856 14.5503 14.7061C15.4115 14.4245 16.3396 14.4218 17.2025 14.6985L17.2599 14.7169C17.6012 14.8296 17.9557 14.8977 18.3145 14.9196Z" fill="#333333"/>
<path d="M17.8518 15.0488L17.7271 15.0834C17.5618 15.0512 17.3986 15.0093 17.2383 14.9577L17.1809 14.9393C16.3313 14.6663 15.4172 14.6682 14.5688 14.9447C13.7014 15.2276 12.7666 15.2276 11.8993 14.9447C11.0473 14.6673 10.1294 14.6673 9.27744 14.9447L9.24384 14.9556C8.93623 15.0561 8.61797 15.1204 8.29548 15.1474L8.2803 15.0921C8.60208 15.0664 8.91968 15.0028 9.2265 14.9024L9.2601 14.8916C10.1234 14.6114 11.0533 14.6114 11.9166 14.8916C12.7708 15.1711 13.6918 15.1711 14.546 14.8916C15.4073 14.61 16.3354 14.6074 17.1982 14.884L17.2556 14.9035C17.4504 14.967 17.6497 15.0155 17.8518 15.0488Z" fill="#333333"/>
<path d="M17.4855 15.1506L17.3771 15.1809L17.2362 15.1376L17.1787 15.1191C16.3292 14.8462 15.4151 14.8481 14.5667 15.1245C13.6995 15.4085 12.7643 15.4085 11.8972 15.1245C11.0451 14.8482 10.1274 14.8482 9.27533 15.1245L9.24173 15.1354C8.94965 15.2307 8.64797 15.2936 8.34214 15.3229L8.32697 15.2687C8.63213 15.2403 8.93315 15.1777 9.22439 15.0823L9.25799 15.0714C10.1212 14.7907 11.0512 14.7907 11.9145 15.0714C12.7688 15.35 13.6896 15.35 14.5439 15.0714C15.4051 14.7894 16.3333 14.7867 17.1961 15.0639L17.2535 15.0823C17.3316 15.1094 17.4074 15.1289 17.4855 15.1506Z" fill="#333333"/>
<path d="M17.1721 15.2376L17.0724 15.2658C16.2531 15.0256 15.3802 15.0392 14.5687 15.3048C13.7015 15.5882 12.7665 15.5882 11.8992 15.3048C11.0471 15.0284 10.1295 15.0284 9.2774 15.3048L9.2438 15.3167C8.96746 15.4063 8.68277 15.4676 8.39407 15.4999L8.37781 15.4446C8.6662 15.4133 8.95059 15.3522 9.22646 15.2625L9.26006 15.2517C10.1233 14.971 11.0533 14.971 11.9166 15.2517C12.7709 15.5302 13.6916 15.5302 14.546 15.2517C15.3985 14.9734 16.3167 14.9685 17.1721 15.2376Z" fill="#333333"/>
<path d="M16.846 15.3297L16.7311 15.3622C16.0118 15.2157 15.2668 15.2583 14.5689 15.4858C13.7015 15.7686 12.7667 15.7686 11.8993 15.4858C11.0474 15.2083 10.1294 15.2083 9.27752 15.4858L9.24392 15.4966C8.98324 15.5806 8.71498 15.6391 8.44295 15.6711L8.4267 15.6158C8.69839 15.5834 8.96628 15.5246 9.22658 15.4402L9.26018 15.4283C10.1236 15.1486 11.0533 15.1486 11.9167 15.4283C12.7709 15.7078 13.6919 15.7078 14.5461 15.4283C15.2895 15.187 16.0847 15.1529 16.846 15.3297Z" fill="#333333"/>
<path d="M16.4536 15.4389L16.3116 15.479C15.7236 15.4204 15.1299 15.4858 14.5687 15.6708C13.7014 15.9537 12.7666 15.9537 11.8992 15.6708C11.0472 15.3939 10.1294 15.3939 9.27741 15.6708L9.24381 15.6817C8.9968 15.7623 8.7428 15.8196 8.48511 15.8529L8.46994 15.7977C8.72511 15.7653 8.97662 15.7087 9.22105 15.6286L9.25465 15.6177C10.1179 15.337 11.0479 15.337 11.9112 15.6177C12.7655 15.8963 13.6862 15.8963 14.5406 15.6177C15.1565 15.4141 15.8106 15.353 16.4536 15.4389Z" fill="#333333"/>
<path d="M15.9431 15.5821L15.7393 15.6396C15.3414 15.6526 14.9473 15.7219 14.5688 15.8455C13.7016 16.1295 12.7664 16.1295 11.8993 15.8455C11.0472 15.5691 10.1295 15.5691 9.27744 15.8455L9.24384 15.8563C9.01422 15.9313 8.77849 15.986 8.53934 16.02L8.52417 15.9658C8.76258 15.9322 8.99759 15.8778 9.2265 15.8032L9.2601 15.7924C10.1234 15.5117 11.0534 15.5117 11.9166 15.7924C12.7709 16.0709 13.6917 16.0709 14.546 15.7924C14.9969 15.6454 15.469 15.5744 15.9431 15.5821Z" fill="#333333"/>
<path d="M14.1591 16.0806L13.6757 16.2128C13.0769 16.2759 12.4715 16.2116 11.8992 16.0242C11.0472 15.7473 10.1294 15.7473 9.27742 16.0242L9.24382 16.0351C9.03164 16.1047 8.81415 16.1568 8.59351 16.1912L8.57834 16.137C8.79898 16.1026 9.01646 16.0504 9.22865 15.9809L9.26225 15.9701C10.1255 15.6893 11.0555 15.6893 11.9188 15.9701C12.6419 16.208 13.416 16.2462 14.1591 16.0806Z" fill="#333333"/>
<path d="M13.1533 16.3625L12.9755 16.4112C12.6094 16.3911 12.2476 16.3229 11.8992 16.2086C11.0473 15.9311 10.1293 15.9311 9.27742 16.2086L9.24382 16.2194C9.04516 16.2844 8.84191 16.3344 8.63578 16.369L8.62061 16.3137C8.82605 16.2802 9.02861 16.2309 9.22648 16.1663L9.26008 16.1555C10.1234 15.8753 11.0532 15.8753 11.9166 16.1555C12.3162 16.2858 12.733 16.3556 13.1533 16.3625Z" fill="#333333"/>
<path d="M12.6482 16.5035L12.5148 16.5404C12.306 16.5057 12.1002 16.455 11.8992 16.3886C11.0471 16.1122 10.1295 16.1122 9.2774 16.3886L9.2438 16.3995C9.06051 16.4594 8.87327 16.5065 8.68345 16.5404L8.66827 16.4862C8.85734 16.4525 9.04384 16.4058 9.22646 16.3464L9.26005 16.3355C10.1233 16.0548 11.0533 16.0548 11.9166 16.3355C12.1548 16.4136 12.3997 16.4698 12.6482 16.5035Z" fill="#333333"/>
<path d="M12.2614 16.6119L12.153 16.6423C12.0674 16.6206 11.9829 16.5957 11.8994 16.5686C11.0473 16.2922 10.1297 16.2922 9.27757 16.5686L9.24397 16.5805C9.07643 16.6351 8.90555 16.6789 8.7324 16.7116L8.71722 16.6574C8.88964 16.6246 9.05979 16.5808 9.22663 16.5263L9.26023 16.5155C10.1235 16.2348 11.0535 16.2348 11.9167 16.5155C12.0284 16.5523 12.1454 16.5848 12.2614 16.6119Z" fill="#333333"/>
<path d="M11.9383 16.7014L11.8385 16.7296C11.0036 16.4705 10.109 16.4762 9.27742 16.7459L9.24382 16.7567C9.09063 16.8066 8.93465 16.8475 8.77668 16.8792L8.76151 16.8239C8.91766 16.793 9.07184 16.7528 9.22322 16.7036L9.25682 16.6917C10.1202 16.412 11.0499 16.412 11.9133 16.6917L11.9383 16.7014Z" fill="#333333"/>
<path d="M11.6207 16.7905L11.5124 16.8219C10.7725 16.658 10.0023 16.6954 9.2818 16.9303L9.2482 16.9411C9.11188 16.9847 8.97331 17.0209 8.83309 17.0495C8.83309 17.0376 8.82442 17.0246 8.82117 17.0127V16.9953C8.96106 16.9668 9.09928 16.9307 9.2352 16.8869L9.2688 16.8761C10.0295 16.6292 10.8441 16.5995 11.6207 16.7905Z" fill="#333333"/>
<path d="M11.2468 16.8943L11.1114 16.9334C10.4948 16.8558 9.86877 16.9146 9.27749 17.1057L9.24389 17.1165C9.1355 17.1512 9.02712 17.1826 8.91873 17.2087C8.90585 17.1927 8.8939 17.1761 8.88297 17.1588C8.99894 17.1328 9.11382 17.1003 9.22654 17.0634L9.26014 17.0526C9.90086 16.8451 10.5813 16.7909 11.2468 16.8943Z" fill="#333333"/>
<path d="M10.7709 17.0279L10.5856 17.0799C10.144 17.0799 9.70504 17.1494 9.28499 17.2859L9.25139 17.2978C9.19937 17.3151 9.14301 17.3303 9.09424 17.3455C9.07085 17.3334 9.04839 17.3197 9.02704 17.3043C9.0964 17.287 9.16577 17.2664 9.23405 17.2436L9.26765 17.2328C9.75267 17.076 10.2617 17.0066 10.7709 17.0279Z" fill="#333333"/>
<path d="M9.9917 17.2458L9.48446 17.3878C9.41964 17.4059 9.35201 17.4118 9.28503 17.4052C9.51551 17.3316 9.75196 17.2783 9.9917 17.2458Z" fill="#333333"/>
<path d="M17.1566 7.05489L6.99603 9.89559C6.70779 9.97617 6.53945 10.2752 6.62004 10.5634L8.32171 16.6499C8.4023 16.9382 8.7013 17.1065 8.98954 17.0259L19.1501 14.1852C19.4383 14.1046 19.6067 13.8056 19.5261 13.5174L17.8244 7.43088C17.7438 7.14264 17.4448 6.9743 17.1566 7.05489Z" fill="#BDBDBD"/>
<path d="M17.5548 8.33862H7.0046C6.7053 8.33862 6.46268 8.58125 6.46268 8.88055V15.2005C6.46268 15.4998 6.7053 15.7424 7.0046 15.7424H17.5548C17.8541 15.7424 18.0967 15.4998 18.0967 15.2005V8.88055C18.0967 8.58125 17.8541 8.33862 17.5548 8.33862Z" fill="#333333"/>
<path d="M17.3044 12.9784H7.24198C7.20778 12.9784 7.17497 12.9648 7.15078 12.9406C7.1266 12.9165 7.11301 12.8836 7.11301 12.8494C7.11301 12.8152 7.1266 12.7824 7.15078 12.7582C7.17497 12.734 7.20778 12.7205 7.24198 12.7205H17.3044C17.3386 12.7205 17.3714 12.734 17.3956 12.7582C17.4198 12.7824 17.4334 12.8152 17.4334 12.8494C17.4334 12.8836 17.4198 12.9165 17.3956 12.9406C17.3714 12.9648 17.3386 12.9784 17.3044 12.9784Z" fill="#BDBDBD"/>
<path d="M9.58212 14.1924H7.24209C7.20702 14.1924 7.17339 14.1785 7.14859 14.1537C7.12379 14.1289 7.10986 14.0953 7.10986 14.0602C7.10986 14.0251 7.12379 13.9915 7.14859 13.9667C7.17339 13.9419 7.20702 13.928 7.24209 13.928H9.58212C9.61719 13.928 9.65082 13.9419 9.67562 13.9667C9.70042 13.9915 9.71435 14.0251 9.71435 14.0602C9.71435 14.0953 9.70042 14.1289 9.67562 14.1537C9.65082 14.1785 9.61719 14.1924 9.58212 14.1924Z" fill="#BDBDBD"/>
<path d="M17.2308 14.1894H15.7741C15.7399 14.1894 15.707 14.1758 15.6829 14.1516C15.6587 14.1274 15.6451 14.0946 15.6451 14.0604C15.6451 14.0262 15.6587 13.9934 15.6829 13.9692C15.707 13.945 15.7399 13.9314 15.7741 13.9314H17.2308C17.265 13.9314 17.2978 13.945 17.322 13.9692C17.3461 13.9934 17.3597 14.0262 17.3597 14.0604C17.3597 14.0946 17.3461 14.1274 17.322 14.1516C17.2978 14.1758 17.265 14.1894 17.2308 14.1894Z" fill="#BDBDBD"/>
<path d="M8.66826 10.4361H8.65526H8.64767C8.55046 10.4 8.44357 10.4 8.34636 10.4361C8.24149 10.4751 8.12608 10.4751 8.02121 10.4361C7.92294 10.3997 7.81491 10.3997 7.71665 10.4361C7.61167 10.4745 7.49647 10.4745 7.39149 10.4361H7.38391C7.36469 10.4296 7.34515 10.4242 7.32538 10.4198L7.35464 10.3992L7.39366 10.4111H7.40016C7.49778 10.447 7.60494 10.447 7.70256 10.4111C7.80748 10.3724 7.92279 10.3724 8.02771 10.4111C8.1257 10.4469 8.2332 10.4469 8.33119 10.4111C8.41936 10.3786 8.51527 10.3733 8.60649 10.396C8.62901 10.4061 8.64985 10.4196 8.66826 10.4361Z" fill="#BDBDBD"/>
<path d="M8.72259 10.5553C8.69977 10.5508 8.67731 10.5447 8.65539 10.5369H8.64889C8.55118 10.5016 8.44421 10.5016 8.3465 10.5369C8.24163 10.5759 8.12621 10.5759 8.02134 10.5369C7.92298 10.5011 7.81515 10.5011 7.71678 10.5369C7.61186 10.5756 7.49655 10.5756 7.39163 10.5369C7.34914 10.5212 7.3046 10.5117 7.2594 10.5087C7.26235 10.5001 7.26598 10.4918 7.27024 10.4838C7.31316 10.4865 7.35549 10.4952 7.39596 10.5098C7.49396 10.5456 7.60145 10.5456 7.69944 10.5098C7.80436 10.471 7.91967 10.471 8.0246 10.5098C8.12259 10.5456 8.23008 10.5456 8.32807 10.5098C8.43305 10.4713 8.54825 10.4713 8.65323 10.5098C8.67095 10.516 8.68905 10.521 8.70742 10.5249C8.71326 10.5347 8.71834 10.5448 8.72259 10.5553Z" fill="#BDBDBD"/>
<path d="M8.72361 10.6345V10.6616C8.70032 10.6571 8.67747 10.6506 8.65533 10.6421H8.64774C8.54975 10.6063 8.44225 10.6063 8.34426 10.6421C8.23929 10.6806 8.12408 10.6806 8.01911 10.6421C7.92084 10.6057 7.81281 10.6057 7.71455 10.6421C7.60968 10.6811 7.49426 10.6811 7.38939 10.6421H7.38181C7.33711 10.6266 7.29035 10.6178 7.24307 10.6161V10.5879C7.29336 10.5888 7.34315 10.598 7.39048 10.615H7.39806C7.49578 10.6503 7.60274 10.6503 7.70046 10.615C7.80538 10.5763 7.92069 10.5763 8.02561 10.615C8.12453 10.6519 8.23342 10.6519 8.33234 10.615C8.43741 10.5771 8.55242 10.5771 8.65749 10.615H8.664C8.68328 10.6232 8.70323 10.6297 8.72361 10.6345Z" fill="#BDBDBD"/>
<path d="M8.72361 10.7392V10.7663C8.70046 10.7616 8.67765 10.7555 8.65533 10.7478H8.64774C8.54988 10.7113 8.44212 10.7113 8.34426 10.7478C8.23919 10.7857 8.12418 10.7857 8.01911 10.7478C7.92074 10.7121 7.81291 10.7121 7.71455 10.7478C7.60968 10.7869 7.49426 10.7869 7.38939 10.7478H7.38181C7.33729 10.7316 7.29043 10.7229 7.24307 10.7218V10.6958C7.29336 10.6967 7.34315 10.7059 7.39048 10.7229H7.39806C7.4957 10.7586 7.60282 10.7586 7.70046 10.7229C7.80538 10.6842 7.92069 10.6842 8.02561 10.7229C8.12473 10.7587 8.23322 10.7587 8.33234 10.7229C8.43741 10.685 8.55242 10.685 8.65749 10.7229H8.664C8.68354 10.7295 8.70344 10.7349 8.72361 10.7392Z" fill="#BDBDBD"/>
<path d="M8.72367 10.8455V10.8725C8.70052 10.8679 8.67771 10.8618 8.65539 10.8541H8.6478C8.55059 10.8181 8.4437 10.8181 8.34649 10.8541C8.24182 10.8943 8.126 10.8943 8.02133 10.8541C7.92287 10.8189 7.81524 10.8189 7.71677 10.8541C7.6118 10.8926 7.49659 10.8926 7.39162 10.8541H7.38403C7.33962 10.8377 7.29265 10.8293 7.2453 10.8292V10.8021C7.2961 10.8023 7.34643 10.8119 7.39379 10.8303H7.40029C7.49792 10.866 7.60505 10.866 7.70268 10.8303C7.8075 10.7909 7.92302 10.7909 8.02784 10.8303C8.12593 10.8655 8.23323 10.8655 8.33132 10.8303C8.43619 10.7912 8.5516 10.7912 8.65647 10.8303H8.66297C8.68274 10.837 8.70305 10.8421 8.72367 10.8455Z" fill="#BDBDBD"/>
<path d="M8.72361 10.9519V10.979C8.70032 10.9745 8.67747 10.968 8.65533 10.9595H8.64774C8.54975 10.9237 8.44225 10.9237 8.34426 10.9595C8.23919 10.9974 8.12418 10.9974 8.01911 10.9595C7.92093 10.9227 7.81273 10.9227 7.71455 10.9595C7.60962 10.9982 7.49431 10.9982 7.38939 10.9595H7.38181C7.33734 10.9433 7.29041 10.9348 7.24307 10.9346V10.9021C7.29341 10.9025 7.34329 10.9116 7.39048 10.9292H7.39806C7.4957 10.9649 7.60282 10.9649 7.70046 10.9292H7.70696C7.81178 10.8898 7.9273 10.8898 8.03211 10.9292C8.13123 10.9649 8.23973 10.9649 8.33884 10.9292C8.44371 10.8901 8.55913 10.8901 8.664 10.9292H8.6705C8.68759 10.9381 8.70535 10.9457 8.72361 10.9519Z" fill="#BDBDBD"/>
<path d="M8.72361 11.057V11.0841C8.70046 11.0795 8.67765 11.0733 8.65533 11.0656H8.64774C8.54988 11.0291 8.44212 11.0291 8.34426 11.0656C8.23939 11.1047 8.12398 11.1047 8.01911 11.0656C7.92084 11.0293 7.81281 11.0293 7.71455 11.0656C7.60957 11.1041 7.49436 11.1041 7.38939 11.0656H7.38181C7.33729 11.0495 7.29043 11.0407 7.24307 11.0396V11.0104C7.29334 11.0104 7.34322 11.0192 7.39048 11.0364H7.39806C7.49568 11.0722 7.60284 11.0722 7.70046 11.0364C7.80538 10.9976 7.92069 10.9976 8.02561 11.0364C8.12453 11.0733 8.23342 11.0733 8.33234 11.0364C8.43741 10.9985 8.55242 10.9985 8.65749 11.0364H8.664C8.68345 11.0444 8.70335 11.0513 8.72361 11.057Z" fill="#BDBDBD"/>
<path d="M8.72367 11.1635V11.1906C8.70038 11.1861 8.67753 11.1796 8.65539 11.1711H8.6478C8.55059 11.1351 8.4437 11.1351 8.34649 11.1711C8.24162 11.2102 8.1262 11.2102 8.02133 11.1711C7.92297 11.1353 7.81514 11.1353 7.71677 11.1711C7.6119 11.2102 7.49649 11.2102 7.39162 11.1711H7.38403C7.33982 11.1539 7.29276 11.145 7.2453 11.1451V11.1191C7.296 11.1194 7.34626 11.1285 7.39379 11.1462H7.40029C7.498 11.1815 7.60497 11.1815 7.70268 11.1462C7.8075 11.1069 7.92302 11.1069 8.02784 11.1462C8.12583 11.182 8.23332 11.182 8.33132 11.1462C8.43619 11.1072 8.5516 11.1072 8.65647 11.1462H8.66297C8.68268 11.1537 8.70298 11.1595 8.72367 11.1635Z" fill="#BDBDBD"/>
<path d="M8.7237 11.2682V11.2953C8.70055 11.2907 8.67774 11.2846 8.65541 11.2769H8.64891C8.55128 11.2412 8.44415 11.2412 8.34652 11.2769C8.24145 11.3148 8.12643 11.3148 8.02136 11.2769C7.923 11.2411 7.81517 11.2411 7.7168 11.2769C7.61188 11.3157 7.49657 11.3157 7.39165 11.2769C7.34706 11.2597 7.29965 11.2508 7.25183 11.2509V11.2271C7.30258 11.2268 7.35293 11.236 7.40032 11.2542C7.49831 11.29 7.6058 11.29 7.7038 11.2542C7.80872 11.2154 7.92403 11.2154 8.02895 11.2542C8.12694 11.29 8.23443 11.29 8.33243 11.2542C8.4374 11.2157 8.55261 11.2157 8.65758 11.2542C8.67916 11.2608 8.70129 11.2655 8.7237 11.2682Z" fill="#BDBDBD"/>
<path d="M8.72361 11.3746V11.4006C8.70046 11.396 8.67765 11.3898 8.65533 11.3822H8.64774C8.54988 11.3456 8.44212 11.3456 8.34426 11.3822C8.23929 11.4206 8.12408 11.4206 8.01911 11.3822C7.92074 11.3464 7.81291 11.3464 7.71455 11.3822C7.60968 11.4212 7.49426 11.4212 7.38939 11.3822H7.38181C7.33729 11.366 7.29043 11.3572 7.24307 11.3562V11.3302C7.29337 11.331 7.34318 11.3401 7.39048 11.3573H7.39806C7.4957 11.393 7.60282 11.393 7.70046 11.3573C7.80548 11.3191 7.92059 11.3191 8.02561 11.3573C8.12473 11.393 8.23322 11.393 8.33234 11.3573C8.43741 11.3193 8.55242 11.3193 8.65749 11.3573H8.664C8.68336 11.3647 8.70329 11.3705 8.72361 11.3746Z" fill="#BDBDBD"/>
<path d="M8.72361 11.4798V11.5069C8.70046 11.5023 8.67765 11.4961 8.65533 11.4885H8.64774C8.54988 11.4519 8.44212 11.4519 8.34426 11.4885C8.23929 11.5269 8.12408 11.5269 8.01911 11.4885C7.92074 11.4527 7.81291 11.4527 7.71455 11.4885C7.60977 11.528 7.49417 11.528 7.38939 11.4885H7.38181C7.33729 11.4723 7.29043 11.4635 7.24307 11.4625V11.4332C7.29347 11.434 7.34335 11.4435 7.39048 11.4614H7.39806C7.49578 11.4966 7.60274 11.4966 7.70046 11.4614C7.80527 11.4221 7.92079 11.4221 8.02561 11.4614C8.12473 11.4971 8.23322 11.4971 8.33234 11.4614C8.43721 11.4223 8.55262 11.4223 8.65749 11.4614H8.664C8.68349 11.4687 8.7034 11.4748 8.72361 11.4798Z" fill="#BDBDBD"/>
<path d="M8.72367 11.5858V11.6129C8.70052 11.6083 8.67771 11.6022 8.65539 11.5945H8.6478C8.55059 11.5585 8.4437 11.5585 8.34649 11.5945C8.24162 11.6336 8.1262 11.6336 8.02133 11.5945C7.92307 11.5582 7.81504 11.5582 7.71677 11.5945C7.6118 11.633 7.49659 11.633 7.39162 11.5945H7.38403C7.33982 11.5772 7.29276 11.5684 7.2453 11.5685V11.5414C7.296 11.5427 7.34614 11.5522 7.39379 11.5696H7.40029C7.49792 11.6053 7.60505 11.6053 7.70268 11.5696C7.80761 11.5308 7.92292 11.5308 8.02784 11.5696C8.12569 11.6061 8.23346 11.6061 8.33132 11.5696C8.43629 11.5311 8.5515 11.5311 8.65647 11.5696H8.66297C8.68271 11.5767 8.70301 11.5821 8.72367 11.5858Z" fill="#BDBDBD"/>
<path d="M8.71489 11.689C8.71266 11.6975 8.70976 11.7058 8.70622 11.7139C8.68886 11.7107 8.67181 11.706 8.65528 11.6998H8.6477C8.54951 11.6651 8.4424 11.6651 8.34422 11.6998C8.23935 11.7389 8.12393 11.7389 8.01906 11.6998C7.9207 11.664 7.81287 11.664 7.7145 11.6998C7.60958 11.7386 7.49427 11.7386 7.38935 11.6998H7.38176C7.33854 11.6846 7.29319 11.6762 7.24737 11.6749C7.24632 11.6663 7.24632 11.6575 7.24737 11.6489C7.29735 11.6493 7.34688 11.6584 7.39368 11.676H7.40127C7.49889 11.7118 7.60605 11.7118 7.70366 11.676H7.71017C7.81499 11.6367 7.93051 11.6367 8.03532 11.676C8.13444 11.7117 8.24293 11.7117 8.34205 11.676C8.44692 11.6369 8.56233 11.6369 8.66721 11.676H8.67371C8.68719 11.6811 8.70094 11.6854 8.71489 11.689Z" fill="#BDBDBD"/>
<path d="M8.66837 11.7799L8.64561 11.8005C8.55003 11.7658 8.4453 11.7658 8.34972 11.8005C8.24475 11.839 8.12954 11.839 8.02457 11.8005C7.9263 11.7642 7.81827 11.7642 7.72001 11.8005C7.61514 11.8396 7.49972 11.8396 7.39485 11.8005H7.38727C7.36332 11.7919 7.33866 11.7853 7.31356 11.781C7.30438 11.772 7.29603 11.7622 7.28864 11.7517C7.32561 11.7552 7.36201 11.7632 7.39702 11.7756H7.40461C7.50222 11.8114 7.60938 11.8114 7.707 11.7756C7.81182 11.7363 7.92734 11.7363 8.03215 11.7756C8.13107 11.8125 8.23997 11.8125 8.33888 11.7756C8.44395 11.7377 8.55897 11.7377 8.66404 11.7756L8.66837 11.7799Z" fill="#BDBDBD"/>
</svg>
