<svg width="25" height="25" viewBox="0 0 25 25" fill="none" xmlns="http://www.w3.org/2000/svg">
<path d="M14.0377 6.00422C13.6795 6.11326 13.3085 6.17449 12.9343 6.1863C12.9797 6.16235 13.0264 6.141 13.0741 6.12236C13.3499 6.10612 13.6233 6.06218 13.8903 5.99121C13.9396 5.99296 13.9888 5.9973 14.0377 6.00422Z" fill="#333333"/>
<path d="M14.3791 6.08351C14.2967 6.1041 14.2143 6.12795 14.133 6.15505C13.6529 6.31435 13.1484 6.38773 12.6428 6.37181L12.7197 6.31762C13.1911 6.32324 13.6601 6.24959 14.107 6.09977C14.1623 6.08134 14.2154 6.064 14.2739 6.04883C14.3119 6.06183 14.3455 6.07267 14.3791 6.08351Z" fill="#333333"/>
<path d="M14.6489 6.20148C14.4727 6.23491 14.2989 6.2798 14.1286 6.33588C13.5873 6.51233 13.0162 6.57939 12.4487 6.53314L12.5029 6.48003C13.0452 6.51882 13.5899 6.4522 14.107 6.28385C14.2583 6.23392 14.4125 6.19302 14.5687 6.16138C14.5962 6.17304 14.623 6.18643 14.6489 6.20148Z" fill="#333333"/>
<path d="M14.883 6.34446C14.6282 6.37809 14.3771 6.43542 14.133 6.5157C13.5429 6.70899 12.918 6.77185 12.3013 6.69996L12.3435 6.64902C12.9378 6.71314 13.539 6.64996 14.107 6.46368C14.3369 6.38815 14.573 6.33267 14.8125 6.29785C14.8386 6.31628 14.8657 6.3282 14.883 6.34446Z" fill="#333333"/>
<path d="M15.0739 6.50404C14.7539 6.53143 14.4382 6.5958 14.1331 6.69588C13.5044 6.90099 12.837 6.95921 12.1822 6.86604C12.193 6.8487 12.2039 6.83136 12.2169 6.81402C12.8519 6.90061 13.4982 6.84168 14.1071 6.64168C14.4019 6.54481 14.7065 6.48084 15.0154 6.45093C15.037 6.46827 15.0555 6.48561 15.0739 6.50404Z" fill="#333333"/>
<path d="M15.2321 6.67298C14.8583 6.69153 14.4888 6.75968 14.133 6.87566C13.4749 7.09148 12.7744 7.14502 12.0911 7.03173C12.0997 7.01439 12.1084 6.99705 12.1182 6.97971C12.784 7.08646 13.4657 7.03333 14.107 6.82472C14.4579 6.70961 14.8222 6.64074 15.1909 6.61987C15.2028 6.64155 15.218 6.65564 15.2321 6.67298Z" fill="#333333"/>
<path d="M15.36 6.84854C14.943 6.8562 14.5294 6.92635 14.1331 7.05664C13.4508 7.27971 12.7235 7.32852 12.0175 7.19862C12.024 7.18019 12.0315 7.16285 12.038 7.14551C12.7288 7.27049 13.4397 7.22208 14.1071 7.00461C14.4988 6.87433 14.9073 6.80132 15.3199 6.78784C15.3348 6.80705 15.3482 6.82734 15.36 6.84854Z" fill="#333333"/>
<path d="M15.4619 7.02749C15.0106 7.02584 14.562 7.09647 14.1331 7.23667C13.4336 7.46485 12.6874 7.51036 11.9654 7.3689C11.9691 7.35059 11.9738 7.3325 11.9795 7.31471C12.6883 7.45284 13.4206 7.4077 14.1071 7.18357C14.534 7.04207 14.9807 6.96891 15.4305 6.9668C15.4435 6.98956 15.4532 7.00798 15.4619 7.02749Z" fill="#333333"/>
<path d="M15.5421 7.20954C15.0641 7.19836 14.5877 7.26836 14.1331 7.41656C13.4202 7.64962 12.6588 7.69259 11.9242 7.5412C11.9264 7.52261 11.9296 7.50415 11.9339 7.48592C12.6564 7.63559 13.4055 7.59412 14.1071 7.36562C14.5614 7.2155 15.0376 7.14224 15.5161 7.14885C15.526 7.16852 15.5347 7.18879 15.5421 7.20954Z" fill="#333333"/>
<path d="M15.5994 7.39026C15.1023 7.37208 14.6058 7.4418 14.1329 7.5962C13.4128 7.83287 12.6426 7.87401 11.9013 7.71542C11.9013 7.69699 11.9013 7.67748 11.9013 7.65906C12.6325 7.8181 13.3927 7.7807 14.1048 7.55067C14.5796 7.39245 15.0785 7.31907 15.5788 7.3339C15.5896 7.35233 15.5951 7.37076 15.5994 7.39026Z" fill="#333333"/>
<path d="M15.6385 7.5724C15.1284 7.549 14.6183 7.61841 14.133 7.77724C13.4108 8.01376 12.6388 8.05415 11.8959 7.8943C11.8954 7.88564 11.8954 7.87695 11.8959 7.86829C11.8954 7.85782 11.8954 7.84733 11.8959 7.83686C12.6298 7.99642 13.3929 7.95789 14.107 7.72522C14.5962 7.56516 15.1101 7.49431 15.6244 7.51604C15.632 7.53446 15.6352 7.55397 15.6385 7.5724Z" fill="#333333"/>
<path d="M15.6579 7.75348C15.1414 7.72754 14.6245 7.79661 14.133 7.95724C13.4143 8.19213 12.6465 8.23363 11.9067 8.07755C11.9067 8.05804 11.9067 8.03853 11.9067 8.01902C12.6396 8.17956 13.402 8.14215 14.1156 7.91064C14.6131 7.74773 15.1362 7.67721 15.659 7.70254C15.6547 7.71554 15.6568 7.73397 15.6579 7.75348Z" fill="#333333"/>
<path d="M15.6612 7.87811C15.6612 7.89762 15.6612 7.91604 15.6612 7.93447C15.144 7.90769 14.6263 7.9764 14.134 8.13715C13.426 8.36964 12.6698 8.41445 11.9392 8.26721C11.9392 8.2477 11.9306 8.22819 11.9273 8.2076C12.652 8.35761 13.4033 8.31576 14.1069 8.08621C14.6078 7.92184 15.1347 7.85129 15.6612 7.87811Z" fill="#333333"/>
<path d="M15.6516 8.05798C15.6505 8.07652 15.6483 8.09497 15.6451 8.11326C15.131 8.08818 14.6167 8.15761 14.1277 8.3181C13.4358 8.54429 12.6978 8.59127 11.9828 8.45467C11.9763 8.43516 11.9698 8.41565 11.9644 8.39506C12.6778 8.5361 13.4155 8.49207 14.1071 8.26716C14.6048 8.10357 15.1283 8.03267 15.6516 8.05798Z" fill="#333333"/>
<path d="M15.6243 8.23682C15.6243 8.25525 15.6167 8.27367 15.6113 8.2921C15.1098 8.27184 14.6088 8.34158 14.1319 8.49803C13.4647 8.71581 12.7545 8.76752 12.0628 8.64868C12.053 8.62917 12.0444 8.60858 12.0357 8.5869C12.7271 8.71312 13.439 8.66469 14.1069 8.446C14.5961 8.28569 15.1101 8.21483 15.6243 8.23682Z" fill="#333333"/>
<path d="M15.5809 8.41452C15.5744 8.43295 15.569 8.45246 15.5614 8.47088C15.0769 8.45747 14.5937 8.5275 14.1329 8.6779C13.4993 8.88484 12.8263 8.94198 12.1668 8.84481C12.1549 8.82422 12.143 8.80362 12.1321 8.78303C12.7936 8.88781 13.4704 8.83394 14.1069 8.62587C14.5822 8.47016 15.081 8.39864 15.5809 8.41452Z" fill="#333333"/>
<path d="M15.5161 8.59252C15.5095 8.61149 15.5015 8.62996 15.4923 8.6478C15.0312 8.64183 14.5724 8.71215 14.1342 8.8559C13.5464 9.04873 12.9238 9.11232 12.309 9.04232C12.2928 9.02173 12.2765 9.00113 12.2614 8.97946C12.8816 9.05978 13.512 9.00167 14.1071 8.80929C14.5613 8.6586 15.0376 8.58532 15.5161 8.59252Z" fill="#333333"/>
<path d="M15.4293 8.77319C15.4196 8.79257 15.4087 8.81139 15.3968 8.82955C14.9673 8.83382 14.541 8.90438 14.1331 9.03874C13.604 9.21198 13.0464 9.28117 12.491 9.2425C12.469 9.22301 12.448 9.20239 12.4282 9.18072C12.9951 9.22949 13.5661 9.1635 14.107 8.98671C14.534 8.84695 14.9801 8.77491 15.4293 8.77319Z" fill="#333333"/>
<path d="M15.3145 8.95532C15.3013 8.97517 15.2872 8.99434 15.2722 9.01277C14.8848 9.02857 14.5015 9.09787 14.1331 9.2187C13.6788 9.36931 13.2026 9.44259 12.7241 9.43547L12.6439 9.37802C13.1402 9.39442 13.6356 9.32286 14.1071 9.16667C14.4974 9.03907 14.904 8.9679 15.3145 8.95532Z" fill="#333333"/>
<path d="M15.1616 9.14429C15.1442 9.16488 15.1247 9.18439 15.1052 9.2039C14.7735 9.23 14.446 9.29549 14.1297 9.39899C13.7789 9.51399 13.4145 9.58285 13.0459 9.60384C13.0087 9.58968 12.9725 9.57302 12.9375 9.55398C13.335 9.54255 13.7288 9.4743 14.107 9.3513C14.4482 9.23751 14.8026 9.16794 15.1616 9.14429Z" fill="#333333"/>
<path d="M14.9469 9.34375C14.9176 9.36759 14.8862 9.39035 14.8548 9.41203C14.6097 9.44591 14.3681 9.50177 14.1329 9.57894C13.9302 9.64591 13.7226 9.697 13.5119 9.73177C13.456 9.72464 13.4007 9.71414 13.3461 9.70033C13.6039 9.66745 13.858 9.60974 14.1048 9.528C14.3784 9.43785 14.6606 9.37611 14.9469 9.34375Z" fill="#333333"/>
<path d="M14.5298 9.59399C14.3679 9.66587 14.1962 9.71335 14.0204 9.73489C14.0507 9.72731 14.0811 9.71755 14.1103 9.7078C14.248 9.66228 14.388 9.62429 14.5298 9.59399Z" fill="#333333"/>
<path d="M10.5652 7.59085C10.4333 7.5768 10.3014 7.57031 10.1694 7.56923C10.3012 7.54485 10.4369 7.55227 10.5652 7.59085Z" fill="#333333"/>
<path d="M10.9421 7.82484C10.554 7.75054 10.1574 7.7312 9.76398 7.7674C9.78927 7.74467 9.81607 7.72367 9.84418 7.70453C10.1868 7.68026 10.531 7.69737 10.8695 7.75548C10.8953 7.77691 10.9195 7.80008 10.9421 7.82484Z" fill="#333333"/>
<path d="M11.0852 8.03527C10.5983 7.92399 10.0955 7.9005 9.60034 7.9659C9.61241 7.94391 9.62619 7.92289 9.64153 7.90304C10.1117 7.84837 10.5877 7.87107 11.0505 7.97023C11.0634 7.9912 11.075 8.01292 11.0852 8.03527Z" fill="#333333"/>
<path d="M11.1502 8.22937C10.6147 8.10096 10.0593 8.07704 9.51471 8.15892C9.52121 8.13832 9.52772 8.11882 9.5353 8.09931C10.0686 8.02232 10.6117 8.04622 11.1361 8.16976C11.1416 8.18818 11.1459 8.20877 11.1502 8.22937Z" fill="#333333"/>
<path d="M11.1677 8.39956V8.41473C10.6164 8.27839 10.0433 8.25407 9.48236 8.3432C9.48236 8.32369 9.48236 8.30418 9.48236 8.28467C10.0412 8.19775 10.6118 8.22206 11.1612 8.35621C11.1677 8.37571 11.1677 8.38439 11.1677 8.39956Z" fill="#333333"/>
<path d="M11.1568 8.535C11.1568 8.55343 11.1503 8.57077 11.146 8.5892C10.6034 8.45809 10.0402 8.43526 9.48877 8.522C9.48877 8.50357 9.48877 8.48406 9.48877 8.46564C10.044 8.38048 10.6105 8.40403 11.1568 8.535Z" fill="#333333"/>
<path d="M11.1112 8.70087C11.1045 8.71859 11.0969 8.73596 11.0885 8.75289C10.5775 8.64087 10.0504 8.62324 9.53314 8.70087C9.52663 8.68244 9.52013 8.6651 9.51471 8.64667C10.0456 8.56544 10.587 8.58382 11.1112 8.70087Z" fill="#333333"/>
<path d="M11.0278 8.86561C11.0169 8.88295 11.0039 8.89921 10.992 8.91547C10.5404 8.82436 10.077 8.80715 9.61986 8.86453C9.608 8.84747 9.59714 8.82974 9.58734 8.81142C10.0671 8.74861 10.5541 8.76693 11.0278 8.86561Z" fill="#333333"/>
<path d="M10.8944 9.02595C10.877 9.04229 10.8585 9.05749 10.8391 9.07147C10.4835 9.01029 10.1214 8.99499 9.7618 9.02595C9.74338 9.00969 9.72604 8.99235 9.70978 8.97501C10.1051 8.93661 10.5039 8.95375 10.8944 9.02595Z" fill="#333333"/>
<path d="M10.6746 9.16811C10.6357 9.18599 10.5954 9.20085 10.5542 9.21255C10.3825 9.19503 10.2098 9.18887 10.0373 9.19412C9.99753 9.18012 9.95909 9.16271 9.92236 9.1421C10.1734 9.12906 10.425 9.13776 10.6746 9.16811Z" fill="#333333"/>
<path d="M17.5287 9.03575C17.2818 9.00301 17.0384 8.94787 16.8015 8.871H16.7896C16.8295 8.86668 16.8697 8.86451 16.9099 8.8645H16.9619C17.0973 8.90347 17.2348 8.93495 17.3737 8.9588C17.4273 8.98034 17.4792 9.00607 17.5287 9.03575Z" fill="#333333"/>
<path d="M17.779 9.24299C17.4474 9.21711 17.12 9.15236 16.8036 9.05006L16.7472 9.03164C16.6518 9.00129 16.5554 8.97311 16.4578 8.95035C16.4879 8.93755 16.5187 8.92633 16.55 8.91675C16.6215 8.93517 16.693 8.95577 16.7667 8.97853L16.8242 8.99695C17.1163 9.0913 17.418 9.15309 17.7238 9.18121C17.7389 9.2018 17.7595 9.22239 17.779 9.24299Z" fill="#333333"/>
<path d="M17.9188 9.43236C17.5391 9.41563 17.1632 9.3482 16.8014 9.23185L16.745 9.21343C16.574 9.15791 16.3995 9.11409 16.2226 9.08228C16.2441 9.06609 16.2665 9.05125 16.2898 9.03784C16.4493 9.0686 16.6067 9.10914 16.7613 9.15923L16.8187 9.17766C17.163 9.28939 17.5205 9.35535 17.882 9.37383C17.9004 9.39334 17.908 9.41285 17.9188 9.43236Z" fill="#333333"/>
<path d="M18.0089 9.61545C17.5991 9.60577 17.1928 9.53714 16.8026 9.41169L16.7462 9.39326C16.5202 9.31975 16.288 9.26643 16.0526 9.23394C16.0688 9.2166 16.0851 9.19926 16.1024 9.18408C16.3264 9.21772 16.5472 9.26992 16.7625 9.34016L16.8199 9.35858C17.1971 9.48066 17.5898 9.54854 17.9861 9.56018C17.9946 9.57821 18.0022 9.59666 18.0089 9.61545Z" fill="#333333"/>
<path d="M18.0609 9.79645C17.6331 9.7924 17.2084 9.72333 16.8014 9.5916L16.7451 9.57317C16.4779 9.48679 16.2026 9.4276 15.9235 9.39651L15.9593 9.34448C16.2317 9.37692 16.5003 9.43572 16.7613 9.52006L16.8188 9.53849C17.2161 9.66694 17.6304 9.73526 18.0479 9.74117L18.0609 9.79645Z" fill="#333333"/>
<path d="M18.0837 9.97661C17.6483 9.97477 17.2158 9.90567 16.8015 9.77176L16.7451 9.75334C16.449 9.65708 16.1428 9.59489 15.8325 9.568C15.8399 9.54989 15.8483 9.53217 15.8574 9.51489C16.1646 9.5435 16.4677 9.60565 16.7614 9.70023L16.8188 9.71866C17.2261 9.85037 17.6513 9.91873 18.0793 9.92133C18.0815 9.93976 18.0826 9.95818 18.0837 9.97661Z" fill="#333333"/>
<path d="M18.0825 10.1009C18.0825 10.1194 18.0825 10.1389 18.0825 10.1573C17.649 10.1538 17.2185 10.0847 16.8057 9.95245L16.7493 9.93402C16.4329 9.83211 16.1054 9.76808 15.7739 9.74326C15.7739 9.72484 15.7836 9.70641 15.7901 9.68799C16.1217 9.71359 16.449 9.77798 16.7656 9.87983L16.823 9.89825C17.23 10.03 17.6547 10.0983 18.0825 10.1009Z" fill="#333333"/>
<path d="M18.0588 10.2819C18.0588 10.3003 18.0501 10.3188 18.0447 10.3372C17.6224 10.331 17.2034 10.262 16.8015 10.1323L16.7452 10.1139C16.4198 10.0087 16.0827 9.94394 15.7415 9.921L15.748 9.86572C16.0926 9.88823 16.4331 9.95377 16.7614 10.0608L16.8189 10.0792C17.2196 10.2087 17.6376 10.2771 18.0588 10.2819Z" fill="#333333"/>
<path d="M18.0089 10.461C18.0024 10.4794 17.9938 10.4979 17.9862 10.5163C17.5851 10.5044 17.1877 10.4358 16.8059 10.3125L16.7495 10.2941C16.423 10.1889 16.0849 10.1241 15.7426 10.1012C15.7426 10.0827 15.7426 10.0643 15.7426 10.0459C16.0912 10.068 16.4356 10.1335 16.7679 10.241L16.8254 10.2594C17.2082 10.383 17.6068 10.4509 18.0089 10.461Z" fill="#333333"/>
<path d="M17.9179 10.6374C17.907 10.6559 17.8962 10.6732 17.8843 10.6906C17.5158 10.6724 17.1514 10.6057 16.8004 10.4922L16.7441 10.4738C16.4251 10.3711 16.0951 10.3067 15.761 10.2819C15.761 10.2635 15.7534 10.2451 15.7502 10.2256C16.0935 10.2498 16.4327 10.3153 16.7603 10.4207L16.8167 10.4348C17.173 10.5515 17.5434 10.6197 17.9179 10.6374Z" fill="#333333"/>
<path d="M17.7921 10.81C17.777 10.8284 17.7607 10.8457 17.7434 10.8631C17.4233 10.8353 17.1074 10.7716 16.8015 10.6734L16.7451 10.655C16.4447 10.5578 16.1342 10.4953 15.8195 10.4685C15.8107 10.4493 15.8035 10.4294 15.7979 10.4089C16.1253 10.4358 16.4486 10.5001 16.7614 10.6008L16.8188 10.6203C17.1345 10.7223 17.4613 10.786 17.7921 10.81Z" fill="#333333"/>
<path d="M17.6154 10.9766C17.5935 10.9937 17.5708 11.0096 17.5471 11.0243C17.294 10.991 17.0444 10.9347 16.8015 10.8563L16.7451 10.8378C16.4756 10.7504 16.1977 10.6912 15.916 10.6612C15.903 10.6419 15.8911 10.622 15.8802 10.6016C16.1797 10.6305 16.4751 10.6919 16.7614 10.7847L16.8188 10.8032C17.078 10.8869 17.3448 10.945 17.6154 10.9766Z" fill="#333333"/>
<path d="M17.3672 11.1166C17.332 11.1313 17.2958 11.1437 17.2588 11.1534C17.1023 11.1225 16.9478 11.0823 16.796 11.0331L16.7397 11.0147C16.5201 10.9436 16.295 10.891 16.0666 10.8575C16.0471 10.8369 16.0276 10.8164 16.0092 10.7947C16.2626 10.8275 16.5126 10.8834 16.7559 10.9616L16.8166 10.9768C16.9966 11.0363 17.1806 11.083 17.3672 11.1166Z" fill="#333333"/>
<path d="M16.976 11.2079H16.9099C16.8584 11.2079 16.807 11.2046 16.756 11.1981H16.7451C16.6367 11.1645 16.537 11.1353 16.4308 11.1103C16.3735 11.0845 16.3184 11.0541 16.2661 11.0193C16.4348 11.0507 16.6014 11.093 16.7646 11.1461L16.8221 11.1645C16.8708 11.1775 16.925 11.1938 16.976 11.2079Z" fill="#333333"/>
<path d="M8.38644 9.34115C8.21459 9.37893 8.04044 9.40536 7.86511 9.42027C8.00304 9.36537 8.1502 9.33741 8.29865 9.3379C8.32683 9.3379 8.3626 9.33898 8.38644 9.34115Z" fill="#333333"/>
<path d="M8.74632 9.42694C8.35455 9.54889 7.94703 9.6128 7.53674 9.61661C7.5595 9.5971 7.58443 9.57759 7.60936 9.56025C7.96505 9.55054 8.31803 9.49517 8.65961 9.39551C8.68907 9.40437 8.71802 9.41486 8.74632 9.42694Z" fill="#333333"/>
<path d="M8.95773 9.54195C8.91871 9.55279 8.88077 9.56471 8.84175 9.57771L8.80816 9.58855C8.34301 9.73944 7.85544 9.80946 7.36664 9.79557C7.38073 9.77714 7.3959 9.75872 7.41108 9.74138C7.88103 9.75022 8.34918 9.68063 8.79623 9.53544L8.82983 9.52461L8.90137 9.50293C8.92089 9.51484 8.9397 9.52787 8.95773 9.54195Z" fill="#333333"/>
<path d="M9.12135 9.67627C9.02597 9.69903 8.93167 9.72613 8.83846 9.75648L8.80486 9.76732C8.30399 9.92969 7.77748 9.9984 7.25171 9.97C7.26056 9.9509 7.2707 9.93244 7.28206 9.91472C7.79469 9.94073 8.30777 9.87315 8.79619 9.71529L8.82979 9.70445C8.91216 9.67736 8.99562 9.65351 9.08016 9.63184L9.12135 9.67627Z" fill="#333333"/>
<path d="M9.2524 9.8292C9.11345 9.85717 8.97628 9.89337 8.84162 9.93759L8.80802 9.94843C8.28374 10.1178 7.73187 10.1851 7.18225 10.1468C7.18761 10.1276 7.19413 10.1088 7.20176 10.0904C7.74094 10.1276 8.28225 10.0607 8.7961 9.89315L8.8297 9.88231C8.95769 9.83909 9.08794 9.80291 9.21988 9.77393C9.22964 9.7956 9.24048 9.81186 9.2524 9.8292Z" fill="#333333"/>
<path d="M9.34784 9.98855C9.17652 10.021 9.00745 10.0645 8.84169 10.1186L8.80809 10.1294C8.26988 10.305 7.70218 10.3721 7.13788 10.3267C7.13788 10.3083 7.14438 10.2899 7.14763 10.2714C7.70464 10.316 8.26495 10.2497 8.79617 10.0763L8.82976 10.0655C8.99203 10.0122 9.15745 9.96917 9.32508 9.93652C9.33387 9.95332 9.34147 9.9707 9.34784 9.98855Z" fill="#333333"/>
<path d="M9.41616 10.1565C9.22134 10.1891 9.02929 10.2365 8.84172 10.2985L8.80812 10.3104C8.26469 10.4859 7.6917 10.5511 7.12274 10.5022C7.12274 10.4838 7.12274 10.4654 7.12274 10.447C7.68771 10.4963 8.25683 10.4314 8.7962 10.2562L8.8298 10.2454C9.01716 10.1837 9.2088 10.1359 9.40316 10.1023C9.40424 10.1196 9.41074 10.1381 9.41616 10.1565Z" fill="#333333"/>
<path d="M9.45738 10.3267C9.24857 10.3604 9.04273 10.4104 8.84175 10.4763L8.80815 10.4871C8.2687 10.662 7.69992 10.7284 7.13469 10.6822C7.13469 10.6627 7.13469 10.6432 7.12927 10.6237C7.69194 10.6728 8.25876 10.6087 8.79623 10.4351L8.82983 10.4231C9.03127 10.3578 9.23745 10.3082 9.44654 10.2747L9.45738 10.3267Z" fill="#333333"/>
<path d="M9.47134 10.5076C9.25774 10.5414 9.04717 10.5921 8.84163 10.6594L8.80803 10.6702C8.28393 10.8403 7.73184 10.9073 7.18226 10.8675C7.17576 10.8491 7.17034 10.8295 7.16492 10.81C7.71423 10.852 8.26646 10.7865 8.79069 10.6171L8.82429 10.6063C9.03651 10.5369 9.25398 10.4847 9.4746 10.4502C9.47026 10.4697 9.47134 10.4881 9.47134 10.5076Z" fill="#333333"/>
<path d="M9.46483 10.6309C9.46483 10.6504 9.46483 10.6699 9.45833 10.6894C9.24914 10.7229 9.04293 10.773 8.84162 10.839L8.80802 10.8498C8.30714 11.0122 7.78064 11.0809 7.25486 11.0525C7.24439 11.0339 7.23498 11.0147 7.22668 10.995C7.75766 11.0288 8.29021 10.9615 8.7961 10.7967L8.82969 10.7858C9.03707 10.7178 9.24942 10.666 9.46483 10.6309Z" fill="#333333"/>
<path d="M9.43138 10.8176C9.42639 10.8378 9.42024 10.8577 9.41296 10.8772C9.21941 10.9109 9.02853 10.9583 8.84177 11.0192L8.80817 11.0311C8.34517 11.1815 7.85976 11.2512 7.37316 11.2371C7.35907 11.2187 7.34498 11.2002 7.33197 11.1807C7.82826 11.1996 8.32397 11.1306 8.79625 10.977L8.82985 10.9661C9.02625 10.9013 9.22736 10.8516 9.43138 10.8176Z" fill="#333333"/>
<path d="M9.36088 11.0103C9.35112 11.0318 9.34027 11.0527 9.32836 11.0731C9.16374 11.1056 9.00123 11.1479 8.84172 11.1999L8.80812 11.2108C8.40191 11.3431 7.97804 11.4133 7.55085 11.4189C7.52918 11.4004 7.50858 11.3831 7.48907 11.3636C7.93072 11.3635 8.36961 11.294 8.78969 11.1577L8.82329 11.1457C8.99911 11.0881 9.17874 11.0428 9.36088 11.0103Z" fill="#333333"/>
<path d="M9.23725 11.2153C9.21929 11.2398 9.20012 11.2633 9.17981 11.2858C9.06564 11.3118 8.95292 11.3432 8.84164 11.3801L8.80805 11.3909C8.48775 11.4948 8.15634 11.5606 7.82066 11.5871C7.78646 11.5721 7.75317 11.5551 7.72095 11.5362C8.0865 11.5176 8.44801 11.4509 8.79612 11.3378L8.82972 11.327C8.96343 11.2824 9.09947 11.2451 9.23725 11.2153Z" fill="#333333"/>
<path d="M8.99676 11.4548C8.93407 11.5015 8.86691 11.5418 8.79625 11.5751C8.66727 11.6163 8.53721 11.6521 8.40498 11.6835C8.36921 11.6835 8.33345 11.6889 8.2966 11.6889C8.24187 11.6886 8.18722 11.685 8.13293 11.6781C8.35801 11.6432 8.57986 11.5899 8.79625 11.5188L8.82985 11.5079C8.88404 11.4892 8.93968 11.4715 8.99676 11.4548Z" fill="#333333"/>
<path d="M17.9658 11.9525C17.8653 11.9525 17.7647 11.9428 17.6652 11.9309C17.6951 11.9293 17.7251 11.9293 17.755 11.9309C17.8259 11.9293 17.8967 11.9366 17.9658 11.9525Z" fill="#333333"/>
<path d="M18.3081 12.1363C18.2441 12.1363 18.1802 12.1363 18.1162 12.1363C17.843 12.1365 17.5703 12.11 17.3022 12.0572C17.3267 12.041 17.3524 12.0268 17.3792 12.0149C17.6624 12.0651 17.9501 12.0861 18.2376 12.0778C18.2624 12.0957 18.2859 12.1152 18.3081 12.1363Z" fill="#333333"/>
<path d="M18.4586 12.3068C18.3448 12.3166 18.231 12.3209 18.1161 12.3209C17.784 12.3212 17.453 12.2827 17.1298 12.206C17.145 12.1898 17.1602 12.1746 17.1764 12.1594C17.5839 12.2523 18.0028 12.2844 18.4196 12.2548C18.4348 12.27 18.4478 12.2873 18.4586 12.3068Z" fill="#333333"/>
<path d="M18.5507 12.4789C18.4077 12.493 18.2646 12.5005 18.1172 12.5005C17.7473 12.5011 17.3789 12.4533 17.0214 12.3586C17.0305 12.341 17.0406 12.324 17.0518 12.3076C17.532 12.4331 18.0307 12.4727 18.5247 12.4247C18.5345 12.4422 18.5432 12.4603 18.5507 12.4789Z" fill="#333333"/>
<path d="M18.591 12.6547C18.4334 12.672 18.2749 12.6807 18.1163 12.6807C17.7216 12.6813 17.3287 12.627 16.949 12.5192C16.9555 12.5018 16.9609 12.4834 16.9685 12.4661C17.4922 12.6152 18.0399 12.6616 18.5812 12.6026C18.5854 12.6198 18.5887 12.6372 18.591 12.6547Z" fill="#333333"/>
<path d="M18.5996 12.7773C18.5996 12.7969 18.5996 12.8153 18.5996 12.8348C18.4398 12.8531 18.2792 12.8621 18.1184 12.8619C17.7115 12.8622 17.3068 12.8041 16.9164 12.6896C16.9164 12.6711 16.9164 12.6527 16.924 12.6343C17.4675 12.7928 18.0371 12.8415 18.5996 12.7773Z" fill="#333333"/>
<path d="M18.5789 12.9606C18.5749 12.98 18.5698 12.9992 18.5638 13.0181C18.4151 13.0341 18.2657 13.0421 18.1161 13.0419C17.7097 13.0425 17.3053 12.9849 16.9152 12.8706C16.9142 12.8508 16.9142 12.8309 16.9152 12.811C17.4543 12.9714 18.0199 13.0223 18.5789 12.9606Z" fill="#333333"/>
<path d="M18.5128 13.1445C18.5039 13.1648 18.4934 13.1843 18.4814 13.203C18.36 13.2138 18.2386 13.2193 18.1161 13.2193C17.7257 13.2197 17.3369 13.1668 16.9608 13.0621C16.9532 13.0404 16.9456 13.0187 16.9391 12.9971C17.4498 13.1444 17.9836 13.1944 18.5128 13.1445Z" fill="#333333"/>
<path d="M18.386 13.3364C18.3676 13.357 18.3481 13.3765 18.3275 13.3961C18.2552 13.4004 18.1848 13.4026 18.1161 13.4026C17.7642 13.4025 17.4137 13.3592 17.0724 13.2736C17.056 13.2509 17.0408 13.2274 17.0269 13.2031C17.4697 13.3209 17.9287 13.366 18.386 13.3364Z" fill="#333333"/>
<path d="M18.1411 13.526C18.0991 13.5479 18.0552 13.566 18.01 13.5802C17.7852 13.5755 17.5612 13.5523 17.3402 13.5109C17.2987 13.4874 17.2592 13.4606 17.222 13.4307C17.5241 13.4955 17.8322 13.5274 18.1411 13.526Z" fill="#333333"/>
<path d="M17.3866 14.4202C17.1883 14.3871 16.9926 14.3393 16.8014 14.2771L16.745 14.2587C16.6417 14.2247 16.5376 14.1955 16.4329 14.1709H16.4524C16.5361 14.1707 16.6198 14.1765 16.7027 14.1882L16.7613 14.2056L16.8187 14.224C16.9434 14.2641 17.0712 14.2988 17.1991 14.3324C17.2635 14.3576 17.3261 14.3869 17.3866 14.4202Z" fill="#333333"/>
<path d="M17.6924 14.6413C17.3896 14.6126 17.0909 14.5508 16.8015 14.4571L16.7452 14.4387C16.4656 14.3481 16.1771 14.2878 15.8846 14.2587C15.9312 14.2436 15.9789 14.2306 16.0266 14.2197C16.276 14.2527 16.522 14.3082 16.7614 14.3856L16.8189 14.404C17.0787 14.4881 17.3463 14.5462 17.6177 14.5774C17.6437 14.598 17.6686 14.6197 17.6924 14.6413Z" fill="#333333"/>
<path d="M17.8842 14.8367C17.5158 14.818 17.1514 14.7513 16.8003 14.6383L16.744 14.6199C16.3491 14.4921 15.9374 14.4238 15.5225 14.4172C15.555 14.3988 15.5886 14.3804 15.6233 14.363C16.0096 14.3794 16.392 14.4476 16.7602 14.5657L16.8177 14.5841C17.1457 14.6905 17.4858 14.7553 17.83 14.7771C17.8484 14.7966 17.8668 14.8161 17.8842 14.8367Z" fill="#333333"/>
<path d="M18.0218 15.0217C17.6072 15.0143 17.196 14.9456 16.8014 14.818L16.745 14.7995C16.2655 14.6453 15.7623 14.5778 15.2591 14.6001L15.3328 14.5427C15.8171 14.5282 16.3003 14.5971 16.7613 14.7464L16.8188 14.7648C17.1953 14.8865 17.5872 14.9544 17.9828 14.9664C18.0001 14.9852 18.0131 15.0037 18.0218 15.0217Z" fill="#333333"/>
<path d="M18.1259 15.204H18.1172C17.6709 15.2045 17.2273 15.135 16.8025 14.998L16.7462 14.9796C16.2023 14.8047 15.6286 14.7416 15.0597 14.7943C15.0781 14.7737 15.0965 14.7531 15.1171 14.7336C15.6729 14.6905 16.2317 14.756 16.7624 14.9265L16.8199 14.9449C17.2332 15.078 17.6646 15.1467 18.0988 15.1487C18.1075 15.1671 18.1172 15.1855 18.1259 15.204Z" fill="#333333"/>
<path d="M18.204 15.3814C18.1747 15.3814 18.1455 15.3814 18.1162 15.3814C17.67 15.3818 17.2264 15.3127 16.8015 15.1766L16.7451 15.1571C16.1507 14.9667 15.5216 14.9097 14.9026 14.9901C14.9167 14.9685 14.9319 14.9479 14.947 14.9273C15.5575 14.8559 16.1762 14.9162 16.7614 15.1039L16.8188 15.1224C17.2591 15.2643 17.7198 15.3328 18.1823 15.3251C18.1905 15.3434 18.1978 15.3623 18.204 15.3814Z" fill="#333333"/>
<path d="M18.2625 15.5614H18.1162C17.6699 15.5614 17.2264 15.4919 16.8015 15.3555L16.7451 15.3371C16.1132 15.134 15.4424 15.0817 14.7866 15.1842L14.8191 15.1236C15.4703 15.0272 16.1349 15.0821 16.7614 15.284L16.8188 15.3024C17.2793 15.4505 17.7617 15.5184 18.2452 15.5029C18.2517 15.5289 18.2571 15.543 18.2625 15.5614Z" fill="#333333"/>
<path d="M18.2993 15.7457C18.2386 15.7457 18.1768 15.7457 18.1161 15.7457C17.6698 15.7463 17.2262 15.6768 16.8014 15.5398L16.745 15.5214C16.0848 15.3091 15.3825 15.2622 14.6998 15.3848C14.7074 15.3642 14.715 15.3447 14.7237 15.3241C15.4046 15.2078 16.1035 15.2572 16.7613 15.4683L16.8188 15.4867C17.2935 15.6392 17.7913 15.7071 18.2895 15.6872C18.2941 15.7065 18.2974 15.726 18.2993 15.7457Z" fill="#333333"/>
<path d="M18.3199 15.9191C18.2527 15.9191 18.1844 15.9245 18.1161 15.9245C17.6698 15.9251 17.2262 15.8556 16.8014 15.7186L16.7451 15.7002C16.0649 15.4818 15.3405 15.4385 14.6392 15.5745C14.6392 15.5539 14.65 15.5344 14.6565 15.5149C15.3582 15.3831 16.0817 15.4285 16.7613 15.6471L16.8188 15.6655C17.3018 15.8209 17.8088 15.8881 18.3156 15.8638C18.3177 15.8823 18.3188 15.9007 18.3199 15.9191Z" fill="#333333"/>
<path d="M18.3242 16.0441C18.3242 16.0625 18.3242 16.082 18.3242 16.1005C18.2559 16.1005 18.1865 16.1005 18.1172 16.1005C17.6709 16.1005 17.2273 16.031 16.8024 15.8945L16.7461 15.8761C16.0534 15.6537 15.3152 15.613 14.6022 15.758C14.6022 15.7385 14.6087 15.7179 14.6131 15.6984C15.3284 15.5568 16.068 15.5993 16.7623 15.8219L16.8198 15.8403C17.3048 15.9987 17.8145 16.0677 18.3242 16.0441Z" fill="#333333"/>
<path d="M18.3156 16.225C18.3156 16.2434 18.3156 16.2629 18.3081 16.2813C18.2441 16.2813 18.1802 16.2813 18.1162 16.2813C17.6699 16.2819 17.2263 16.2124 16.8015 16.0754L16.7451 16.057C16.0443 15.833 15.2972 15.7957 14.5775 15.9486C14.5775 15.9291 14.5775 15.9106 14.5775 15.8911C15.3002 15.7423 16.0492 15.783 16.7517 16.0093L16.8091 16.0277C17.2952 16.1839 17.8057 16.2507 18.3156 16.225Z" fill="#333333"/>
<path d="M18.2884 16.4068C18.2884 16.4253 18.2809 16.4437 18.2765 16.4621C18.2234 16.4621 18.1681 16.4621 18.1161 16.4621C17.6698 16.4626 17.2262 16.3932 16.8014 16.2562L16.745 16.2378C16.0442 16.0136 15.297 15.9762 14.5774 16.1294C14.5763 16.1106 14.5763 16.0918 14.5774 16.073C15.3018 15.9227 16.0528 15.963 16.757 16.1901L16.8144 16.2085C17.2903 16.3608 17.7893 16.4279 18.2884 16.4068Z" fill="#333333"/>
<path d="M18.243 16.588C18.2378 16.6067 18.2317 16.6252 18.2246 16.6432C18.1888 16.6432 18.1519 16.6432 18.1162 16.6432C17.6699 16.6438 17.2262 16.5743 16.8015 16.4373L16.7451 16.4189C16.0517 16.1963 15.3126 16.1559 14.5991 16.3018C14.5959 16.2835 14.5937 16.2651 14.5926 16.2466C15.3134 16.0999 16.0599 16.141 16.7603 16.3658L16.8177 16.3842C17.2777 16.5331 17.7597 16.602 18.243 16.588Z" fill="#333333"/>
<path d="M18.1768 16.7689C18.1696 16.7882 18.1613 16.807 18.1519 16.8253H18.1172C17.671 16.8253 17.2274 16.7558 16.8025 16.6194L16.7462 16.6009C16.0635 16.3816 15.3363 16.3391 14.6326 16.4774C14.6326 16.459 14.624 16.4405 14.6207 16.421C15.3338 16.2817 16.0705 16.325 16.7624 16.5467L16.8199 16.5652C17.258 16.7067 17.7164 16.7756 18.1768 16.7689Z" fill="#333333"/>
<path d="M18.0891 16.951C18.0793 16.9695 18.0685 16.9868 18.0576 17.0052C17.631 17.0001 17.2076 16.9311 16.8015 16.8004L16.7451 16.782C16.0801 16.5686 15.3727 16.5228 14.6858 16.6487C14.6787 16.6313 14.6725 16.6136 14.6674 16.5955C15.3667 16.4658 16.0873 16.5116 16.7646 16.7289L16.822 16.7473C17.2316 16.879 17.6588 16.9478 18.0891 16.951Z" fill="#333333"/>
<path d="M17.9764 17.1276C17.964 17.1464 17.9506 17.1645 17.9363 17.1818C17.5506 17.1669 17.1688 17.0991 16.8015 16.9802L16.7452 16.9618C16.1008 16.7548 15.4163 16.705 14.7487 16.8166C14.74 16.7997 14.7324 16.7824 14.726 16.7646C15.4062 16.6482 16.1044 16.6976 16.7614 16.9087L16.8189 16.9271C17.1933 17.0484 17.583 17.1159 17.9764 17.1276Z" fill="#333333"/>
<path d="M17.8365 17.3012L17.7866 17.3532C17.4518 17.3284 17.1211 17.264 16.8014 17.1613L16.745 17.1418C16.1288 16.9445 15.4756 16.8904 14.8353 16.9836C14.8244 16.9663 14.8147 16.9489 14.8049 16.9316C15.4604 16.8325 16.13 16.8863 16.7613 17.0887L16.8187 17.1072C17.1487 17.2133 17.4905 17.2785 17.8365 17.3012Z" fill="#333333"/>
<path d="M17.6663 17.4667C17.6457 17.4829 17.6262 17.5003 17.6045 17.5165C17.3317 17.4841 17.0628 17.4253 16.8014 17.341L16.745 17.3225C16.164 17.1359 15.5496 17.0768 14.9436 17.1491L14.9068 17.0971C15.53 17.0174 16.1632 17.0758 16.7613 17.2683L16.8187 17.2879C17.0943 17.3766 17.3783 17.4366 17.6663 17.4667Z" fill="#333333"/>
<path d="M17.4583 17.6211L17.3857 17.6644C17.1878 17.6307 16.9926 17.5829 16.8015 17.5214L16.7451 17.503C16.209 17.3303 15.6437 17.2665 15.0825 17.3154C15.0665 17.2993 15.0513 17.2823 15.037 17.2645C15.6188 17.2075 16.2061 17.2706 16.7625 17.4498L16.8199 17.4683C17.0285 17.5353 17.2419 17.5864 17.4583 17.6211Z" fill="#333333"/>
<path d="M17.2112 17.7532C17.1816 17.7672 17.1512 17.7795 17.1202 17.79C17.0118 17.7651 16.9034 17.7347 16.8015 17.7011L16.7452 17.6827C16.2654 17.5274 15.7619 17.4587 15.2581 17.48C15.2386 17.4641 15.2191 17.4468 15.1996 17.428C15.728 17.397 16.2575 17.4643 16.7614 17.6263L16.8189 17.6448C16.9476 17.6879 17.0786 17.7241 17.2112 17.7532Z" fill="#333333"/>
<path d="M16.9142 17.8561C16.8763 17.8659 16.8373 17.8746 16.7983 17.8811L16.7452 17.8626C16.3479 17.7343 15.9336 17.6664 15.5161 17.661C15.4846 17.6437 15.4543 17.6242 15.424 17.6036C15.8786 17.6007 16.3308 17.6703 16.7636 17.8095L16.821 17.828L16.9142 17.8561Z" fill="#333333"/>
<path d="M16.4914 17.9136H16.4568C16.2382 17.915 16.0211 17.8783 15.8151 17.8052C16.0432 17.8223 16.2694 17.8585 16.4914 17.9136Z" fill="#333333"/>
<path d="M13.539 16.3961C13.1863 16.4575 12.8274 16.4754 12.4703 16.4492C12.5055 16.4301 12.5417 16.4131 12.5787 16.3982C12.8655 16.4134 13.1532 16.3993 13.4371 16.356C13.4696 16.3679 13.5043 16.3809 13.539 16.3961Z" fill="#333333"/>
<path d="M13.7819 16.5272C13.2806 16.6451 12.7621 16.6715 12.2515 16.6053L12.31 16.5565C12.7804 16.6118 13.2568 16.5873 13.719 16.4839L13.7819 16.5272Z" fill="#333333"/>
<path d="M13.939 16.6649C13.3392 16.8308 12.7106 16.8645 12.0965 16.7635C12.1097 16.7462 12.1238 16.7295 12.1388 16.7137C12.7238 16.8061 13.3218 16.774 13.8935 16.6194L13.939 16.6649Z" fill="#333333"/>
<path d="M14.0626 16.8089C13.39 17.0172 12.6764 17.0567 11.9849 16.9238C11.9946 16.9065 12.0044 16.8892 12.0163 16.8718C12.6851 16.9982 13.3745 16.9611 14.0257 16.7634C14.0388 16.7775 14.0507 16.7938 14.0626 16.8089Z" fill="#333333"/>
<path d="M14.1568 16.9607L14.133 16.9683C13.414 17.2034 12.6457 17.2445 11.9057 17.0876C11.9133 17.0702 11.9198 17.0529 11.9285 17.0355C12.6526 17.186 13.4036 17.145 14.107 16.9163L14.1254 16.9109C14.1395 16.9271 14.1482 16.9445 14.1568 16.9607Z" fill="#333333"/>
<path d="M14.2274 17.1191L14.1331 17.1484C13.3979 17.3886 12.6116 17.426 11.857 17.2568C11.857 17.2384 11.8657 17.2199 11.8711 17.2026C12.6147 17.3693 13.3895 17.3318 14.1136 17.0942C14.1461 17.0834 14.1775 17.0736 14.21 17.0649C14.2154 17.0845 14.2209 17.1018 14.2274 17.1191Z" fill="#333333"/>
<path d="M14.2739 17.2848L14.133 17.3282C13.3881 17.5738 12.5902 17.6113 11.8255 17.4366L11.8309 17.3716C12.5843 17.5476 13.3716 17.5135 14.107 17.2729L14.2577 17.2263C14.2663 17.248 14.2696 17.2632 14.2739 17.2848Z" fill="#333333"/>
<path d="M14.2978 17.4582C14.2426 17.4734 14.1895 17.4907 14.1331 17.5081C13.3871 17.7531 12.5881 17.7884 11.8234 17.61C11.8234 17.5915 11.8234 17.572 11.8234 17.5536C12.5809 17.7312 13.3726 17.6979 14.1125 17.4571C14.1732 17.4376 14.2339 17.4181 14.2946 17.4019C14.2946 17.4203 14.2968 17.4398 14.2978 17.4582Z" fill="#333333"/>
<path d="M14.2987 17.5808C14.2998 17.6003 14.2998 17.6198 14.2987 17.6393C14.2435 17.6545 14.1904 17.6719 14.1362 17.6892C13.398 17.931 12.6081 17.9685 11.8503 17.7976C11.8503 17.7781 11.8427 17.7586 11.8406 17.7391C12.5942 17.9135 13.3812 17.879 14.1167 17.6393C14.173 17.6166 14.2359 17.5971 14.2987 17.5808Z" fill="#333333"/>
<path d="M14.2794 17.7651C14.2794 17.7868 14.2707 17.8074 14.2653 17.8291C14.2209 17.841 14.1764 17.8551 14.1331 17.8692C13.4141 18.1043 12.6457 18.1454 11.9058 17.9884C11.8971 17.9689 11.8906 17.9483 11.883 17.9277C12.6217 18.0916 13.391 18.0542 14.1103 17.8193C14.1667 17.7991 14.223 17.781 14.2794 17.7651Z" fill="#333333"/>
<path d="M14.2262 17.9624C14.2176 17.9852 14.2078 18.0079 14.1991 18.0296C14.1768 18.035 14.1547 18.0415 14.133 18.0491C13.4474 18.2745 12.7159 18.323 12.0065 18.19C11.9935 18.1694 11.9805 18.1477 11.9686 18.1261C12.6806 18.2667 13.4168 18.2227 14.107 17.9982C14.1493 17.9852 14.1872 17.9732 14.2262 17.9624Z" fill="#333333"/>
<path d="M14.1244 18.1736C14.1105 18.1982 14.0953 18.2221 14.0789 18.2451C13.4614 18.4401 12.8076 18.492 12.167 18.3969C12.1453 18.3752 12.1258 18.3524 12.1063 18.3297C12.7768 18.4409 13.4643 18.3889 14.1104 18.1779L14.1244 18.1736Z" fill="#333333"/>
<path d="M13.9434 18.4087C13.9152 18.4369 13.8859 18.464 13.8556 18.49C13.3917 18.6075 12.9116 18.6474 12.4346 18.6081C12.3995 18.588 12.3655 18.5659 12.3328 18.542C12.8732 18.602 13.4201 18.5567 13.9434 18.4087Z" fill="#333333"/>
<path d="M13.5457 18.6799C13.3926 18.7455 13.2277 18.7791 13.0612 18.7786C12.969 18.7785 12.877 18.7683 12.787 18.7482C13.0414 18.7483 13.2953 18.7254 13.5457 18.6799Z" fill="#333333"/>
<path d="M10.81 16.2725C10.427 16.2115 10.0375 16.2034 9.6524 16.2486C9.6795 16.2259 9.70876 16.2042 9.73803 16.1836C10.0665 16.1521 10.3974 16.1587 10.7243 16.2031C10.7543 16.2244 10.7829 16.2476 10.81 16.2725Z" fill="#333333"/>
<path d="M10.9768 16.4817C10.4818 16.3829 9.97303 16.3734 9.47461 16.4535C9.48762 16.4318 9.50279 16.4112 9.51796 16.3907C9.98912 16.321 10.4686 16.3302 10.9367 16.4177C10.9515 16.4382 10.9649 16.4595 10.9768 16.4817Z" fill="#333333"/>
<path d="M11.0603 16.6801C10.5086 16.559 9.93826 16.5487 9.38251 16.6498C9.39009 16.6292 9.3966 16.6086 9.40527 16.5891C9.94762 16.4936 10.5033 16.5035 11.0419 16.6183C11.0484 16.6389 11.0549 16.6595 11.0603 16.6801Z" fill="#333333"/>
<path d="M11.0927 16.8663C10.5183 16.736 9.92311 16.7257 9.34448 16.8359C9.34448 16.8164 9.34448 16.7969 9.35207 16.7774C9.92621 16.67 10.5162 16.6803 11.0862 16.8078C11.0895 16.8294 11.0916 16.8468 11.0927 16.8663Z" fill="#333333"/>
<path d="M11.0907 16.99C11.0907 17.0095 11.0907 17.0279 11.0907 17.0463C10.5208 16.917 9.93038 16.907 9.35651 17.0171C9.35651 16.9987 9.35651 16.9792 9.35651 16.9607C9.9305 16.852 10.5207 16.862 11.0907 16.99Z" fill="#333333"/>
<path d="M11.0593 17.1624C11.0593 17.1809 11.0484 17.1982 11.0419 17.2166C10.4963 17.0985 9.9327 17.0897 9.38364 17.1906C9.38364 17.1722 9.3728 17.1548 9.36847 17.1364C9.92826 17.0334 10.5029 17.0422 11.0593 17.1624Z" fill="#333333"/>
<path d="M10.992 17.328C10.9833 17.3453 10.9736 17.3627 10.9628 17.38C10.4666 17.2836 9.95724 17.2759 9.45837 17.3573C9.44862 17.3399 9.43995 17.3226 9.43127 17.3052C9.94854 17.2174 10.4775 17.2251 10.992 17.328Z" fill="#333333"/>
<path d="M10.8836 17.4884L10.8381 17.5372C10.4218 17.4691 9.99771 17.4633 9.57972 17.5198C9.56454 17.5036 9.54937 17.4862 9.53528 17.4689C9.9829 17.4038 10.438 17.4104 10.8836 17.4884Z" fill="#333333"/>
<path d="M10.7112 17.6427C10.6868 17.6597 10.6615 17.6752 10.6354 17.6893C10.3511 17.6566 10.0642 17.6527 9.77913 17.6774C9.75318 17.6632 9.7282 17.6473 9.70435 17.6297C10.0393 17.5945 10.3773 17.5989 10.7112 17.6427Z" fill="#333333"/>
<path d="M10.3206 17.7887C10.2848 17.7933 10.2486 17.7955 10.2125 17.7952C10.1709 17.7951 10.1294 17.7922 10.0881 17.7866C10.1692 17.7855 10.2449 17.7866 10.3206 17.7887Z" fill="#333333"/>
<path d="M8.31603 12.4205C8.04891 12.4727 7.77747 12.4995 7.50531 12.5007C7.58946 12.4723 7.67571 12.4506 7.76327 12.4357C7.85756 12.4357 7.95077 12.4205 8.04398 12.4075H8.09167C8.16666 12.4069 8.24161 12.4113 8.31603 12.4205Z" fill="#333333"/>
<path d="M8.69644 12.5059C8.19092 12.6553 7.66217 12.71 7.13678 12.6674C7.16713 12.649 7.19748 12.6317 7.22891 12.6165C7.69021 12.6451 8.15307 12.5975 8.59889 12.4756C8.63249 12.4843 8.665 12.494 8.69644 12.5059Z" fill="#333333"/>
<path d="M8.94347 12.6102L8.84159 12.6416L8.80799 12.6524C8.1962 12.8493 7.54802 12.9063 6.91125 12.8193L6.97303 12.7716C7.58579 12.8478 8.20777 12.7901 8.79607 12.6026L8.82966 12.5917L8.87519 12.5776C8.8947 12.5852 8.91962 12.6026 8.94347 12.6102Z" fill="#333333"/>
<path d="M9.15279 12.7338C9.0444 12.7587 8.9436 12.788 8.84172 12.8216L8.80812 12.8324C8.14159 13.0483 7.43236 13.0978 6.74231 12.9766L6.79108 12.9289C7.46176 13.0411 8.14959 12.9897 8.7962 12.7793L8.8298 12.7685C8.91651 12.7403 9.0043 12.7143 9.09317 12.6926C9.11372 12.7053 9.13362 12.7191 9.15279 12.7338Z" fill="#333333"/>
<path d="M9.33814 12.8736C9.17195 12.9059 9.00797 12.9486 8.84715 13.0015L8.81355 13.0135C8.1029 13.2437 7.34441 13.284 6.61334 13.1305L6.65236 13.0817C7.36559 13.2264 8.10411 13.1842 8.79621 12.9593L8.82981 12.9484C8.97874 12.8996 9.13037 12.8594 9.28394 12.8281C9.29695 12.8422 9.31537 12.8574 9.33814 12.8736Z" fill="#333333"/>
<path d="M9.48875 13.0278C9.26807 13.0614 9.05056 13.1132 8.83844 13.1828L8.80484 13.1936C8.0577 13.4358 7.25846 13.4684 6.49408 13.2879C6.50492 13.2706 6.51576 13.2532 6.52768 13.237C7.27819 13.4127 8.06238 13.3809 8.79617 13.1448L8.82977 13.1329C9.03099 13.0655 9.2372 13.0141 9.44648 12.979C9.46093 12.9956 9.47502 13.0119 9.48875 13.0278Z" fill="#333333"/>
<path d="M9.62001 13.1889C9.35564 13.2215 9.09503 13.2796 8.84181 13.3623L8.80821 13.3731C8.0314 13.6246 7.19898 13.6494 6.40857 13.4447L6.43567 13.3937C7.21374 13.5923 8.03212 13.5668 8.79628 13.32L8.82988 13.3092C9.07685 13.2284 9.33087 13.1711 9.58858 13.1379C9.59508 13.1542 9.60809 13.1715 9.62001 13.1889Z" fill="#333333"/>
<path d="M9.72827 13.3613C9.42679 13.3895 9.12941 13.4513 8.84168 13.5456L8.80809 13.5564C8.00728 13.8154 7.1481 13.8339 6.33691 13.6095L6.35751 13.5575C7.15644 13.7777 8.00241 13.7589 8.79074 13.5033L8.82434 13.4925C9.10589 13.3998 9.39659 13.3376 9.69142 13.3071C9.70477 13.3244 9.71707 13.3425 9.72827 13.3613Z" fill="#333333"/>
<path d="M9.81507 13.5295C9.48338 13.5554 9.15593 13.6205 8.8396 13.7235L8.806 13.7344C7.98693 13.9995 7.1071 14.0123 6.28064 13.7712C6.28064 13.7528 6.29039 13.7344 6.29581 13.717C7.11168 13.9549 7.98018 13.942 8.78866 13.6802L8.82226 13.6693C9.13546 13.5671 9.45958 13.502 9.78797 13.4753C9.79881 13.4938 9.80748 13.5111 9.81507 13.5295Z" fill="#333333"/>
<path d="M9.88015 13.7051C9.52634 13.7271 9.17674 13.7937 8.83965 13.9034L8.80605 13.9143C7.97309 14.1841 7.07754 14.1928 6.2395 13.9392C6.2395 13.9197 6.24709 13.9012 6.25142 13.8828C7.07956 14.1348 7.965 14.1273 8.78871 13.8611L8.82231 13.8503C9.15901 13.7404 9.50824 13.6734 9.86172 13.6509C9.87039 13.6693 9.88015 13.6866 9.88015 13.7051Z" fill="#333333"/>
<path d="M9.93086 13.8835C9.56232 13.9014 9.19781 13.9685 8.84702 14.0829L8.81342 14.0938C7.97232 14.3661 7.06769 14.3721 6.22302 14.1111C6.22412 14.0922 6.22629 14.0734 6.22953 14.0548C7.06597 14.3152 7.96254 14.3103 8.79608 14.0407L8.82968 14.0298C9.18369 13.9144 9.55141 13.8462 9.92328 13.8271C9.92219 13.8456 9.92761 13.8651 9.93086 13.8835Z" fill="#333333"/>
<path d="M9.96136 14.0615C9.58071 14.0773 9.20401 14.1452 8.84174 14.2631L8.80814 14.275C7.96325 14.5477 7.05471 14.5527 6.20691 14.2891C6.20691 14.2696 6.20691 14.2501 6.20691 14.2306C7.04978 14.4983 7.95539 14.4948 8.79622 14.2208L8.82982 14.21C9.19534 14.0912 9.57523 14.0223 9.95919 14.0051C9.95702 14.0236 9.95919 14.0431 9.96136 14.0615Z" fill="#333333"/>
<path d="M9.97427 14.2403C9.58917 14.2568 9.20812 14.3257 8.84165 14.4452L8.80805 14.456C7.96692 14.7285 7.06213 14.7341 6.21765 14.4723C6.21765 14.4528 6.21765 14.4333 6.21765 14.4127C7.05747 14.6765 7.95855 14.6727 8.79612 14.4018L8.82972 14.3899C9.20127 14.2699 9.5874 14.201 9.97752 14.1851C9.97318 14.2035 9.97427 14.2219 9.97427 14.2403Z" fill="#333333"/>
<path d="M9.9731 14.365C9.9742 14.3838 9.9742 14.4026 9.9731 14.4213C9.58946 14.4366 9.20977 14.5048 8.84481 14.624L8.81121 14.6349C7.97968 14.904 7.08582 14.9131 6.249 14.6609C6.24424 14.6401 6.24063 14.6192 6.23816 14.598C7.07213 14.856 7.96542 14.8504 8.79604 14.5818L8.82964 14.5709C9.19966 14.4506 9.58436 14.3814 9.9731 14.365Z" fill="#333333"/>
<path d="M9.95803 14.5461C9.95803 14.5657 9.95803 14.5852 9.94936 14.6036C9.57272 14.6197 9.20005 14.6872 8.84167 14.8041L8.80807 14.8149C7.99334 15.0782 7.11862 15.0925 6.29571 14.8561C6.28921 14.8355 6.2827 14.8139 6.27728 14.7922C7.10047 15.0383 7.97912 15.0277 8.79614 14.7618L8.82974 14.751C9.19472 14.6315 9.57435 14.5626 9.95803 14.5461Z" fill="#333333"/>
<path d="M9.92335 14.7278C9.92335 14.7473 9.91467 14.7668 9.90925 14.7852C9.54611 14.8055 9.18719 14.8733 8.84167 14.9868L8.80807 14.9987C8.01871 15.253 7.17281 15.2744 6.37158 15.0605L6.34448 14.9955C7.14924 15.219 8.00205 15.2001 8.79614 14.9413L8.82974 14.9305C9.18361 14.8144 9.5514 14.7463 9.92335 14.7278Z" fill="#333333"/>
<path d="M9.86908 14.9124C9.86299 14.9316 9.85575 14.9504 9.8474 14.9687C9.50538 14.9928 9.16759 15.0586 8.84159 15.1649L8.808 15.1757C8.05537 15.419 7.25031 15.4505 6.48097 15.2668C6.46652 15.2444 6.45352 15.2216 6.44196 15.1985C7.2181 15.3959 8.03425 15.3696 8.79607 15.1226L8.82967 15.1107C9.1665 15.0014 9.51569 14.9348 9.86908 14.9124Z" fill="#333333"/>
<path d="M9.79331 15.0957C9.78463 15.1152 9.77488 15.1347 9.76404 15.1542C9.4504 15.1817 9.14093 15.245 8.84169 15.3428L8.80809 15.3537C8.10449 15.5824 7.35385 15.626 6.62847 15.4805C6.61005 15.4577 6.59162 15.4349 6.57428 15.4111C7.30827 15.5712 8.07159 15.5338 8.78641 15.3027L8.82001 15.2919C9.13549 15.188 9.46223 15.1222 9.79331 15.0957Z" fill="#333333"/>
<path d="M9.68922 15.2874C9.67621 15.3079 9.6632 15.3285 9.64911 15.348C9.37465 15.3816 9.10418 15.4422 8.84165 15.5291L8.80805 15.5399C8.17465 15.743 7.50285 15.7968 6.8452 15.697L6.77258 15.6277C7.44889 15.7443 8.1434 15.6944 8.79613 15.4824L8.82973 15.4716C9.10887 15.3799 9.39699 15.3181 9.68922 15.2874Z" fill="#333333"/>
<path d="M9.54726 15.4846C9.52992 15.5063 9.51149 15.528 9.49198 15.5486C9.27141 15.5832 9.05396 15.6354 8.84167 15.7046L8.80807 15.7166C8.26758 15.8918 7.69754 15.9574 7.13136 15.9095C7.09668 15.8889 7.06308 15.8672 7.02948 15.8434C7.62454 15.9097 8.22689 15.8479 8.79615 15.6624L8.82975 15.6515C9.06348 15.5747 9.3036 15.5188 9.54726 15.4846Z" fill="#333333"/>
<path d="M9.33814 15.7004C9.30779 15.7265 9.27744 15.7525 9.24493 15.7774C9.10791 15.806 8.97258 15.8422 8.83957 15.8858L8.80597 15.8966C8.4112 16.0253 7.9996 16.0951 7.58447 16.1036C7.52669 16.0886 7.46987 16.0702 7.41431 16.0484C7.88312 16.0572 8.35013 15.988 8.79621 15.8435L8.82981 15.8327C8.99621 15.7776 9.16601 15.7335 9.33814 15.7004Z" fill="#333333"/>
<path d="M8.91212 15.9854C8.68575 16.0953 8.43947 16.1584 8.18811 16.1707C8.39422 16.137 8.59748 16.0877 8.79615 16.0233L8.82975 16.0124L8.91212 15.9854Z" fill="#333333"/>
<path d="M13.525 9.35757C14.5647 9.35757 15.4076 8.51468 15.4076 7.47493C15.4076 6.43517 14.5647 5.59229 13.525 5.59229C12.4852 5.59229 11.6423 6.43517 11.6423 7.47493C11.6423 8.51468 12.4852 9.35757 13.525 9.35757Z" fill="#333333"/>
<path d="M10.0697 8.84928C10.536 8.84928 10.914 8.47127 10.914 8.00496C10.914 7.53866 10.536 7.16064 10.0697 7.16064C9.60342 7.16064 9.2254 7.53866 9.2254 8.00496C9.2254 8.47127 9.60342 8.84928 10.0697 8.84928Z" fill="#333333"/>
<path d="M16.6561 10.8142C17.3044 10.8142 17.8299 10.2886 17.8299 9.64036C17.8299 8.99208 17.3044 8.46655 16.6561 8.46655C16.0078 8.46655 15.4823 8.99208 15.4823 9.64036C15.4823 10.2886 16.0078 10.8142 16.6561 10.8142Z" fill="#333333"/>
<path d="M8.04282 11.2924C8.6911 11.2924 9.21663 10.7669 9.21663 10.1186C9.21663 9.47036 8.6911 8.94482 8.04282 8.94482C7.39455 8.94482 6.86902 9.47036 6.86902 10.1186C6.86902 10.7669 7.39455 11.2924 8.04282 11.2924Z" fill="#333333"/>
<path d="M17.5016 13.2257C17.9679 13.2257 18.3459 12.8477 18.3459 12.3814C18.3459 11.9151 17.9679 11.5371 17.5016 11.5371C17.0353 11.5371 16.6573 11.9151 16.6573 12.3814C16.6573 12.8477 17.0353 13.2257 17.5016 13.2257Z" fill="#333333"/>
<path d="M16.1989 17.5202C17.2327 17.5202 18.0707 16.6822 18.0707 15.6484C18.0707 14.6146 17.2327 13.7766 16.1989 13.7766C15.1651 13.7766 14.3271 14.6146 14.3271 15.6484C14.3271 16.6822 15.1651 17.5202 16.1989 17.5202Z" fill="#333333"/>
<path d="M12.8075 18.3849C13.4923 18.3849 14.0474 17.8297 14.0474 17.1449C14.0474 16.4602 13.4923 15.905 12.8075 15.905C12.1227 15.905 11.5676 16.4602 11.5676 17.1449C11.5676 17.8297 12.1227 18.3849 12.8075 18.3849Z" fill="#333333"/>
<path d="M9.96344 17.4021C10.4477 17.4021 10.8403 17.0095 10.8403 16.5253C10.8403 16.041 10.4477 15.6484 9.96344 15.6484C9.47918 15.6484 9.08661 16.041 9.08661 16.5253C9.08661 17.0095 9.47918 17.4021 9.96344 17.4021Z" fill="#333333"/>
<path d="M7.83809 15.7785C8.87784 15.7785 9.72073 14.9356 9.72073 13.8958C9.72073 12.8561 8.87784 12.0132 7.83809 12.0132C6.79833 12.0132 5.95544 12.8561 5.95544 13.8958C5.95544 14.9356 6.79833 15.7785 7.83809 15.7785Z" fill="#333333"/>
</svg>
