<svg width="68" height="20" viewBox="0 0 68 20" fill="none" xmlns="http://www.w3.org/2000/svg">
<path d="M16.8777 13.599C16.9434 13.5487 16.9905 13.4781 17.0117 13.3981C17.9686 11.3695 18.9254 9.33611 19.9254 7.31708C20.5141 6.06659 21.255 4.89352 22.131 3.82446C23.106 2.58012 24.4279 1.65274 25.9298 1.15954C26.6366 0.951904 27.366 0.831401 28.102 0.800706C30.0687 0.758389 32.0321 0.982092 33.9389 1.46574C35.6948 1.85806 37.422 2.37 39.1635 2.81973C39.2879 2.85322 39.3166 2.91063 39.2975 3.02546C39.2305 3.413 39.1635 3.79575 39.1109 4.18329C39.1109 4.34596 39.0248 4.36509 38.8813 4.31247C37.6182 3.88187 36.3407 3.51347 35.0537 3.20248C33.5748 2.84143 32.0718 2.5872 30.5564 2.44176C29.859 2.3653 29.1569 2.34131 28.456 2.36999C27.5409 2.40719 26.6434 2.6334 25.82 3.0344C24.9966 3.4354 24.2651 4.0025 23.6716 4.70001C23.0159 5.48276 22.4658 6.34815 22.0353 7.27402C21.021 9.35524 19.978 11.4221 18.935 13.4938C18.026 15.3023 17.1074 17.106 16.1983 18.9145C16.1778 18.9763 16.1366 19.029 16.0817 19.0639C16.0268 19.0988 15.9615 19.1136 15.8969 19.1059H14.0836C13.8827 19.1059 13.8731 19.1059 13.964 18.9097C14.5046 17.8619 15.0405 16.8141 15.5859 15.7664C15.6466 15.657 15.6621 15.5282 15.629 15.4075C15.0931 13.3502 14.5589 11.2913 14.0262 9.23085C13.9784 9.03947 13.9879 9.02512 14.1937 9.02512C14.7056 9.02512 15.2175 9.02512 15.7295 9.02512C15.8873 9.02512 15.9495 9.08253 15.9782 9.23563C16.2557 10.6231 16.5428 12.0058 16.8299 13.3933C16.8394 13.4555 16.8394 13.5129 16.8777 13.599Z" fill="#333333"/>
<path d="M27.7762 15.9621C27.4557 15.9621 27.1399 15.9621 26.8193 15.9621C26.671 15.9621 26.6088 15.9095 26.5801 15.766C26.4653 15.1535 26.3361 14.5459 26.2261 13.9335C26.1974 13.7661 26.1304 13.7134 25.9581 13.7134C24.7907 13.7134 23.6233 13.7134 22.4559 13.7134C22.3853 13.7063 22.3142 13.7232 22.2543 13.7614C22.1944 13.7996 22.1491 13.8568 22.1258 13.924C21.8244 14.5411 21.5086 15.1583 21.2072 15.7755C21.1862 15.8346 21.1461 15.8851 21.0933 15.9189C21.0404 15.9526 20.9778 15.9679 20.9154 15.9621H18.8868C18.681 15.9621 18.6715 15.9621 18.7672 15.7612L22.7334 8.1061C22.9893 7.54034 23.2934 6.99769 23.6425 6.48418C23.8865 6.14147 24.2165 5.86918 24.5994 5.69475C24.8187 5.59403 25.0566 5.54025 25.2979 5.53687C25.6089 5.53687 25.9199 5.53687 26.2308 5.53687C26.4174 5.53687 26.4892 5.59906 26.5323 5.77609C26.9278 7.46658 27.3313 9.15548 27.7427 10.8428C28.1287 12.4663 28.5178 14.0882 28.9101 15.7085C28.9723 15.9573 28.958 15.9717 28.7044 15.9717L27.7762 15.9621ZM25.0634 7.46499H25.03L24.9869 7.53675C24.3777 8.97208 23.7685 10.4074 23.1592 11.8427C23.0923 12.0054 23.1592 12.0006 23.2884 12.0006H25.5467C25.7763 12.0006 25.7763 12.0006 25.738 11.7662L25.3362 9.17781L25.0634 7.46499Z" fill="#333333"/>
<path d="M58.1099 15.2823L57.9233 15.4881C57.7116 15.713 57.4568 15.8929 57.174 16.017C56.8912 16.1411 56.5862 16.2069 56.2774 16.2105C55.7008 16.265 55.1214 16.1414 54.6172 15.8565C54.3094 15.6678 54.0453 15.4157 53.8424 15.1171C53.6395 14.8185 53.5024 14.4801 53.4403 14.1245C53.1624 12.9721 53.3014 11.7586 53.8326 10.6989C54.0314 10.2542 54.3366 9.86538 54.7212 9.56666C55.1059 9.26794 55.5582 9.06852 56.0382 8.98603C56.5461 8.86674 57.0782 8.90286 57.5653 9.08969C58.0525 9.27653 58.4722 9.60547 58.7701 10.0338L58.8132 10.0912L58.8562 10.1199C58.9176 9.90776 58.9561 9.68963 58.9711 9.46926C59.1816 8.11049 59.3857 6.75171 59.5835 5.39293C59.5846 5.34462 59.604 5.29854 59.6377 5.26393C59.6714 5.22932 59.717 5.20875 59.7653 5.20634L61.2245 4.93842C61.3633 4.90971 61.3967 4.93842 61.3776 5.08673C61.1193 7.10257 60.8625 9.11521 60.6073 11.1247C60.4128 12.6748 60.2182 14.225 60.0236 15.7751C60.0236 15.9234 59.9423 15.9713 59.8035 15.9665C59.2773 15.9665 58.7558 15.9665 58.2343 15.9665C58.0524 15.9665 58.0285 15.933 58.0524 15.7464C58.0764 15.5598 58.0859 15.4641 58.1099 15.2823ZM55.2392 12.804V12.8901C55.2125 13.2122 55.2953 13.5339 55.4742 13.803C55.6531 14.0722 55.9175 14.2731 56.2248 14.3733C56.5546 14.501 56.9169 14.5178 57.2571 14.4211C57.5972 14.3244 57.8966 14.1195 58.1099 13.8374C58.412 13.419 58.5789 12.9181 58.5883 12.4021C58.6447 11.9647 58.5556 11.5208 58.3347 11.139C58.1846 10.9451 57.9932 10.7871 57.7744 10.6765C57.5555 10.5659 57.3148 10.5054 57.0697 10.4994C56.8245 10.4935 56.5812 10.5422 56.3572 10.6421C56.1333 10.7419 55.9344 10.8905 55.7751 11.0768C55.4093 11.5762 55.2252 12.1856 55.2536 12.804H55.2392Z" fill="#333333"/>
<path d="M1.1418 15.9911H0.333235C0.0987982 15.9911 0.0940144 15.9911 0.122721 15.7662C0.194487 15.1778 0.271037 14.5893 0.342804 14.0056C0.476767 12.953 0.605946 11.9052 0.739909 10.8574C0.873873 9.80964 1.00305 8.77142 1.13223 7.72842L1.36189 5.91512C1.39059 5.6759 1.39537 5.66155 1.62981 5.66155C2.37618 5.66155 3.12734 5.66155 3.8737 5.66155C4.29929 5.6584 4.72409 5.69848 5.14157 5.78116C5.7194 5.90655 6.24031 6.21761 6.62475 6.66685C7.00919 7.11608 7.23603 7.6788 7.27064 8.26906C7.33594 8.9205 7.23896 9.57798 6.98836 10.1828C6.77555 10.6873 6.42745 11.1232 5.98251 11.4424C5.53757 11.7615 5.01308 11.9515 4.46697 11.9913C3.93488 12.0503 3.39925 12.0711 2.86419 12.0535C2.71588 12.0535 2.66325 12.1157 2.64889 12.2545C2.51014 13.4027 2.36661 14.5558 2.22786 15.7088C2.18959 15.9911 2.19437 15.9911 1.91688 15.9911H1.1418ZM3.44311 10.2498C3.75317 10.2547 4.06239 10.216 4.36171 10.135C4.55644 10.0906 4.73435 9.99133 4.87429 9.84885C5.01423 9.70636 5.11032 9.5267 5.15114 9.3312C5.22912 9.00024 5.24051 8.65708 5.18463 8.32169C5.16827 8.11622 5.0811 7.92281 4.938 7.77447C4.79489 7.62613 4.60473 7.53206 4.39999 7.50833C4.06697 7.44879 3.72857 7.42473 3.39048 7.43657C3.29 7.43657 3.24694 7.49398 3.23738 7.58488C3.1369 8.40781 3.03165 9.22594 2.92639 10.0489C2.92639 10.1733 2.92639 10.245 3.08906 10.2402C3.25173 10.2355 3.30914 10.2498 3.44311 10.2498Z" fill="#333333"/>
<path d="M11.8061 9.94833C11.8443 9.66605 11.8778 9.43161 11.9018 9.19239C11.9018 9.068 11.9735 9.02494 12.0931 9.02494C12.6098 9.02494 13.1266 9.02494 13.6481 9.02494C13.8107 9.02494 13.8394 9.10149 13.8203 9.24024C13.7103 10.0966 13.605 10.9531 13.495 11.8095C13.361 12.8573 13.2318 13.905 13.0979 14.9528C13.0644 15.2447 13.0261 15.5365 12.9926 15.8284C12.9928 15.8483 12.9887 15.8681 12.9805 15.8863C12.9724 15.9045 12.9604 15.9208 12.9454 15.9339C12.9305 15.9471 12.9128 15.9569 12.8937 15.9626C12.8746 15.9683 12.8545 15.9699 12.8347 15.9671H11.1984C11.0788 15.9671 11.0549 15.9097 11.0693 15.7997C11.1034 15.657 11.1211 15.511 11.1219 15.3643C11.0693 15.3643 11.0549 15.3643 11.0406 15.3978C10.7872 15.7068 10.459 15.946 10.0872 16.0925C9.71545 16.2391 9.31236 16.2881 8.91627 16.2351C8.43154 16.2151 7.96434 16.0483 7.57664 15.7566C7.05221 15.3275 6.71022 14.7153 6.61975 14.0438C6.36254 12.8392 6.53166 11.5827 7.0982 10.489C7.28782 10.086 7.567 9.73172 7.91443 9.45311C8.26185 9.17451 8.66835 8.97896 9.10287 8.88141C9.50037 8.77845 9.91703 8.77434 10.3165 8.86941C10.716 8.96448 11.0861 9.15585 11.3946 9.42683C11.5471 9.58795 11.6849 9.76249 11.8061 9.94833ZM11.6051 12.1635C11.6099 12.0711 11.6099 11.9785 11.6051 11.886C11.6031 11.6549 11.5482 11.4274 11.4445 11.2209C11.3408 11.0144 11.1912 10.8344 11.0071 10.6947C10.6636 10.4614 10.2425 10.3718 9.83384 10.4451C9.42517 10.5184 9.06146 10.7488 8.82059 11.087C8.60846 11.414 8.46513 11.7807 8.39932 12.1648C8.33352 12.5489 8.34662 12.9424 8.43783 13.3213C8.48414 13.5916 8.6137 13.8406 8.80842 14.0336C9.00313 14.2266 9.25328 14.3539 9.5239 14.3978C9.80969 14.478 10.1131 14.4698 10.3941 14.3741C10.6751 14.2784 10.9205 14.0999 11.098 13.862C11.4569 13.3708 11.636 12.7711 11.6051 12.1635Z" fill="#333333"/>
<path d="M64.6065 8.35925C65.1643 8.35455 65.7121 8.508 66.1863 8.80183C66.6605 9.09566 67.0417 9.51783 67.2858 10.0194C67.518 10.4552 67.6795 10.9252 67.7642 11.4117C67.8121 11.6318 67.8025 11.6461 67.5968 11.7036L64.2477 12.6604C63.8171 12.7801 63.3865 12.9092 62.9511 13.0193C62.7932 13.0623 62.7693 13.1341 62.8171 13.2776C62.9151 13.6108 63.1305 13.8972 63.4234 14.0837C63.7164 14.2703 64.067 14.3442 64.4104 14.2919C64.7935 14.2594 65.1594 14.1183 65.4653 13.8853C65.7712 13.6523 66.0044 13.3369 66.1375 12.9762C66.1997 12.8279 66.2667 12.8183 66.4007 12.8805L67.6255 13.4307C67.8312 13.5216 67.836 13.536 67.7499 13.7513C67.5618 14.1928 67.2846 14.5907 66.9355 14.9201C66.5864 15.2494 66.173 15.503 65.7213 15.6651C65.1972 15.8903 64.636 16.0169 64.0659 16.0382C63.4893 16.0808 62.9127 15.9574 62.404 15.6827C61.8953 15.4081 61.4759 14.9935 61.1952 14.4881C60.8208 13.8954 60.6068 13.2156 60.574 12.5152C60.5413 11.8149 60.6911 11.1181 61.0086 10.4931C61.2936 9.92691 61.7146 9.44035 62.2341 9.07709C62.7535 8.71383 63.355 8.48526 63.9845 8.41188C64.1896 8.37371 64.398 8.35608 64.6065 8.35925ZM64.2812 9.89505C63.8253 9.92744 63.3952 10.1188 63.0659 10.4357C62.7306 10.7978 62.5428 11.2722 62.5397 11.7658C62.5397 11.8997 62.6162 11.8614 62.688 11.8423L64.0324 11.4691L65.5251 11.0433C65.5921 11.0433 65.6782 11.0433 65.6447 10.9046C65.5697 10.6043 65.3927 10.3395 65.144 10.1553C64.8952 9.97116 64.5903 9.87916 64.2812 9.89505Z" fill="#333333"/>
<path d="M48.1007 8.95297H48.9475C49.0623 8.95297 49.1102 8.98646 49.0958 9.11564C48.9523 10.1746 48.8151 11.2288 48.6844 12.2781C48.6323 12.585 48.6019 12.8952 48.5935 13.2063C48.5935 14.101 49.1963 14.4981 50.0288 14.4311C50.3455 14.4131 50.6474 14.2907 50.8872 14.0829C51.1269 13.8752 51.2911 13.5938 51.3541 13.2829C51.537 12.6364 51.6634 11.9753 51.732 11.3069C51.8277 10.5749 51.9234 9.87158 52.0143 9.12043C52.0143 9.01039 52.0765 8.95297 52.1913 8.95297H53.8994C53.9425 8.95297 53.9999 8.95297 54.019 8.99125C54.0381 9.02953 54.019 9.07737 53.9664 9.11086C53.4818 9.78782 53.1757 10.576 53.0765 11.4026C52.9525 12.2233 52.9899 13.0602 53.1865 13.8666C53.2277 14.0042 53.2175 14.1521 53.1578 14.2828C52.9956 14.6905 52.7429 15.0561 52.4189 15.3519C52.0948 15.6478 51.7078 15.8663 51.2871 15.9909C50.2302 16.3459 49.0809 16.3103 48.048 15.8904C47.5962 15.7156 47.2096 15.405 46.9414 15.0015C46.6732 14.5979 46.5367 14.1212 46.5505 13.6369C46.5759 12.9126 46.6446 12.1905 46.7562 11.4744C46.8567 10.6897 46.9668 9.90507 47.0624 9.11564C47.0624 8.97211 47.1438 8.93384 47.273 8.93862L48.1007 8.95297Z" fill="#333333"/>
<path d="M43.1534 15.962H42.3257C42.187 15.962 42.1439 15.9141 42.1631 15.7754C42.3879 14.1248 42.608 12.4694 42.8281 10.8187C42.8568 10.5987 42.8281 10.5747 42.608 10.5699H41.7181C41.5842 10.5699 41.5172 10.5365 41.5411 10.3786C41.6033 9.97668 41.6559 9.57001 41.699 9.16333C41.699 8.98631 41.7947 8.93368 41.9669 8.94325C42.2683 8.94325 42.5745 8.94325 42.8807 8.94325C43.0051 8.94325 43.0625 8.90976 43.0769 8.77101C43.1582 8.11554 43.2539 7.46008 43.3353 6.80461C43.3353 6.67065 43.407 6.6228 43.5458 6.6228C44.096 6.6228 44.6462 6.6228 45.2012 6.6228C45.3782 6.6228 45.4069 6.65629 45.3782 6.84289L45.1198 8.66575C45.1222 8.68962 45.1222 8.71365 45.1198 8.73752C45.0768 8.90019 45.1485 8.94325 45.3064 8.93846C45.6222 8.93846 45.938 8.93846 46.2633 8.93846C46.4021 8.93846 46.4499 8.99109 46.4356 9.12506C46.3781 9.54608 46.3207 9.96711 46.2729 10.3929C46.2729 10.5269 46.1915 10.5652 46.0672 10.5652C45.7418 10.5652 45.4117 10.5652 45.0863 10.5652C44.938 10.5652 44.8806 10.6178 44.8615 10.7565C44.7467 11.6688 44.6286 12.5794 44.5074 13.4884C44.407 14.254 44.3017 15.0147 44.2012 15.7802C44.2012 15.9141 44.1295 15.9572 44.0003 15.9572L43.1534 15.962Z" fill="#333333"/>
<path d="M30.2975 15.9622C30.0248 15.9622 29.7473 15.9622 29.4698 15.9622C29.3262 15.9622 29.2784 15.9143 29.3023 15.766C29.4028 15.034 29.4985 14.2972 29.5942 13.5604C29.7234 12.6035 29.843 11.6466 29.9721 10.728C29.9721 10.6036 29.9721 10.5701 29.8382 10.5701C29.5176 10.5701 29.1923 10.5701 28.8813 10.5701C28.7282 10.5701 28.6756 10.5127 28.6995 10.3596C28.7569 9.94817 28.8143 9.53192 28.8622 9.11568C28.8622 8.99128 28.9291 8.94344 29.0487 8.94344C29.3645 8.94344 29.6851 8.94344 30.0056 8.94344C30.1683 8.94344 30.2257 8.88603 30.2449 8.73293C30.3214 8.10138 30.4123 7.46984 30.4889 6.81916C30.4889 6.65649 30.5702 6.60864 30.7233 6.60864C31.2735 6.60864 31.8189 6.60864 32.3643 6.60864C32.5174 6.60864 32.5653 6.6517 32.5414 6.80959C32.4457 7.44113 32.3643 8.07267 32.2782 8.72336C32.2495 8.92909 32.2782 8.94344 32.46 8.94344H33.4169C33.5413 8.94344 33.6035 8.94344 33.5796 9.12046C33.5222 9.54149 33.4743 9.96252 33.4265 10.3835C33.4265 10.5175 33.3499 10.5701 33.2112 10.5701C32.8906 10.5701 32.5701 10.5701 32.2543 10.5701C32.1108 10.5701 32.0438 10.6084 32.0247 10.7663C31.8141 12.4121 31.5941 14.058 31.374 15.7038C31.3405 15.9526 31.3405 15.9574 31.0869 15.9574L30.2975 15.9622Z" fill="#333333"/>
<path d="M37.8909 10.5749C37.7282 10.5749 37.5655 10.5749 37.4124 10.5749C37.2593 10.5749 37.2067 10.6276 37.1876 10.7711C37.111 11.3883 37.0249 12.0103 36.9435 12.6322C36.8032 13.6848 36.6661 14.7374 36.5321 15.79C36.5321 15.9144 36.4699 15.967 36.3455 15.9622H34.6566C34.5178 15.9622 34.4748 15.9048 34.4939 15.7708C34.6853 14.3642 34.8735 12.9576 35.0585 11.551C35.0968 11.283 35.1303 11.0151 35.1685 10.7472C35.1685 10.618 35.135 10.5702 35.0106 10.5702H34.0538C33.9198 10.5702 33.8672 10.5319 33.8911 10.3836C33.9533 9.97689 34.0011 9.56543 34.049 9.15397C34.049 8.99609 34.1303 8.93867 34.2882 8.94346C34.5992 8.94346 34.9102 8.94346 35.2451 8.94346C35.379 8.94346 35.4365 8.89561 35.4508 8.75686C35.5274 8.11575 35.6183 7.47942 35.6948 6.8431C35.6948 6.69478 35.7666 6.61823 35.934 6.62301C36.4795 6.62301 37.0249 6.62301 37.5703 6.62301C37.7665 6.62301 37.776 6.62302 37.7473 6.83832C37.6612 7.47943 37.5751 8.12532 37.4842 8.75208C37.4842 8.88605 37.4842 8.92432 37.6325 8.92432H38.6133C38.7712 8.92432 38.8095 8.97695 38.7903 9.13005C38.7297 9.54151 38.6771 9.95297 38.6325 10.3644C38.6325 10.5032 38.5607 10.5558 38.4267 10.551C38.2928 10.5462 38.0535 10.5749 37.8909 10.5749Z" fill="#333333"/>
<path d="M40.59 6.63826H41.4177C41.566 6.63826 41.5995 6.69089 41.5803 6.83443C41.3666 8.42923 41.1545 10.024 40.944 11.6188C40.7622 13.0015 40.5756 14.389 40.3986 15.7717C40.3986 15.9152 40.322 15.9679 40.1785 15.9679C39.6331 15.9679 39.0877 15.9679 38.5422 15.9679C38.3891 15.9679 38.3413 15.9248 38.3652 15.7621C38.6236 13.8484 38.8787 11.9187 39.1307 9.973C39.2695 8.92043 39.413 7.86786 39.547 6.8105C39.547 6.68132 39.6139 6.63348 39.7431 6.63826H40.59Z" fill="#333333"/>
<path d="M65.2333 3.02958C64.9558 3.1157 64.6783 3.2066 64.4008 3.28794C62.4446 3.86886 60.4491 4.30856 58.4299 4.60365C57.3055 4.76632 56.1716 4.88593 55.0377 4.96248C53.679 5.05817 52.3202 5.1108 50.9566 5.08688C49.8227 5.08688 48.684 5.0199 47.5501 4.93378C46 4.81576 44.4546 4.64033 42.914 4.40749C42.6509 4.36922 42.6509 4.36922 42.6844 4.11086C42.7179 3.8525 42.7561 3.55108 42.7896 3.27358C42.8231 2.99609 42.8279 3.0535 43.0241 3.09178L45.1388 3.50802C46.7128 3.80944 48.2965 4.06301 49.8897 4.24961C51.0188 4.37879 52.1527 4.46969 53.2866 4.51275C54.0139 4.51275 54.722 4.54624 55.4588 4.51275C56.6069 4.47848 57.7522 4.37944 58.8892 4.21612C60.5063 3.99125 62.1139 3.70897 63.7023 3.34057L65.2238 2.97217L65.2333 3.02958Z" fill="#333333"/>
<path d="M40.847 4.71384C40.5695 4.71384 40.2873 4.71384 40.005 4.71384C39.8949 4.71384 39.8327 4.71384 39.8519 4.55595C39.9252 4.04561 39.9922 3.53368 40.0528 3.02015C40.0528 2.8814 40.1294 2.83834 40.2681 2.84313C40.8199 2.84313 41.3701 2.84313 41.9187 2.84313C42.0623 2.84313 42.1101 2.87662 42.0862 3.02972C42.0144 3.50816 41.957 3.98661 41.8996 4.49854C41.8996 4.65164 41.8231 4.72341 41.6604 4.71384C41.3877 4.70427 41.1198 4.71384 40.847 4.71384Z" fill="#333333"/>
</svg>
