<svg width="25" height="24" viewBox="0 0 25 24" fill="none" xmlns="http://www.w3.org/2000/svg">
<path d="M14.2599 6.23071C13.5732 6.41389 12.8505 6.41389 12.1638 6.23071H12.3914C12.9326 6.34345 13.4912 6.34345 14.0323 6.23071H14.2599Z" fill="#333333"/>
<path d="M9.81247 6.23071H9.86005C9.75492 6.2524 9.65097 6.27947 9.54861 6.31182C9.62639 6.25882 9.71835 6.23055 9.81247 6.23071Z" fill="#333333"/>
<path d="M14.866 6.23307C14.7348 6.26217 14.6053 6.29836 14.478 6.34146C13.6567 6.60918 12.7717 6.60918 11.9504 6.34146C11.8187 6.29838 11.6849 6.2622 11.5494 6.23307H11.7759C11.8399 6.25041 11.9038 6.26992 11.9667 6.29051C12.7765 6.55534 13.6497 6.55534 14.4595 6.29051C14.5235 6.26992 14.5874 6.25041 14.6525 6.23307H14.7869C14.8107 6.2309 14.8389 6.2309 14.866 6.23307Z" fill="#333333"/>
<path d="M15.4708 6.31874C15.1331 6.33905 14.7995 6.40243 14.478 6.50733C13.6569 6.7761 12.7715 6.7761 11.9504 6.50733C11.1442 6.24561 10.2758 6.24561 9.46949 6.50733L9.43698 6.51816L9.37195 6.53767C9.37993 6.51524 9.38971 6.49349 9.40121 6.47264L9.42072 6.46722L9.45324 6.45747C10.27 6.19191 11.1499 6.19191 11.9667 6.45747C12.7765 6.7223 13.6497 6.7223 14.4595 6.45747C14.7323 6.36778 15.0139 6.30782 15.2995 6.27863C15.3548 6.29056 15.4133 6.30356 15.4708 6.31874Z" fill="#333333"/>
<path d="M15.9301 6.48653C15.4383 6.46009 14.9459 6.52513 14.4778 6.67837C13.6566 6.94662 12.7714 6.94662 11.9503 6.67837C11.144 6.41666 10.2756 6.41666 9.46933 6.67837L9.43681 6.68813L9.32843 6.71956L9.3371 6.66212L9.41514 6.63827L9.44765 6.62743C10.2644 6.36187 11.1443 6.36187 11.9611 6.62743C12.7711 6.89151 13.644 6.89151 14.4539 6.62743C14.887 6.485 15.341 6.41684 15.7968 6.42584C15.8445 6.44643 15.8879 6.46486 15.9301 6.48653Z" fill="#333333"/>
<path d="M16.2933 6.68961C15.6842 6.60165 15.063 6.65505 14.4779 6.84569C13.6568 7.11446 12.7714 7.11446 11.9503 6.84569C11.1442 6.58345 10.2756 6.58345 9.46942 6.84569L9.4369 6.85653L9.30792 6.89663L9.31659 6.83702L9.42498 6.80559L9.45749 6.79583C10.2742 6.52975 11.1542 6.52975 11.9709 6.79583C12.7808 7.06066 13.6539 7.06066 14.4638 6.79583C15.0225 6.61333 15.614 6.55344 16.1979 6.62025C16.2268 6.64482 16.2586 6.66794 16.2933 6.68961Z" fill="#333333"/>
<path d="M16.5805 6.91414C15.8836 6.76294 15.1589 6.80035 14.4811 7.02252C13.66 7.29077 12.7748 7.29077 11.9536 7.02252C11.1473 6.76081 10.2789 6.76081 9.47268 7.02252L9.44016 7.03228L9.28625 7.07996L9.29384 7.02144C9.3372 7.00988 9.38055 6.99687 9.4239 6.98242L9.45642 6.97158C10.2732 6.70602 11.1531 6.70602 11.9699 6.97158C12.7798 7.23566 13.6527 7.23566 14.4627 6.97158C15.1199 6.75606 15.8212 6.71166 16.5003 6.8426C16.522 6.86536 16.5502 6.88921 16.5805 6.91414Z" fill="#333333"/>
<path d="M16.8027 7.1393C16.0396 6.9272 15.2309 6.94492 14.4779 7.19024C13.6567 7.45849 12.7715 7.45849 11.9503 7.19024C11.1442 6.92801 10.2756 6.92801 9.46942 7.19024L9.43691 7.20108C9.3773 7.22059 9.31768 7.23793 9.25699 7.25527L9.26566 7.19674C9.31768 7.18265 9.37404 7.1664 9.42065 7.15014L9.45316 7.1393C10.2699 6.87374 11.1498 6.87374 11.9666 7.1393C12.7765 7.40413 13.6496 7.40413 14.4595 7.1393C15.1958 6.89912 15.9852 6.87356 16.7355 7.0656C16.7583 7.09053 16.7811 7.11546 16.8027 7.1393Z" fill="#333333"/>
<path d="M16.9815 7.36551L16.9501 7.35467C16.1465 7.09512 15.2815 7.09512 14.4778 7.35467C13.6568 7.62344 12.7714 7.62344 11.9503 7.35467C11.1441 7.09244 10.2756 7.09244 9.46939 7.35467L9.43687 7.36551C9.36859 7.38827 9.30031 7.40778 9.23203 7.42621L9.23961 7.36876C9.30031 7.3525 9.361 7.33516 9.42062 7.31565L9.45313 7.30481C10.2698 7.03873 11.1499 7.03873 11.9666 7.30481C12.7764 7.56964 13.6496 7.56964 14.4594 7.30481C15.2617 7.04253 16.1256 7.03609 16.9317 7.28639C16.9469 7.31674 16.9642 7.3395 16.9815 7.36551Z" fill="#333333"/>
<path d="M17.1225 7.57697C17.0845 7.56722 17.0466 7.55529 17.0087 7.54337L16.9545 7.52603C16.151 7.26567 15.2857 7.26567 14.4822 7.52603C13.6611 7.79428 12.7758 7.79428 11.9547 7.52603C11.1484 7.26432 10.28 7.26432 9.47376 7.52603L9.44125 7.53578C9.36538 7.56071 9.28734 7.58347 9.21039 7.60298V7.55638C9.27975 7.53795 9.34804 7.51844 9.41632 7.49568L9.44883 7.48484C10.2656 7.21929 11.1455 7.21929 11.9623 7.48484C12.7722 7.74892 13.6452 7.74892 14.4551 7.48484C15.2705 7.21796 16.1494 7.2153 16.9664 7.47726L17.0206 7.4946C17.039 7.4946 17.0574 7.50652 17.0759 7.51086C17.091 7.53145 17.1051 7.55638 17.1225 7.57697Z" fill="#333333"/>
<path d="M17.2233 7.77321C17.1496 7.75478 17.077 7.73419 17.0065 7.71035L16.9523 7.693C16.1487 7.43346 15.2837 7.43346 14.4801 7.693C13.6589 7.96125 12.7737 7.96125 11.9525 7.693C11.1464 7.43077 10.2778 7.43077 9.47162 7.693L9.43911 7.70384C9.35457 7.73094 9.26894 7.75587 9.18332 7.77646L9.19091 7.7201C9.26894 7.70059 9.3459 7.67783 9.42285 7.6529L9.45537 7.64315C10.2721 7.37707 11.1521 7.37707 11.9688 7.64315C12.7787 7.90797 13.6518 7.90797 14.4617 7.64315C15.2771 7.37678 16.1558 7.37412 16.9729 7.63556L17.0271 7.65399C17.0835 7.67241 17.1355 7.68867 17.1973 7.70384C17.2027 7.73419 17.2135 7.75587 17.2233 7.77321Z" fill="#333333"/>
<path d="M17.3046 7.9693C17.2038 7.94437 17.103 7.91728 17.0044 7.88476L16.9502 7.86742C16.1467 7.60706 15.2814 7.60706 14.4779 7.86742C13.6568 8.13567 12.7716 8.13567 11.9504 7.86742C11.144 7.60623 10.2758 7.60623 9.46947 7.86742L9.43695 7.87826C9.34374 7.90861 9.24945 7.9357 9.15515 7.95846L9.16382 7.90211C9.25053 7.88043 9.33615 7.85658 9.42069 7.8284L9.45321 7.81757C10.27 7.55201 11.1499 7.55201 11.9667 7.81757C12.7766 8.08164 13.6495 8.08164 14.4595 7.81757C15.2748 7.55008 16.1539 7.54743 16.9708 7.80998L17.025 7.82732C17.1106 7.8555 17.1962 7.88043 17.284 7.90102C17.2894 7.92812 17.2981 7.94871 17.3046 7.9693Z" fill="#333333"/>
<path d="M17.3674 8.15343C17.2449 8.12634 17.1235 8.09382 17.0043 8.0548L16.9501 8.03746C16.1466 7.77711 15.2814 7.77711 14.4779 8.03746C13.6566 8.30518 12.7716 8.30518 11.9503 8.03746C11.1441 7.77523 10.2756 7.77523 9.4694 8.03746L9.43689 8.0483C9.33609 8.08082 9.23312 8.11008 9.13016 8.13393L9.13774 8.07756C9.23312 8.0548 9.32742 8.02771 9.42063 7.99736L9.45314 7.98652C10.2699 7.72096 11.1498 7.72096 11.9666 7.98652C12.7764 8.25135 13.6496 8.25135 14.4594 7.98652C15.275 7.72386 16.1526 7.725 16.9675 7.98977L17.0216 8.0082C17.13 8.04288 17.2384 8.07323 17.3468 8.09707C17.3547 8.11547 17.3616 8.13428 17.3674 8.15343Z" fill="#333333"/>
<path d="M17.4151 8.33455C17.2763 8.30608 17.1391 8.26989 17.0043 8.22616L16.9501 8.20774C16.1465 7.94819 15.2815 7.94819 14.4779 8.20774C13.6568 8.47651 12.7714 8.47651 11.9503 8.20774C11.1442 7.9455 10.2756 7.9455 9.46941 8.20774L9.4369 8.21858C9.32851 8.25434 9.22013 8.28469 9.10416 8.30962L9.11283 8.25434C9.22121 8.22942 9.31876 8.20124 9.42064 8.16764L9.45316 8.15788C10.2699 7.89232 11.1498 7.89232 11.9666 8.15788C12.7764 8.42271 13.6496 8.42271 14.4594 8.15788C15.275 7.89134 16.1538 7.88907 16.9707 8.15138L17.0249 8.16872C17.1494 8.20928 17.276 8.24293 17.4043 8.26952C17.4091 8.29097 17.4127 8.31268 17.4151 8.33455Z" fill="#333333"/>
<path d="M17.4476 8.51256C17.297 8.48258 17.1482 8.44386 17.0021 8.39659L16.9479 8.37925C16.1444 8.11889 15.2792 8.11889 14.4757 8.37925C13.6545 8.64749 12.7693 8.64749 11.9481 8.37925C11.1419 8.11753 10.2735 8.11753 9.46721 8.37925L9.4347 8.389C9.31764 8.42802 9.19733 8.46053 9.07703 8.48763L9.08461 8.43127C9.193 8.40634 9.30897 8.37491 9.41844 8.33914L9.45095 8.32831C10.2677 8.06275 11.1476 8.06275 11.9644 8.32831C12.7744 8.59238 13.6473 8.59238 14.4572 8.32831C15.2726 8.06082 16.1516 8.05817 16.9685 8.32072L17.0227 8.33806C17.1601 8.38178 17.2998 8.41796 17.4411 8.44645L17.4476 8.51256Z" fill="#333333"/>
<path d="M17.4704 8.68681C17.3127 8.65641 17.1571 8.61623 17.0044 8.5665L16.9502 8.54916C16.1465 8.28961 15.2816 8.28961 14.4779 8.54916C13.6567 8.81688 12.7716 8.81688 11.9504 8.54916C11.1442 8.28692 10.2757 8.28692 9.46947 8.54916L9.43695 8.56C9.3115 8.6031 9.18377 8.63928 9.05435 8.66838L9.06194 8.61202C9.18333 8.58601 9.30255 8.55241 9.42069 8.51447L9.45321 8.50472C10.2699 8.23864 11.15 8.23864 11.9666 8.50472C12.7765 8.76955 13.6496 8.76955 14.4595 8.50472C15.275 8.23835 16.1537 8.23569 16.9708 8.49713L17.025 8.51556C17.1704 8.56247 17.3184 8.60084 17.4683 8.63045C17.4672 8.64996 17.4693 8.66838 17.4704 8.68681Z" fill="#333333"/>
<path d="M17.4802 8.85692C17.3191 8.82668 17.1602 8.78614 17.0044 8.73553L16.9502 8.71819C16.1461 8.45959 15.2809 8.46149 14.4779 8.72361C13.6567 8.99185 12.7715 8.99185 11.9504 8.72361C11.144 8.46241 10.2758 8.46241 9.46945 8.72361L9.43693 8.73445C9.30297 8.77854 9.16653 8.81473 9.02832 8.84283L9.03699 8.78864C9.16667 8.75916 9.29474 8.72298 9.42067 8.68025L9.45319 8.66941C10.27 8.40386 11.1499 8.40386 11.9666 8.66941C12.7766 8.93349 13.6495 8.93349 14.4595 8.66941C15.2749 8.40253 16.1537 8.39987 16.9708 8.66183L17.0249 8.67917C17.1746 8.72766 17.327 8.76746 17.4812 8.79839C17.4791 8.82332 17.4802 8.84175 17.4802 8.85692Z" fill="#333333"/>
<path d="M17.4802 8.97604C17.4802 8.99338 17.4802 9.0118 17.4802 9.03023C17.3196 8.99913 17.1611 8.95822 17.0055 8.90776L16.9513 8.89041C16.1478 8.63006 15.2826 8.63006 14.479 8.89041C13.6579 9.15866 12.7727 9.15866 11.9515 8.89041C11.1452 8.6287 10.2768 8.6287 9.47057 8.89041L9.43806 8.90017C9.29581 8.94657 9.15107 8.98492 9.00452 9.01506L9.0121 8.95978C9.15058 8.9313 9.28735 8.89511 9.4218 8.8514L9.45431 8.84056C10.2711 8.575 11.151 8.575 11.9678 8.84056C12.7776 9.10538 13.6508 9.10538 14.4606 8.84056C15.276 8.57367 16.1549 8.57101 16.9719 8.83297L17.0261 8.85031C17.1748 8.90133 17.3264 8.94332 17.4802 8.97604Z" fill="#333333"/>
<path d="M17.4714 9.14404C17.4714 9.16246 17.4714 9.17872 17.4714 9.19715C17.3149 9.1666 17.1604 9.12679 17.0086 9.07792L16.9544 9.0595C16.1502 8.80171 15.2852 8.80361 14.4822 9.06492C13.6611 9.33369 12.7757 9.33369 11.9546 9.06492C11.1484 8.80268 10.2799 8.80268 9.4737 9.06492L9.44118 9.07575C9.29055 9.12475 9.13708 9.16456 8.98163 9.19498L8.9903 9.1397C9.13684 9.10952 9.28158 9.07117 9.42384 9.02481L9.45635 9.01506C10.273 8.74898 11.1531 8.74898 11.9698 9.01506C12.7796 9.27989 13.6528 9.27989 14.4626 9.01506C15.2782 8.74852 16.157 8.74625 16.9739 9.00856L17.0281 9.0259C17.1734 9.07416 17.3214 9.11361 17.4714 9.14404Z" fill="#333333"/>
<path d="M17.4531 9.31226C17.4531 9.3296 17.4477 9.34695 17.4444 9.36429C17.2956 9.33467 17.1487 9.29631 17.0044 9.2494L16.9502 9.23206C16.1461 8.97346 15.2809 8.97536 14.4779 9.23748C13.6568 9.50572 12.7716 9.50572 11.9504 9.23748C11.1441 8.97576 10.2757 8.97576 9.46948 9.23748L9.43696 9.24723C9.27831 9.2994 9.11649 9.3414 8.95248 9.37296L8.96007 9.31768C9.1159 9.2869 9.26973 9.24673 9.42071 9.19738L9.45322 9.18654C10.27 8.92098 11.1499 8.92098 11.9667 9.18654C12.7766 9.45061 13.6495 9.45061 14.4595 9.18654C15.2743 8.92141 16.1519 8.91989 16.9675 9.1822L17.0217 9.19954C17.1632 9.24535 17.3073 9.28298 17.4531 9.31226Z" fill="#333333"/>
<path d="M17.5561 9.55481C17.3684 9.52325 17.1833 9.47797 17.0022 9.41933L16.948 9.40199C16.1444 9.14244 15.2794 9.14244 14.4758 9.40199C13.6546 9.67024 12.7694 9.67024 11.9482 9.40199C11.142 9.13976 10.2735 9.13976 9.46731 9.40199L9.43479 9.41283C9.26805 9.46711 9.09787 9.5102 8.92538 9.54181L8.93297 9.48653C9.09731 9.45534 9.25949 9.41371 9.41853 9.36189L9.45105 9.35213C10.2677 9.08605 11.1478 9.08605 11.9645 9.35213C12.7743 9.61696 13.6475 9.61696 14.4573 9.35213C15.2728 9.08576 16.1515 9.08311 16.9686 9.34455L17.0228 9.36297C17.1617 9.40771 17.3033 9.44391 17.4466 9.47136C17.4856 9.50712 17.5214 9.5288 17.5561 9.55481Z" fill="#333333"/>
<path d="M17.813 9.76093C17.5382 9.73308 17.2671 9.67603 17.0044 9.59077L16.9502 9.57343C16.1467 9.31307 15.2815 9.31307 14.478 9.57343C13.6568 9.84167 12.7716 9.84167 11.9505 9.57343C11.1442 9.31171 10.2758 9.31171 9.46953 9.57343L9.43702 9.58427C9.2624 9.64334 9.08385 9.69006 8.90268 9.72408L8.91027 9.66881C9.08313 9.63733 9.25369 9.59424 9.42076 9.53983L9.45327 9.52899C10.27 9.26343 11.1499 9.26343 11.9667 9.52899C12.7767 9.79307 13.6496 9.79307 14.4596 9.52899C15.2749 9.26151 16.1539 9.25885 16.9708 9.5214L17.025 9.53874C17.2603 9.61533 17.5024 9.66905 17.748 9.69915L17.813 9.76093Z" fill="#333333"/>
<path d="M17.9896 9.94741C17.6544 9.92667 17.323 9.86404 17.0033 9.76099L16.9491 9.74365C16.1456 9.48329 15.2804 9.48329 14.4769 9.74365C13.6557 10.0119 12.7705 10.0119 11.9494 9.74365C11.1431 9.48194 10.2747 9.48194 9.46843 9.74365L9.43591 9.75449C9.25307 9.81384 9.06615 9.85984 8.87665 9.89214L8.88423 9.83686C9.06568 9.80536 9.24462 9.76081 9.41966 9.70355L9.45217 9.69271C10.2689 9.42715 11.1488 9.42715 11.9656 9.69271C12.7756 9.95679 13.6485 9.95679 14.4585 9.69271C15.274 9.42634 16.1526 9.42368 16.9697 9.68512L17.0239 9.70246C17.3219 9.79939 17.6305 9.86016 17.943 9.88347L17.9896 9.94741Z" fill="#333333"/>
<path d="M18.1272 10.1241C17.7457 10.1132 17.3676 10.0482 17.0044 9.93113L16.9502 9.91379C16.1465 9.65425 15.2816 9.65425 14.4779 9.91379C13.6568 10.1826 12.7714 10.1826 11.9504 9.91379C11.1442 9.65156 10.2756 9.65156 9.46945 9.91379L9.43693 9.92463C9.24567 9.98656 9.05003 10.034 8.85165 10.0666L8.86032 10.0113C9.05029 9.97956 9.2376 9.93355 9.42067 9.87369L9.45319 9.86394C10.27 9.59838 11.1499 9.59838 11.9666 9.86394C12.7765 10.1288 13.6496 10.1288 14.4595 9.86394C15.275 9.5974 16.1539 9.59512 16.9708 9.85743L17.0249 9.87477C17.3701 9.98613 17.729 10.0496 18.0915 10.0634C18.1045 10.0829 18.1165 10.1032 18.1272 10.1241Z" fill="#333333"/>
<path d="M18.2387 10.2976C17.8196 10.2969 17.4031 10.2311 17.0042 10.1025L16.95 10.0851C16.1465 9.82476 15.2813 9.82476 14.4778 10.0851C13.6566 10.3534 12.7714 10.3534 11.9502 10.0851C11.144 9.8234 10.2756 9.8234 9.46932 10.0851L9.43681 10.0949C9.23765 10.1602 9.0336 10.2094 8.8266 10.2423L8.83419 10.187C9.03303 10.157 9.22912 10.111 9.42055 10.0494L9.45306 10.0385C10.2698 9.77295 11.1497 9.77295 11.9665 10.0385C12.7765 10.3026 13.6494 10.3026 14.4594 10.0385C15.2747 9.77103 16.1537 9.76837 16.9706 10.0309L17.0248 10.0483C17.4063 10.1734 17.8048 10.2392 18.2062 10.2434C18.2171 10.2661 18.229 10.2791 18.2387 10.2976Z" fill="#333333"/>
<path d="M18.3278 10.4666C17.8789 10.476 17.4317 10.4105 17.0044 10.2726L16.9502 10.2553C16.1466 9.99571 15.2816 9.99571 14.478 10.2553C13.6567 10.523 12.7717 10.523 11.9504 10.2553C11.1442 9.99303 10.2757 9.99303 9.4695 10.2553L9.43698 10.2661C9.22973 10.3333 9.0173 10.3833 8.80185 10.4157L8.80944 10.3615C9.01676 10.329 9.22117 10.2801 9.42073 10.2152L9.45324 10.2054C10.2699 9.93932 11.15 9.93932 11.9667 10.2054C12.7765 10.4702 13.6497 10.4702 14.4595 10.2054C15.275 9.93903 16.1537 9.93638 16.9708 10.1978L17.025 10.2162C17.4384 10.3493 17.8708 10.4137 18.305 10.407L18.3278 10.4666Z" fill="#333333"/>
<path d="M18.3993 10.6343C17.9267 10.653 17.4545 10.5885 17.0044 10.4435L16.9502 10.4262C16.1467 10.1658 15.2814 10.1658 14.4779 10.4262C13.6568 10.6944 12.7715 10.6944 11.9504 10.4262C11.1442 10.1639 10.2757 10.1639 9.46946 10.4262L9.43695 10.437C9.2219 10.5077 9.00101 10.5592 8.77689 10.5909L8.78447 10.5356C9.00035 10.5042 9.21318 10.4545 9.42069 10.3872L9.45321 10.3763C10.27 10.1108 11.1499 10.1108 11.9666 10.3763C12.7765 10.6411 13.6496 10.6411 14.4595 10.3763C15.2744 10.1113 16.1522 10.1105 16.9675 10.3742L17.0217 10.3915C17.4598 10.5324 17.9188 10.5965 18.3787 10.5812C18.3863 10.5996 18.3928 10.6169 18.3993 10.6343Z" fill="#333333"/>
<path d="M18.4566 10.8077C17.965 10.8334 17.4728 10.7691 17.0042 10.6181L16.9501 10.6007C16.1465 10.3404 15.2813 10.3404 14.4778 10.6007C13.6566 10.869 12.7714 10.869 11.9503 10.6007C11.144 10.339 10.2756 10.339 9.46934 10.6007L9.43682 10.6116C9.21363 10.684 8.98438 10.7362 8.75183 10.7676L8.75942 10.7145C8.9838 10.6823 9.205 10.6308 9.42057 10.5606L9.45308 10.5498C10.2699 10.2842 11.1498 10.2842 11.9665 10.5498C12.7765 10.8139 13.6494 10.8139 14.4594 10.5498C15.2748 10.2829 16.1536 10.2802 16.9706 10.5422L17.0248 10.5595C17.4824 10.7077 17.9632 10.7712 18.4436 10.747L18.4566 10.8077Z" fill="#333333"/>
<path d="M18.499 10.9703C17.9935 11.0025 17.4865 10.9393 17.0044 10.7839L16.9502 10.7666C16.1465 10.507 15.2816 10.507 14.4779 10.7666C13.6568 11.0354 12.7715 11.0354 11.9504 10.7666C11.1442 10.5043 10.2756 10.5043 9.46946 10.7666L9.43694 10.7774C9.20569 10.8524 8.96806 10.9061 8.72702 10.9378L8.73461 10.8836C8.96756 10.852 9.19718 10.7994 9.42068 10.7265L9.4532 10.7167C10.2699 10.4506 11.15 10.4506 11.9666 10.7167C12.7765 10.9815 13.6496 10.9815 14.4595 10.7167C15.275 10.4502 16.1539 10.4479 16.9708 10.7102L17.025 10.7276C17.4977 10.8795 17.9947 10.942 18.4903 10.9118C18.4914 10.9357 18.4957 10.953 18.499 10.9703Z" fill="#333333"/>
<path d="M18.5314 11.1406C18.0159 11.1758 17.4985 11.1129 17.0064 10.9552L16.9522 10.9379C16.1487 10.6775 15.2835 10.6775 14.48 10.9379C13.6588 11.2061 12.7736 11.2061 11.9525 10.9379C11.1462 10.6762 10.2778 10.6762 9.47153 10.9379L9.43901 10.9476C9.19985 11.0258 8.95379 11.0809 8.70416 11.1124L8.71175 11.0582C8.95326 11.0271 9.19131 10.9734 9.42275 10.8978L9.45527 10.8869C10.272 10.6214 11.1519 10.6214 11.9687 10.8869C12.7787 11.151 13.6516 11.151 14.4616 10.8869C15.277 10.6201 16.1558 10.6174 16.9728 10.8794L17.027 10.8967C17.5105 11.0525 18.0192 11.1147 18.526 11.0799C18.5238 11.1048 18.5314 11.1232 18.5314 11.1406Z" fill="#333333"/>
<path d="M18.5455 11.3097C18.0247 11.3481 17.5014 11.2855 17.0043 11.1255L16.9501 11.1082C16.1464 10.8486 15.2815 10.8486 14.4778 11.1082C13.6567 11.3764 12.7715 11.3764 11.9503 11.1082C11.1441 10.8459 10.2756 10.8459 9.46937 11.1082L9.43685 11.119C9.19003 11.1993 8.93592 11.2552 8.67816 11.2859L8.68575 11.2317C8.93577 11.201 9.18223 11.1462 9.42168 11.068L9.4542 11.0572C10.271 10.7917 11.1509 10.7917 11.9676 11.0572C12.7775 11.322 13.6506 11.322 14.4605 11.0572C15.276 10.7908 16.1547 10.7882 16.9718 11.0496L17.026 11.068C17.5154 11.2256 18.0306 11.2871 18.5433 11.2491C18.5433 11.274 18.5444 11.2924 18.5455 11.3097Z" fill="#333333"/>
<path d="M18.55 11.428C18.55 11.4453 18.55 11.4626 18.55 11.48C18.0281 11.5187 17.5038 11.4565 17.0055 11.2968L16.9513 11.2784C16.1471 11.0201 15.2819 11.0224 14.479 11.2849C13.6579 11.5531 12.7727 11.5531 11.9515 11.2849C11.1453 11.0227 10.2768 11.0227 9.47057 11.2849L9.43806 11.2957C9.18283 11.3787 8.91996 11.4361 8.65335 11.467L8.66094 11.4117C8.91865 11.3813 9.17276 11.3258 9.41963 11.2459L9.45215 11.235C10.2689 10.9695 11.1488 10.9695 11.9656 11.235C12.7754 11.4999 13.6486 11.4999 14.4584 11.235C15.274 10.9685 16.1528 10.9662 16.9697 11.2285L17.0239 11.2459C17.5161 11.4044 18.0343 11.4662 18.55 11.428Z" fill="#333333"/>
<path d="M18.5445 11.5978C18.5445 11.6152 18.5445 11.6336 18.5445 11.651C18.0255 11.6887 17.5041 11.6261 17.0087 11.4667L16.9545 11.4494C16.151 11.189 15.2858 11.189 14.4823 11.4494C13.6611 11.7176 12.7759 11.7176 11.9548 11.4494C11.1485 11.1876 10.2801 11.1876 9.47383 11.4494L9.44132 11.4591C9.17824 11.545 8.90688 11.6032 8.63168 11.6325L8.63927 11.5794C8.90627 11.5493 9.16954 11.4923 9.42506 11.4093L9.45757 11.3984C10.2743 11.1329 11.1542 11.1329 11.971 11.3984C12.781 11.6625 13.6539 11.6625 14.4639 11.3984C15.2793 11.1315 16.1581 11.1289 16.9751 11.3908L17.0293 11.4082C17.5175 11.5685 18.032 11.6329 18.5445 11.5978Z" fill="#333333"/>
<path d="M18.5315 11.7691C18.5315 11.7865 18.5315 11.8049 18.5239 11.8222C18.0109 11.8578 17.4959 11.7949 17.0065 11.6369L16.9523 11.6196C16.1481 11.3618 15.2832 11.3637 14.4801 11.625C13.659 11.8937 12.7736 11.8937 11.9526 11.625C11.1464 11.3627 10.2778 11.3627 9.47163 11.625L9.43912 11.6358C9.16787 11.7235 8.88814 11.7824 8.60455 11.8114L8.61214 11.7572C8.88763 11.7281 9.15934 11.6703 9.42286 11.5849L9.45537 11.5751C10.2721 11.309 11.1521 11.309 11.9688 11.5751C12.7787 11.8399 13.6518 11.8399 14.4617 11.5751C15.2772 11.3086 16.156 11.3063 16.9729 11.5686L17.0271 11.586C17.5125 11.7417 18.023 11.8038 18.5315 11.7691Z" fill="#333333"/>
<path d="M18.4969 11.9415L18.486 11.9946C17.9849 12.0252 17.4824 11.962 17.0044 11.8082L16.9502 11.7908C16.1461 11.5322 15.2809 11.5341 14.478 11.7962C13.6568 12.0645 12.7716 12.0645 11.9504 11.7962C11.1443 11.534 10.2757 11.534 9.46952 11.7962L9.437 11.806C9.15792 11.8969 8.86969 11.9569 8.57751 11.9848L8.5851 11.9306C8.86925 11.9035 9.14951 11.845 9.42075 11.7561L9.45326 11.7453C10.27 11.4797 11.1499 11.4797 11.9667 11.7453C12.7767 12.0094 13.6496 12.0094 14.4596 11.7453C15.2749 11.4778 16.1539 11.4752 16.9708 11.7377L17.025 11.7551C17.4996 11.9089 17.9989 11.9721 18.4969 11.9415Z" fill="#333333"/>
<path d="M18.4611 12.1138L18.4502 12.168C17.9607 12.1931 17.4708 12.1288 17.0044 11.9783L16.9502 11.9609C16.1466 11.7006 15.2814 11.7006 14.4779 11.9609C13.6567 12.2287 12.7716 12.2287 11.9504 11.9609C11.1442 11.6987 10.2756 11.6987 9.46946 11.9609L9.43694 11.9718C9.14994 12.0652 8.85321 12.1256 8.55252 12.1517L8.56011 12.0975C8.85271 12.0713 9.14141 12.012 9.42068 11.9208L9.4532 11.91C10.27 11.6444 11.1499 11.6444 11.9666 11.91C12.7765 12.1748 13.6496 12.1748 14.4595 11.91C15.275 11.6436 16.1537 11.641 16.9708 11.9024L17.025 11.9208C17.4879 12.0721 17.9746 12.1375 18.4611 12.1138Z" fill="#333333"/>
<path d="M18.423 12.2863L18.4133 12.3318C18.4133 12.3318 18.4133 12.3318 18.4133 12.3405C17.936 12.3603 17.4591 12.2957 17.0043 12.1498L16.9501 12.1313C16.1459 11.8731 15.2807 11.8754 14.4778 12.1378C13.6567 12.4061 12.7714 12.4061 11.9503 12.1378C11.1441 11.8756 10.2755 11.8756 9.46936 12.1378L9.43684 12.1487C9.14157 12.2425 8.83642 12.3018 8.5275 12.3253L8.53508 12.2712C8.83611 12.2449 9.13319 12.1845 9.42059 12.0912L9.4531 12.0815C10.2699 11.8159 11.1498 11.8159 11.9665 12.0815C12.7765 12.3456 13.6494 12.3456 14.4594 12.0815C15.2747 11.814 16.1538 11.8113 16.9707 12.0739L17.0249 12.0912C17.4756 12.2391 17.9491 12.3051 18.423 12.2863Z" fill="#333333"/>
<path d="M18.3874 12.4586C18.3874 12.477 18.3787 12.4944 18.3733 12.5128C17.9096 12.5288 17.4467 12.4654 17.0044 12.3253L16.9502 12.308C16.1467 12.0476 15.2815 12.0476 14.4779 12.308C13.6568 12.5762 12.7716 12.5762 11.9504 12.308C11.1441 12.0462 10.2757 12.0462 9.46948 12.308L9.43696 12.3177C9.13399 12.4165 8.82038 12.4791 8.50269 12.5041L8.51027 12.4499C8.81985 12.4252 9.12543 12.3641 9.4207 12.2679L9.45322 12.257C10.27 11.9915 11.1499 11.9915 11.9667 12.257C12.7766 12.5211 13.6495 12.5211 14.4595 12.257C15.2748 11.9895 16.1539 11.9869 16.9708 12.2494L17.025 12.2668C17.4645 12.4095 17.9255 12.4744 18.3874 12.4586Z" fill="#333333"/>
<path d="M18.3407 12.6298C18.3353 12.6482 18.3299 12.6666 18.3234 12.684C17.876 12.6929 17.4302 12.6274 17.0043 12.49L16.9502 12.4726C16.1465 12.2131 15.2815 12.2131 14.4779 12.4726C13.6568 12.7414 12.7714 12.7414 11.9504 12.4726C11.1442 12.2104 10.2756 12.2104 9.46944 12.4726L9.43693 12.4835C9.12599 12.5845 8.80386 12.6471 8.47772 12.6699L8.48531 12.6168C8.80333 12.5929 9.11735 12.5311 9.42067 12.4325L9.45318 12.4228C10.2699 12.1567 11.1499 12.1567 11.9666 12.4228C12.7765 12.6876 13.6496 12.6876 14.4595 12.4228C15.275 12.1562 16.1539 12.154 16.9708 12.4163L17.0249 12.4336C17.4494 12.5725 17.8942 12.6388 18.3407 12.6298Z" fill="#333333"/>
<path d="M18.2833 12.8022C18.2779 12.8203 18.2714 12.838 18.2638 12.8553C17.8363 12.8576 17.4112 12.7921 17.0043 12.6613L16.9501 12.644C16.1466 12.3836 15.2814 12.3836 14.4779 12.644C13.6567 12.9122 12.7715 12.9122 11.9504 12.644C11.1442 12.3817 10.2756 12.3817 9.46942 12.644L9.43691 12.6537C9.11793 12.7594 8.78693 12.8246 8.45169 12.8477L8.45928 12.7935C8.78585 12.7721 9.10846 12.7098 9.41957 12.6082L9.45208 12.5973C10.2689 12.3318 11.1488 12.3318 11.9655 12.5973C12.7755 12.8614 13.6484 12.8614 14.4584 12.5973C15.2737 12.3299 16.1527 12.3272 16.9696 12.5898L17.0238 12.6071C17.4303 12.7398 17.8557 12.8057 18.2833 12.8022Z" fill="#333333"/>
<path d="M18.217 12.9756C18.2105 12.993 18.203 13.0114 18.1954 13.0287C17.7904 13.0246 17.3885 12.9592 17.0031 12.8347L16.9489 12.8174C16.1454 12.557 15.2802 12.557 14.4767 12.8174C13.6555 13.0856 12.7703 13.0856 11.9492 12.8174C11.1429 12.5557 10.2745 12.5557 9.46823 12.8174L9.43571 12.8282C9.10914 12.934 8.77042 12.9978 8.42773 13.0179L8.43532 12.9637C8.77001 12.9441 9.10078 12.8814 9.41945 12.7773L9.45197 12.7664C10.2687 12.5009 11.1486 12.5009 11.9654 12.7664C12.7753 13.0313 13.6484 13.0313 14.4583 12.7664C15.2738 12.5001 16.1524 12.4974 16.9695 12.7589L17.0237 12.7762C17.4088 12.904 17.8114 12.9712 18.217 12.9756Z" fill="#333333"/>
<path d="M18.1413 13.1416C18.1341 13.1589 18.1254 13.1763 18.1153 13.1936C17.7378 13.1829 17.3638 13.1187 17.0044 13.0029L16.9502 12.9844C16.1465 12.7249 15.2816 12.7249 14.4779 12.9844C13.6568 13.2532 12.7714 13.2532 11.9504 12.9844C11.1442 12.7222 10.2756 12.7222 9.46944 12.9844L9.43693 12.9953C9.10296 13.1068 8.75558 13.1731 8.40402 13.1925L8.41161 13.1383C8.75469 13.12 9.09391 13.057 9.42067 12.9508L9.45319 12.9411C10.2699 12.675 11.1499 12.675 11.9666 12.9411C12.7765 13.2059 13.6496 13.2059 14.4595 12.9411C15.275 12.6745 16.1539 12.6723 16.9708 12.9346L17.0249 12.9519C17.3861 13.0682 17.762 13.1321 18.1413 13.1416Z" fill="#333333"/>
<path d="M18.0545 13.3093C18.0458 13.3266 18.035 13.344 18.0252 13.3613C17.6782 13.3431 17.3349 13.2797 17.0043 13.1727L16.9501 13.1554C16.1465 12.895 15.2813 12.895 14.4778 13.1554C13.6566 13.4236 12.7714 13.4236 11.9503 13.1554C11.144 12.8937 10.2756 12.8937 9.46935 13.1554L9.43683 13.1651C9.09453 13.2768 8.73869 13.3417 8.379 13.358L8.38658 13.3049C8.73815 13.288 9.08589 13.2242 9.42058 13.1153L9.45309 13.1044C10.2699 12.8389 11.1498 12.8389 11.9665 13.1044C12.7765 13.3685 13.6494 13.3685 14.4594 13.1044C15.2747 12.8369 16.1537 12.8343 16.9707 13.0968L17.0248 13.1142C17.3578 13.2248 17.7041 13.2904 18.0545 13.3093Z" fill="#333333"/>
<path d="M17.957 13.4741C17.9472 13.4915 17.9353 13.5088 17.9245 13.5251C17.6117 13.5004 17.3029 13.4393 17.0043 13.343L16.9501 13.3257C16.1464 13.0661 15.2815 13.0661 14.4778 13.3257C13.6567 13.5939 12.7714 13.5939 11.9503 13.3257C11.1441 13.0634 10.2755 13.0634 9.46936 13.3257L9.43684 13.3365C9.08617 13.4504 8.72144 13.5153 8.353 13.5294L8.36058 13.4763C8.7206 13.4612 9.07686 13.3971 9.4195 13.2856L9.45202 13.2758C10.2687 13.0097 11.1488 13.0097 11.9655 13.2758C12.7753 13.5406 13.6485 13.5406 14.4583 13.2758C15.2738 13.0093 16.1527 13.007 16.9696 13.2693L17.0238 13.2866C17.3262 13.3862 17.6395 13.4491 17.957 13.4741Z" fill="#333333"/>
<path d="M17.8486 13.6358L17.8139 13.6846C17.5388 13.6567 17.2674 13.5997 17.0043 13.5144L16.9501 13.4971C16.1466 13.2367 15.2814 13.2367 14.4779 13.4971C13.6567 13.7653 12.7715 13.7653 11.9503 13.4971C11.1441 13.2348 10.2756 13.2348 9.4694 13.4971L9.43688 13.5079C9.07863 13.6245 8.70574 13.6902 8.32919 13.703L8.33678 13.6499C8.70529 13.6372 9.07016 13.5726 9.42063 13.458L9.45314 13.4472C10.2699 13.1816 11.1498 13.1816 11.9666 13.4472C12.7766 13.7113 13.6495 13.7113 14.4594 13.4472C15.2747 13.1797 16.1538 13.1771 16.9707 13.4396L17.0249 13.457C17.2921 13.5465 17.5683 13.6064 17.8486 13.6358Z" fill="#333333"/>
<path d="M17.7315 13.7932C17.7185 13.8094 17.7055 13.8257 17.6914 13.8408C17.4581 13.8096 17.2282 13.7573 17.0043 13.6848L16.9501 13.6674C16.146 13.4088 15.2808 13.4107 14.4778 13.6728C13.6566 13.9411 12.7714 13.9411 11.9503 13.6728C11.144 13.4111 10.2756 13.4111 9.46935 13.6728L9.43683 13.6837C9.07094 13.8026 8.68987 13.8683 8.3053 13.8788L8.31288 13.8257C8.6894 13.8143 9.06238 13.7493 9.42058 13.6327L9.45309 13.6219C10.2699 13.3563 11.1498 13.3563 11.9665 13.6219C12.7764 13.8867 13.6495 13.8867 14.4594 13.6219C15.2749 13.3555 16.1536 13.3529 16.9707 13.6143L17.0248 13.6317C17.2549 13.7074 17.4914 13.7615 17.7315 13.7932Z" fill="#333333"/>
<path d="M17.6016 13.9444C17.5886 13.9607 17.5734 13.9759 17.5593 13.991C17.3713 13.9595 17.1858 13.9142 17.0044 13.8556L16.9502 13.8371C16.1465 13.5776 15.2816 13.5776 14.4779 13.8371C13.6569 14.1059 12.7715 14.1059 11.9504 13.8371C11.1442 13.5749 10.2757 13.5749 9.46947 13.8371L9.43695 13.848C9.0633 13.9701 8.67353 14.0359 8.28049 14.0431L8.28807 13.99C8.673 13.9812 9.05458 13.9162 9.42069 13.797L9.45321 13.7873C10.27 13.5217 11.1499 13.5217 11.9667 13.7873C12.7765 14.0521 13.6497 14.0521 14.4595 13.7873C15.275 13.5207 16.1539 13.5185 16.9708 13.7808L17.025 13.7981C17.2132 13.8613 17.406 13.9102 17.6016 13.9444Z" fill="#333333"/>
<path d="M17.4628 14.0896C17.4476 14.1059 17.4324 14.12 17.4173 14.1341C17.2776 14.1061 17.1397 14.0699 17.0043 14.0257L16.9501 14.0084C16.146 13.7498 15.2808 13.7516 14.4779 14.0138C13.6567 14.282 12.7715 14.282 11.9503 14.0138C11.1441 13.7521 10.2757 13.7521 9.4694 14.0138L9.43689 14.0235C9.05516 14.148 8.65694 14.2145 8.25549 14.2208L8.26308 14.1677C8.65643 14.1609 9.04657 14.0955 9.42063 13.9737L9.45314 13.9628C10.2699 13.6973 11.1498 13.6973 11.9666 13.9628C12.7766 14.2269 13.6495 14.2269 14.4594 13.9628C15.2747 13.6953 16.1538 13.6927 16.9707 13.9552L17.0249 13.9726C17.1684 14.0202 17.3146 14.0593 17.4628 14.0896Z" fill="#333333"/>
<path d="M17.3154 14.2274L17.2655 14.2708C17.1778 14.2491 17.09 14.2242 17.0043 14.196L16.9501 14.1787C16.1459 13.9209 15.281 13.9228 14.4779 14.1841C13.6566 14.4518 12.7716 14.4518 11.9504 14.1841C11.1442 13.9218 10.2756 13.9218 9.46943 14.1841L9.43691 14.1949C9.04846 14.3205 8.64316 14.3863 8.23492 14.39L8.24251 14.3369C8.64389 14.3327 9.04228 14.2673 9.42391 14.1429L9.45642 14.1331C10.2731 13.8671 11.1532 13.8671 11.9699 14.1331C12.7797 14.398 13.6529 14.398 14.4627 14.1331C15.2782 13.8668 16.1569 13.8641 16.974 14.1256L17.0282 14.144C17.1225 14.1776 17.2168 14.2047 17.3154 14.2274Z" fill="#333333"/>
<path d="M17.1583 14.3574C17.1417 14.3718 17.1244 14.3852 17.1063 14.3975C17.0716 14.3889 17.038 14.378 17.0044 14.3672L16.9502 14.3498C16.1467 14.0895 15.2814 14.0895 14.4779 14.3498C13.6568 14.6181 12.7716 14.6181 11.9504 14.3498C11.1441 14.0881 10.2757 14.0881 9.46947 14.3498L9.43695 14.3607C9.03955 14.4897 8.62461 14.5566 8.20679 14.559L8.21437 14.5038C8.62399 14.5016 9.03084 14.4365 9.4207 14.3108L9.45321 14.3C10.27 14.0344 11.1499 14.0344 11.9667 14.3C12.7766 14.5641 13.6495 14.5641 14.4595 14.3C15.2748 14.0325 16.1539 14.0298 16.9708 14.2924L17.025 14.3097L17.1583 14.3574Z" fill="#333333"/>
<path d="M16.9946 14.4777C16.9762 14.4918 16.9567 14.5048 16.9382 14.5167C16.1375 14.2617 15.2768 14.2648 14.4779 14.5254C13.6567 14.7936 12.7715 14.7936 11.9504 14.5254C11.1441 14.2637 10.2757 14.2637 9.46945 14.5254L9.43693 14.5362C9.03256 14.6671 8.61013 14.7337 8.18509 14.7335L8.19268 14.6804C8.61083 14.6809 9.02641 14.615 9.42393 14.4853L9.45644 14.4744C10.2732 14.2089 11.1531 14.2089 11.9699 14.4744C12.7799 14.7385 13.6528 14.7385 14.4627 14.4744C15.2782 14.2081 16.1569 14.2054 16.974 14.4669L16.9946 14.4777Z" fill="#333333"/>
<path d="M16.8146 14.5948L16.7507 14.6327C16.0018 14.4336 15.2113 14.4555 14.4746 14.6956C13.6535 14.9643 12.7681 14.9643 11.947 14.6956C11.1409 14.4333 10.2723 14.4333 9.46612 14.6956L9.4336 14.7064C9.02923 14.8373 8.6068 14.9039 8.18176 14.9037H8.15466L8.16225 14.8516C8.58836 14.8542 9.01212 14.7883 9.41735 14.6565L9.44986 14.6468C10.2665 14.3807 11.1466 14.3807 11.9633 14.6468C12.7732 14.9116 13.6463 14.9116 14.4562 14.6468C15.2199 14.3969 16.0406 14.3788 16.8146 14.5948Z" fill="#333333"/>
<path d="M16.6044 14.7097L16.5264 14.7477C15.8449 14.6084 15.139 14.6487 14.4779 14.8647C13.6567 15.133 12.7715 15.133 11.9504 14.8647C11.1441 14.603 10.2757 14.603 9.46944 14.8647L9.43692 14.8745C9.03273 15.0063 8.61022 15.0732 8.18508 15.0728H8.13306L8.14064 15.0197C8.57505 15.0253 9.00744 14.9598 9.42067 14.8257L9.45318 14.8149C10.27 14.5493 11.1499 14.5493 11.9666 14.8149C12.7766 15.0789 13.6495 15.0789 14.4595 14.8149C15.1521 14.5883 15.8929 14.552 16.6044 14.7097Z" fill="#333333"/>
<path d="M16.3399 14.8334L16.2402 14.8735C15.648 14.7948 15.0458 14.85 14.4778 15.035C14.4182 15.0545 14.3586 15.0729 14.2979 15.0892C14.1585 15.1283 14.017 15.1594 13.8741 15.1824C13.2303 15.2881 12.5705 15.2376 11.9503 15.035C11.1441 14.7727 10.2755 14.7727 9.46936 15.035L9.43684 15.0458C9.03247 15.1767 8.61004 15.2433 8.185 15.2431H8.10913L8.11672 15.19C8.55799 15.1975 8.99747 15.1319 9.41734 14.9959L9.44985 14.9851C10.2666 14.7195 11.1465 14.7195 11.9633 14.9851C12.7731 15.2499 13.6463 15.2499 14.4561 14.9851C15.0636 14.788 15.7087 14.7361 16.3399 14.8334Z" fill="#333333"/>
<path d="M15.9574 14.9645C15.8967 14.9819 15.836 14.997 15.7731 15.0111C15.486 15.0069 15.1993 15.0337 14.9179 15.0913C14.7691 15.1217 14.6222 15.1608 14.4779 15.2084C13.6566 15.476 12.7716 15.476 11.9504 15.2084C11.144 14.9472 10.2758 14.9472 9.46945 15.2084L9.43693 15.2192C9.03268 15.3507 8.61017 15.4172 8.18509 15.4165C8.15149 15.4165 8.11789 15.4165 8.08429 15.4165L8.09188 15.3645C8.54255 15.376 8.99189 15.3108 9.42067 15.1715L9.45319 15.1607C10.27 14.8951 11.1499 14.8951 11.9666 15.1607C12.5417 15.3476 13.1514 15.4028 13.7506 15.3222C13.9903 15.2901 14.2265 15.2361 14.4562 15.1607C14.5332 15.1347 14.6112 15.1119 14.6893 15.0924C15.1025 14.983 15.5306 14.9398 15.9574 14.9645Z" fill="#333333"/>
<path d="M13.6899 15.4979L13.6813 15.5532C13.0975 15.6218 12.5058 15.5627 11.9471 15.3798C11.1408 15.1181 10.2725 15.1181 9.46619 15.3798L9.43368 15.3895C9.02948 15.5213 8.60697 15.5883 8.18183 15.5879H8.05719L8.06478 15.5348C8.52341 15.549 8.98106 15.4838 9.41742 15.3418L9.44993 15.331C10.2667 15.0654 11.1466 15.0654 11.9634 15.331C12.5198 15.5121 13.1091 15.5691 13.6899 15.4979Z" fill="#333333"/>
<path d="M13.6618 15.672L13.6521 15.7262C13.0788 15.7898 12.4986 15.7299 11.9504 15.5506C11.1443 15.2884 10.2757 15.2884 9.46951 15.5506L9.437 15.5614C9.03227 15.6924 8.60947 15.759 8.18407 15.7587C8.13421 15.7587 8.08544 15.7587 8.03558 15.7587L8.04317 15.7056C8.51006 15.7229 8.97635 15.658 9.42074 15.5138L9.45326 15.504C10.2699 15.2379 11.15 15.2379 11.9667 15.504C12.5131 15.6812 13.0913 15.7385 13.6618 15.672Z" fill="#333333"/>
<path d="M13.6324 15.8466L13.6238 15.8997C13.0596 15.9584 12.4893 15.8975 11.9503 15.7209C11.144 15.4592 10.2756 15.4592 9.46937 15.7209L9.43686 15.7306C9.03266 15.8624 8.61015 15.9294 8.18501 15.929C8.12757 15.929 8.06904 15.929 8.0116 15.929L8.01918 15.8759C8.49398 15.8968 8.96867 15.8322 9.4206 15.6851L9.45311 15.6743C10.2699 15.4087 11.1498 15.4087 11.9666 15.6743C12.5036 15.8481 13.0712 15.9068 13.6324 15.8466Z" fill="#333333"/>
<path d="M13.6042 16.0201L13.5955 16.0721C13.0406 16.1267 12.4803 16.0654 11.9503 15.8922C11.1441 15.63 10.2755 15.63 9.46934 15.8922L9.43682 15.903C9.03245 16.0339 8.61001 16.1005 8.18498 16.1003C8.11886 16.1003 8.05275 16.1003 7.98663 16.0949L7.99422 16.0418C8.47725 16.0658 8.96061 16.0016 9.42056 15.8521L9.45308 15.8413C10.2698 15.5757 11.1498 15.5757 11.9665 15.8413C12.4941 16.0139 13.0518 16.0748 13.6042 16.0201Z" fill="#333333"/>
<path d="M13.5751 16.1923L13.5664 16.2465C13.0208 16.2957 12.4709 16.233 11.9504 16.0623C11.1441 15.8005 10.2757 15.8005 9.46947 16.0623L9.43695 16.0731C9.0327 16.2045 8.61019 16.2711 8.18511 16.2704C8.11141 16.2704 8.03662 16.2704 7.96292 16.2639L7.97051 16.2118C8.46138 16.2384 8.95295 16.1745 9.4207 16.0232L9.45321 16.0124C10.27 15.7468 11.1499 15.7468 11.9667 16.0124C12.485 16.1811 13.0323 16.2423 13.5751 16.1923Z" fill="#333333"/>
<path d="M13.5457 16.366L13.537 16.4191C13.0006 16.4639 12.4606 16.4005 11.9492 16.2327C11.1429 15.971 10.2745 15.971 9.46826 16.2327L9.43574 16.2425C9.03207 16.3752 8.60993 16.4433 8.18498 16.444C8.10261 16.444 8.02024 16.444 7.93787 16.4354L7.94545 16.3834C8.44457 16.4142 8.94503 16.3505 9.42057 16.1958L9.45308 16.185C10.2699 15.9195 11.1498 15.9195 11.9665 16.185C12.4756 16.3501 13.0125 16.4116 13.5457 16.366Z" fill="#333333"/>
<path d="M13.5187 16.5392L13.5101 16.5923C12.9828 16.6325 12.4529 16.5684 11.9504 16.4037C11.1442 16.1415 10.2757 16.1415 9.46947 16.4037L9.43696 16.4146C9.03258 16.5455 8.61015 16.612 8.18512 16.6118C8.09407 16.6118 8.00411 16.6118 7.91415 16.6021L7.92174 16.55C8.42869 16.5834 8.93737 16.5201 9.4207 16.3636L9.45322 16.3539C10.2699 16.0878 11.15 16.0878 11.9667 16.3539C12.4667 16.5173 12.9942 16.5803 13.5187 16.5392Z" fill="#333333"/>
<path d="M13.4894 16.7117L13.4807 16.7648C12.9631 16.8 12.4435 16.7352 11.9503 16.5741C11.1441 16.3124 10.2757 16.3124 9.46941 16.5741L9.43689 16.5838C9.0327 16.7156 8.61019 16.7826 8.18505 16.7822C8.08642 16.7822 7.98779 16.7822 7.88916 16.7713L7.89675 16.7182C8.41184 16.7555 8.92928 16.6929 9.42064 16.534L9.45315 16.5231C10.2699 16.2576 11.1498 16.2576 11.9666 16.5231C12.4573 16.6834 12.9744 16.7475 13.4894 16.7117Z" fill="#333333"/>
<path d="M13.4612 16.884L13.4525 16.936C12.9442 16.9679 12.4345 16.9031 11.9503 16.7452C11.1441 16.483 10.2756 16.483 9.46937 16.7452L9.43686 16.7561C9.03248 16.887 8.61005 16.9535 8.18502 16.9533C8.08422 16.9533 7.98342 16.9533 7.88262 16.9425C7.88149 16.9244 7.88149 16.9063 7.88262 16.8883C8.40376 16.9286 8.92774 16.8664 9.42494 16.7051L9.45745 16.6943C10.2742 16.4287 11.1541 16.4287 11.9709 16.6943C12.4511 16.8517 12.9569 16.916 13.4612 16.884Z" fill="#333333"/>
<path d="M13.4373 17.0562L13.4287 17.1093C12.9295 17.1369 12.4297 17.0711 11.9546 16.9153C11.1485 16.6531 10.2799 16.6531 9.47372 16.9153L9.4412 16.9262C9.03695 17.0576 8.61444 17.1242 8.18936 17.1234C8.10807 17.1234 8.02678 17.1234 7.94658 17.1158C7.93589 17.0981 7.92648 17.0796 7.9184 17.0606C8.42624 17.0959 8.93615 17.0338 9.42061 16.8774L9.45312 16.8676C10.2699 16.6021 11.1498 16.6021 11.9666 16.8676C12.4408 17.0214 12.9396 17.0853 13.4373 17.0562Z" fill="#333333"/>
<path d="M13.4048 17.2277L13.3962 17.2819C12.9063 17.3048 12.4163 17.2383 11.9503 17.0857C11.144 16.824 10.2756 16.824 9.46937 17.0857L9.43686 17.0954C9.03266 17.2272 8.61015 17.2942 8.18501 17.2938H8.12648C8.09797 17.2786 8.0714 17.2601 8.04736 17.2385C8.51351 17.2553 8.979 17.1904 9.42277 17.0467L9.45528 17.0358C10.2721 16.7703 11.152 16.7703 11.9687 17.0358C12.4317 17.1867 12.9184 17.2517 13.4048 17.2277Z" fill="#333333"/>
<path d="M13.3755 17.4008L13.3668 17.4539C12.8867 17.4727 12.407 17.4059 11.9503 17.2567C11.1441 16.9944 10.2755 16.9944 9.46933 17.2567L9.43681 17.2675C9.32508 17.3045 9.21148 17.3356 9.09649 17.3607H8.8407C9.03725 17.3284 9.23108 17.2813 9.42056 17.2198L9.45307 17.2101C10.2698 16.944 11.1498 16.944 11.9665 17.2101C12.421 17.3576 12.8982 17.4222 13.3755 17.4008Z" fill="#333333"/>
<path d="M13.3474 17.5711L13.3388 17.6253C12.8679 17.641 12.398 17.5739 11.9504 17.427C11.2136 17.1869 10.423 17.1654 9.67427 17.3652H9.49002C10.2972 17.1118 11.1634 17.1168 11.9677 17.3793C12.4126 17.5244 12.8798 17.5894 13.3474 17.5711Z" fill="#333333"/>
<path d="M13.3192 17.7446L13.3105 17.7966C12.8492 17.8094 12.3891 17.7426 11.9503 17.5993C11.4569 17.4377 10.9367 17.3741 10.4188 17.4118V17.3761H10.2368C10.8174 17.3095 11.4056 17.369 11.9612 17.5506C12.3992 17.6933 12.8587 17.759 13.3192 17.7446Z" fill="#333333"/>
<path d="M13.2912 17.9149L13.2825 17.968C12.8304 17.9769 12.3801 17.9094 11.9504 17.7686C11.4493 17.6048 10.9208 17.5415 10.3951 17.5822L10.4027 17.528C10.9314 17.4882 11.4628 17.5527 11.9667 17.7177C12.3939 17.8577 12.8417 17.9244 13.2912 17.9149Z" fill="#333333"/>
<path d="M13.2629 18.0851L13.2543 18.1382C12.8127 18.1439 12.3732 18.0765 11.9536 17.9388C11.4434 17.7722 10.9049 17.7099 10.3701 17.7556L10.3777 17.7014C10.9146 17.6576 11.4548 17.7213 11.9667 17.8889C12.385 18.0254 12.823 18.0917 13.2629 18.0851Z" fill="#333333"/>
<path d="M13.2347 18.2571L13.226 18.3102C12.7928 18.3115 12.3622 18.2439 11.9503 18.1097C11.4333 17.9402 10.887 17.8783 10.3452 17.9276L10.3527 17.8734C10.8977 17.8256 11.4467 17.8887 11.9666 18.0587C12.3759 18.1927 12.8041 18.2596 13.2347 18.2571Z" fill="#333333"/>
<path d="M13.2 18.4274C13.1946 18.4454 13.1873 18.4628 13.1783 18.4794C12.7611 18.4774 12.3468 18.4101 11.9503 18.28C11.4264 18.1093 10.873 18.0484 10.3246 18.1011L10.3332 18.0469C10.8859 17.9952 11.4433 18.0575 11.9709 18.2301C12.3678 18.3594 12.7825 18.426 13.2 18.4274Z" fill="#333333"/>
<path d="M13.0927 18.5963C13.073 18.6152 13.0512 18.632 13.0277 18.6461C12.6613 18.6307 12.2989 18.565 11.9503 18.451C11.4168 18.2765 10.8526 18.216 10.2942 18.2733C10.2932 18.2574 10.2932 18.2415 10.2942 18.2256V18.2191C10.855 18.1634 11.4212 18.2251 11.9569 18.4001C12.3238 18.5208 12.7065 18.5869 13.0927 18.5963Z" fill="#333333"/>
<path d="M12.5129 18.7073H12.2419C12.1444 18.6834 12.0468 18.6552 11.9515 18.6238C11.4278 18.4521 10.8742 18.3909 10.3257 18.4439C10.3189 18.4269 10.3131 18.4095 10.3083 18.3919C10.8663 18.3372 11.4294 18.3989 11.9623 18.5729C12.1424 18.6308 12.3264 18.6757 12.5129 18.7073Z" fill="#333333"/>
<path d="M11.8344 18.7003H11.6176C11.2393 18.6118 10.85 18.5797 10.4623 18.6049C10.4428 18.5899 10.4249 18.5728 10.4091 18.554C10.8891 18.5182 11.3717 18.5678 11.8344 18.7003Z" fill="#333333"/>
<path d="M9.45309 5.72998H9.31219C9.19877 5.73009 9.08918 5.77099 9.00341 5.84521C8.91765 5.91943 8.86144 6.02203 8.84506 6.13426L7.38295 16.3083C7.37268 16.375 7.37688 16.4431 7.39526 16.508C7.41364 16.5729 7.44576 16.6331 7.48945 16.6845C7.53314 16.7359 7.58738 16.7773 7.64848 16.8059C7.70958 16.8345 7.77612 16.8496 7.84358 16.8503L10.0405 16.8795L10.6616 13.1164C10.6827 12.9897 10.7481 12.8746 10.8461 12.7916C10.9442 12.7086 11.0685 12.6632 11.197 12.6634H12.8846C13.8108 12.6633 14.7087 12.3438 15.4267 11.7588C16.1448 11.1738 16.6392 10.359 16.8265 9.45191L16.9241 8.97502C17.0056 8.58265 16.9986 8.17704 16.9036 7.78771C16.8087 7.39837 16.6282 7.03509 16.3752 6.72429C16.1222 6.41349 15.8031 6.16298 15.4412 5.99098C15.0792 5.81898 14.6835 5.72982 14.2827 5.72998H9.45309Z" fill="#333333"/>
<path d="M16.9252 8.96533L16.8277 9.44222C16.6404 10.3493 16.146 11.1641 15.4279 11.7491C14.7098 12.3341 13.812 12.6536 12.8857 12.6537H11.196C11.0677 12.6537 10.9436 12.6993 10.8458 12.7822C10.748 12.8652 10.6827 12.9802 10.6617 13.1067L10.0406 16.8774H9.92467L9.80219 17.7282C9.79402 17.7853 9.7981 17.8434 9.81416 17.8987C9.83022 17.954 9.85789 18.0053 9.89533 18.0491C9.93276 18.0929 9.9791 18.1282 10.0313 18.1527C10.0834 18.1772 10.1402 18.1902 10.1978 18.191L12.3015 18.2127C12.401 18.2135 12.4974 18.1788 12.5735 18.1148C12.6496 18.0509 12.7004 17.9618 12.7167 17.8637L13.1925 14.9829C13.2104 14.8739 13.2665 14.7749 13.3507 14.7035C13.4348 14.632 13.5416 14.5927 13.652 14.5927H14.5288C15.3249 14.5929 16.0967 14.3185 16.7139 13.8158C17.3311 13.3131 17.756 12.6128 17.917 11.8332L18.0015 11.4246C18.0997 10.9537 18.0488 10.4638 17.856 10.0231C17.6631 9.58244 17.3378 9.21273 16.9252 8.96533Z" fill="#BDBDBD"/>
</svg>
