<svg width="25" height="25" viewBox="0 0 25 25" fill="none" xmlns="http://www.w3.org/2000/svg">
<path d="M12.9971 6.80532L12.9863 6.8606C12.6967 6.84283 12.4097 6.79488 12.1301 6.71753H12.3588C12.5688 6.76405 12.7823 6.79341 12.9971 6.80532Z" fill="#333333"/>
<path d="M11.9535 6.78556C12.2807 6.89304 12.62 6.95966 12.9636 6.98391L12.9528 7.03919C12.6066 7.01431 12.2648 6.94696 11.935 6.83867C11.8881 6.8235 11.8415 6.80941 11.7952 6.7964C11.8213 6.78265 11.8485 6.77105 11.8765 6.76172L11.9535 6.78556Z" fill="#333333"/>
<path d="M15.0631 6.71924C14.9092 6.75103 14.7572 6.79156 14.6079 6.84063L14.5407 6.86122L14.5526 6.79836L14.5851 6.7886C14.6632 6.76259 14.7423 6.73983 14.8225 6.71924H15.0631Z" fill="#333333"/>
<path d="M11.9535 6.96554C12.2698 7.0691 12.5972 7.13495 12.9289 7.16171L12.9192 7.21699C12.5841 7.19018 12.2533 7.12359 11.934 7.01864C11.8256 6.98288 11.7172 6.95145 11.6001 6.92543C11.6154 6.90955 11.6321 6.89504 11.65 6.88208C11.7551 6.90376 11.8548 6.93627 11.9535 6.96554Z" fill="#333333"/>
<path d="M15.7556 6.81144C15.3645 6.82616 14.9775 6.89547 14.6056 7.01737L14.4972 7.0488L14.5091 6.98594C14.5319 6.98052 14.5547 6.97293 14.5774 6.96534C14.9245 6.8515 15.2848 6.78266 15.6494 6.7605C15.6869 6.77264 15.7226 6.78977 15.7556 6.81144Z" fill="#333333"/>
<path d="M11.9536 7.14535C12.2591 7.24562 12.5752 7.31035 12.8955 7.33827L12.8846 7.39355C12.561 7.36586 12.2417 7.30075 11.933 7.19954C11.7821 7.14947 11.6283 7.10858 11.4724 7.07706C11.4832 7.05972 11.4951 7.04238 11.5071 7.02612C11.658 7.05763 11.8071 7.09743 11.9536 7.14535Z" fill="#333333"/>
<path d="M15.9301 6.98857C15.481 6.98798 15.0347 7.05858 14.6078 7.19775C14.5608 7.21292 14.5142 7.22701 14.468 7.24002L14.4799 7.17716C14.5146 7.16849 14.5504 7.15765 14.5883 7.14572C15.01 7.00571 15.4511 6.93257 15.8954 6.92896C15.9087 6.94774 15.9203 6.9677 15.9301 6.98857Z" fill="#333333"/>
<path d="M11.9535 7.32661C12.2491 7.42325 12.5544 7.48686 12.864 7.51629L12.8542 7.57156C12.5417 7.54194 12.2334 7.4776 11.9351 7.37972C11.7602 7.32228 11.5817 7.27666 11.4008 7.24316C11.4062 7.22473 11.4127 7.20631 11.4192 7.18896C11.6002 7.22283 11.7787 7.26882 11.9535 7.32661Z" fill="#333333"/>
<path d="M15.9898 7.16909C15.5201 7.16107 15.0523 7.2314 14.6057 7.37719C14.5472 7.3967 14.4887 7.41404 14.4301 7.4303L14.4421 7.36961L14.583 7.32625C15.033 7.17666 15.5048 7.10339 15.979 7.10948C15.9846 7.12893 15.9883 7.1489 15.9898 7.16909Z" fill="#333333"/>
<path d="M11.9535 7.50667C12.2386 7.60003 12.533 7.66253 12.8314 7.69309L12.8206 7.74837C12.5196 7.71708 12.2227 7.65386 11.9351 7.55978C11.747 7.49777 11.5547 7.44959 11.3596 7.41563L11.3693 7.36035C11.5673 7.39504 11.7625 7.44394 11.9535 7.50667Z" fill="#333333"/>
<path d="M15.9951 7.29382C15.9965 7.31258 15.9965 7.33142 15.9951 7.35018C15.5253 7.34098 15.0573 7.41134 14.611 7.55828C14.5406 7.58104 14.4701 7.60272 14.3943 7.62114L14.4051 7.55936C14.4647 7.5431 14.5243 7.52576 14.5828 7.50625C15.0386 7.35758 15.5158 7.28579 15.9951 7.29382Z" fill="#333333"/>
<path d="M11.9535 7.68638C12.2279 7.7764 12.5108 7.83814 12.7978 7.87063L12.7881 7.92482C12.4981 7.89239 12.2123 7.83028 11.9351 7.73949C11.7361 7.67341 11.5325 7.62232 11.326 7.58666L11.3357 7.53247C11.5454 7.56746 11.7519 7.61892 11.9535 7.68638Z" fill="#333333"/>
<path d="M15.967 7.47808L15.9562 7.53444C15.4977 7.52964 15.0415 7.59994 14.6057 7.74254C14.5233 7.76963 14.4409 7.79348 14.3575 7.81407L14.3694 7.75337C14.4409 7.73495 14.5125 7.71327 14.5862 7.69051C15.0317 7.54434 15.4982 7.47257 15.967 7.47808Z" fill="#333333"/>
<path d="M11.9535 7.86723C12.2176 7.95362 12.4895 8.01389 12.7653 8.04714L12.7545 8.10134C12.4761 8.06825 12.2016 8.00761 11.9351 7.92033C11.7254 7.85116 11.5105 7.79897 11.2924 7.76426L11.3021 7.70898C11.5231 7.74428 11.741 7.79719 11.9535 7.86723Z" fill="#333333"/>
<path d="M15.9301 7.65408L15.9192 7.70936C15.4724 7.70931 15.0283 7.77991 14.6035 7.91854C14.5092 7.94889 14.4149 7.97707 14.3195 7.99983L14.3314 7.94022C14.4149 7.91963 14.4983 7.8947 14.5807 7.8676C15.0161 7.72445 15.4717 7.65236 15.9301 7.65408Z" fill="#333333"/>
<path d="M11.9535 8.04734C12.2066 8.13078 12.4672 8.18923 12.7317 8.22184L12.7219 8.27712C12.4545 8.24377 12.191 8.18461 11.935 8.10045C11.7147 8.02751 11.4884 7.97384 11.2587 7.94004L11.2685 7.88477C11.501 7.91942 11.7302 7.97381 11.9535 8.04734Z" fill="#333333"/>
<path d="M15.8975 7.83374L15.8867 7.8901C15.4514 7.89238 15.0192 7.96259 14.6056 8.0982C14.4972 8.13288 14.3888 8.16323 14.2804 8.19033L14.2923 8.12963C14.3888 8.10579 14.4831 8.07869 14.5774 8.04726C15.0035 7.90736 15.449 7.83531 15.8975 7.83374Z" fill="#333333"/>
<path d="M11.9535 8.22708C12.1962 8.307 12.4459 8.36397 12.6992 8.39724L12.6884 8.45252C12.4306 8.41885 12.1766 8.36116 11.9297 8.28019C11.698 8.20425 11.4601 8.14912 11.2187 8.11544L11.2295 8.05908C11.4753 8.09354 11.7176 8.14976 11.9535 8.22708Z" fill="#333333"/>
<path d="M15.8618 8.02026L15.851 8.07662C15.4278 8.08276 15.0079 8.15292 14.6057 8.28472C14.4886 8.32266 14.3705 8.35626 14.2502 8.38444L14.261 8.32483C14.3694 8.29773 14.4778 8.26738 14.5861 8.2327C14.9982 8.09776 15.4283 8.02614 15.8618 8.02026Z" fill="#333333"/>
<path d="M11.9535 8.40684C12.1857 8.48365 12.4244 8.53915 12.6667 8.57267L12.6559 8.62795C12.4111 8.59405 12.1699 8.53818 11.9351 8.46104C11.6928 8.38088 11.4435 8.32355 11.1905 8.28979L11.2013 8.2356C11.4568 8.26923 11.7086 8.32656 11.9535 8.40684Z" fill="#333333"/>
<path d="M15.8272 8.1958L15.8164 8.25216C15.4049 8.26186 14.9971 8.3316 14.6057 8.45918C14.4768 8.50145 14.3467 8.53721 14.2145 8.56756L14.2253 8.50795C14.3456 8.48085 14.4648 8.44725 14.583 8.40823C14.9848 8.27563 15.4042 8.20402 15.8272 8.1958Z" fill="#333333"/>
<path d="M11.9536 8.58791C12.1751 8.66085 12.4024 8.71452 12.6331 8.74832L12.6234 8.80359C12.3898 8.76895 12.1596 8.71456 11.9352 8.64102C11.6835 8.55774 11.4243 8.4993 11.1613 8.46652L11.1721 8.41016C11.4377 8.44414 11.6994 8.50367 11.9536 8.58791Z" fill="#333333"/>
<path d="M15.7924 8.37671L15.7816 8.43199C15.3818 8.44484 14.9858 8.51454 14.6056 8.639C14.4654 8.68475 14.3228 8.7231 14.1786 8.75389L14.1905 8.69428C14.3231 8.66516 14.4541 8.62898 14.5829 8.58589C14.9739 8.45819 15.3813 8.38773 15.7924 8.37671Z" fill="#333333"/>
<path d="M11.9535 8.76778C12.1657 8.83714 12.3832 8.88933 12.6038 8.92385L12.594 8.98021C12.3734 8.94428 12.1559 8.891 11.9437 8.82089C11.6796 8.73449 11.4077 8.67423 11.1319 8.64097L11.1427 8.58569C11.4183 8.61983 11.6898 8.68081 11.9535 8.76778Z" fill="#333333"/>
<path d="M15.7578 8.56201L15.7469 8.61729C15.3588 8.63336 14.9747 8.70302 14.6056 8.8243C14.4538 8.87409 14.2993 8.91534 14.1428 8.94786L14.1547 8.88717C14.2994 8.85638 14.4423 8.81804 14.5829 8.77228C14.9628 8.64799 15.3583 8.57722 15.7578 8.56201Z" fill="#333333"/>
<path d="M11.9535 8.94803C12.1548 9.01414 12.361 9.06416 12.5702 9.0976L12.5604 9.15396C12.349 9.11931 12.1407 9.06821 11.9372 9.00114C11.6621 8.91106 11.3785 8.84968 11.0907 8.81797L11.1016 8.7627C11.3911 8.79516 11.6766 8.85726 11.9535 8.94803Z" fill="#333333"/>
<path d="M15.722 8.73999L15.7112 8.79635C15.3354 8.81269 14.9635 8.87978 14.6057 8.99578C14.4423 9.04962 14.2758 9.09341 14.1071 9.12692L14.119 9.06623C14.276 9.03472 14.4309 8.99382 14.5829 8.94375C14.9516 8.8243 15.3348 8.75575 15.722 8.73999Z" fill="#333333"/>
<path d="M11.9536 9.12794C12.1437 9.19081 12.3383 9.23936 12.5356 9.27317L12.5248 9.32845C12.3249 9.29429 12.1278 9.24538 11.9352 9.18213C11.6487 9.08812 11.3529 9.02561 11.0529 8.99571L11.0638 8.94043C11.3662 8.97122 11.6645 9.03408 11.9536 9.12794Z" fill="#333333"/>
<path d="M15.6874 8.9209L15.6765 8.97834C15.3124 8.99877 14.9524 9.06654 14.6057 9.17994C14.4313 9.23871 14.2531 9.28579 14.0724 9.32084L14.0833 9.26339C14.2524 9.23002 14.4193 9.18622 14.5829 9.13225C14.9403 9.014 15.3116 8.94294 15.6874 8.9209Z" fill="#333333"/>
<path d="M11.9535 9.30889C12.1331 9.36843 12.3168 9.41516 12.503 9.44871L12.4922 9.5029C12.3034 9.46899 12.1173 9.42191 11.9351 9.362C11.6387 9.26422 11.3322 9.20058 11.0214 9.17233L11.0311 9.11597C11.3448 9.14596 11.6541 9.21066 11.9535 9.30889Z" fill="#333333"/>
<path d="M15.6515 9.10425L15.6407 9.16061C15.2886 9.18351 14.9409 9.25051 14.6056 9.36004C14.4197 9.42168 14.2295 9.4695 14.0366 9.5031L14.0474 9.44566C14.2288 9.41254 14.4077 9.36691 14.5828 9.3091C14.9287 9.19475 15.2879 9.12589 15.6515 9.10425Z" fill="#333333"/>
<path d="M11.9535 9.48884C12.1226 9.54506 12.2953 9.5896 12.4705 9.62216L12.4597 9.67743C12.2819 9.64236 12.1067 9.59565 11.9351 9.53762C11.6276 9.43626 11.3093 9.37151 10.9867 9.34469L10.9976 9.28833C11.3229 9.31805 11.6437 9.38534 11.9535 9.48884Z" fill="#333333"/>
<path d="M15.6169 9.28613L15.606 9.34249C15.2658 9.36623 14.9298 9.43175 14.6056 9.53758C14.4079 9.60228 14.2058 9.65263 14.0009 9.68824L14.0117 9.62863C14.2053 9.59503 14.3963 9.54721 14.5829 9.48556C14.918 9.3766 15.2653 9.30962 15.6169 9.28613Z" fill="#333333"/>
<path d="M15.5811 9.46826L15.5703 9.52571C15.2422 9.55259 14.9184 9.61807 14.6057 9.7208C13.738 10.0042 12.8027 10.0042 11.9351 9.7208C11.6167 9.61673 11.287 9.55087 10.9531 9.52462L10.9639 9.46935C11.3004 9.49625 11.6326 9.56283 11.9535 9.66769C12.8077 9.94723 13.7287 9.94723 14.5829 9.66769C14.9066 9.56207 15.2417 9.49513 15.5811 9.46826Z" fill="#333333"/>
<path d="M15.5454 9.6525L15.5345 9.70994C15.2187 9.73814 14.9071 9.80214 14.6057 9.9007C13.7379 10.1836 12.8028 10.1836 11.9351 9.9007C11.6058 9.79235 11.2643 9.72536 10.9184 9.70127L10.9293 9.646C11.2777 9.67071 11.6217 9.73842 11.9535 9.84759C12.8078 10.1262 13.7286 10.1262 14.5829 9.84759C14.8951 9.74563 15.2181 9.68017 15.5454 9.6525Z" fill="#333333"/>
<path d="M17.0547 9.78906L17.0449 9.84421C16.9714 9.82258 16.8957 9.8042 16.82 9.78906H17.0547Z" fill="#333333"/>
<path d="M17.0238 9.96015L17.013 10.0154C16.2212 9.80362 15.3849 9.82621 14.6057 10.0805C13.7382 10.3645 12.8027 10.3645 11.9351 10.0805C11.0937 9.80612 10.1876 9.80195 9.34366 10.0685C9.36007 10.0413 9.37933 10.0158 9.4011 9.99266C10.2357 9.7444 11.1261 9.7565 11.9536 10.0273C12.8079 10.3059 13.7286 10.3059 14.583 10.0273C15.373 9.76972 16.2208 9.74638 17.0238 9.96015Z" fill="#333333"/>
<path d="M16.9914 10.1326L16.9816 10.1868C16.1987 9.98466 15.3744 10.0106 14.6058 10.2615C13.7382 10.5449 12.8029 10.5449 11.9352 10.2615C11.0836 9.98464 10.1661 9.98464 9.31446 10.2615L9.28086 10.2724L9.25485 10.28C9.26057 10.2576 9.26744 10.2355 9.27544 10.2139L9.29712 10.2074C10.1604 9.92664 11.0904 9.92664 11.9536 10.2074C12.808 10.4859 13.7287 10.4859 14.583 10.2074C15.3622 9.95322 16.1979 9.92727 16.9914 10.1326Z" fill="#333333"/>
<path d="M16.9598 10.3039L16.9501 10.3602C16.1766 10.1662 15.364 10.1944 14.6057 10.4415C13.7381 10.7249 12.8028 10.7249 11.9351 10.4415C11.0835 10.1646 10.166 10.1646 9.31439 10.4415L9.28079 10.4524C9.25911 10.4589 9.23744 10.4665 9.21576 10.4719L9.22768 10.4101L9.26345 10.3993L9.29705 10.3884C10.1604 10.1082 11.0902 10.1082 11.9536 10.3884C12.8077 10.668 13.7288 10.668 14.583 10.3884C15.3516 10.1376 16.1753 10.1083 16.9598 10.3039Z" fill="#333333"/>
<path d="M16.9283 10.4759L16.9175 10.5312C16.1534 10.3465 15.353 10.3776 14.6056 10.6211C13.738 10.9045 12.8027 10.9045 11.935 10.6211C11.0848 10.3444 10.1688 10.3444 9.31862 10.6211L9.28502 10.632C9.2525 10.6428 9.2189 10.6536 9.1853 10.6623L9.19614 10.6005L9.26768 10.5788L9.30127 10.568C10.1645 10.2873 11.0945 10.2873 11.9578 10.568C12.8121 10.8466 13.7329 10.8466 14.5872 10.568C15.344 10.321 16.1545 10.2891 16.9283 10.4759Z" fill="#333333"/>
<path d="M16.8925 10.6483C16.8882 10.6663 16.8828 10.684 16.8763 10.7014C16.1244 10.5275 15.3393 10.562 14.6056 10.8011C13.738 11.0851 12.8025 11.0851 11.935 10.8011C11.0833 10.5247 10.166 10.5247 9.31425 10.8011L9.28065 10.8119C9.23622 10.8271 9.19069 10.8401 9.14517 10.8531L9.15709 10.7913C9.19286 10.7816 9.22863 10.7707 9.26548 10.7588L9.29908 10.748C10.1623 10.4673 11.0923 10.4673 11.9556 10.748C12.8099 11.0265 13.7307 11.0265 14.585 10.748C15.3307 10.5051 16.1286 10.4706 16.8925 10.6483Z" fill="#333333"/>
<path d="M16.8275 10.8143C16.8187 10.8317 16.8086 10.8483 16.7972 10.8642C16.069 10.7105 15.3131 10.7512 14.6056 10.9823C14.3396 11.07 14.0655 11.1306 13.7873 11.1633C13.3763 11.2141 12.96 11.2046 12.5517 11.1351C12.3426 11.1003 12.1364 11.0496 11.935 10.9834C11.0834 10.7065 10.1659 10.7065 9.3143 10.9834L9.2807 10.9942C9.22434 11.0126 9.16689 11.03 9.11053 11.0452L9.12137 10.9834C9.16906 10.9704 9.21567 10.9563 9.26336 10.9411L9.29696 10.9292C10.1602 10.6485 11.0902 10.6485 11.9535 10.9292C12.3187 11.0491 12.6987 11.1181 13.0828 11.134C13.2064 11.1398 13.33 11.1398 13.4535 11.134C13.8376 11.1181 14.2176 11.0491 14.5829 10.9292C15.3077 10.6928 16.0823 10.6532 16.8275 10.8143Z" fill="#333333"/>
<path d="M16.704 10.9695C16.6947 10.979 16.6845 10.9877 16.6737 10.9955C16.6639 11.0033 16.6533 11.0102 16.6422 11.0161C15.9615 10.8986 15.2624 10.9492 14.6057 11.1635C13.8367 11.4144 13.0127 11.4441 12.2277 11.2491C12.1291 11.2252 12.0316 11.1971 11.9351 11.1656C11.1126 10.8965 10.2274 10.8863 9.39889 11.1364H9.2103C9.22872 11.1364 9.24606 11.1255 9.26449 11.1201L9.29809 11.1093C10.1614 10.8291 11.0913 10.8291 11.9546 11.1093C12.0489 11.1407 12.1432 11.1678 12.2396 11.1916C12.7381 11.3171 13.2553 11.3502 13.7657 11.2892C14.0438 11.257 14.318 11.1967 14.584 11.1093C15.2678 10.886 15.9968 10.8379 16.704 10.9695Z" fill="#333333"/>
<path d="M16.4082 11.106C16.3012 11.127 16.1922 11.1368 16.0831 11.1352H16.0267C15.9545 11.1352 15.8822 11.1352 15.81 11.1352C15.6471 11.1389 15.4846 11.1523 15.3233 11.1753C15.0801 11.2103 14.8404 11.2661 14.6069 11.3423C14.3195 11.4372 14.0226 11.5005 13.7214 11.5308C13.211 11.5866 12.6948 11.5498 12.1975 11.4225C12.1097 11.4008 12.023 11.3748 11.9363 11.3466C11.5418 11.2168 11.13 11.1471 10.7148 11.1396C10.6834 11.1396 10.653 11.1396 10.6216 11.1396H9.92575C10.6045 11.0283 11.2999 11.0819 11.9536 11.2956C12.0371 11.3227 12.1216 11.3477 12.2062 11.3683C12.9892 11.571 13.8139 11.5458 14.583 11.2956C15.1706 11.1011 15.7933 11.0364 16.4082 11.106Z" fill="#333333"/>
<path d="M15.2983 11.3031L15.2875 11.3616C15.056 11.3954 14.8278 11.4495 14.6057 11.5231C13.8156 11.7818 12.9673 11.8055 12.1638 11.5914C12.0869 11.5719 12.011 11.5492 11.9351 11.5242C11.5298 11.3914 11.1066 11.3212 10.6801 11.3161L10.6898 11.2598C11.1196 11.2677 11.5457 11.3408 11.9536 11.4765C12.0262 11.5004 12.0999 11.5221 12.1703 11.5416C12.6646 11.6737 13.1788 11.7148 13.6877 11.663C13.9892 11.6336 14.2865 11.571 14.5743 11.4765C14.81 11.3973 15.0523 11.3393 15.2983 11.3031Z" fill="#333333"/>
<path d="M15.2647 11.4884L15.2538 11.5469C15.0332 11.5818 14.8157 11.6344 14.6035 11.704C13.8024 11.9664 12.9419 11.9871 12.1291 11.7637C12.063 11.7463 11.9979 11.7268 11.9329 11.7051C11.5165 11.5686 11.0813 11.4981 10.6431 11.496L10.654 11.4407C11.0962 11.4439 11.5352 11.5171 11.9546 11.6574C12.0174 11.678 12.0803 11.6965 12.1432 11.7138C12.9447 11.9352 13.7936 11.9156 14.584 11.6574C14.806 11.5829 15.0336 11.5264 15.2647 11.4884Z" fill="#333333"/>
<path d="M15.2301 11.6738L15.2192 11.7334C15.0111 11.767 14.806 11.817 14.6058 11.883C13.7939 12.1489 12.9213 12.1674 12.0988 11.9361L11.9352 11.8852C11.5081 11.7449 11.0613 11.6742 10.6118 11.676L10.6226 11.6196C11.075 11.6205 11.5243 11.6937 11.9536 11.8364C12.0056 11.8537 12.062 11.8689 12.1097 11.8841C12.6024 12.0244 13.1166 12.074 13.627 12.0304C13.9518 12.0032 14.2723 11.9381 14.5819 11.8364C14.7934 11.7655 15.0101 11.7111 15.2301 11.6738Z" fill="#333333"/>
<path d="M15.1954 11.8605L15.1845 11.919C14.9884 11.953 14.7949 12.0011 14.6058 12.0632C14.2747 12.1726 13.9314 12.2407 13.5837 12.2658C13.0724 12.3033 12.5585 12.249 12.0663 12.1054C12.023 12.0935 11.9785 12.0794 11.9352 12.0653C11.4974 11.9217 11.0389 11.8513 10.5782 11.8572L10.5879 11.8009C11.052 11.7978 11.5133 11.8711 11.9536 12.0176L12.0771 12.0556C12.5692 12.1999 13.0833 12.2535 13.5945 12.2138C13.9308 12.1888 14.2627 12.1229 14.583 12.0176C14.7828 11.9497 14.9875 11.8972 15.1954 11.8605Z" fill="#333333"/>
<path d="M15.1617 12.0467L15.1509 12.1052C14.9673 12.1392 14.7863 12.1856 14.609 12.244C13.7753 12.5167 12.8781 12.5277 12.0381 12.2754C12.0045 12.2667 11.972 12.2559 11.9384 12.245C11.4894 12.0983 11.019 12.0279 10.5467 12.0369L10.5575 11.9806C11.0325 11.9726 11.5054 12.044 11.9568 12.1919L12.0489 12.2201C12.54 12.3693 13.0543 12.427 13.5663 12.3903C13.914 12.3677 14.2574 12.3011 14.5884 12.1919C14.7759 12.1303 14.9675 12.0818 15.1617 12.0467Z" fill="#333333"/>
<path d="M15.1271 12.2332L15.1162 12.2929C14.9433 12.3252 14.7728 12.369 14.6057 12.424C13.7618 12.6997 12.8532 12.7077 12.0045 12.4468L11.9373 12.4262C11.4775 12.2748 10.9949 12.2044 10.511 12.2181L10.5218 12.1628C11.0078 12.1503 11.4925 12.221 11.9546 12.372L12.0143 12.3904C12.8522 12.6498 13.7499 12.6434 14.5841 12.372C14.7617 12.3135 14.9431 12.2671 15.1271 12.2332Z" fill="#333333"/>
<path d="M15.0923 12.4194L15.0815 12.479C14.9205 12.5108 14.7616 12.5524 14.6057 12.6036C14.2423 12.7225 13.8647 12.7921 13.4828 12.8106C12.9694 12.8388 12.4552 12.773 11.9654 12.6166L11.9297 12.6058C11.4589 12.452 10.9647 12.3823 10.4697 12.3999L10.4806 12.3424C10.9782 12.3269 11.4748 12.3981 11.9481 12.5527L11.9752 12.5613C12.8218 12.8307 13.7316 12.8277 14.5764 12.5527C14.7454 12.4972 14.9177 12.4527 15.0923 12.4194Z" fill="#333333"/>
<path d="M15.063 12.6073L15.0522 12.6669C14.903 12.6974 14.7557 12.7364 14.6111 12.7839C13.7445 13.0673 12.8103 13.0673 11.9437 12.7839C11.4623 12.6263 10.9563 12.5569 10.4502 12.5791L10.461 12.5216C10.9684 12.5016 11.4752 12.5721 11.9578 12.7297C12.8121 13.0087 13.733 13.0087 14.5872 12.7297C14.7434 12.6798 14.9022 12.6389 15.063 12.6073Z" fill="#333333"/>
<path d="M15.023 12.7945L15.0122 12.8541C14.8748 12.8826 14.7391 12.9188 14.6057 12.9625C13.738 13.2454 12.8028 13.2454 11.9351 12.9625L11.9069 12.9538C11.4211 12.7998 10.9114 12.7351 10.4026 12.763L10.4134 12.7067C10.923 12.679 11.4333 12.7436 11.9199 12.8974L11.9568 12.9083C12.8111 13.1868 13.7319 13.1868 14.5862 12.9083C14.7296 12.8624 14.8754 12.8244 15.023 12.7945Z" fill="#333333"/>
<path d="M8.88509 13.2224H9.0408C8.98782 13.2376 8.93267 13.2505 8.8786 13.2613L8.88509 13.2224Z" fill="#333333"/>
<path d="M14.9882 12.9819L14.9774 13.0426C14.8517 13.07 14.7277 13.104 14.6056 13.1444C13.8295 13.3981 12.9973 13.426 12.206 13.2246C12.1149 13.2019 12.025 13.1759 11.935 13.1466L11.8743 13.1282C11.3892 12.9763 10.8806 12.9138 10.3732 12.9439L10.3829 12.8886C10.8905 12.8594 11.3992 12.9211 11.8851 13.0707L11.9534 13.0924C12.1198 13.147 12.2896 13.1904 12.4617 13.2225C13.1681 13.3596 13.8979 13.3141 14.5817 13.0902C14.7153 13.0471 14.8509 13.011 14.9882 12.9819Z" fill="#333333"/>
<path d="M14.9665 13.2224C14.8451 13.2495 14.7237 13.2831 14.6056 13.3221C13.7379 13.6055 12.8026 13.6055 11.935 13.3221C11.4205 13.1538 10.8785 13.0861 10.3385 13.1227C10.114 13.1367 9.89102 13.1693 9.67191 13.2202C9.55161 13.2473 9.43238 13.2798 9.31424 13.3188L9.28065 13.3297C9.13827 13.3762 8.99356 13.4153 8.84711 13.4467L8.85686 13.386C8.99483 13.3569 9.13121 13.3207 9.26547 13.2777L9.29907 13.2668C9.34893 13.2506 9.39878 13.2354 9.44973 13.2213C9.74365 13.1366 10.0461 13.085 10.3515 13.0674C10.8942 13.032 11.4387 13.1008 11.9556 13.2701C12.8099 13.5486 13.7307 13.5486 14.585 13.2701C14.7064 13.23 14.831 13.1953 14.9557 13.1617L14.9459 13.2159L14.9665 13.2224Z" fill="#333333"/>
<path d="M16.3571 13.3191C15.7667 13.257 15.1698 13.3205 14.6056 13.5055C13.738 13.7889 12.8027 13.7889 11.935 13.5055C11.0833 13.2291 10.166 13.2291 9.31428 13.5055L9.28068 13.5174C9.12754 13.5675 8.97155 13.6084 8.81354 13.6399L8.82329 13.5792C8.97212 13.5492 9.11906 13.5105 9.26333 13.4632L9.29693 13.4524C10.1602 13.1717 11.0902 13.1717 11.9534 13.4524C12.8078 13.7309 13.7285 13.7309 14.5829 13.4524C15.1102 13.2799 15.666 13.2111 16.2195 13.2497C16.2694 13.2637 16.3162 13.2872 16.3571 13.3191Z" fill="#333333"/>
<path d="M16.4818 13.5142C15.8515 13.4302 15.2104 13.4887 14.6057 13.6854C13.738 13.9688 12.8027 13.9688 11.9351 13.6854C11.0835 13.4085 10.166 13.4085 9.31435 13.6854L9.28075 13.6963C9.11759 13.7492 8.95148 13.7927 8.78326 13.8263L8.79302 13.7678C8.9521 13.7363 9.10917 13.6954 9.26341 13.6453L9.29701 13.6334C10.1604 13.3538 11.0901 13.3538 11.9535 13.6334C12.8079 13.912 13.7286 13.912 14.5829 13.6334C15.1886 13.436 15.8303 13.3749 16.4623 13.4546C16.4707 13.4738 16.4773 13.4937 16.4818 13.5142Z" fill="#333333"/>
<path d="M16.509 13.6982C15.8701 13.6078 15.2191 13.6649 14.6057 13.8651C13.738 14.148 12.8029 14.148 11.9351 13.8651C11.0836 13.5874 10.1659 13.5874 9.31439 13.8651L9.28079 13.8759C9.11083 13.9317 8.93741 13.9762 8.76163 14.0092C8.76163 13.9908 8.76163 13.9724 8.76163 13.9518C8.92997 13.9192 9.09612 13.8761 9.25911 13.8228L9.29271 13.812C10.156 13.5313 11.086 13.5313 11.9492 13.812C12.8036 14.0905 13.7243 14.0905 14.5786 13.812C15.1977 13.6089 15.8548 13.5493 16.5003 13.6375C16.505 13.6574 16.5079 13.6777 16.509 13.6982Z" fill="#333333"/>
<path d="M16.5068 13.8209C16.5068 13.8394 16.5068 13.8578 16.5068 13.8773C15.8704 13.7889 15.2222 13.8464 14.6112 14.0453C13.7435 14.3287 12.8082 14.3287 11.9406 14.0453C11.0889 13.7689 10.1716 13.7689 9.31985 14.0453L9.28625 14.0561C9.11847 14.1115 8.94721 14.1557 8.77359 14.1884C8.77359 14.1699 8.77359 14.1515 8.77359 14.132C8.943 14.0994 9.11023 14.0563 9.27433 14.003L9.30793 13.9922C10.1712 13.7115 11.1012 13.7115 11.9644 13.9922C12.8188 14.2708 13.7395 14.2708 14.5939 13.9922C15.2103 13.7908 15.8644 13.7323 16.5068 13.8209Z" fill="#333333"/>
<path d="M16.4852 13.9988L16.4765 14.0541C15.8479 13.9705 15.2085 14.0294 14.6058 14.2264C13.7381 14.5098 12.8028 14.5098 11.9352 14.2264C11.0835 13.95 10.1662 13.95 9.31445 14.2264L9.28085 14.2383C9.12912 14.2879 8.97458 14.3284 8.81805 14.3597C8.80916 14.3426 8.80156 14.3248 8.79529 14.3066C8.95362 14.275 9.10996 14.2341 9.26351 14.1841L9.29711 14.1733C10.1604 13.8926 11.0904 13.8926 11.9536 14.1733C12.808 14.4519 13.7287 14.4519 14.583 14.1733C15.1959 13.973 15.8461 13.9133 16.4852 13.9988Z" fill="#333333"/>
<path d="M12.6298 14.5718C12.394 14.5373 12.1615 14.4826 11.9351 14.4082C11.0836 14.1305 10.1659 14.1305 9.31434 14.4082L9.28075 14.419C9.17236 14.4537 9.06398 14.483 8.96209 14.5101C8.93945 14.4978 8.91835 14.4829 8.89923 14.4656C9.02171 14.4385 9.1431 14.4049 9.2634 14.3659L9.297 14.3551C10.1603 14.0749 11.0902 14.0749 11.9535 14.3551C12.8077 14.6346 13.7287 14.6346 14.5829 14.3551C15.1871 14.1577 15.8274 14.0966 16.458 14.1762L16.4493 14.2304C15.8296 14.1533 15.2005 14.2136 14.6068 14.4071C14.1567 14.5562 13.6849 14.6294 13.2108 14.6239L12.6298 14.5718Z" fill="#333333"/>
<path d="M11.9535 14.5352C11.9936 14.5482 12.0337 14.5612 12.0749 14.572H11.882C11.06 14.3141 10.1787 14.3141 9.35664 14.572H9.26018C9.23383 14.5737 9.20741 14.5737 9.18106 14.572L9.26343 14.5471L9.29703 14.5363C10.1602 14.2552 11.0902 14.2548 11.9535 14.5352Z" fill="#333333"/>
<path d="M16.431 14.352L16.4223 14.4073C15.811 14.3339 15.1911 14.3949 14.6058 14.5861C14.1443 14.737 13.6606 14.8085 13.1751 14.7975L13.186 14.7433C13.66 14.7524 14.1322 14.6821 14.5831 14.5352C15.1782 14.3396 15.809 14.2771 16.431 14.352Z" fill="#333333"/>
<path d="M11.6555 14.6313L11.6457 14.6866C11.1499 14.5632 10.6358 14.5306 10.1284 14.5901V14.5739H9.85306C10.4512 14.4654 11.0655 14.485 11.6555 14.6313Z" fill="#333333"/>
<path d="M16.4037 14.5286L16.3972 14.572H16.2715C16.0363 14.5524 15.8 14.5524 15.5648 14.572C15.2805 14.5955 14.9994 14.6481 14.7259 14.7291C14.6858 14.7399 14.6457 14.753 14.6056 14.766C14.1334 14.9225 13.6376 14.9959 13.1403 14.9827L13.1511 14.9264C13.6367 14.9408 14.1212 14.8707 14.5829 14.7194C14.6338 14.7031 14.6847 14.6868 14.7368 14.6727C14.8723 14.6336 15.0098 14.6014 15.1486 14.5763C15.5624 14.4993 15.9853 14.4832 16.4037 14.5286Z" fill="#333333"/>
<path d="M11.624 14.8007L11.6143 14.857C11.1177 14.7374 10.6036 14.7088 10.0969 14.7725L10.1077 14.714C10.6143 14.6531 11.1277 14.6824 11.624 14.8007Z" fill="#333333"/>
<path d="M14.701 14.8591L14.6891 14.922C14.6609 14.9285 14.6327 14.9383 14.6056 14.9469C14.122 15.1052 13.6141 15.1764 13.1056 15.1572L13.1164 15.1008C13.6136 15.1194 14.1101 15.0497 14.5829 14.8949C14.6219 14.8819 14.662 14.87 14.701 14.8591Z" fill="#333333"/>
<path d="M11.5947 14.9751L11.585 15.0304C11.085 14.9131 10.5679 14.8881 10.0589 14.9567L10.0698 14.8992C10.5786 14.8336 11.095 14.8592 11.5947 14.9751Z" fill="#333333"/>
<path d="M14.6653 15.0498L14.6533 15.1127L14.6056 15.1268C14.1108 15.2883 13.5909 15.3592 13.0709 15.3359L13.0818 15.2796C13.5904 15.3028 14.0991 15.2334 14.5829 15.0747L14.6653 15.0498Z" fill="#333333"/>
<path d="M11.5612 15.1476L11.5514 15.2029C11.0503 15.09 10.5328 15.0694 10.0243 15.1422L10.0351 15.0836C10.5436 15.0143 11.0603 15.0359 11.5612 15.1476Z" fill="#333333"/>
<path d="M14.6295 15.2419L14.6187 15.3037H14.6067C14.1011 15.4699 13.5688 15.5401 13.0373 15.5107L13.0482 15.4555C13.5682 15.4832 14.0889 15.4145 14.584 15.2528L14.6295 15.2419Z" fill="#333333"/>
<path d="M11.5298 15.3211L11.52 15.3763C11.017 15.2677 10.4986 15.2509 9.98962 15.3265L10.0005 15.269C10.5092 15.1947 11.0272 15.2123 11.5298 15.3211Z" fill="#333333"/>
<path d="M14.5927 15.4329L14.5808 15.4957C14.072 15.6592 13.5371 15.7261 13.0038 15.693L13.0146 15.6366C13.5457 15.6695 14.0782 15.6014 14.584 15.4361L14.5927 15.4329Z" fill="#333333"/>
<path d="M11.4983 15.4986L11.4875 15.5549C10.9833 15.4486 10.4638 15.4358 9.95493 15.517L9.96576 15.4574C10.475 15.3794 10.994 15.3933 11.4983 15.4986Z" fill="#333333"/>
<path d="M14.5569 15.6235L14.545 15.6864C14.0354 15.8458 13.5005 15.9083 12.968 15.8707L12.9788 15.8154C13.5123 15.8528 14.048 15.7876 14.5569 15.6235Z" fill="#333333"/>
<path d="M11.4669 15.6677L11.456 15.723C10.9499 15.6216 10.4294 15.6131 9.92023 15.6981L9.93107 15.6396C10.4406 15.5573 10.9607 15.5668 11.4669 15.6677Z" fill="#333333"/>
<path d="M14.5211 15.8162L14.5103 15.8769C14.0002 16.0314 13.4658 16.0894 12.9344 16.0481L12.9452 15.9939C13.477 16.0343 14.0117 15.974 14.5211 15.8162Z" fill="#333333"/>
<path d="M11.4344 15.8424L11.4247 15.8976C10.9167 15.8001 10.3952 15.7957 9.88559 15.8846L9.89643 15.8261C10.4059 15.7393 10.9269 15.7449 11.4344 15.8424Z" fill="#333333"/>
<path d="M14.4843 16.0068L14.4724 16.0675C13.9612 16.2183 13.4263 16.2719 12.8954 16.2258L12.9062 16.1705C13.4378 16.216 13.9733 16.1605 14.4843 16.0068Z" fill="#333333"/>
<path d="M11.403 16.0165L11.3933 16.0718C10.8834 15.978 10.3608 15.978 9.85095 16.0718L9.86179 16.0122C10.3716 15.9209 10.8937 15.9224 11.403 16.0165Z" fill="#333333"/>
<path d="M14.4485 16.198L14.4366 16.2598C13.9261 16.4044 13.3932 16.4529 12.865 16.4028L12.8759 16.3476C13.4048 16.3967 13.9383 16.346 14.4485 16.198Z" fill="#333333"/>
<path d="M11.3703 16.1912L11.3606 16.2464C10.8494 16.1555 10.3258 16.1596 9.8161 16.2584L9.82694 16.1988C10.3367 16.103 10.8596 16.1005 11.3703 16.1912Z" fill="#333333"/>
<path d="M14.4128 16.3887L14.4009 16.4494C13.8902 16.5893 13.3581 16.6334 12.8315 16.5794L12.8423 16.5242C13.3696 16.5785 13.9025 16.5326 14.4128 16.3887Z" fill="#333333"/>
<path d="M11.339 16.3657L11.3292 16.4209C10.8162 16.3336 10.2915 16.3416 9.78149 16.4448L9.79233 16.3852C10.3025 16.2855 10.8265 16.2789 11.339 16.3657Z" fill="#333333"/>
<path d="M14.376 16.5828L14.3651 16.6435C13.854 16.7785 13.3223 16.8182 12.7968 16.7605L12.8077 16.7063C13.3336 16.7636 13.8655 16.7217 14.376 16.5828Z" fill="#333333"/>
<path d="M11.3075 16.5401L11.2967 16.5954C10.7822 16.5127 10.2568 16.5252 9.7468 16.6323L9.75763 16.5716C10.2682 16.468 10.7932 16.4574 11.3075 16.5401Z" fill="#333333"/>
<path d="M14.3402 16.7678L14.3294 16.8285C13.8188 16.9607 13.2882 16.9975 12.7643 16.9369C12.7643 16.9228 12.7643 16.9076 12.7719 16.8914V16.8816C13.2972 16.9424 13.8292 16.9038 14.3402 16.7678Z" fill="#333333"/>
<path d="M11.2751 16.7148L11.2653 16.7701C10.7485 16.6916 10.2217 16.7088 9.71109 16.8211L9.72301 16.7604C10.2333 16.651 10.7593 16.6356 11.2751 16.7148Z" fill="#333333"/>
<path d="M14.3044 16.9565L14.2936 17.0183C13.7925 17.1416 13.2734 17.1735 12.761 17.1126C12.7599 17.0938 12.7599 17.075 12.761 17.0563C13.2772 17.1182 13.8005 17.0844 14.3044 16.9565Z" fill="#333333"/>
<path d="M11.2437 16.8915L11.2328 16.9468C10.7147 16.8708 10.1869 16.8918 9.67642 17.0086L9.68726 16.949C10.1982 16.8351 10.7257 16.8157 11.2437 16.8915Z" fill="#333333"/>
<path d="M14.2686 17.1472L14.2577 17.2068C13.783 17.3192 13.2926 17.35 12.8076 17.2979C12.7991 17.2793 12.7922 17.2601 12.787 17.2404C13.2825 17.2963 13.784 17.2648 14.2686 17.1472Z" fill="#333333"/>
<path d="M11.2079 17.0671C11.2025 17.0855 11.197 17.1039 11.1905 17.1213C10.6741 17.0506 10.149 17.076 9.64172 17.1961L9.65256 17.1364C10.1624 17.0187 10.6896 16.9952 11.2079 17.0671Z" fill="#333333"/>
<path d="M14.2327 17.3413L14.2219 17.3998C13.8003 17.4959 13.3666 17.5281 12.9354 17.4952C12.9308 17.4912 12.9264 17.4868 12.9224 17.4822C12.9078 17.4669 12.8944 17.4506 12.8823 17.4334C13.3345 17.475 13.7904 17.4439 14.2327 17.3413Z" fill="#333333"/>
<path d="M11.1438 17.2326C11.1352 17.251 11.1254 17.2694 11.1157 17.2868C10.6108 17.2275 10.0994 17.2594 9.60587 17.3811L9.61779 17.3193C10.1173 17.2002 10.634 17.1709 11.1438 17.2326Z" fill="#333333"/>
<path d="M14.196 17.5247L14.1841 17.5843C14.0278 17.6188 13.8697 17.6441 13.7105 17.6601H13.3149C13.2511 17.6604 13.1879 17.6486 13.1284 17.6255C13.4871 17.6364 13.8458 17.6026 14.196 17.5247Z" fill="#333333"/>
<path d="M11.03 17.4051C11.0127 17.4235 10.9942 17.4409 10.9747 17.4571C10.5018 17.4171 10.0254 17.457 9.56573 17.5752L9.57657 17.5135C10.0514 17.3952 10.5429 17.3585 11.03 17.4051Z" fill="#333333"/>
<path d="M10.7928 17.57C10.747 17.5916 10.6995 17.6093 10.6509 17.6231C10.4537 17.6213 10.2566 17.6336 10.0612 17.66H9.73608C10.0833 17.5867 10.4382 17.5565 10.7928 17.57Z" fill="#333333"/>
<path d="M8.31393 13.5889C8.31446 13.5076 8.32171 13.4263 8.33561 13.3462L8.43424 12.7479H9.87251L10.2659 10.6593H8.64667L8.78974 9.88001C8.81035 9.71091 8.89442 9.55595 9.02494 9.44647C9.14633 9.35326 9.34287 9.30666 9.61455 9.30666H10.4545L10.9249 6.87017C10.9552 6.68392 11.0552 6.51615 11.2046 6.40086C11.3527 6.28928 11.5339 6.23052 11.7194 6.23395H12.5702L11.9947 9.30666H13.5392L14.1212 6.23395H14.9547C15.1133 6.22727 15.2684 6.28156 15.3882 6.38569C15.4422 6.43411 15.485 6.49371 15.5136 6.56034C15.5423 6.62698 15.5561 6.69904 15.554 6.77154C15.5548 6.80782 15.5523 6.8441 15.5464 6.87992L15.0771 9.30124H16.614L16.4699 10.0805C16.4496 10.2505 16.3641 10.4059 16.2314 10.5141C16.1079 10.6073 15.9124 10.6539 15.6451 10.6539H14.8864L14.5005 12.7425H15.5757C15.7086 12.7334 15.84 12.7753 15.9431 12.8595C15.9895 12.9141 16.0244 12.9774 16.0458 13.0457C16.0673 13.1141 16.0747 13.186 16.0678 13.2573C16.0668 13.3387 16.0592 13.4199 16.045 13.5001L15.954 14.0897H14.3044L13.7212 17.1776H12.8661C12.7913 17.1778 12.7173 17.1618 12.6494 17.1305C12.5814 17.0993 12.5211 17.0535 12.4727 16.9966C12.3618 16.8747 12.3024 16.7147 12.3068 16.55C12.3052 16.5258 12.3052 16.5016 12.3068 16.4774C12.3068 16.4546 12.3133 16.4308 12.3177 16.4059L12.7653 14.0897H11.2197L10.7808 16.4969C10.7677 16.6007 10.7334 16.7007 10.6799 16.7906C10.6263 16.8805 10.5548 16.9584 10.4697 17.0193C10.309 17.1252 10.1202 17.1803 9.92778 17.1776H9.10839L9.68283 14.0897H8.81575C8.6819 14.1021 8.54831 14.0633 8.44183 13.9813C8.39415 13.9285 8.35811 13.8663 8.33608 13.7987C8.31404 13.7311 8.3065 13.6596 8.31393 13.5889ZM13.3462 10.6625H11.8028L11.4094 12.7511H12.9604L13.3462 10.6625Z" fill="#333333"/>
</svg>
