<svg width="25" height="25" viewBox="0 0 25 25" fill="none" xmlns="http://www.w3.org/2000/svg">
<path d="M14.8462 7.95395C14.1699 8.12103 13.4631 8.12103 12.7869 7.95395C12.685 7.92902 12.5831 7.89976 12.4823 7.86725C11.6307 7.59034 10.7132 7.59034 9.86158 7.86725L9.82798 7.87808C9.7391 7.90735 9.64806 7.93336 9.55701 7.95612C9.19751 8.04702 8.8277 8.09074 8.45691 8.08618C8.48458 8.06502 8.51394 8.04617 8.5447 8.02982C8.97457 8.02549 9.40133 7.95643 9.81063 7.82498L9.84423 7.81414C10.7072 7.53396 11.6367 7.53396 12.4997 7.81414C12.6804 7.87368 12.8651 7.9204 13.0524 7.95395C13.5565 8.04716 14.0733 8.04716 14.5774 7.95395H14.8462Z" fill="#333333"/>
<path d="M18.2626 8.17401C18.1159 8.14427 17.9712 8.10591 17.8291 8.05912L17.7716 8.0407C17.6697 8.00818 17.5668 7.97892 17.4627 7.95399C16.8132 7.799 16.1364 7.799 15.4869 7.95399C15.3785 7.98 15.2701 8.01035 15.1617 8.04612C14.294 8.32899 13.3588 8.32899 12.4911 8.04612C12.3813 8.00999 12.2707 7.97856 12.1594 7.95182C11.5138 7.79792 10.8411 7.79792 10.1955 7.95182C10.0857 7.97784 9.9773 8.00818 9.87036 8.04287L9.83676 8.05371C9.3406 8.21568 8.81899 8.28548 8.2977 8.25964C8.30861 8.24102 8.32093 8.22327 8.33455 8.20653C8.83588 8.22695 9.33685 8.15795 9.814 8.00276L9.8476 7.99193C9.88879 7.97784 9.93106 7.96591 9.97224 7.95399C10.7552 7.72638 11.5868 7.72638 12.3697 7.95399C12.4142 7.967 12.4586 7.98 12.503 7.99518C13.3577 8.27375 14.2788 8.27375 15.1335 7.99518C15.178 7.98 15.2235 7.96591 15.2679 7.95399C16.0542 7.72367 16.89 7.72367 17.6762 7.95399L17.7846 7.98759L17.8421 8.00602C17.9504 8.04287 18.0708 8.0743 18.1867 8.10139C18.2141 8.1233 18.2395 8.14761 18.2626 8.17401Z" fill="#333333"/>
<path d="M18.3851 8.3777C18.1956 8.34504 18.0087 8.29868 17.8259 8.23897L17.7684 8.22054C16.9194 7.94581 16.0054 7.94581 15.1563 8.22054C14.2888 8.50454 13.3533 8.50454 12.4857 8.22054C11.634 7.94416 10.7167 7.94416 9.86499 8.22054L9.83139 8.23138C9.31209 8.39965 8.76546 8.46734 8.22079 8.43081C8.22508 8.41195 8.23088 8.39347 8.23814 8.37554C8.77086 8.41238 9.30572 8.34727 9.81405 8.18369L9.84765 8.17286C10.7105 7.89216 11.6402 7.89216 12.5031 8.17286C13.3578 8.45143 14.2789 8.45143 15.1336 8.17286C15.9948 7.89129 16.9229 7.88863 17.7857 8.16527L17.8432 8.18369C18.012 8.23885 18.1844 8.2823 18.3591 8.31376C18.3692 8.33448 18.3778 8.35584 18.3851 8.3777Z" fill="#333333"/>
<path d="M18.4229 8.56525C18.2201 8.53161 18.0201 8.4827 17.8246 8.41893L17.7726 8.40051C16.9229 8.12789 16.0089 8.13016 15.1605 8.40701C14.2929 8.6904 13.3576 8.6904 12.4899 8.40701C11.6383 8.13011 10.7208 8.13011 9.8692 8.40701L9.8356 8.41785C9.30781 8.58993 8.75157 8.65766 8.19791 8.61728V8.60752C8.19791 8.59126 8.19791 8.57609 8.19791 8.56092C8.74342 8.60108 9.29153 8.53482 9.81176 8.36582L9.84535 8.35498C10.7083 8.07481 11.6378 8.07481 12.5008 8.35498C13.3555 8.63356 14.2766 8.63356 15.1313 8.35498C15.9925 8.07341 16.9206 8.07076 17.7835 8.3474L17.8409 8.36582C18.0311 8.42794 18.2256 8.47576 18.4229 8.50889C18.4245 8.52765 18.4245 8.5465 18.4229 8.56525Z" fill="#333333"/>
<path d="M18.423 8.68765V8.74509C18.2196 8.71131 18.0189 8.66277 17.8225 8.59986L17.7651 8.58143C16.9161 8.3067 16.0021 8.3067 15.153 8.58143C14.2853 8.8643 13.3502 8.8643 12.4824 8.58143C11.6309 8.30378 10.7132 8.30378 9.86169 8.58143L9.82809 8.59227C9.30151 8.76298 8.74682 8.82997 8.19473 8.78953V8.73317C8.74089 8.7738 9.28973 8.70791 9.81075 8.53916L9.84435 8.52832C10.7073 8.24815 11.6368 8.24815 12.4998 8.52832C13.3543 8.8081 14.2758 8.8081 15.1303 8.52832C15.9915 8.24675 16.9196 8.2441 17.7824 8.52074L17.8399 8.53916C18.0303 8.60319 18.2252 8.65283 18.423 8.68765Z" fill="#333333"/>
<path d="M18.423 8.86964V8.926C18.2195 8.89237 18.0187 8.84345 17.8225 8.77968L17.7651 8.76126C16.9161 8.48652 16.0021 8.48652 15.153 8.76126C14.2853 9.04413 13.3502 9.04413 12.4824 8.76126C11.6308 8.48435 10.7133 8.48435 9.86169 8.76126L9.82809 8.77209C9.30151 8.9428 8.74682 9.00979 8.19473 8.96935V8.91408C8.74162 8.9573 9.29168 8.89323 9.814 8.72549L9.8476 8.71465C10.7105 8.43395 11.6401 8.43395 12.503 8.71465C13.3577 8.99322 14.2788 8.99322 15.1335 8.71465C15.9946 8.43204 16.923 8.42939 17.7857 8.70706L17.8431 8.72549C18.0327 8.78737 18.2265 8.83555 18.423 8.86964Z" fill="#333333"/>
<path d="M18.4229 9.05078V9.10714C18.2194 9.0735 18.0187 9.02459 17.8225 8.96082L17.7726 8.94239C16.923 8.66942 16.009 8.67132 15.1605 8.94781C14.293 9.23181 13.3575 9.23181 12.4899 8.94781C11.6361 8.66779 10.7155 8.66589 9.86053 8.94239L9.82693 8.95431C9.30211 9.12658 8.74903 9.19612 8.19791 9.15916V9.10389C8.74414 9.14458 9.29307 9.07831 9.81392 8.90879L9.84752 8.89795C10.7104 8.61726 11.6401 8.61726 12.5029 8.89795C13.3577 9.17653 14.2787 9.17653 15.1334 8.89795C15.9947 8.61638 16.9228 8.61373 17.7856 8.89037L17.8431 8.90879C18.0327 8.96994 18.2265 9.01739 18.4229 9.05078Z" fill="#333333"/>
<path d="M18.4231 9.22859V9.28603C18.2195 9.2524 18.0188 9.20349 17.8226 9.13971L17.7652 9.12129C16.9154 8.84919 16.0015 8.85146 15.1531 9.12779C14.2855 9.41119 13.3502 9.41119 12.4825 9.12779C11.6307 8.8503 10.7128 8.84992 9.86068 9.12671L9.82708 9.13755C9.30052 9.30833 8.74581 9.37532 8.19373 9.33481V9.27845C8.73988 9.31907 9.28872 9.25318 9.80974 9.08444L9.84334 9.07251C10.7064 8.79286 11.6357 8.79286 12.4988 9.07251C13.3535 9.35109 14.2746 9.35109 15.1293 9.07251C15.9905 8.79094 16.9186 8.78829 17.7814 9.06493L17.8389 9.08335C18.0297 9.14633 18.225 9.19488 18.4231 9.22859Z" fill="#333333"/>
<path d="M18.423 9.40962V9.46598C18.2196 9.4322 18.0189 9.38366 17.8225 9.32075L17.7651 9.30232C16.9155 9.02935 16.0015 9.03125 15.153 9.30774C14.2853 9.59061 13.3502 9.59061 12.4824 9.30774C11.6309 9.03009 10.7132 9.03009 9.86169 9.30774L9.82809 9.31858C9.30151 9.48929 8.74682 9.55628 8.19473 9.51584V9.45948C8.74182 9.50123 9.29181 9.43607 9.814 9.26764L9.8476 9.2568C10.7105 8.9761 11.6401 8.9761 12.503 9.2568C13.3577 9.53537 14.2788 9.53537 15.1335 9.2568C15.9946 8.97436 16.9228 8.97132 17.7857 9.24813L17.8431 9.26764C18.0326 9.32931 18.2265 9.37677 18.423 9.40962Z" fill="#333333"/>
<path d="M18.4231 9.59294V9.6493C18.2195 9.61567 18.0188 9.56675 17.8226 9.50298L17.7728 9.48456C16.9237 9.20982 16.0097 9.20982 15.1607 9.48456C14.2931 9.76855 13.3576 9.76855 12.4901 9.48456C11.6357 9.20629 10.7151 9.20629 9.86068 9.48456L9.82708 9.49539C9.3005 9.6661 8.74581 9.73309 8.19373 9.69265V9.63738C8.73996 9.67807 9.28889 9.61181 9.80974 9.44229L9.84334 9.43145C10.7062 9.15075 11.6359 9.15075 12.4988 9.43145C13.3535 9.71002 14.2746 9.71002 15.1293 9.43145C15.9903 9.14884 16.9188 9.14618 17.7814 9.42386L17.8389 9.44229C18.0297 9.50657 18.225 9.55692 18.4231 9.59294Z" fill="#333333"/>
<path d="M18.423 9.77047V9.82683C18.2195 9.7932 18.0187 9.74429 17.8225 9.68051L17.7651 9.66209C16.9155 9.38888 16.0013 9.39115 15.153 9.66859C14.2854 9.95199 13.3501 9.95199 12.4824 9.66859C11.6307 9.39221 10.7134 9.39221 9.86169 9.66859L9.82809 9.68051C9.30152 9.8513 8.74682 9.91829 8.19473 9.87777V9.82141C8.74097 9.86211 9.28989 9.79584 9.81075 9.62632L9.84435 9.61548C10.7072 9.33479 11.6369 9.33479 12.4998 9.61548C13.3545 9.89406 14.2756 9.89406 15.1303 9.61548C15.9915 9.33391 16.9196 9.33126 17.7824 9.6079L17.8399 9.62632C18.0305 9.68836 18.2254 9.73653 18.423 9.77047Z" fill="#333333"/>
<path d="M18.4231 9.94949V10.0069C18.2197 9.97315 18.019 9.92461 17.8226 9.8617L17.7728 9.84219C16.923 9.57008 16.0091 9.57236 15.1607 9.84869C14.293 10.1321 13.3577 10.1321 12.4901 9.84869C11.6385 9.57179 10.721 9.57179 9.86935 9.84869L9.83575 9.85953C9.30917 10.0302 8.75448 10.0972 8.20239 10.0568V10.0004C8.7469 10.0415 9.29421 9.97676 9.81407 9.80967L9.84767 9.79883C10.7106 9.51866 11.6401 9.51866 12.5031 9.79883C13.3576 10.0786 14.2791 10.0786 15.1336 9.79883C15.9948 9.51726 16.9229 9.51461 17.7858 9.79125L17.8432 9.80967C18.0328 9.87061 18.2266 9.91734 18.4231 9.94949Z" fill="#333333"/>
<path d="M18.4231 10.1349V10.1924C18.2195 10.1587 18.0188 10.1098 17.8226 10.0461L17.7728 10.0265C16.9237 9.75182 16.0097 9.75182 15.1607 10.0265C14.293 10.3094 13.3578 10.3094 12.4901 10.0265C11.6359 9.74701 10.7149 9.74701 9.86068 10.0265L9.82708 10.0374C9.3005 10.2081 8.74581 10.2751 8.19373 10.2346V10.1783C8.73989 10.2194 9.28882 10.1535 9.80974 9.98428L9.84334 9.97344C10.7062 9.69274 11.6359 9.69274 12.4988 9.97344C13.3535 10.252 14.2746 10.252 15.1293 9.97344C15.9903 9.69083 16.9188 9.68818 17.7814 9.96585L17.8389 9.98428C18.0296 10.0491 18.2248 10.0995 18.4231 10.1349Z" fill="#333333"/>
<path d="M18.423 10.3114V10.3677C18.2195 10.3341 18.0187 10.2852 17.8225 10.2214L17.7651 10.203C16.9155 9.93 16.0015 9.93189 15.153 10.2084C14.2855 10.4924 13.35 10.4924 12.4824 10.2084C11.6307 9.932 10.7134 9.932 9.86169 10.2084L9.82809 10.2192C9.30151 10.3899 8.74682 10.4569 8.19473 10.4165V10.3612C8.74097 10.4019 9.28989 10.3356 9.81075 10.1661L9.84435 10.1553C10.7072 9.87458 11.6369 9.87458 12.4998 10.1553C13.3545 10.4338 14.2756 10.4338 15.1303 10.1553C15.9915 9.87371 16.9196 9.87105 17.7824 10.1477L17.8399 10.1661C18.0305 10.2285 18.2254 10.2771 18.423 10.3114Z" fill="#333333"/>
<path d="M18.423 10.4913V10.5476C18.2195 10.514 18.0187 10.4651 17.8225 10.4013L17.7651 10.3829C16.9154 10.1103 16.0014 10.1126 15.153 10.3894C14.2854 10.6728 13.3501 10.6728 12.4824 10.3894C11.6308 10.1125 10.7133 10.1125 9.86169 10.3894L9.82809 10.4002C9.30152 10.571 8.74682 10.638 8.19473 10.5975V10.5411C8.74097 10.5818 9.28989 10.5156 9.81075 10.346L9.84435 10.3352C10.7072 10.0545 11.6369 10.0545 12.4998 10.3352C13.3545 10.6138 14.2756 10.6138 15.1303 10.3352C15.9915 10.0536 16.9196 10.051 17.7824 10.3276L17.8399 10.346C18.0305 10.4085 18.2254 10.457 18.423 10.4913Z" fill="#333333"/>
<path d="M18.4231 10.6701V10.7276C18.2197 10.6938 18.019 10.6453 17.8226 10.5823L17.7728 10.5682C16.9232 10.2953 16.0091 10.2972 15.1607 10.5737C14.2931 10.8571 13.3577 10.8571 12.4901 10.5737C11.6364 10.2931 10.7156 10.2912 9.86068 10.5682L9.82708 10.5791C9.3005 10.7498 8.74581 10.8168 8.19373 10.7763V10.72C8.73988 10.7606 9.28872 10.6947 9.80974 10.526L9.84334 10.5151C10.7063 10.235 11.6358 10.235 12.4988 10.5151C13.3533 10.7949 14.2747 10.7949 15.1293 10.5151C15.9905 10.2336 16.9186 10.2309 17.7814 10.5076L17.8389 10.526C18.0297 10.5886 18.225 10.6368 18.4231 10.6701Z" fill="#333333"/>
<path d="M18.423 10.8525V10.9088C18.2195 10.8752 18.0187 10.8263 17.8225 10.7625L17.7651 10.7441C16.9161 10.4693 16.0021 10.4693 15.153 10.7441C14.2855 11.0281 13.35 11.0281 12.4824 10.7441C11.6307 10.4677 10.7134 10.4677 9.86169 10.7441L9.82809 10.7549C9.30151 10.9256 8.74682 10.9926 8.19473 10.9522V10.8969C8.74097 10.9376 9.28989 10.8713 9.81075 10.7018L9.84435 10.691C10.7072 10.4103 11.6369 10.4103 12.4998 10.691C13.3545 10.9695 14.2756 10.9695 15.1303 10.691C15.9913 10.4084 16.9198 10.4057 17.7824 10.6834L17.8399 10.7018C18.0304 10.766 18.2252 10.8164 18.423 10.8525Z" fill="#333333"/>
<path d="M18.423 11.0319V11.0883C18.2195 11.0547 18.0187 11.0058 17.8225 10.942L17.7651 10.9236C16.9155 10.6504 16.0013 10.6526 15.153 10.9301C14.2854 11.2135 13.3501 11.2135 12.4824 10.9301C11.6307 10.6537 10.7134 10.6537 9.86169 10.9301L9.82809 10.942C9.30133 11.1119 8.74674 11.1785 8.19473 11.1382V11.0829C8.74097 11.1236 9.28989 11.0573 9.81075 10.8878L9.84435 10.877C10.7072 10.5963 11.6369 10.5963 12.4998 10.877C13.3545 11.1555 14.2756 11.1555 15.1303 10.877C15.9915 10.5954 16.9196 10.5927 17.7824 10.8694L17.8399 10.8878C18.0305 10.9498 18.2254 10.998 18.423 11.0319Z" fill="#333333"/>
<path d="M18.4231 11.211V11.2685C18.2195 11.2348 18.0188 11.1859 17.8226 11.1221L17.7652 11.1037C16.9155 10.8311 16.0014 10.8334 15.1531 11.1102C14.2855 11.3936 13.3502 11.3936 12.4825 11.1102C11.6305 10.8331 10.7127 10.8331 9.86068 11.1102L9.82708 11.1211C9.30052 11.2918 8.74581 11.3588 8.19373 11.3183V11.262C8.74139 11.3028 9.29176 11.2365 9.81408 11.0669L9.84768 11.0549C10.7106 10.7748 11.6401 10.7748 12.5031 11.0549C13.3577 11.334 14.279 11.334 15.1336 11.0549C15.9948 10.7734 16.9229 10.7707 17.7858 11.0473L17.8432 11.0658C18.0326 11.1285 18.2264 11.1771 18.4231 11.211Z" fill="#333333"/>
<path d="M18.423 11.3921V11.4485C18.2196 11.4147 18.0189 11.3661 17.8225 11.3032L17.7651 11.2848C16.9161 11.0101 16.0021 11.0101 15.153 11.2848C14.2853 11.5677 13.3502 11.5677 12.4824 11.2848C11.6309 11.0072 10.7132 11.0072 9.86169 11.2848L9.82809 11.2956C9.30151 11.4663 8.74682 11.5333 8.19473 11.4929V11.4365C8.74089 11.4772 9.28973 11.4113 9.81075 11.2425L9.84435 11.2317C10.7073 10.9515 11.6368 10.9515 12.4998 11.2317C13.3543 11.5115 14.2758 11.5115 15.1303 11.2317C15.9915 10.9501 16.9196 10.9475 17.7824 11.2241L17.8399 11.2436C18.0303 11.3076 18.2252 11.3573 18.423 11.3921Z" fill="#333333"/>
<path d="M18.423 11.5729V11.6293C18.2195 11.5956 18.0187 11.5467 17.8225 11.483L17.7651 11.4645C16.9161 11.1898 16.0021 11.1898 15.153 11.4645C14.2855 11.7485 13.35 11.7485 12.4824 11.4645C11.6307 11.1882 10.7134 11.1882 9.86169 11.4645L9.82809 11.4754C9.30151 11.6461 8.74682 11.7131 8.19473 11.6726V11.6174C8.74097 11.6581 9.28989 11.5918 9.81075 11.4223L9.84435 11.4114C10.7072 11.1307 11.6369 11.1307 12.4998 11.4114C13.3545 11.69 14.2756 11.69 15.1303 11.4114C15.9913 11.1288 16.9198 11.1262 17.7824 11.4038L17.8399 11.4223C18.0304 11.4865 18.2252 11.5369 18.423 11.5729Z" fill="#333333"/>
<path d="M18.4231 11.753V11.8094C18.2195 11.7758 18.0188 11.7268 17.8226 11.6631L17.7652 11.6446C16.9156 11.3714 16.0013 11.3737 15.1531 11.6511C14.2855 11.9345 13.3502 11.9345 12.4825 11.6511C11.6303 11.3749 10.7126 11.3753 9.86068 11.6522L9.82708 11.6642C9.30052 11.8349 8.74581 11.9019 8.19373 11.8614V11.8051C8.73996 11.8458 9.28889 11.7795 9.80974 11.61L9.84334 11.5991C10.7062 11.3184 11.6359 11.3184 12.4988 11.5991C13.3535 11.8777 14.2746 11.8777 15.1293 11.5991C15.9905 11.3176 16.9186 11.3149 17.7814 11.5915L17.8389 11.61C18.0299 11.6717 18.2252 11.7195 18.4231 11.753Z" fill="#333333"/>
<path d="M18.423 11.9318V11.9892C18.2196 11.9555 18.0189 11.9069 17.8225 11.844L17.7651 11.8245C16.9153 11.5524 16.0014 11.5547 15.153 11.831C14.2854 12.1144 13.3501 12.1144 12.4824 11.831C11.6308 11.5541 10.7133 11.5541 9.86169 11.831L9.82809 11.8418C9.30151 12.0125 8.74682 12.0795 8.19473 12.0391V11.9773C8.74089 12.0179 9.28973 11.9521 9.81075 11.7833L9.84435 11.7725C10.7073 11.4923 11.6368 11.4923 12.4998 11.7725C13.3543 12.0522 14.2758 12.0522 15.1303 11.7725C15.9915 11.4909 16.9196 11.4882 17.7824 11.7649L17.8399 11.7833C18.0303 11.8473 18.2252 11.897 18.423 11.9318Z" fill="#333333"/>
<path d="M18.423 12.1126V12.169C18.2196 12.1352 18.0189 12.0866 17.8225 12.0237L17.7651 12.0053C16.9161 11.7306 16.0021 11.7306 15.153 12.0053C14.2853 12.2882 13.3502 12.2882 12.4824 12.0053C11.6309 11.7277 10.7132 11.7277 9.86169 12.0053L9.82809 12.0161C9.30151 12.1869 8.74682 12.2538 8.19473 12.2134V12.157C8.7409 12.1981 9.28983 12.1322 9.81075 11.963L9.84435 11.9522C10.7072 11.6715 11.6369 11.6715 12.4998 11.9522C13.3545 12.2308 14.2756 12.2308 15.1303 11.9522C15.9913 11.6696 16.9198 11.6669 17.7824 11.9446L17.8399 11.963C18.0302 12.0274 18.2252 12.0774 18.423 12.1126Z" fill="#333333"/>
<path d="M18.4231 12.2939V12.3503C18.2195 12.3167 18.0188 12.2678 17.8226 12.204L17.7652 12.1856C16.9162 11.9108 16.0021 11.9108 15.1531 12.1856C14.2856 12.4696 13.3501 12.4696 12.4825 12.1856C11.6295 11.9118 10.7118 11.9148 9.86068 12.1942L9.82708 12.2051C9.3005 12.3758 8.74581 12.4428 8.19373 12.4023V12.347C8.73996 12.3877 9.28889 12.3215 9.80974 12.152L9.84334 12.1411C10.7062 11.8604 11.6359 11.8604 12.4988 12.1411C13.3535 12.4197 14.2746 12.4197 15.1293 12.1411C15.9905 11.8595 16.9186 11.8569 17.7814 12.1335L17.8389 12.152C18.0299 12.2133 18.2252 12.2608 18.4231 12.2939Z" fill="#333333"/>
<path d="M18.423 12.4736V12.53C18.2195 12.4964 18.0187 12.4475 17.8225 12.3837L17.7651 12.3653C16.9154 12.0926 16.0014 12.0949 15.153 12.3718C14.2854 12.6552 13.3501 12.6552 12.4824 12.3718C11.6308 12.0949 10.7133 12.0949 9.86169 12.3718L9.82809 12.3826C9.30152 12.5534 8.74682 12.6204 8.19473 12.5799V12.5192C8.74097 12.5599 9.28989 12.4936 9.81075 12.3241L9.84435 12.3132C10.7072 12.0325 11.6369 12.0325 12.4998 12.3132C13.3545 12.5918 14.2756 12.5918 15.1303 12.3132C15.9915 12.0317 16.9196 12.029 17.7824 12.3056L17.8399 12.3241C18.0304 12.3879 18.2253 12.4379 18.423 12.4736Z" fill="#333333"/>
<path d="M18.423 12.6527V12.7102C18.2196 12.6764 18.0189 12.6279 17.8225 12.5649L17.7651 12.5465C16.9161 12.2718 16.0021 12.2718 15.153 12.5465C14.2853 12.8294 13.3502 12.8294 12.4824 12.5465C11.6309 12.2689 10.7132 12.2689 9.86169 12.5465L9.82809 12.5574C9.30151 12.7281 8.74682 12.7951 8.19473 12.7546V12.6983C8.74089 12.7389 9.28973 12.673 9.81075 12.5043L9.84435 12.4934C10.7073 12.2132 11.6368 12.2132 12.4998 12.4934C13.3543 12.7732 14.2758 12.7732 15.1303 12.4934C15.9915 12.2118 16.9196 12.2092 17.7824 12.4858L17.8399 12.5043C18.0303 12.5683 18.2252 12.6179 18.423 12.6527Z" fill="#333333"/>
<path d="M18.4231 12.8336V12.891C18.2195 12.8574 18.0188 12.8085 17.8226 12.7447L17.7652 12.7263C16.9162 12.4515 16.0021 12.4515 15.1531 12.7263C14.2855 13.0097 13.3502 13.0097 12.4825 12.7263C11.6295 12.4523 10.7116 12.4557 9.86068 12.736L9.82708 12.7469C9.3005 12.9176 8.74581 12.9846 8.19373 12.9441V12.8878C8.73989 12.9288 9.28882 12.8629 9.80974 12.6937L9.84334 12.6829C10.7062 12.4022 11.6359 12.4022 12.4988 12.6829C13.3535 12.9615 14.2746 12.9615 15.1293 12.6829C15.9903 12.4003 16.9188 12.3976 17.7814 12.6753L17.8389 12.6937C18.0298 12.7549 18.2251 12.8016 18.4231 12.8336Z" fill="#333333"/>
<path d="M18.423 13.0146V13.0709C18.2195 13.0373 18.0187 12.9884 17.8225 12.9246L17.7651 12.9062C16.9155 12.633 16.0013 12.6352 15.153 12.9127C14.2854 13.1961 13.3501 13.1961 12.4824 12.9127C11.6307 12.6363 10.7134 12.6363 9.86169 12.9127L9.82809 12.9235C9.30151 13.0942 8.74682 13.1612 8.19473 13.1208V13.0612C8.74097 13.1019 9.28989 13.0356 9.81075 12.8661L9.84435 12.8552C10.7072 12.5745 11.6369 12.5745 12.4998 12.8552C13.3545 13.1338 14.2756 13.1338 15.1303 12.8552C15.9915 12.5737 16.9196 12.571 17.7824 12.8476L17.8399 12.8661C18.0304 12.9296 18.2253 12.9792 18.423 13.0146Z" fill="#333333"/>
<path d="M18.423 13.1933V13.2508C18.2195 13.2171 18.0187 13.1682 17.8225 13.1045L17.7651 13.086C16.9153 12.8139 16.0014 12.8162 15.153 13.0925C14.2854 13.3759 13.3501 13.3759 12.4824 13.0925C11.6308 12.8156 10.7133 12.8156 9.86169 13.0925L9.82809 13.1034C9.30152 13.2742 8.74682 13.3411 8.19473 13.3006V13.2443C8.74089 13.2849 9.28973 13.219 9.81075 13.0503L9.84435 13.0383C10.7072 12.7576 11.6369 12.7576 12.4998 13.0383C13.3545 13.3169 14.2756 13.3169 15.1303 13.0383C15.9915 12.7568 16.9196 12.7541 17.7824 13.0307L17.8399 13.0492C18.0304 13.1117 18.2253 13.1599 18.423 13.1933Z" fill="#333333"/>
<path d="M18.423 13.3743V13.4306C18.2196 13.3969 18.0189 13.3483 17.8225 13.2854L17.7651 13.267C16.9161 12.9922 16.0021 12.9922 15.153 13.267C14.2853 13.5499 13.3502 13.5499 12.4824 13.267C11.6309 12.9893 10.7132 12.9893 9.86169 13.267L9.82809 13.2778C9.30151 13.4485 8.74682 13.5155 8.19473 13.4751V13.4187C8.74089 13.4593 9.28973 13.3935 9.81075 13.2247L9.84435 13.2139C10.7073 12.9337 11.6368 12.9337 12.4998 13.2139C13.3543 13.4936 14.2758 13.4936 15.1303 13.2139C15.9915 12.9323 16.9196 12.9296 17.7824 13.2063L17.8399 13.2258C18.0303 13.2898 18.2252 13.3395 18.423 13.3743Z" fill="#333333"/>
<path d="M18.423 13.5555V13.6119C18.2195 13.5782 18.0187 13.5293 17.8225 13.4656L17.7651 13.4471C16.9161 13.1724 16.0021 13.1724 15.153 13.4471C14.2855 13.7311 13.35 13.7311 12.4824 13.4471C11.6307 13.1707 10.7134 13.1707 9.86169 13.4471L9.82809 13.458C9.30151 13.6287 8.74682 13.6957 8.19473 13.6552V13.6032C8.74097 13.6439 9.28989 13.5776 9.81075 13.4081L9.84435 13.3973C10.7072 13.1166 11.6369 13.1166 12.4998 13.3973C13.3545 13.6758 14.2756 13.6758 15.1303 13.3973C15.9913 13.1147 16.9198 13.112 17.7824 13.3897L17.8399 13.4081C18.0304 13.4712 18.2253 13.5205 18.423 13.5555Z" fill="#333333"/>
<path d="M18.423 13.7353V13.7917C18.2195 13.758 18.0187 13.7091 17.8225 13.6454L17.7651 13.6269C16.9155 13.3537 16.0013 13.356 15.153 13.6334C14.2854 13.9168 13.3501 13.9168 12.4824 13.6334C11.6307 13.3571 10.7134 13.3571 9.86169 13.6334L9.82809 13.6454C9.30157 13.8163 8.74676 13.883 8.19473 13.8415V13.7863C8.74097 13.827 9.28989 13.7607 9.81075 13.5912L9.84435 13.5803C10.7072 13.2996 11.6369 13.2996 12.4998 13.5803C13.3545 13.8589 14.2756 13.8589 15.1303 13.5803C15.9915 13.2988 16.9196 13.2961 17.7824 13.5727L17.8399 13.5912C18.0305 13.6532 18.2254 13.7014 18.423 13.7353Z" fill="#333333"/>
<path d="M18.423 13.914V13.9715C18.2196 13.9378 18.0189 13.8893 17.8225 13.8262L17.7651 13.8067C16.9153 13.5346 16.0014 13.5369 15.153 13.8132C14.2854 14.0966 13.3501 14.0966 12.4824 13.8132C11.6308 13.5363 10.7133 13.5363 9.86169 13.8132L9.82809 13.8241C9.30151 13.9948 8.74682 14.0618 8.19473 14.0213V13.965C8.74089 14.0056 9.28973 13.9397 9.81075 13.771L9.84435 13.759C10.7074 13.4794 11.6367 13.4794 12.4998 13.759C13.3543 14.0388 14.2758 14.0388 15.1303 13.759C15.9915 13.4775 16.9196 13.4748 17.7824 13.7515L17.8399 13.7699C18.0304 13.8324 18.2253 13.8806 18.423 13.914Z" fill="#333333"/>
<path d="M18.423 14.0951V14.1515C18.2196 14.1177 18.0189 14.0692 17.8225 14.0063L17.7651 13.9878C16.9161 13.7131 16.0021 13.7131 15.153 13.9878C14.2853 14.2707 13.3502 14.2707 12.4824 13.9878C11.6309 13.7102 10.7132 13.7102 9.86169 13.9878L9.82809 13.9987C9.30151 14.1694 8.74682 14.2364 8.19473 14.1959V14.145C8.7409 14.1861 9.28983 14.1202 9.81075 13.951L9.84435 13.9401C10.7072 13.6595 11.6369 13.6595 12.4998 13.9401C13.3545 14.2187 14.2756 14.2187 15.1303 13.9401C15.9913 13.6577 16.9196 13.6547 17.7824 13.9315L17.8399 13.951C18.0304 14.0135 18.2253 14.0617 18.423 14.0951Z" fill="#333333"/>
<path d="M18.423 14.2762V14.3326C18.2195 14.2989 18.0187 14.25 17.8225 14.1862L17.7651 14.1678C16.9155 13.8948 16.0015 13.8967 15.153 14.1732C14.2855 14.4572 13.35 14.4572 12.4824 14.1732C11.6307 13.8968 10.7134 13.8968 9.86169 14.1732L9.82809 14.1841C9.30151 14.3548 8.74682 14.4218 8.19473 14.3813V14.3261C8.74097 14.3667 9.28989 14.3005 9.81075 14.131L9.84435 14.1201C10.7072 13.8394 11.6369 13.8394 12.4998 14.1201C13.3545 14.3987 14.2756 14.3987 15.1303 14.1201C15.9915 13.8386 16.9196 13.8359 17.7824 14.1125L17.8399 14.131C18.0305 14.1934 18.2254 14.2419 18.423 14.2762Z" fill="#333333"/>
<path d="M18.423 14.4559V14.5122C18.2195 14.4786 18.0187 14.4297 17.8225 14.3659L17.7651 14.3475C16.9155 14.0743 16.0013 14.0766 15.153 14.354C14.2854 14.6374 13.3501 14.6374 12.4824 14.354C11.6308 14.0771 10.7133 14.0771 9.86169 14.354L9.82809 14.3648C9.30152 14.5356 8.74682 14.6026 8.19473 14.5621V14.5057C8.74097 14.5464 9.28989 14.4802 9.81075 14.3106L9.84435 14.2998C10.7072 14.0191 11.6369 14.0191 12.4998 14.2998C13.3545 14.5784 14.2756 14.5784 15.1303 14.2998C15.9915 14.0182 16.9196 14.0156 17.7824 14.2922L17.8399 14.3106C18.0305 14.373 18.2254 14.4216 18.423 14.4559Z" fill="#333333"/>
<path d="M18.423 14.6348V14.6922C18.2196 14.6584 18.0189 14.6099 17.8225 14.547L17.7651 14.5285C16.9161 14.2538 16.0021 14.2538 15.153 14.5285C14.2854 14.8119 13.3501 14.8119 12.4824 14.5285C11.6308 14.2516 10.7133 14.2516 9.86169 14.5285L9.82809 14.5394C9.30151 14.7101 8.74682 14.7771 8.19473 14.7366V14.6868C8.74089 14.7274 9.28973 14.6615 9.81075 14.4928L9.84435 14.4819C10.7073 14.2018 11.6368 14.2018 12.4998 14.4819C13.3543 14.7617 14.2758 14.7617 15.1303 14.4819C15.9915 14.2004 16.9196 14.1977 17.7824 14.4744L17.8399 14.4928C18.0304 14.5546 18.2254 14.6021 18.423 14.6348Z" fill="#333333"/>
<path d="M18.423 14.817V14.8734C18.2195 14.8397 18.0187 14.7908 17.8225 14.7271L17.7651 14.7086C16.9155 14.4357 16.0015 14.4376 15.153 14.714C14.2854 14.9974 13.3501 14.9974 12.4824 14.714C11.6309 14.4364 10.7132 14.4364 9.86169 14.714L9.82809 14.7249C9.30151 14.8956 8.74682 14.9626 8.19473 14.9221V14.8669C8.74097 14.9076 9.28989 14.8413 9.81075 14.6718L9.84435 14.6609C10.7072 14.3802 11.6369 14.3802 12.4998 14.6609C13.3545 14.9395 14.2756 14.9395 15.1303 14.6609C15.9913 14.3783 16.9198 14.3757 17.7824 14.6534L17.8399 14.6718C18.0305 14.7342 18.2254 14.7827 18.423 14.817Z" fill="#333333"/>
<path d="M18.423 14.9969V15.0533C18.2195 15.0197 18.0187 14.9708 17.8225 14.907L17.7651 14.8886C16.9161 14.6138 16.0021 14.6138 15.153 14.8886C14.2855 15.1726 13.35 15.1726 12.4824 14.8886C11.6307 14.6122 10.7134 14.6122 9.86169 14.8886L9.82809 14.8994C9.30151 15.0701 8.74682 15.1371 8.19473 15.0967V15.0414C8.74097 15.0821 9.28989 15.0158 9.81075 14.8463L9.84435 14.8355C10.7072 14.5548 11.6369 14.5548 12.4998 14.8355C13.3545 15.114 14.2756 15.114 15.1303 14.8355C15.9915 14.5539 16.9196 14.5512 17.7824 14.8279L17.8399 14.8463C18.0304 14.9105 18.2252 14.9609 18.423 14.9969Z" fill="#333333"/>
<path d="M18.423 15.176V15.2291C18.2195 15.1955 18.0187 15.1466 17.8225 15.0828L17.7651 15.0644C16.9154 14.7918 16.0014 14.794 15.153 15.0709C14.2854 15.3543 13.3501 15.3543 12.4824 15.0709C11.6308 14.794 10.7133 14.794 9.86169 15.0709L9.82809 15.0817C9.30152 15.2525 8.74682 15.3195 8.19473 15.279V15.2291C8.74089 15.2698 9.28973 15.2039 9.81075 15.0351L9.84435 15.0232C10.7072 14.7425 11.6369 14.7425 12.4998 15.0232C13.3545 15.3018 14.2756 15.3018 15.1303 15.0232C15.9915 14.7416 16.9196 14.739 17.7824 15.0156L17.8399 15.034C18.0304 15.0959 18.2254 15.1433 18.423 15.176Z" fill="#333333"/>
<path d="M18.423 15.3567V15.413C18.2196 15.3792 18.0189 15.3307 17.8225 15.2678L17.7651 15.2494C16.9155 14.9764 16.0015 14.9783 15.153 15.2548C14.2853 15.5376 13.3502 15.5376 12.4824 15.2548C11.6309 14.9771 10.7132 14.9771 9.86169 15.2548L9.82809 15.2656C9.30151 15.4363 8.74682 15.5033 8.19473 15.4629V15.4065C8.74089 15.4471 9.28973 15.3813 9.81075 15.2125L9.84435 15.2017C10.7073 14.9215 11.6368 14.9215 12.4998 15.2017C13.3543 15.4814 14.2758 15.4814 15.1303 15.2017C15.9915 14.9201 16.9196 14.9174 17.7824 15.1941L17.8399 15.2136C18.0304 15.2758 18.2253 15.3236 18.423 15.3567Z" fill="#333333"/>
<path d="M18.423 15.5375V15.5938C18.2195 15.5602 18.0187 15.5113 17.8225 15.4475L17.7651 15.4291C16.9155 15.1561 16.0015 15.158 15.153 15.4345C14.2854 15.7179 13.3501 15.7179 12.4824 15.4345C11.6307 15.1581 10.7134 15.1581 9.86169 15.4345L9.82809 15.4453C9.30151 15.6161 8.74682 15.683 8.19473 15.6426V15.5873C8.74097 15.628 9.28989 15.5618 9.81075 15.3922L9.84435 15.3814C10.7072 15.1007 11.6369 15.1007 12.4998 15.3814C13.3545 15.66 14.2756 15.66 15.1303 15.3814C15.9913 15.0988 16.9198 15.0961 17.7824 15.3738L17.8399 15.3922C18.0305 15.4546 18.2254 15.5032 18.423 15.5375Z" fill="#333333"/>
<path d="M18.423 15.7175V15.7706C18.2195 15.737 18.0187 15.6881 17.8225 15.6243L17.7651 15.6059C16.9155 15.3327 16.0013 15.335 15.153 15.6124C14.2854 15.8958 13.3501 15.8958 12.4824 15.6124C11.6307 15.336 10.7134 15.336 9.86169 15.6124L9.82809 15.6243C9.30132 15.7941 8.74674 15.8608 8.19473 15.8205V15.7706C8.74097 15.8113 9.28989 15.7451 9.81075 15.5755L9.84435 15.5647C10.7072 15.284 11.6369 15.284 12.4998 15.5647C13.3545 15.8433 14.2756 15.8433 15.1303 15.5647C15.9915 15.2831 16.9196 15.2805 17.7824 15.5571L17.8399 15.5755C18.0306 15.6368 18.2255 15.6843 18.423 15.7175Z" fill="#333333"/>
<path d="M18.423 15.8964V15.9539C18.2196 15.9201 18.0189 15.8716 17.8225 15.8087L17.7651 15.7891C16.9154 15.5165 16.0014 15.5188 15.153 15.7957C14.2854 16.079 13.3501 16.079 12.4824 15.7957C11.6308 15.5187 10.7133 15.5187 9.86169 15.7957L9.82809 15.8065C9.30151 15.9772 8.74682 16.0442 8.19473 16.0037V15.9474C8.74089 15.988 9.28973 15.9221 9.81075 15.7534L9.84435 15.7415C10.7073 15.4613 11.6368 15.4613 12.4998 15.7415C13.3543 16.0212 14.2758 16.0212 15.1303 15.7415C15.9915 15.4599 16.9196 15.4572 17.7824 15.7339L17.8399 15.7523C18.0304 15.8149 18.2253 15.863 18.423 15.8964Z" fill="#333333"/>
<path d="M18.423 16.0774V16.1337C18.2196 16.0999 18.0189 16.0514 17.8225 15.9885L17.7651 15.9701C16.9161 15.6953 16.0021 15.6953 15.153 15.9701C14.2853 16.2529 13.3502 16.2529 12.4824 15.9701C11.6308 15.6932 10.7133 15.6932 9.86169 15.9701L9.82809 15.9809C9.30151 16.1516 8.74682 16.2186 8.19473 16.1782V16.1218C8.74089 16.1624 9.28973 16.0965 9.81075 15.9278L9.84435 15.917C10.7072 15.6363 11.6369 15.6363 12.4998 15.917C13.3545 16.1955 14.2756 16.1955 15.1303 15.917C15.9913 15.6345 16.9196 15.6315 17.7824 15.9083L17.8399 15.9278C18.0302 15.9922 18.2252 16.0422 18.423 16.0774Z" fill="#333333"/>
<path d="M18.423 16.2587V16.3129C18.2195 16.2793 18.0187 16.2304 17.8225 16.1666L17.7651 16.1482C16.9155 15.8752 16.0015 15.8771 15.153 16.1536C14.2855 16.4376 13.35 16.4376 12.4824 16.1536C11.6307 15.8772 10.7134 15.8772 9.86169 16.1536L9.82809 16.1644C9.30151 16.3351 8.74682 16.4021 8.19473 16.3617V16.3129C8.74097 16.3536 9.28989 16.2873 9.81075 16.1178L9.84435 16.107C10.7072 15.8263 11.6369 15.8263 12.4998 16.107C13.3545 16.3856 14.2756 16.3856 15.1303 16.107C15.9913 15.8244 16.9198 15.8217 17.7824 16.0994L17.8399 16.1178C18.0306 16.1788 18.2255 16.2258 18.423 16.2587Z" fill="#333333"/>
<path d="M18.423 16.4384V16.4948C18.2195 16.4612 18.0187 16.4123 17.8225 16.3485L17.7651 16.3301C16.9154 16.0574 16.0014 16.0597 15.153 16.3366C14.2854 16.62 13.3501 16.62 12.4824 16.3366C11.6307 16.0602 10.7134 16.0602 9.86169 16.3366L9.82809 16.3485C9.30152 16.5193 8.74682 16.5863 8.19473 16.5457V16.4894C8.74097 16.5301 9.28989 16.4638 9.81075 16.2943L9.84435 16.2835C10.7072 16.0028 11.6369 16.0028 12.4998 16.2835C13.3545 16.562 14.2756 16.562 15.1303 16.2835C15.9915 16.0019 16.9196 15.9992 17.7824 16.2759L17.8399 16.2943C18.0305 16.3563 18.2254 16.4045 18.423 16.4384Z" fill="#333333"/>
<path d="M18.423 16.6171V16.6745C18.2196 16.6408 18.0189 16.5922 17.8225 16.5293L17.7651 16.5109C16.9161 16.2361 16.0021 16.2361 15.153 16.5109C14.2854 16.7943 13.3501 16.7943 12.4824 16.5109C11.6308 16.234 10.7133 16.234 9.86169 16.5109L9.82809 16.5217C9.30151 16.6924 8.74682 16.7594 8.19473 16.719V16.6626C8.74089 16.7032 9.28973 16.6374 9.81075 16.4686L9.84435 16.4578C10.7073 16.1776 11.6368 16.1776 12.4998 16.4578C13.3543 16.7375 14.2758 16.7375 15.1303 16.4578C15.9915 16.1762 16.9196 16.1735 17.7824 16.4502L17.8399 16.4686C18.0303 16.5326 18.2252 16.5823 18.423 16.6171Z" fill="#333333"/>
<path d="M18.423 16.7983V16.8546C18.2195 16.821 18.0187 16.7721 17.8225 16.7083L17.7651 16.6899C16.9161 16.4151 16.0021 16.4151 15.153 16.6899C14.2855 16.9739 13.35 16.9739 12.4824 16.6899C11.6309 16.4122 10.7132 16.4122 9.86169 16.6899L9.82809 16.7007C9.30151 16.8714 8.74682 16.9384 8.19473 16.898V16.8416C8.7409 16.8827 9.28983 16.8168 9.81075 16.6476L9.84435 16.6368C10.7072 16.3561 11.6369 16.3561 12.4998 16.6368C13.3545 16.9153 14.2756 16.9153 15.1303 16.6368C15.9913 16.3542 16.9198 16.3515 17.7824 16.6292L17.8399 16.6476C18.0302 16.7124 18.2251 16.7627 18.423 16.7983Z" fill="#333333"/>
<path d="M18.423 16.9794V17.0357C18.2195 17.0021 18.0187 16.9532 17.8225 16.8894L17.7651 16.871C16.9161 16.5963 16.0021 16.5963 15.153 16.871C14.2855 17.155 13.35 17.155 12.4824 16.871C11.6307 16.5946 10.7134 16.5946 9.86169 16.871L9.82809 16.8818C9.30151 17.0525 8.74682 17.1195 8.19473 17.0791V17.0238C8.74097 17.0645 9.28989 16.9982 9.81075 16.8287L9.84435 16.8179C10.7072 16.5372 11.6369 16.5372 12.4998 16.8179C13.3545 17.0964 14.2756 17.0964 15.1303 16.8179C15.9915 16.5363 16.9196 16.5337 17.7824 16.8103L17.8399 16.8287C18.0304 16.893 18.2252 16.9433 18.423 16.9794Z" fill="#333333"/>
<path d="M18.423 17.1582V17.2156C18.2195 17.182 18.0187 17.1331 17.8225 17.0693L17.7651 17.0509C16.9154 16.7782 16.0014 16.7805 15.153 17.0574C14.2854 17.3408 13.3501 17.3408 12.4824 17.0574C11.6308 16.7805 10.7133 16.7805 9.86169 17.0574L9.82809 17.0682C9.30152 17.239 8.74682 17.306 8.19473 17.2655V17.2091C8.74089 17.2497 9.28973 17.1838 9.81075 17.0151L9.84435 17.0032C10.7072 16.7225 11.6369 16.7225 12.4998 17.0032C13.3545 17.2817 14.2756 17.2817 15.1303 17.0032C15.9915 16.7216 16.9196 16.719 17.7824 16.9956L17.8399 17.014C18.0304 17.0766 18.2253 17.1248 18.423 17.1582Z" fill="#333333"/>
<path d="M18.423 17.3381V17.3967C18.2196 17.3629 18.0189 17.3143 17.8225 17.2514L17.7651 17.233C16.9155 16.96 16.0015 16.9619 15.153 17.2384C14.2853 17.5213 13.3502 17.5213 12.4824 17.2384C11.6309 16.9608 10.7132 16.9608 9.86169 17.2384L9.82809 17.2493C9.30151 17.42 8.74682 17.487 8.19473 17.4465V17.3902C8.74089 17.4308 9.28973 17.3649 9.81075 17.1961L9.84435 17.1853C10.7073 16.9051 11.6368 16.9051 12.4998 17.1853C13.3543 17.4651 14.2758 17.4651 15.1303 17.1853C15.9915 16.9037 16.9196 16.9011 17.7824 17.1777L17.8399 17.1961C18.0304 17.258 18.2254 17.3054 18.423 17.3381Z" fill="#333333"/>
<path d="M18.423 17.5204V17.5312C18.424 17.5464 18.424 17.5616 18.423 17.5767C18.2202 17.5431 18.0202 17.4942 17.8247 17.4304L17.7673 17.412C16.9177 17.139 16.0036 17.1409 15.1552 17.4174C14.2876 17.7014 13.3521 17.7014 12.4846 17.4174C11.6329 17.141 10.7156 17.141 9.86384 17.4174L9.83024 17.4283C9.30599 17.5977 8.75409 17.665 8.20447 17.6266C8.20284 17.6078 8.20284 17.589 8.20447 17.5702C8.74998 17.6104 9.29809 17.5441 9.81832 17.3751L9.85192 17.3643C10.7148 17.0836 11.6445 17.0836 12.5073 17.3643C13.3621 17.6429 14.2831 17.6429 15.1378 17.3643C15.9989 17.0817 16.9274 17.079 17.79 17.3567L17.8475 17.3751C18.0356 17.4372 18.2279 17.4857 18.423 17.5204Z" fill="#333333"/>
<path d="M18.4046 17.6956C18.4003 17.714 18.3949 17.7321 18.3883 17.7498C18.1978 17.7162 18.0099 17.6695 17.8258 17.61L17.7684 17.5915C16.9188 17.3183 16.0046 17.3206 15.1563 17.598C14.2887 17.8814 13.3534 17.8814 12.4857 17.598C11.634 17.3217 10.7167 17.3217 9.86497 17.598L9.83137 17.61C9.3245 17.7738 8.79156 17.8418 8.25979 17.8105C8.25109 17.7918 8.24349 17.7726 8.23703 17.753C8.77046 17.7881 9.30568 17.7212 9.81403 17.5558L9.84763 17.5449C10.7105 17.2642 11.6402 17.2642 12.5031 17.5449C13.3578 17.8235 14.2788 17.8235 15.1336 17.5449C15.9948 17.2634 16.9229 17.2607 17.7857 17.5373L17.8432 17.5558C18.0267 17.6158 18.2143 17.6626 18.4046 17.6956Z" fill="#333333"/>
<path d="M18.3341 17.8624C18.3247 17.8805 18.3135 17.8975 18.3005 17.9133C18.1401 17.8817 17.9816 17.8408 17.8258 17.7908L17.7684 17.7713C16.9186 17.4992 16.0047 17.5015 15.1563 17.7778C14.2887 18.0612 13.3533 18.0612 12.4857 17.7778C11.6341 17.5009 10.7166 17.5009 9.86495 17.7778L9.83135 17.7887C9.36721 17.939 8.8808 18.009 8.39309 17.9957C8.37511 17.9778 8.35845 17.9586 8.34323 17.9382C8.84232 17.9579 9.34096 17.8893 9.81618 17.7356L9.84978 17.7236C10.7128 17.4435 11.6422 17.4435 12.5052 17.7236C13.3598 18.0027 14.2811 18.0027 15.1357 17.7236C15.9969 17.4421 16.925 17.4394 17.7879 17.7161L17.8453 17.7345C18.0055 17.7872 18.1687 17.8299 18.3341 17.8624Z" fill="#333333"/>
<path d="M18.2061 18.0166C18.1883 18.033 18.1695 18.0482 18.1498 18.0622C18.0399 18.0361 17.9316 18.0058 17.8246 17.9711L17.7672 17.9527C16.9176 17.6797 16.0035 17.6816 15.1551 17.9581C14.2874 18.241 13.3522 18.241 12.4845 17.9581C11.633 17.6805 10.7153 17.6805 9.86375 17.9581L9.83015 17.9689C9.47407 18.085 9.10412 18.1532 8.73005 18.1716C8.67524 18.1619 8.622 18.1448 8.57181 18.1207C8.99346 18.1156 9.41189 18.0465 9.81281 17.9158L9.84641 17.905C10.7093 17.6243 11.6389 17.6243 12.5018 17.905C13.3565 18.1836 14.2776 18.1836 15.1323 17.905C15.9934 17.6226 16.9216 17.6195 17.7845 17.8963L17.842 17.9158C17.9615 17.9559 18.083 17.9895 18.2061 18.0166Z" fill="#333333"/>
<path d="M12.503 18.0869C12.6128 18.1223 12.7234 18.1537 12.8347 18.1811H12.6179L12.4846 18.14C11.6329 17.8636 10.7156 17.8636 9.86385 18.14L9.83025 18.1508C9.7934 18.1627 9.75655 18.1746 9.72187 18.1844H9.5051C9.61348 18.1595 9.71103 18.1302 9.81183 18.0977L9.84542 18.0869C10.709 17.8057 11.6395 17.8057 12.503 18.0869Z" fill="#333333"/>
<path d="M17.9895 18.1431C17.9562 18.1555 17.9217 18.1646 17.8866 18.1702C17.8649 18.1702 17.8432 18.1572 17.8215 18.1507L17.7641 18.1322C16.9145 17.8593 16.0005 17.8612 15.152 18.1377C15.1054 18.1528 15.0577 18.168 15.01 18.181H14.7933C14.9045 18.1543 15.0151 18.1228 15.1249 18.0867C15.986 17.8041 16.9144 17.8015 17.7771 18.0791L17.8345 18.0976C17.8931 18.1138 17.944 18.129 17.9895 18.1431Z" fill="#333333"/>
<path d="M12.2061 18.1813H11.9405C11.4314 18.0881 10.9095 18.0881 10.4004 18.1813H10.1338C10.8142 18.0122 11.5256 18.0122 12.2061 18.1813Z" fill="#333333"/>
<path d="M17.5093 18.1813H17.2481C16.7352 18.086 16.209 18.086 15.6961 18.1813H15.4327C16.1144 18.0112 16.8276 18.0112 17.5093 18.1813Z" fill="#333333"/>
<path d="M17.2265 7.45239H8.29997C7.94081 7.45239 7.64966 7.74355 7.64966 8.1027V17.0293C7.64966 17.3884 7.94081 17.6796 8.29997 17.6796H17.2265C17.5857 17.6796 17.8768 17.3884 17.8768 17.0293V8.1027C17.8768 7.74355 17.5857 7.45239 17.2265 7.45239Z" fill="#333333"/>
<path d="M16.4308 10.9821C16.3218 10.8796 16.1784 10.8216 16.0287 10.8195L14.8571 10.8325C14.4782 10.4041 13.977 10.1021 13.4212 9.96739C12.8654 9.83264 12.2816 9.87157 11.7485 10.0789C11.2155 10.2863 10.7589 10.6521 10.4403 11.1271C10.1216 11.602 9.95627 12.1633 9.96651 12.7351C9.97676 13.3069 10.1621 13.8619 10.4976 14.3251C10.833 14.7884 11.3025 15.1376 11.8426 15.3257C12.3827 15.5138 12.9675 15.5318 13.5182 15.3773C14.0688 15.2227 14.5588 14.903 14.9221 14.4612H16.0385C16.1876 14.4609 16.3305 14.4016 16.4359 14.2962C16.5414 14.1907 16.6007 14.0478 16.601 13.8987V11.382C16.6009 11.3074 16.5858 11.2335 16.5566 11.1647C16.5274 11.096 16.4846 11.0339 16.4308 10.9821ZM11.3942 10.5171L11.6966 11.0406C11.478 11.1829 11.2898 11.3671 11.1427 11.5825L10.6192 11.278C10.8204 10.972 11.0846 10.7126 11.3942 10.5171ZM10.5 11.4774L11.03 11.7841C10.908 12.0158 10.8343 12.2699 10.8133 12.5309H10.2052C10.2261 12.1625 10.3267 11.8031 10.5 11.4774ZM10.202 12.7639H10.8111C10.8225 13.027 10.887 13.2851 11.0008 13.5226L10.4729 13.8272C10.3061 13.4968 10.2136 13.1339 10.202 12.7639ZM10.5867 14.0364L11.1113 13.7329C11.2548 13.9605 11.4433 14.1563 11.6652 14.3084L11.3628 14.8319C11.0493 14.6263 10.7844 14.3548 10.5867 14.0364ZM12.646 15.2438C12.2673 15.2282 11.897 15.1278 11.5622 14.9501L11.8678 14.4201C12.1075 14.5454 12.3707 14.6192 12.6406 14.6368L12.646 15.2438ZM12.646 10.735C12.3884 10.7508 12.1364 10.8175 11.9047 10.9311L11.5947 10.4011C11.9199 10.2349 12.2769 10.1399 12.6417 10.1226L12.646 10.735ZM14.7129 12.532C14.6927 12.2695 14.6189 12.0138 14.4962 11.7809L15.0272 11.4742C15.2021 11.8009 15.3031 12.162 15.3231 12.532H14.7129ZM15.3296 12.765C15.3182 13.1384 15.225 13.5046 15.0565 13.838L14.5211 13.5324C14.6373 13.2921 14.7029 13.0306 14.714 12.7639L15.3296 12.765ZM14.9091 11.2747L14.3802 11.576C14.2322 11.3599 14.0424 11.1757 13.822 11.0341L14.1244 10.5095C14.4361 10.7056 14.7022 10.9661 14.9048 11.2736L14.9091 11.2747ZM12.8747 10.1226C13.2397 10.1378 13.5972 10.2313 13.9228 10.3968L13.6182 10.9257C13.3856 10.8128 13.1329 10.7472 12.8747 10.7328V10.1226ZM12.8747 15.2438V14.6325C13.1445 14.618 13.4082 14.5467 13.6486 14.4233L13.9553 14.9533C13.6209 15.1286 13.2519 15.2278 12.8747 15.2438ZM14.1558 14.8352L13.8534 14.3127C14.0772 14.1611 14.2675 13.9652 14.4127 13.7372L14.9373 14.0396C14.7376 14.3583 14.4709 14.6298 14.1558 14.8352ZM16.3636 13.8987C16.3636 13.985 16.3294 14.0677 16.2684 14.1286C16.2074 14.1896 16.1247 14.2239 16.0385 14.2239H15.0955C15.4095 13.7536 15.5727 13.1987 15.5634 12.6333C15.5541 12.0679 15.3728 11.5188 15.0435 11.059L16.0341 11.0482C16.0778 11.0472 16.1213 11.0551 16.1619 11.0713C16.2025 11.0875 16.2394 11.1117 16.2704 11.1425C16.3017 11.1731 16.3264 11.2097 16.3432 11.2501C16.3599 11.2906 16.3684 11.3339 16.368 11.3777L16.3636 13.8987Z" fill="#BDBDBD"/>
<path d="M15.9006 11.6635C15.9645 11.6635 16.0163 11.6117 16.0163 11.5478C16.0163 11.4839 15.9645 11.4321 15.9006 11.4321C15.8367 11.4321 15.7849 11.4839 15.7849 11.5478C15.7849 11.6117 15.8367 11.6635 15.9006 11.6635Z" fill="#BDBDBD"/>
<path d="M15.9006 12.6821C15.9645 12.6821 16.0163 12.6303 16.0163 12.5664C16.0163 12.5025 15.9645 12.4507 15.9006 12.4507C15.8367 12.4507 15.7849 12.5025 15.7849 12.5664C15.7849 12.6303 15.8367 12.6821 15.9006 12.6821Z" fill="#BDBDBD"/>
<path d="M15.9006 13.8625C15.9645 13.8625 16.0163 13.8107 16.0163 13.7468C16.0163 13.6829 15.9645 13.6311 15.9006 13.6311C15.8367 13.6311 15.7849 13.6829 15.7849 13.7468C15.7849 13.8107 15.8367 13.8625 15.9006 13.8625Z" fill="#BDBDBD"/>
<path d="M14.3489 12.5411H13.5902C13.5684 12.3954 13.5082 12.2581 13.4157 12.1434L13.9576 11.6015C13.9775 11.5812 13.9886 11.554 13.9886 11.5256C13.9886 11.4972 13.9775 11.47 13.9576 11.4497C13.9373 11.4299 13.9101 11.4187 13.8817 11.4187C13.8534 11.4187 13.8261 11.4299 13.8059 11.4497L13.2639 11.9916C13.1483 11.9047 13.0119 11.8498 12.8683 11.8323V11.0574C12.8683 11.0286 12.8569 11.001 12.8366 10.9807C12.8163 10.9604 12.7887 10.949 12.7599 10.949C12.7312 10.949 12.7036 10.9604 12.6833 10.9807C12.663 11.001 12.6516 11.0286 12.6516 11.0574V11.8345C12.508 11.8519 12.3715 11.9069 12.256 11.9938L11.714 11.4519C11.6938 11.4323 11.6668 11.4214 11.6387 11.4214C11.6106 11.4214 11.5836 11.4323 11.5634 11.4519C11.5435 11.4721 11.5324 11.4994 11.5324 11.5277C11.5324 11.5561 11.5435 11.5834 11.5634 11.6036L12.1053 12.1455C12.0132 12.2605 11.953 12.3977 11.9308 12.5433H11.1721C11.1434 12.5433 11.1158 12.5547 11.0955 12.5751C11.0751 12.5954 11.0637 12.623 11.0637 12.6517C11.0637 12.6804 11.0751 12.708 11.0955 12.7283C11.1158 12.7487 11.1434 12.7601 11.1721 12.7601H11.9308C11.9455 12.9105 12.001 13.054 12.0912 13.1752L11.5645 13.7019C11.5516 13.7111 11.5409 13.7228 11.5331 13.7365C11.5253 13.7502 11.5205 13.7654 11.5192 13.781C11.5178 13.7967 11.5199 13.8125 11.5253 13.8273C11.5306 13.8421 11.5392 13.8556 11.5502 13.8667C11.5613 13.8779 11.5747 13.8865 11.5895 13.892C11.6042 13.8975 11.62 13.8996 11.6357 13.8984C11.6514 13.8972 11.6666 13.8925 11.6803 13.8848C11.694 13.8771 11.7059 13.8665 11.7151 13.8537L12.2408 13.328C12.3608 13.4238 12.5047 13.4849 12.657 13.5047V14.2439C12.657 14.2726 12.6684 14.3002 12.6887 14.3205C12.709 14.3408 12.7366 14.3523 12.7654 14.3523C12.7941 14.3523 12.8217 14.3408 12.842 14.3205C12.8623 14.3002 12.8737 14.2726 12.8737 14.2439V13.4949C13.0261 13.4756 13.1702 13.4145 13.2899 13.3183L13.8156 13.8439C13.8358 13.864 13.863 13.8752 13.8915 13.8754C13.9199 13.8752 13.9472 13.864 13.9673 13.8439C13.9872 13.8237 13.9983 13.7964 13.9983 13.7681C13.9983 13.7397 13.9872 13.7125 13.9673 13.6922L13.4308 13.1698C13.5214 13.0487 13.5773 12.9051 13.5923 12.7547H14.351C14.3798 12.7547 14.4073 12.7432 14.4277 12.7229C14.448 12.7026 14.4594 12.675 14.4594 12.6463C14.4594 12.6175 14.448 12.59 14.4277 12.5696C14.4073 12.5493 14.3798 12.5379 14.351 12.5379L14.3489 12.5411Z" fill="#333333"/>
<path d="M8.98174 14.2534C8.95214 14.2534 8.92361 14.2423 8.90189 14.2222C8.88017 14.2021 8.86688 14.1745 8.86469 14.145V11.1546C8.86748 11.1257 8.88097 11.0988 8.90251 11.0792C8.92405 11.0597 8.9521 11.0488 8.9812 11.0488C9.0103 11.0488 9.03835 11.0597 9.05989 11.0792C9.08143 11.0988 9.09492 11.1257 9.09771 11.1546V14.145C9.09553 14.1743 9.08239 14.2017 9.0609 14.2218C9.03942 14.2419 9.01115 14.2532 8.98174 14.2534Z" fill="#BDBDBD"/>
</svg>
