<svg width="25" height="24" viewBox="0 0 25 24" fill="none" xmlns="http://www.w3.org/2000/svg">
<path d="M13.747 4.73962C13.1061 4.89264 12.4421 4.92338 11.7897 4.83024C11.874 4.81532 11.9592 4.80146 12.0456 4.7908C12.5282 4.83676 13.0149 4.81414 13.4912 4.72363C13.5765 4.7279 13.6628 4.73323 13.747 4.73962Z" fill="#333333"/>
<path d="M14.2972 4.80244C14.2535 4.81417 14.2098 4.82803 14.1671 4.84189C13.2254 5.15165 12.2153 5.18861 11.2535 4.94849C11.3026 4.9357 11.3527 4.92397 11.4017 4.91331C12.3072 5.11397 13.25 5.06683 14.1309 4.77686C14.1906 4.78645 14.2386 4.79391 14.2972 4.80244Z" fill="#333333"/>
<path d="M14.8079 4.89718C14.5891 4.93779 14.3733 4.99299 14.1618 5.06242C13.1024 5.40886 11.9601 5.40886 10.9007 5.06242L10.8591 5.04962L10.9775 5.01444C12.0058 5.33724 13.1093 5.33128 14.1341 4.99739C14.3 4.9426 14.4687 4.8967 14.6394 4.85986C14.6959 4.87266 14.7514 4.88332 14.8079 4.89718Z" fill="#333333"/>
<path d="M15.3633 5.04354C14.9536 5.07382 14.549 5.15402 14.1587 5.28234C13.0992 5.62878 11.957 5.62878 10.8976 5.28234C10.7664 5.23863 10.6332 5.20132 10.4988 5.16934C10.5372 5.15441 10.5756 5.14162 10.614 5.12882C10.7206 5.15441 10.8187 5.18426 10.9189 5.21731C11.9624 5.55847 13.0874 5.55847 14.131 5.21731C14.4743 5.10504 14.8283 5.02894 15.1874 4.99023L15.3633 5.04354Z" fill="#333333"/>
<path d="M15.9688 5.25121C15.3546 5.22665 14.7408 5.31185 14.1565 5.50281C13.0971 5.84925 11.9548 5.84925 10.8954 5.50281C10.6427 5.41978 10.3839 5.35669 10.1214 5.31411L10.2461 5.26827C10.4754 5.31 10.7016 5.36735 10.9231 5.43991C11.9668 5.77996 13.0915 5.77996 14.1352 5.43991C14.665 5.26577 15.2192 5.17759 15.7769 5.17872L15.9688 5.25121Z" fill="#333333"/>
<path d="M16.6043 5.53575C15.787 5.40141 14.9493 5.46539 14.1619 5.72231C13.1025 6.06876 11.9602 6.06876 10.9008 5.72231C10.5257 5.59922 10.1375 5.52051 9.74408 5.48778C9.78352 5.46752 9.82404 5.4494 9.86348 5.43021C10.2234 5.46838 10.5782 5.54449 10.9221 5.65728C11.9656 5.99844 13.0907 5.99844 14.1342 5.65728C14.865 5.41823 15.6395 5.34254 16.4028 5.43554C16.471 5.46859 16.536 5.50164 16.6043 5.53575Z" fill="#333333"/>
<path d="M17.2673 5.91006C16.2533 5.60259 15.1692 5.61412 14.1619 5.94311C13.1024 6.28955 11.9602 6.28955 10.9007 5.94311C10.4027 5.77931 9.88237 5.69337 9.35812 5.68832C9.39757 5.66593 9.43808 5.64354 9.47859 5.62329C9.96943 5.63901 10.4555 5.7248 10.9221 5.87808C11.9658 6.21813 13.0904 6.21813 14.1341 5.87808C15.0767 5.56724 16.0882 5.53027 17.0509 5.77147C17.1234 5.82051 17.1959 5.86422 17.2673 5.91006Z" fill="#333333"/>
<path d="M17.8153 6.28776C17.6842 6.25685 17.5541 6.2206 17.4262 6.18115L17.3558 6.15877C16.3181 5.82504 15.2015 5.82728 14.1651 6.16516C13.1056 6.51161 11.9634 6.51161 10.9039 6.16516C10.2798 5.96087 9.62218 5.87835 8.96689 5.9221C9.0074 5.89545 9.04791 5.86986 9.08949 5.84534C9.7092 5.82142 10.3282 5.90769 10.9178 6.10013C11.9613 6.44129 13.0864 6.44129 14.1299 6.10013C15.1819 5.75569 16.3159 5.75271 17.3697 6.0916L17.4401 6.11399C17.5126 6.13745 17.585 6.15877 17.6533 6.17796C17.7087 6.21314 17.7631 6.25045 17.8153 6.28776Z" fill="#333333"/>
<path d="M18.1735 6.57959C17.9204 6.53867 17.6709 6.47807 17.4273 6.39836L17.3569 6.37597C16.319 6.04259 15.2024 6.04521 14.1661 6.38343C13.1067 6.72988 11.9645 6.72988 10.905 6.38343C10.1621 6.13844 9.37324 6.06553 8.59802 6.17022C8.6364 6.14144 8.67585 6.11372 8.71529 6.08707C9.45999 6.00323 10.214 6.0803 10.9263 6.31307C11.97 6.65313 13.0947 6.65313 14.1384 6.31307C15.1903 5.96829 16.3243 5.96493 17.3782 6.30348L17.4486 6.32587C17.6537 6.39304 17.8631 6.44611 18.0754 6.48471C18.1053 6.52096 18.1405 6.54974 18.1735 6.57959Z" fill="#333333"/>
<path d="M18.7044 7.07997C18.2694 7.05468 17.8395 6.97371 17.4251 6.83903L17.3548 6.81665C16.3169 6.48327 15.2003 6.48588 14.164 6.82411C13.1045 7.17004 11.9624 7.17004 10.9029 6.82411C9.92016 6.50274 8.86366 6.48343 7.86987 6.76867C7.90612 6.73456 7.94343 6.70044 7.97648 6.66206C8.94591 6.41106 9.96693 6.44288 10.9189 6.75375C11.9625 7.0938 13.0872 7.0938 14.1309 6.75375C15.1828 6.40896 16.3168 6.4056 17.3707 6.74415L17.4411 6.76654C17.827 6.89113 18.2264 6.96915 18.6308 6.99894C18.6575 7.03093 18.682 7.05545 18.7044 7.07997Z" fill="#333333"/>
<path d="M18.9186 7.30866C18.4116 7.29868 17.9088 7.21463 17.4261 7.0592L17.3558 7.03681C16.318 6.70309 15.2014 6.70533 14.165 7.04321C13.1055 7.38965 11.9633 7.38965 10.9039 7.04321C9.86442 6.70616 8.74507 6.70616 7.70563 7.04321L7.66512 7.056C7.62568 7.06879 7.5873 7.08052 7.54785 7.09118L7.647 6.98457L7.68431 6.97285C8.73887 6.6301 9.87488 6.6301 10.9294 6.97285C11.973 7.31401 13.098 7.31401 14.1415 6.97285C15.1935 6.62857 16.3273 6.62521 17.3813 6.96325L17.4517 6.98671C17.9081 7.13376 18.3829 7.21594 18.8621 7.23084C18.8799 7.25927 18.8987 7.28521 18.9186 7.30866Z" fill="#333333"/>
<path d="M19.1083 7.52844C19.0817 7.52844 19.055 7.52844 19.0284 7.52844C18.4833 7.52925 17.9416 7.44434 17.4229 7.27684L17.3525 7.25446C16.3146 6.92108 15.198 6.92369 14.1617 7.26192C13.1023 7.60836 11.9601 7.60836 10.9006 7.26192C9.86127 6.92436 8.74175 6.92436 7.7024 7.26192L7.66189 7.27578C7.53396 7.31735 7.40496 7.35467 7.27383 7.38238C7.30049 7.35147 7.32714 7.32055 7.35486 7.2907C7.4508 7.26618 7.54568 7.23846 7.64056 7.20755L7.68108 7.19369C8.73564 6.85094 9.87165 6.85094 10.9262 7.19369C11.9699 7.53374 13.0946 7.53374 14.1383 7.19369C15.1902 6.8489 16.3242 6.84554 17.3781 7.18409L17.4485 7.20648C17.9678 7.37406 18.5104 7.45791 19.0561 7.45488C19.071 7.48366 19.0945 7.50605 19.1083 7.52844Z" fill="#333333"/>
<path d="M19.28 7.74502C19.1958 7.74502 19.1126 7.75142 19.0284 7.75142C18.4834 7.7517 17.9417 7.66681 17.4229 7.49982L17.3525 7.47744C16.3148 7.14371 15.1982 7.14595 14.1617 7.48383C13.1023 7.83028 11.9601 7.83028 10.9006 7.48383C9.86118 7.14678 8.74183 7.14678 7.70239 7.48383L7.66188 7.49663C7.46074 7.56242 7.25564 7.61548 7.04782 7.65547L7.11605 7.57232C7.29226 7.53542 7.4663 7.4888 7.63736 7.43266L7.67787 7.41987C8.73243 7.07712 9.86845 7.07712 10.923 7.41987C11.9665 7.76103 13.0916 7.76103 14.1351 7.41987C15.1871 7.07559 16.3209 7.07223 17.3749 7.41027L17.4453 7.43373C18.0212 7.61908 18.6253 7.70136 19.2299 7.67679L19.28 7.74502Z" fill="#333333"/>
<path d="M19.4368 7.95487C19.3014 7.96553 19.1649 7.97086 19.0285 7.97086C18.4834 7.97167 17.9416 7.88677 17.423 7.71927L17.3526 7.69688C16.3147 7.3635 15.1981 7.36611 14.1618 7.70434C13.1024 8.05079 11.9602 8.05079 10.9007 7.70434C9.86136 7.36678 8.74184 7.36678 7.70248 7.70434L7.66197 7.7182C7.39937 7.80429 7.13018 7.86882 6.85709 7.91116C6.87628 7.88344 6.89653 7.85679 6.91679 7.83014C7.16066 7.7898 7.40119 7.73136 7.63639 7.6553L7.6769 7.64144C8.73146 7.2987 9.86747 7.2987 10.922 7.64144C11.9657 7.9815 13.0904 7.9815 14.1341 7.64144C15.186 7.29666 16.32 7.2933 17.3739 7.63185L17.4443 7.65424C18.0714 7.85634 18.7316 7.93596 19.3888 7.88877C19.4059 7.91009 19.4219 7.93248 19.4368 7.95487Z" fill="#333333"/>
<path d="M19.5806 8.16163C19.3972 8.1817 19.2128 8.19166 19.0284 8.19148C18.4834 8.19176 17.9417 8.10687 17.4229 7.93988L17.3525 7.91749C16.3147 7.58377 15.1981 7.58601 14.1617 7.92389C13.1023 8.27033 11.96 8.27033 10.9006 7.92389C9.86116 7.58684 8.74181 7.58684 7.70237 7.92389L7.66186 7.93668C7.3445 8.03964 7.01777 8.11105 6.6864 8.1499C6.70346 8.12431 6.72052 8.09979 6.73971 8.07421C7.04424 8.03326 7.34436 7.96438 7.63628 7.86845L7.67679 7.85566C8.73135 7.51291 9.86736 7.51291 10.9219 7.85566C11.9654 8.19682 13.0905 8.19682 14.134 7.85566C15.186 7.51138 16.3198 7.50803 17.3738 7.84607L17.4442 7.86952C18.1187 8.08654 18.8308 8.16202 19.5358 8.09126C19.5518 8.11792 19.5667 8.1403 19.5806 8.16163Z" fill="#333333"/>
<path d="M19.7128 8.36545C19.486 8.39617 19.2573 8.41149 19.0284 8.41129C18.4833 8.4121 17.9415 8.3272 17.4229 8.1597L17.3525 8.13731C16.3146 7.80393 15.198 7.80654 14.1617 8.14477C13.1023 8.49121 11.9601 8.49121 10.9006 8.14477C9.86126 7.80721 8.74174 7.80721 7.70239 8.14477L7.66187 8.15863C7.29582 8.27799 6.91745 8.3556 6.53397 8.38997L6.57981 8.31641C6.94225 8.28141 7.29976 8.20669 7.64588 8.0936L7.6768 8.08187C8.73136 7.73912 9.86737 7.73912 10.9219 8.08187C11.9656 8.42193 13.0903 8.42193 14.134 8.08187C15.1859 7.73709 16.3199 7.73373 17.3738 8.07228L17.4442 8.09467C18.1631 8.32621 18.924 8.39717 19.6734 8.30255L19.7128 8.36545Z" fill="#333333"/>
<path d="M19.8407 8.56888C19.5738 8.61118 19.304 8.63221 19.0337 8.63178C18.4887 8.63206 17.947 8.54717 17.4282 8.38019L17.3578 8.3578C16.3201 8.02408 15.2035 8.02632 14.1671 8.3642C13.1076 8.71064 11.9654 8.71064 10.9059 8.3642C9.86651 8.02715 8.74715 8.02715 7.70772 8.3642L7.66721 8.37699C7.25363 8.50996 6.82483 8.58984 6.39111 8.61472C6.40497 8.5902 6.41883 8.56675 6.43376 8.5433C6.84268 8.51321 7.24646 8.43374 7.63629 8.30663L7.6768 8.2949C8.73136 7.95216 9.86737 7.95216 10.9219 8.2949C11.9655 8.63606 13.0905 8.63606 14.134 8.2949C15.187 7.95375 16.3208 7.95375 17.3738 8.2949L17.4442 8.31836C18.2037 8.56204 19.0093 8.62698 19.7981 8.50812C19.8109 8.52624 19.8237 8.54756 19.8407 8.56888Z" fill="#333333"/>
<path d="M19.9476 8.76926C19.644 8.8243 19.3361 8.85178 19.0275 8.85135C18.4825 8.85216 17.9407 8.76726 17.422 8.59976L17.3517 8.57737C16.3138 8.24399 15.1972 8.2466 14.1609 8.58483C13.1015 8.93128 11.9592 8.93128 10.8998 8.58483C9.86043 8.24727 8.74091 8.24727 7.70156 8.58483L7.66105 8.59869C7.21267 8.74488 6.74635 8.82882 6.27515 8.84815C6.28687 8.8247 6.29967 8.80125 6.31246 8.77779C6.76547 8.75549 7.21355 8.6734 7.64505 8.53366L7.68556 8.5198C8.74013 8.17705 9.87614 8.17705 10.9307 8.5198C11.9744 8.85985 13.0991 8.85985 14.1428 8.5198C15.1918 8.17616 16.3225 8.17206 17.3741 8.50807L17.4444 8.53046C18.2418 8.78672 19.0894 8.84562 19.9145 8.7021C19.9262 8.72662 19.938 8.74794 19.9476 8.76926Z" fill="#333333"/>
<path d="M20.054 8.97088C19.1785 9.14546 18.2729 9.09372 17.4229 8.82056L17.3526 8.79817C16.3148 8.46445 15.1982 8.46669 14.1618 8.80457C13.1024 9.15101 11.9601 9.15101 10.9007 8.80457C9.86124 8.46752 8.74188 8.46752 7.70245 8.80457L7.66194 8.81736C7.17412 8.97619 6.66533 9.06135 6.15237 9.07002C6.16304 9.04657 6.17476 9.02311 6.18755 8.99966C6.67999 8.98769 7.16805 8.90401 7.63635 8.75126L7.67686 8.73847C8.73142 8.39572 9.86744 8.39572 10.922 8.73847C11.9655 9.07963 13.0906 9.07963 14.1341 8.73847C15.1861 8.3942 16.3199 8.39084 17.3739 8.72888L17.4443 8.75233C18.277 9.01944 19.1638 9.07152 20.022 8.90371C20.0341 8.92432 20.0448 8.94671 20.054 8.97088Z" fill="#333333"/>
<path d="M20.1521 9.16915C19.2471 9.36891 18.3053 9.32477 17.4229 9.04122L17.3526 9.01883C16.3147 8.68546 15.1981 8.68807 14.1618 9.0263C13.1024 9.37274 11.9601 9.37274 10.9007 9.0263C9.86131 8.68874 8.74179 8.68874 7.70244 9.0263L7.66193 9.04016C7.14197 9.20879 6.59877 9.29476 6.05215 9.29495C6.06175 9.27149 6.07241 9.24911 6.08414 9.22565C6.61279 9.22304 7.13784 9.13853 7.64061 8.97512L7.68112 8.96127C8.73568 8.61852 9.87169 8.61852 10.9263 8.96127C11.9699 9.30132 13.0946 9.30132 14.1383 8.96127C15.1902 8.61648 16.3242 8.61312 17.3781 8.95167L17.4485 8.97406C18.3141 9.25263 19.2378 9.29786 20.1265 9.10519C20.1329 9.12651 20.1425 9.14783 20.1521 9.16915Z" fill="#333333"/>
<path d="M20.2438 9.36946C19.3114 9.59237 18.3358 9.5555 17.423 9.26285L17.3526 9.24047C16.3148 8.90674 15.1982 8.90898 14.1618 9.24686C13.1024 9.59331 11.9601 9.59331 10.9007 9.24686C9.86126 8.90981 8.74191 8.90981 7.70247 9.24686L7.66196 9.25966C7.11154 9.43878 6.53495 9.52419 5.95624 9.51232L5.98502 9.44515C6.54654 9.45284 7.1055 9.36821 7.63957 9.19463L7.68008 9.18183C8.73464 8.83908 9.87066 8.83908 10.9252 9.18183C11.9687 9.52299 13.0938 9.52299 14.1373 9.18183C15.1893 8.83755 16.3231 8.8342 17.3771 9.17224L17.4475 9.19569C18.3447 9.4818 19.3028 9.51865 20.2193 9.3023L20.2438 9.36946Z" fill="#333333"/>
<path d="M20.3269 9.56761C19.3701 9.81307 18.3633 9.78276 17.4229 9.48019L17.3526 9.4578C16.3147 9.12442 15.1981 9.12703 14.1618 9.46526C13.1024 9.81171 11.9601 9.81171 10.9007 9.46526C9.86133 9.1277 8.74181 9.1277 7.70246 9.46526L7.66195 9.47912C7.08418 9.66678 6.47805 9.75193 5.87094 9.73072L5.89653 9.66249C6.48782 9.68001 7.07774 9.59599 7.64063 9.41409L7.68114 9.40023C8.7357 9.05748 9.87171 9.05748 10.9263 9.40023C11.97 9.74029 13.0947 9.74029 14.1384 9.40023C15.1903 9.05545 16.3242 9.05209 17.3782 9.39064L17.4485 9.41302C18.3736 9.71059 19.3639 9.74126 20.3056 9.50151L20.3269 9.56761Z" fill="#333333"/>
<path d="M20.4047 9.76825C19.9563 9.89131 19.4934 9.95334 19.0284 9.95268C18.4834 9.95296 17.9417 9.86807 17.4229 9.70109L17.3525 9.6787C16.3148 9.34498 15.1982 9.34721 14.1618 9.6851C13.1023 10.0315 11.9601 10.0315 10.9006 9.6851C9.8612 9.34804 8.74184 9.34804 7.7024 9.6851L7.66189 9.69789C7.05926 9.89368 6.42588 9.97751 5.79306 9.94522C5.80052 9.92283 5.80799 9.90044 5.81651 9.87912C6.4344 9.90753 7.05234 9.82411 7.64057 9.63286L7.68108 9.62006C8.73564 9.27732 9.87166 9.27732 10.9262 9.62006C11.9697 9.96122 13.0948 9.96122 14.1383 9.62006C15.1903 9.27579 16.3241 9.27243 17.3781 9.61047L17.4485 9.63392C18.4001 9.93924 19.4197 9.96293 20.3844 9.70215C20.3887 9.72561 20.3972 9.74693 20.4047 9.76825Z" fill="#333333"/>
<path d="M20.4805 9.96852C19.4805 10.2555 18.4177 10.2388 17.4272 9.92055L17.3569 9.89816C16.319 9.56479 15.2024 9.5674 14.1661 9.90563C13.1066 10.2516 11.9645 10.2516 10.905 9.90563C9.86564 9.56807 8.74612 9.56807 7.70676 9.90563L7.66625 9.91949C7.03758 10.1233 6.37576 10.205 5.7164 10.1604L5.73879 10.0943C6.38087 10.1322 7.02439 10.0501 7.6364 9.85232L7.67691 9.83846C8.73148 9.49572 9.86749 9.49572 10.922 9.83846C11.9657 10.1785 13.0904 10.1785 14.1341 9.83846C15.186 9.49368 16.32 9.49032 17.3739 9.82887L17.4443 9.85126C18.4202 10.1649 19.4673 10.1816 20.4528 9.89923C20.4613 9.92482 20.4688 9.94614 20.4805 9.96852Z" fill="#333333"/>
<path d="M20.5423 10.1679C20.0517 10.3176 19.5415 10.3934 19.0285 10.3929C18.4835 10.3931 17.9418 10.3083 17.423 10.1413L17.3526 10.1189C16.3149 9.78516 15.1983 9.7874 14.1619 10.1253C13.1024 10.4717 11.9602 10.4717 10.9007 10.1253C9.8613 9.78823 8.74194 9.78823 7.70251 10.1253L7.662 10.1381C7.01553 10.3477 6.33444 10.4296 5.65671 10.379C5.6631 10.3566 5.6695 10.3342 5.67696 10.3118C6.3408 10.3593 7.00756 10.2782 7.64067 10.073L7.68119 10.0602C8.73575 9.7175 9.87176 9.7175 10.9263 10.0602C11.9698 10.4014 13.0949 10.4014 14.1384 10.0602C15.1904 9.71597 16.3242 9.71262 17.3782 10.0507L17.4486 10.0741C18.4476 10.3949 19.5206 10.4046 20.5253 10.1018C20.5285 10.1253 20.5349 10.1466 20.5423 10.1679Z" fill="#333333"/>
<path d="M20.6019 10.3706C19.5668 10.6965 18.456 10.6932 17.4229 10.361L17.3525 10.3387C16.3147 10.0053 15.1981 10.0079 14.1618 10.3461C13.1022 10.6915 11.9602 10.6915 10.9006 10.3461C9.86127 10.0086 8.74175 10.0086 7.7024 10.3461L7.66189 10.36C6.99734 10.5758 6.2962 10.6559 5.6001 10.5956C5.6001 10.5732 5.61182 10.5508 5.61716 10.5284C6.30113 10.5854 6.98963 10.5061 7.6427 10.295L7.68321 10.2811C8.73777 9.93834 9.87379 9.93834 10.9283 10.2811C11.972 10.6211 13.0967 10.6211 14.1404 10.2811C15.1923 9.9363 16.3263 9.93295 17.3802 10.2715L17.4506 10.2939C18.4706 10.6216 19.5671 10.625 20.5891 10.3035L20.6019 10.3706Z" fill="#333333"/>
<path d="M20.6553 10.5743H20.6446C19.5974 10.9126 18.4702 10.9126 17.423 10.5743L17.3526 10.5519C16.3149 10.2182 15.1983 10.2205 14.1618 10.5583C13.1024 10.9048 11.9602 10.9048 10.9007 10.5583C9.86128 10.2213 8.74192 10.2213 7.70249 10.5583L7.66198 10.5711C6.98136 10.7924 6.26246 10.8712 5.55008 10.8025C5.55008 10.7801 5.55967 10.7577 5.565 10.7353C6.26343 10.8025 6.96822 10.7267 7.63639 10.5125L7.6769 10.4997C8.73146 10.157 9.86747 10.157 10.922 10.4997C11.9656 10.8409 13.0906 10.8409 14.1341 10.4997C15.1861 10.1554 16.3199 10.1521 17.3739 10.4901L17.4443 10.5136C18.4778 10.8467 19.5898 10.8467 20.6233 10.5136H20.6383C20.6446 10.5338 20.65 10.5519 20.6553 10.5743Z" fill="#333333"/>
<path d="M20.7043 10.779H20.6862L20.6446 10.7929C19.5973 11.1305 18.4703 11.1305 17.4229 10.7929L17.3526 10.7705C16.3147 10.4371 15.1981 10.4397 14.1618 10.778C13.1022 11.1234 11.9603 11.1234 10.9007 10.778C9.86133 10.4404 8.74181 10.4404 7.70246 10.778L7.66195 10.7918C6.96623 11.0198 6.23036 11.099 5.50208 11.0242C5.50208 11.0022 5.50634 10.9798 5.51487 10.9571C6.22991 11.0309 6.95249 10.9547 7.63636 10.7332L7.67687 10.7193C8.73143 10.3766 9.86744 10.3766 10.922 10.7193C11.9657 11.0594 13.0904 11.0594 14.1341 10.7193C15.186 10.3745 16.32 10.3712 17.3739 10.7097L17.4443 10.7321C18.4778 11.0652 19.5898 11.0652 20.6233 10.7321L20.6649 10.7183L20.6894 10.7108C20.6937 10.7342 20.699 10.7566 20.7043 10.779Z" fill="#333333"/>
<path d="M20.747 10.9858L20.6863 11.0049L20.6447 11.0177C19.5974 11.356 18.4703 11.356 17.423 11.0177L17.3526 10.9953C16.3149 10.6616 15.1983 10.6639 14.1619 11.0017C13.1024 11.3482 11.9602 11.3482 10.9007 11.0017C9.86131 10.6647 8.74195 10.6647 7.70252 11.0017L7.662 11.0145C6.9552 11.2439 6.20759 11.3199 5.46909 11.2373C5.46909 11.215 5.47548 11.1926 5.47975 11.1702C6.20756 11.251 6.94422 11.1757 7.64068 10.9495L7.68119 10.9367C8.73576 10.594 9.87177 10.594 10.9263 10.9367C11.9698 11.2779 13.0949 11.2779 14.1384 10.9367C15.1904 10.5924 16.3242 10.5891 17.3782 10.9271L17.4486 10.9506C18.4821 11.2837 19.5941 11.2837 20.6276 10.9506L20.6692 10.9378L20.7385 10.9165C20.7385 10.941 20.7438 10.9602 20.747 10.9858Z" fill="#333333"/>
<path d="M20.7843 11.1948C20.7513 11.2033 20.7193 11.2139 20.6862 11.2246L20.6446 11.2385C19.5973 11.5761 18.4703 11.5761 17.423 11.2385L17.3526 11.2161C16.3147 10.8827 15.1981 10.8853 14.1618 11.2235C13.1022 11.5689 11.9603 11.5689 10.9007 11.2235C9.86136 10.886 8.74184 10.886 7.70248 11.2235L7.66197 11.2374C6.94475 11.4697 6.18587 11.5446 5.43707 11.457C5.43707 11.4346 5.43707 11.4112 5.44667 11.3888C6.18483 11.4757 6.93305 11.403 7.64065 11.1756L7.68116 11.1617C8.73572 10.819 9.87174 10.819 10.9263 11.1617C11.97 11.5018 13.0947 11.5018 14.1384 11.1617C15.1903 10.8169 16.3243 10.8136 17.3782 11.1521L17.4486 11.1745C18.4821 11.5076 19.5941 11.5076 20.6276 11.1745L20.6692 11.1606C20.7054 11.1489 20.7417 11.1372 20.7758 11.1276C20.7779 11.15 20.7822 11.1734 20.7843 11.1948Z" fill="#333333"/>
<path d="M20.8162 11.4044L20.6862 11.4449L20.6446 11.4577C19.5973 11.796 18.4702 11.796 17.4229 11.4577L17.3526 11.4342C16.3146 11.1014 15.1982 11.104 14.1618 11.4417C13.1024 11.7882 11.9601 11.7882 10.9007 11.4417C9.86123 11.1047 8.74187 11.1047 7.70244 11.4417L7.66192 11.4545C6.93618 11.6883 6.16818 11.7611 5.41144 11.6677C5.41144 11.6443 5.41144 11.6219 5.4189 11.5995C6.16616 11.6913 6.92445 11.6185 7.6406 11.3863L7.68111 11.3735C8.73567 11.0307 9.87169 11.0307 10.9262 11.3735C11.9698 11.7146 13.0948 11.7146 14.1383 11.3735C15.1903 11.0292 16.3241 11.0258 17.3781 11.3639L17.4485 11.3873C18.482 11.7205 19.594 11.7205 20.6275 11.3873L20.6691 11.3745L20.8109 11.3308C20.8109 11.3586 20.8141 11.3863 20.8162 11.4044Z" fill="#333333"/>
<path d="M20.8429 11.6177C20.7907 11.6316 20.7363 11.6476 20.6862 11.6647L20.6446 11.6785C19.5973 12.0161 18.4703 12.0161 17.4229 11.6785L17.3526 11.6561C16.3148 11.3222 15.198 11.3248 14.1618 11.6636C13.1022 12.009 11.9603 12.009 10.9007 11.6636C9.86133 11.326 8.74181 11.326 7.70246 11.6636L7.66195 11.6774C6.92989 11.9145 6.15459 11.9873 5.3912 11.8907L5.3976 11.8224C6.15046 11.9163 6.91476 11.8435 7.63636 11.6092L7.67687 11.5954C8.73151 11.2531 9.86736 11.2531 10.922 11.5954C11.9655 11.9365 13.0906 11.9365 14.1341 11.5954C15.1862 11.2514 16.32 11.2484 17.3739 11.5868L17.4443 11.6092C18.4778 11.9423 19.5898 11.9423 20.6233 11.6092L20.6649 11.5954C20.7214 11.5772 20.7779 11.5591 20.8344 11.5431C20.8386 11.5708 20.8408 11.5996 20.8429 11.6177Z" fill="#333333"/>
<path d="M20.8642 11.8313C20.8045 11.8484 20.7448 11.8665 20.6862 11.8857L20.6446 11.8985C19.5973 12.2367 18.4702 12.2367 17.4229 11.8985L17.3526 11.875C16.3146 11.5421 15.1982 11.5448 14.1618 11.8825C13.1023 12.2289 11.9601 12.2289 10.9007 11.8825C9.86123 11.5454 8.74187 11.5454 7.70243 11.8825L7.66192 11.8953C6.92589 12.1344 6.14597 12.2072 5.37839 12.1085V12.0392C6.13788 12.1369 6.90961 12.0641 7.6374 11.826L7.67791 11.8132C8.73247 11.4704 9.86849 11.4704 10.923 11.8132C11.9666 12.1543 13.0916 12.1543 14.1351 11.8132C15.1871 11.4689 16.3209 11.4655 17.3749 11.8036L17.4453 11.827C18.4788 12.1602 19.5908 12.1602 20.6243 11.827L20.6659 11.8142C20.7299 11.7929 20.7949 11.7737 20.8589 11.7556L20.8642 11.8313Z" fill="#333333"/>
<path d="M20.8792 12.0465C20.8141 12.0646 20.7502 12.0838 20.6862 12.1051L20.6446 12.119C19.5973 12.4566 18.4703 12.4566 17.423 12.119L17.3526 12.0966C16.3148 11.7627 15.1981 11.7653 14.1618 12.1041C13.1022 12.4495 11.9603 12.4495 10.9007 12.1041C9.86135 11.7665 8.74183 11.7665 7.70248 12.1041L7.66197 12.1179C6.92348 12.3576 6.14101 12.4304 5.37097 12.3311C5.37097 12.3077 5.37097 12.2853 5.37097 12.2618C6.1328 12.3622 6.90742 12.2916 7.63852 12.055L7.67903 12.0412C8.73367 11.6989 9.86952 11.6989 10.9242 12.0412C11.9677 12.3823 13.0927 12.3823 14.1362 12.0412C15.1883 11.6972 16.3222 11.6942 17.3761 12.0326L17.4464 12.055C18.4799 12.3881 19.592 12.3881 20.6255 12.055L20.667 12.0412C20.7363 12.0188 20.8067 11.9974 20.8802 11.9783C20.877 12.0006 20.8781 12.0262 20.8792 12.0465Z" fill="#333333"/>
<path d="M20.8888 12.264C20.8205 12.2832 20.7534 12.3034 20.6862 12.3258L20.6446 12.3386C19.5974 12.6769 18.4702 12.6769 17.423 12.3386L17.3526 12.3151C16.3147 11.9823 15.1982 11.9849 14.1618 12.3226C13.1024 12.6691 11.9601 12.6691 10.9007 12.3226C9.86127 11.9856 8.74192 11.9856 7.70248 12.3226L7.66197 12.3354C6.92348 12.5751 6.14101 12.6479 5.37097 12.5486C5.37097 12.5252 5.37097 12.5028 5.37097 12.4793C6.13385 12.5802 6.90962 12.5096 7.64171 12.2725L7.68222 12.2597C8.73679 11.917 9.8728 11.917 10.9274 12.2597C11.9709 12.6009 13.0959 12.6009 14.1394 12.2597C15.1914 11.9154 16.3253 11.9121 17.3793 12.2501L17.4496 12.2736C18.4831 12.6067 19.5952 12.6067 20.6287 12.2736L20.6702 12.2608C20.7438 12.2373 20.8174 12.2149 20.8909 12.1947L20.8888 12.264Z" fill="#333333"/>
<path d="M20.891 12.4771V12.4835C20.8228 12.5027 20.7545 12.5229 20.6863 12.5453L20.6447 12.5592C19.5974 12.8968 18.4704 12.8968 17.4231 12.5592L17.3527 12.5368C16.3149 12.2029 15.1982 12.2055 14.1619 12.5442C13.1023 12.8897 11.9604 12.8897 10.9008 12.5442C9.86145 12.2067 8.74193 12.2067 7.70258 12.5442L7.66207 12.5581C6.92508 12.7979 6.14396 12.8708 5.37534 12.7713C5.37534 12.7479 5.37534 12.7255 5.37534 12.702C6.13717 12.8019 6.91168 12.7312 7.64288 12.4952L7.68339 12.4813C8.73803 12.1391 9.87388 12.1391 10.9285 12.4813C11.972 12.8225 13.0971 12.8225 14.1406 12.4813C15.1927 12.1374 16.3265 12.1344 17.3804 12.4728L17.4508 12.4952C18.4844 12.8278 19.5962 12.8278 20.6298 12.4952L20.6714 12.4813C20.746 12.4568 20.8206 12.4344 20.8963 12.4142C20.891 12.4344 20.891 12.4526 20.891 12.4771Z" fill="#333333"/>
<path d="M20.8888 12.6339C20.8888 12.6574 20.8888 12.6808 20.8888 12.7043C20.8217 12.7235 20.7545 12.7437 20.6874 12.7661L20.6458 12.7789C19.5985 13.1172 18.4714 13.1172 17.4241 12.7789L17.3537 12.7555C16.3158 12.4226 15.1993 12.4252 14.163 12.7629C13.1035 13.1094 11.9613 13.1094 10.9018 12.7629C9.8624 12.4259 8.74305 12.4259 7.70361 12.7629L7.6631 12.7757C6.92979 13.0138 6.15287 13.0866 5.38809 12.9889C5.38809 12.9655 5.38809 12.942 5.38809 12.9186C6.14723 13.0164 6.91862 12.9435 7.64604 12.7054L7.68655 12.6926C8.74111 12.3498 9.87713 12.3498 10.9317 12.6926C11.9752 13.0337 13.1003 13.0337 14.1438 12.6926C15.1958 12.3483 16.3296 12.3449 17.3836 12.683L17.4539 12.7064C18.4874 13.0396 19.5995 13.0396 20.633 12.7064L20.6746 12.6936C20.7428 12.6752 20.8142 12.6553 20.8888 12.6339Z" fill="#333333"/>
<path d="M20.8824 12.8557C20.8824 12.8802 20.8824 12.9037 20.8824 12.9282C20.8184 12.9453 20.7545 12.9655 20.6905 12.9858L20.6489 12.9996C19.6016 13.3373 18.4746 13.3373 17.4273 12.9996L17.3569 12.9773C16.3191 12.6434 15.2023 12.646 14.1661 12.9847C13.1065 13.3301 11.9646 13.3301 10.905 12.9847C9.86565 12.6472 8.74613 12.6472 7.70677 12.9847L7.66626 12.9986C6.93854 13.2335 6.16822 13.3063 5.40938 13.2118C5.40938 13.1883 5.40938 13.166 5.40298 13.1425C6.15585 13.236 6.92006 13.1632 7.64174 12.9293L7.68226 12.9154C8.7369 12.5732 9.87275 12.5732 10.9274 12.9154C11.9709 13.2566 13.096 13.2566 14.1395 12.9154C15.1916 12.5715 16.3254 12.5685 17.3793 12.9069L17.4496 12.9293C18.4831 13.2624 19.5952 13.2624 20.6287 12.9293L20.6703 12.9154C20.7374 12.8973 20.8099 12.8792 20.8824 12.8557Z" fill="#333333"/>
<path d="M20.8686 13.0797C20.8686 13.1042 20.8686 13.1287 20.8611 13.1522C20.8025 13.1693 20.7439 13.1874 20.6863 13.2066L20.6447 13.2194C19.5975 13.5576 18.4703 13.5576 17.423 13.2194L17.3527 13.1959C16.3147 12.863 15.1983 12.8656 14.1619 13.2034C13.1025 13.5498 11.9602 13.5498 10.9008 13.2034C9.86134 12.8663 8.74198 12.8663 7.70255 13.2034L7.66203 13.2162C6.94212 13.448 6.18045 13.5207 5.42967 13.4294C5.42967 13.4059 5.42327 13.3825 5.42114 13.359C6.1677 13.4504 6.9252 13.3776 7.64071 13.1458L7.68122 13.133C8.73579 12.7903 9.8718 12.7903 10.9264 13.133C11.9699 13.4742 13.0949 13.4742 14.1384 13.133C15.1904 12.7887 16.3242 12.7854 17.3783 13.1234L17.4486 13.1469C18.4821 13.48 19.5942 13.48 20.6277 13.1469L20.6692 13.1341C20.7321 13.1191 20.8004 13.0989 20.8686 13.0797Z" fill="#333333"/>
<path d="M20.8461 13.3055C20.8448 13.3305 20.842 13.3555 20.8376 13.3801C20.7864 13.394 20.7363 13.41 20.6862 13.426L20.6446 13.4398C19.5973 13.7775 18.4703 13.7775 17.423 13.4398L17.3526 13.4175C16.3148 13.0836 15.198 13.0862 14.1618 13.4249C13.1022 13.7703 11.9603 13.7703 10.9007 13.4249C9.86135 13.0874 8.74183 13.0874 7.70248 13.4249L7.66197 13.4388C6.95207 13.6692 6.20104 13.7448 5.45945 13.6605L5.44986 13.5912C6.18697 13.6777 6.93404 13.6049 7.64065 13.378L7.68116 13.3642C8.7358 13.0219 9.87165 13.0219 10.9263 13.3642C11.9698 13.7053 13.0949 13.7053 14.1384 13.3642C15.1905 13.0202 16.3243 13.0172 17.3782 13.3556L17.4485 13.378C18.4821 13.7106 19.594 13.7106 20.6276 13.378L20.6692 13.3642C20.7246 13.3418 20.7854 13.3226 20.8461 13.3055Z" fill="#333333"/>
<path d="M20.8183 13.5349C20.8183 13.5594 20.8183 13.585 20.8087 13.6095L20.6861 13.6468L20.6446 13.6596C19.5973 13.9978 18.4701 13.9978 17.4229 13.6596L17.3525 13.6361C16.3146 13.3033 15.1981 13.3059 14.1617 13.6436C13.1023 13.99 11.9601 13.99 10.9006 13.6436C9.86127 13.306 8.74175 13.306 7.70239 13.6436L7.66188 13.6564C6.96437 13.8828 6.22699 13.9598 5.49775 13.8824L5.48495 13.812C6.21101 13.8918 6.94572 13.8166 7.64056 13.5914L7.68107 13.5786C8.73563 13.2358 9.87165 13.2358 10.9262 13.5786C11.9697 13.9197 13.0948 13.9197 14.1383 13.5786C15.1903 13.2343 16.3241 13.2309 17.3781 13.569L17.4485 13.5924C18.482 13.9256 19.594 13.9256 20.6275 13.5924L20.6691 13.5796C20.716 13.5647 20.7672 13.5487 20.8183 13.5349Z" fill="#333333"/>
<path d="M20.7833 13.765C20.7833 13.7906 20.7758 13.8162 20.7716 13.8407C20.7428 13.8482 20.7151 13.8567 20.6863 13.8663L20.6447 13.8801C19.5973 14.2178 18.4704 14.2178 17.423 13.8801L17.3527 13.8578C16.3149 13.5239 15.1981 13.5265 14.1619 13.8652C13.1023 14.2106 11.9604 14.2106 10.9008 13.8652C9.86141 13.5277 8.74189 13.5277 7.70254 13.8652L7.66202 13.8791C6.97892 14.1007 6.25737 14.1788 5.54267 14.1083C5.53734 14.0848 5.532 14.0614 5.52774 14.039C6.24004 14.1109 6.9595 14.0343 7.6407 13.814L7.68121 13.8002C8.73586 13.458 9.87171 13.458 10.9264 13.8002C11.9699 14.1413 13.0949 14.1413 14.1384 13.8002C15.1905 13.4563 16.3244 13.4533 17.3782 13.7917L17.4486 13.814C18.4821 14.1472 19.5941 14.1472 20.6276 13.814L20.6692 13.8002C20.7044 13.7885 20.7438 13.7757 20.7833 13.765Z" fill="#333333"/>
<path d="M20.7416 13.9985C20.7416 14.0241 20.732 14.0486 20.7256 14.0742L20.6862 14.087L20.6446 14.0998C19.5974 14.438 18.4702 14.438 17.4229 14.0998L17.3526 14.0763C16.3146 13.7434 15.1982 13.7461 14.1618 14.0838C13.1024 14.4302 11.9601 14.4302 10.9007 14.0838C9.86132 13.7462 8.7418 13.7462 7.70245 14.0838L7.66194 14.0966C6.99522 14.3125 6.29189 14.3923 5.59375 14.3311C5.58735 14.3077 5.58202 14.2853 5.57669 14.2618C6.27316 14.3255 6.97531 14.2471 7.64061 14.0315L7.68113 14.0187C8.73569 13.676 9.8717 13.676 10.9263 14.0187C11.9698 14.3599 13.0948 14.3599 14.1383 14.0187C15.1903 13.6745 16.3242 13.6711 17.3782 14.0092L17.4485 14.0326C18.482 14.3657 19.5941 14.3657 20.6276 14.0326L20.6691 14.0198L20.7416 13.9985Z" fill="#333333"/>
<path d="M20.6937 14.2329C20.6873 14.2585 20.682 14.2851 20.6756 14.3107L20.6468 14.3203C19.5995 14.6579 18.4725 14.6579 17.4251 14.3203L17.3548 14.2979C16.317 13.9641 15.2002 13.9667 14.164 14.3054C13.1044 14.6508 11.9625 14.6508 10.9029 14.3054C9.86353 13.9678 8.74402 13.9678 7.70466 14.3054L7.66415 14.3193C7.01634 14.5295 6.33368 14.6109 5.6546 14.5591L5.63541 14.4888C6.31346 14.5435 6.99566 14.4638 7.64283 14.2542L7.68334 14.2404C8.73798 13.8981 9.87383 13.8981 10.9285 14.2404C11.972 14.5815 13.097 14.5815 14.1406 14.2404C15.1927 13.8964 16.3265 13.8935 17.3804 14.2318L17.4507 14.2542C18.4842 14.5874 19.5963 14.5874 20.6298 14.2542L20.6713 14.2404L20.6937 14.2329Z" fill="#333333"/>
<path d="M20.6319 14.4783C20.6255 14.5039 20.618 14.5306 20.6106 14.5561C19.5732 14.8852 18.4591 14.883 17.423 14.5497L17.3526 14.5263C16.3147 14.1934 15.1983 14.196 14.1619 14.5338C13.1024 14.8802 11.9602 14.8802 10.9008 14.5338C9.8614 14.1962 8.74188 14.1962 7.70252 14.5338L7.66201 14.5465C7.03508 14.75 6.37521 14.8324 5.71749 14.7896C5.71109 14.7662 5.70363 14.7438 5.69724 14.7214C6.35322 14.7648 7.01145 14.6823 7.63643 14.4783L7.67694 14.4655C8.7315 14.1228 9.86751 14.1228 10.9221 14.4655C11.9656 14.8067 13.0906 14.8067 14.1342 14.4655C15.1861 14.1212 16.32 14.1179 17.374 14.4559L17.4443 14.4794C18.4778 14.8125 19.5899 14.8125 20.6234 14.4794L20.6319 14.4783Z" fill="#333333"/>
<path d="M20.5636 14.7138C20.5562 14.7405 20.5476 14.7661 20.5402 14.7927C19.5222 15.0993 18.4351 15.0893 17.423 14.7639L17.3526 14.7415C16.3147 14.4082 15.1982 14.4108 14.1619 14.749C13.1023 15.0944 11.9603 15.0944 10.9007 14.749C9.86137 14.4114 8.74185 14.4114 7.7025 14.749L7.66199 14.7629C7.05771 14.9595 6.42248 15.0437 5.78783 15.0113C5.7793 14.9878 5.77184 14.9654 5.76437 14.942C6.39848 14.9744 7.03313 14.8894 7.6364 14.6914L7.67691 14.6776C8.73156 14.3353 9.86741 14.3353 10.922 14.6776C11.9656 15.0182 13.0905 15.0182 14.1341 14.6776C15.186 14.3328 16.32 14.3294 17.3739 14.668L17.4443 14.6904C18.4569 15.0189 19.5462 15.0271 20.5636 14.7138Z" fill="#333333"/>
<path d="M20.4859 14.9581C20.4774 14.9848 20.4689 15.0104 20.4582 15.037C19.4635 15.3196 18.4074 15.3014 17.4231 14.9848L17.3527 14.9613C16.3148 14.6285 15.1983 14.6311 14.162 14.9688C13.1025 15.3152 11.9603 15.3152 10.9008 14.9688C9.86147 14.6312 8.74195 14.6312 7.7026 14.9688L7.66209 14.9816C7.08493 15.1687 6.47959 15.2538 5.87321 15.2332C5.86468 15.2108 5.85509 15.1873 5.84763 15.1639C6.45527 15.1882 7.0624 15.1044 7.64077 14.9165L7.68128 14.9038C8.73584 14.561 9.87185 14.561 10.9264 14.9038C11.9701 15.2438 13.0948 15.2438 14.1385 14.9038C15.1905 14.5595 16.3243 14.5561 17.3783 14.8942L17.4487 14.9176C18.4344 15.2338 19.4921 15.2479 20.4859 14.9581Z" fill="#333333"/>
<path d="M20.3983 15.203C20.3887 15.2297 20.3791 15.2552 20.3684 15.2808C19.9313 15.3975 19.4808 15.4562 19.0284 15.4557C18.4834 15.4559 17.9417 15.3711 17.4229 15.2041L17.3525 15.1817C16.3147 14.8478 15.198 14.8504 14.1617 15.1891C13.1021 15.5345 11.9602 15.5345 10.9006 15.1891C9.86127 14.8516 8.74175 14.8516 7.70239 15.1891L7.66188 15.203C7.11315 15.3815 6.53842 15.4669 5.96149 15.4557L5.93271 15.3874C6.51125 15.4006 7.08788 15.3162 7.63843 15.138L7.67894 15.1241C8.7335 14.7814 9.86951 14.7814 10.9241 15.1241C11.9678 15.4642 13.0925 15.4642 14.1362 15.1241C15.1881 14.7793 16.322 14.776 17.376 15.1145L17.4463 15.1369C18.4031 15.4448 19.4287 15.4678 20.3983 15.203Z" fill="#333333"/>
<path d="M20.3013 15.4483L20.2694 15.5272C19.3289 15.755 18.3437 15.7181 17.4229 15.4206L17.3526 15.3971C16.3146 15.0642 15.1982 15.0669 14.1618 15.4046C13.1024 15.751 11.9601 15.751 10.9007 15.4046C9.86133 15.067 8.74181 15.067 7.70245 15.4046L7.66194 15.4174C7.14343 15.5859 6.60165 15.6719 6.05643 15.6722C6.04684 15.6498 6.03618 15.6274 6.02658 15.6039C6.57455 15.6064 7.11941 15.5215 7.64062 15.3523L7.68113 15.3395C8.73561 14.9963 9.87179 14.9963 10.9263 15.3395C11.97 15.6796 13.0947 15.6796 14.1384 15.3395C15.1903 14.9953 16.3242 14.9919 17.3782 15.33L17.4485 15.3534C18.3718 15.6517 19.3603 15.6846 20.3013 15.4483Z" fill="#333333"/>
<path d="M20.1948 15.6947C20.1831 15.7202 20.1714 15.7458 20.1586 15.7714C19.7877 15.8549 19.4087 15.8968 19.0285 15.8961C18.4835 15.8964 17.9418 15.8115 17.423 15.6445L17.3526 15.6222C16.3149 15.2883 15.1981 15.2909 14.1619 15.6296C13.1023 15.975 11.9604 15.975 10.9008 15.6296C9.8614 15.2921 8.74188 15.2921 7.70252 15.6296L7.66201 15.6435C7.177 15.8018 6.6711 15.887 6.16098 15.8961C6.14925 15.8738 6.13859 15.8514 6.12793 15.8279C6.64187 15.8214 7.15188 15.7373 7.64069 15.5785L7.6812 15.5646C8.73585 15.2224 9.8717 15.2224 10.9263 15.5646C11.9699 15.9058 13.0949 15.9058 14.1384 15.5646C15.1905 15.2207 16.3243 15.2177 17.3782 15.5561L17.4486 15.5785C18.337 15.863 19.2856 15.9032 20.1948 15.6947Z" fill="#333333"/>
<path d="M20.0765 15.9409C20.0648 15.9676 20.0509 15.9932 20.0371 16.0188C19.1667 16.1892 18.2673 16.136 17.423 15.8642L17.3527 15.8407C16.3147 15.5078 15.1983 15.5105 14.1619 15.8482C13.1025 16.1946 11.9602 16.1946 10.9008 15.8482C9.86135 15.5111 8.74199 15.5111 7.70256 15.8482L7.66205 15.861C7.21368 16.0072 6.74735 16.0911 6.27615 16.1104C6.26335 16.0884 6.25163 16.066 6.24097 16.0433C6.71823 16.0268 7.19084 15.9436 7.64499 15.7959L7.6855 15.7832C8.73998 15.4399 9.87616 15.4399 10.9306 15.7832C11.9743 16.1232 13.099 16.1232 14.1427 15.7832C15.1947 15.4389 16.3285 15.4355 17.3825 15.7736L17.4529 15.797C18.3005 16.0698 19.2041 16.1193 20.0765 15.9409Z" fill="#333333"/>
<path d="M19.9475 16.184C19.9336 16.2096 19.9198 16.2351 19.9048 16.2607C19.6147 16.3106 19.3208 16.3356 19.0264 16.3354C18.4814 16.3356 17.9397 16.2507 17.4209 16.0838L17.3505 16.0614C16.3127 15.7275 15.196 15.7301 14.1597 16.0688C13.1001 16.4142 11.9582 16.4142 10.8986 16.0688C9.85926 15.7313 8.73974 15.7313 7.70039 16.0688L7.65988 16.0827C7.24753 16.2171 6.81984 16.2988 6.38698 16.3258C6.37419 16.3034 6.3614 16.281 6.34967 16.2586C6.78788 16.2341 7.22109 16.1531 7.63856 16.0177L7.67907 16.0038C8.73371 15.6616 9.86956 15.6616 10.9242 16.0038C11.9677 16.345 13.0928 16.345 14.1363 16.0038C15.1884 15.6599 16.3222 15.6569 17.3761 15.9953L17.4465 16.0177C18.2539 16.2773 19.1128 16.3344 19.9475 16.184Z" fill="#333333"/>
<path d="M19.811 16.4278C19.7972 16.4534 19.7822 16.4779 19.7673 16.5024C18.9806 16.6142 18.1787 16.5464 17.4219 16.3041L17.3516 16.2807C16.3136 15.9478 15.1972 15.9504 14.1608 16.2881C13.1014 16.6346 11.9591 16.6346 10.8997 16.2881C9.86032 15.9506 8.74081 15.9506 7.70145 16.2881L7.66094 16.3009C7.28905 16.4221 6.90455 16.5004 6.51491 16.5344C6.50105 16.5131 6.48826 16.4917 6.47546 16.4694C6.87206 16.4377 7.26354 16.3594 7.64175 16.2359L7.68226 16.2231C8.73674 15.8798 9.87292 15.8798 10.9274 16.2231C11.9711 16.5631 13.0958 16.5631 14.1395 16.2231C15.1915 15.8788 16.3253 15.8755 17.3793 16.2135L17.4497 16.237C18.2113 16.4828 19.0197 16.5481 19.811 16.4278Z" fill="#333333"/>
<path d="M19.6628 16.6688C19.6468 16.6944 19.6308 16.7189 19.6138 16.7435C19.4195 16.7657 19.2241 16.7767 19.0285 16.7765C18.4835 16.7768 17.9418 16.6919 17.423 16.5249L17.3526 16.5025C16.3148 16.1686 15.1981 16.1713 14.1619 16.51C13.1023 16.8554 11.9603 16.8554 10.9007 16.51C9.86139 16.1724 8.74187 16.1724 7.70252 16.51L7.66201 16.5239C7.33159 16.6312 6.99123 16.7052 6.64604 16.7445C6.63111 16.7232 6.61725 16.7019 6.60339 16.6795C6.95591 16.6423 7.30357 16.5684 7.64069 16.4588L7.6812 16.445C8.73584 16.1027 9.87169 16.1027 10.9263 16.445C11.9699 16.7861 13.0949 16.7861 14.1384 16.445C15.1905 16.101 16.3243 16.0981 17.3782 16.4364L17.4486 16.4588C18.1628 16.6883 18.9182 16.76 19.6628 16.6688Z" fill="#333333"/>
<path d="M19.504 16.9055C19.4883 16.9297 19.4713 16.9542 19.4528 16.9791C19.3121 16.9908 19.1703 16.9961 19.0264 16.9961C18.4814 16.9968 17.9397 16.9123 17.4209 16.7456L17.3505 16.7222C16.3125 16.3893 15.1961 16.3919 14.1597 16.7296C13.1003 17.0761 11.958 17.0761 10.8986 16.7296C9.85924 16.3921 8.73972 16.3921 7.70037 16.7296L7.65986 16.7424C7.37361 16.8358 7.07964 16.9035 6.78141 16.945C6.76542 16.9236 6.75156 16.9034 6.7377 16.8821C7.04364 16.8417 7.3452 16.7732 7.63854 16.6774L7.67905 16.6635C8.73361 16.3208 9.86962 16.3208 10.9242 16.6635C11.9679 17.0036 13.0926 17.0036 14.1363 16.6635C15.1883 16.3192 16.3221 16.3159 17.3761 16.6539L17.4464 16.6774C18.1098 16.892 18.8097 16.9696 19.504 16.9055Z" fill="#333333"/>
<path d="M19.3355 17.1432C19.3184 17.1678 19.3003 17.1912 19.2811 17.2147C19.1969 17.2147 19.1127 17.2221 19.0285 17.2221C18.4834 17.2224 17.9417 17.1375 17.4229 16.9705L17.3526 16.9481C16.3148 16.6143 15.198 16.6169 14.1618 16.9556C13.1022 17.301 11.9603 17.301 10.9007 16.9556C9.86134 16.618 8.74182 16.618 7.70246 16.9556L7.66195 16.9695C7.42049 17.0462 7.17351 17.1043 6.92316 17.1432C6.90824 17.123 6.89225 17.1027 6.87839 17.0814C7.13544 17.0401 7.38887 16.9788 7.63637 16.898L7.67688 16.8842C8.73152 16.5419 9.86737 16.5419 10.922 16.8842C11.9655 17.2253 13.0906 17.2253 14.1341 16.8842C15.1862 16.5402 16.32 16.5373 17.3739 16.8756L17.4443 16.898C18.0539 17.0969 18.6953 17.18 19.3355 17.1432Z" fill="#333333"/>
<path d="M19.1584 17.3652L19.1008 17.4356H19.0284C18.4834 17.4362 17.9417 17.3517 17.4228 17.1851L17.3525 17.1616C16.3145 16.8287 15.1981 16.8314 14.1617 17.1691C13.1023 17.5155 11.96 17.5155 10.9006 17.1691C9.86123 16.8315 8.74171 16.8315 7.70236 17.1691L7.66184 17.1819C7.47034 17.2446 7.27525 17.2959 7.07763 17.3354L7.02859 17.2746C7.23578 17.2353 7.44018 17.1826 7.64052 17.1168L7.68103 17.103C8.7356 16.7602 9.87161 16.7602 10.9262 17.103C11.9699 17.443 13.0946 17.443 14.1383 17.103C15.1902 16.7587 16.3241 16.7553 17.3781 17.0934L17.4484 17.1168C18.0001 17.2966 18.5784 17.3807 19.1584 17.3652Z" fill="#333333"/>
<path d="M18.9708 17.5878L18.9111 17.655C18.4041 17.6451 17.9013 17.5611 17.4186 17.4055L17.3483 17.3831C16.3105 17.0493 15.1937 17.0519 14.1575 17.3906C13.0979 17.736 11.956 17.736 10.8964 17.3906C9.85701 17.0531 8.73749 17.0531 7.69814 17.3906L7.65763 17.4045C7.51584 17.4503 7.37299 17.4908 7.2312 17.5239C7.21414 17.5036 7.19708 17.4844 7.18109 17.4642C7.33567 17.4301 7.48919 17.3885 7.6395 17.3394L7.68001 17.3256C8.73466 16.9833 9.87051 16.9833 10.9252 17.3256C11.9687 17.6667 13.0937 17.6667 14.1372 17.3256C15.1893 16.9817 16.3232 16.9787 17.377 17.3171L17.4474 17.3394C17.9399 17.4983 18.4534 17.582 18.9708 17.5878Z" fill="#333333"/>
<path d="M18.7748 17.8011C18.7556 17.8234 18.7353 17.8448 18.714 17.8661C18.2748 17.8419 17.8405 17.7613 17.4219 17.6262L17.3515 17.6028C16.3136 17.2699 15.1972 17.2725 14.1608 17.6102C13.1013 17.9567 11.9591 17.9567 10.8997 17.6102C9.8603 17.2727 8.74078 17.2727 7.70142 17.6102L7.66091 17.623C7.57136 17.6518 7.48075 17.6795 7.39013 17.7019L7.33896 17.6454C7.44024 17.6198 7.54045 17.59 7.63959 17.558L7.6801 17.5441C8.73466 17.2014 9.87068 17.2014 10.9252 17.5441C11.9689 17.8842 13.0936 17.8842 14.1373 17.5441C15.1893 17.1999 16.3231 17.1965 17.3771 17.5345L17.4475 17.5569C17.877 17.6973 18.3234 17.7794 18.7748 17.8011Z" fill="#333333"/>
<path d="M18.5742 18.0083C18.5529 18.0296 18.5316 18.0509 18.5092 18.0712C18.14 18.0358 17.7758 17.9603 17.4229 17.8462L17.3525 17.8238C16.3147 17.4899 15.198 17.4925 14.1618 17.8313C13.1022 18.1767 11.9602 18.1767 10.9006 17.8313C9.86128 17.4937 8.74176 17.4937 7.7024 17.8313L7.66189 17.8451L7.55529 17.8782L7.50092 17.8217C7.54782 17.81 7.59473 17.795 7.64057 17.7801L7.68108 17.7663C8.73572 17.424 9.87158 17.424 10.9262 17.7663C11.9697 18.1074 13.0948 18.1074 14.1383 17.7663C15.1904 17.4223 16.3242 17.4193 17.3781 17.7577L17.4485 17.7801C17.8138 17.8987 18.1915 17.9753 18.5742 18.0083Z" fill="#333333"/>
<path d="M18.3664 18.2092C18.344 18.2305 18.3227 18.2508 18.2992 18.2699C18.0017 18.2297 17.7085 18.163 17.4229 18.0706L17.3525 18.0471C16.3146 17.7143 15.1981 17.7169 14.1618 18.0546C13.1023 18.401 11.9601 18.401 10.9006 18.0546C9.86722 17.7173 8.75383 17.7139 7.7184 18.045L7.6619 17.9906L7.67682 17.9853C8.73138 17.6426 9.86739 17.6426 10.922 17.9853C11.9657 18.3253 13.0903 18.3253 14.134 17.9853C15.186 17.641 16.3198 17.6377 17.3738 17.9757L17.4442 17.9981C17.744 18.0981 18.0529 18.1688 18.3664 18.2092Z" fill="#333333"/>
<path d="M18.1522 18.395C18.1298 18.4142 18.1074 18.4334 18.0839 18.4515C17.86 18.4119 17.6392 18.3567 17.423 18.2862L17.3526 18.2639C16.3148 17.93 15.1981 17.9326 14.1619 18.2713C13.1022 18.6167 11.9603 18.6167 10.9007 18.2713C9.92702 17.953 8.88076 17.9308 7.89439 18.2073L7.83682 18.154C8.84713 17.8616 9.922 17.8794 10.922 18.2052C11.9656 18.5464 13.0906 18.5464 14.1341 18.2052C15.1862 17.8613 16.3201 17.8583 17.3739 18.1967L17.4443 18.2191C17.6757 18.2947 17.9123 18.3535 18.1522 18.395Z" fill="#333333"/>
<path d="M17.9368 18.572L17.8654 18.6275C17.7162 18.5944 17.5691 18.5539 17.423 18.507L17.3526 18.4836C16.3147 18.1507 15.1983 18.1533 14.1619 18.491C13.1024 18.8375 11.9602 18.8375 10.9007 18.491C9.99108 18.1941 9.01702 18.1547 8.08631 18.3769L8.02341 18.3236C8.98039 18.0855 9.98516 18.1225 10.9221 18.4302C11.9658 18.7703 13.0905 18.7703 14.1342 18.4302C15.1861 18.086 16.32 18.0826 17.374 18.4207L17.4443 18.443C17.606 18.495 17.7704 18.5381 17.9368 18.572Z" fill="#333333"/>
<path d="M17.7141 18.7425C17.6906 18.761 17.6672 18.778 17.6437 18.7937C17.5701 18.7745 17.4966 18.7521 17.423 18.7286L17.3527 18.7062C16.3149 18.3723 15.1981 18.375 14.1619 18.7137C13.1023 19.0591 11.9604 19.0591 10.9008 18.7137C10.0608 18.4395 9.16466 18.3845 8.29742 18.5538L8.22919 18.4984C9.12454 18.3133 10.0527 18.3647 10.9221 18.6476C11.9656 18.9888 13.0907 18.9888 14.1342 18.6476C15.1863 18.3037 16.3201 18.3007 17.374 18.6391L17.4443 18.6615C17.5339 18.6902 17.6235 18.7169 17.7141 18.7425Z" fill="#333333"/>
<path d="M17.4955 18.896C17.471 18.9141 17.4465 18.9301 17.4219 18.9461L17.3548 18.9237C16.3168 18.5909 15.2004 18.5935 14.164 18.9312C13.1046 19.2776 11.9623 19.2776 10.9029 18.9312C10.1397 18.6822 9.32917 18.614 8.53513 18.7318C8.50954 18.7141 8.48396 18.6949 8.45837 18.6743C9.28388 18.5411 10.1292 18.6069 10.9242 18.8662C11.9679 19.2062 13.0926 19.2062 14.1363 18.8662C15.1883 18.5219 16.3221 18.5185 17.3761 18.8566L17.4465 18.879L17.4955 18.896Z" fill="#333333"/>
<path d="M17.2651 19.0462L17.1883 19.0942C16.1963 18.8113 15.1423 18.8313 14.1618 19.1518C13.1022 19.4972 11.9602 19.4972 10.9006 19.1518C10.2241 18.9305 9.50898 18.8517 8.80046 18.9204C8.77168 18.9013 8.74183 18.881 8.71304 18.8597C9.45704 18.777 10.2101 18.854 10.922 19.0857C11.9655 19.4269 13.0905 19.4269 14.134 19.0857C15.1495 18.7547 16.2417 18.7409 17.2651 19.0462Z" fill="#333333"/>
<path d="M17.0147 19.1979C16.9859 19.216 16.956 19.232 16.9273 19.2469C16.0112 19.0372 15.0553 19.0803 14.1619 19.3716C13.1024 19.7181 11.9602 19.7181 10.9007 19.3716C10.3238 19.1834 9.7183 19.0982 9.11186 19.12L9.00525 19.0561C9.65281 19.0195 10.3015 19.1044 10.9178 19.3066C11.9615 19.6466 13.0862 19.6466 14.1299 19.3066C15.0626 19.0022 16.0617 18.9646 17.0147 19.1979Z" fill="#333333"/>
<path d="M16.7268 19.3565C16.6937 19.3746 16.6607 19.3917 16.6266 19.4077C15.8019 19.2699 14.9561 19.3343 14.1618 19.5953C13.1022 19.9407 11.9603 19.9407 10.9007 19.5953C10.4476 19.4467 9.97621 19.3617 9.49984 19.3426C9.45506 19.3202 9.41135 19.2968 9.36765 19.2712C9.89479 19.277 10.4179 19.3636 10.9188 19.5281C11.9623 19.8693 13.0874 19.8693 14.1309 19.5281C14.9681 19.2545 15.8607 19.1954 16.7268 19.3565Z" fill="#333333"/>
<path d="M16.3889 19.5237L16.2621 19.5813C15.5536 19.5122 14.8385 19.5906 14.1619 19.8116C13.1024 20.158 11.9602 20.158 10.9008 19.8116C10.6324 19.7234 10.3571 19.6578 10.0777 19.6154C10.0042 19.5845 9.9317 19.5525 9.86453 19.5184C10.227 19.5565 10.5843 19.633 10.9306 19.7466C11.9743 20.0866 13.099 20.0866 14.1427 19.7466C14.8666 19.511 15.6329 19.435 16.3889 19.5237Z" fill="#333333"/>
<path d="M15.9475 19.7125C15.891 19.7349 15.8334 19.7563 15.7759 19.7765C15.2276 19.775 14.6827 19.8613 14.1618 20.0324C13.8723 20.1257 13.5752 20.1935 13.2738 20.2349H13.1245C12.9486 20.2349 12.7738 20.2296 12.6011 20.2168C13.121 20.2111 13.637 20.1256 14.1309 19.9631C14.7169 19.7731 15.332 19.6883 15.9475 19.7125Z" fill="#333333"/>
<path d="M15.2033 19.96C14.8801 20.0493 14.5514 20.1173 14.2193 20.1636C14.5397 20.063 14.8693 19.9948 15.2033 19.96Z" fill="#333333"/>
<path d="M12.5308 19.908C16.8177 19.908 20.2929 16.4328 20.2929 12.1459C20.2929 7.859 16.8177 4.38379 12.5308 4.38379C8.24389 4.38379 4.76868 7.859 4.76868 12.1459C4.76868 16.4328 8.24389 19.908 12.5308 19.908Z" fill="#333333"/>
<path d="M10.6737 9.59768L14.5457 9.58808L14.5435 8.73096L17.4571 11.3023L10.6779 11.3119L10.6737 9.59768Z" fill="#F2F2F2"/>
<path d="M14.3888 14.6947L10.5158 14.7043L10.5179 15.5614L7.60538 12.9901L14.3846 12.9805L14.3888 14.6947Z" fill="#F2F2F2"/>
</svg>
