<svg width="33" height="32" viewBox="0 0 33 32" fill="none" xmlns="http://www.w3.org/2000/svg">
<path d="M12.6242 8.52979C12.4558 8.56641 12.2894 8.61176 12.1256 8.66563L12.0808 8.68008C11.7676 8.78229 11.4461 8.85676 11.1198 8.90263C11.1929 8.86104 11.2681 8.82341 11.3453 8.78991C11.5867 8.74642 11.8247 8.68606 12.0577 8.60927L12.1025 8.59482L12.2644 8.54713C12.3565 8.53671 12.4491 8.5314 12.5418 8.53123H12.6256L12.6242 8.52979Z" fill="#333333"/>
<path d="M14.7487 8.6986C13.8684 8.56047 12.9679 8.63126 12.12 8.90525L12.0752 8.92115C11.6271 9.06677 11.1624 9.15561 10.6922 9.18561C10.7269 9.15671 10.763 9.12925 10.7991 9.10324C11.2252 9.06692 11.6456 8.98157 12.0521 8.84889L12.0969 8.83444C12.9146 8.56974 13.7813 8.4922 14.6331 8.60756L14.7487 8.6986Z" fill="#333333"/>
<path d="M15.1243 9.01368C14.1292 8.78505 13.0908 8.831 12.1198 9.14663L12.075 9.16108C11.5394 9.33543 10.9807 9.42894 10.4175 9.43855C10.4412 9.41124 10.4668 9.38564 10.4941 9.36195C11.0235 9.34486 11.5479 9.25341 12.0519 9.09027L12.0967 9.07437C13.0326 8.77256 14.0302 8.71583 14.9942 8.90963L15.1243 9.01368Z" fill="#333333"/>
<path d="M15.5507 9.36884C14.4349 9.01919 13.2379 9.02525 12.1257 9.38619L12.0809 9.40064C11.4783 9.5965 10.8473 9.69028 10.2138 9.6781C10.2326 9.65209 10.2528 9.62752 10.2745 9.60295C10.8798 9.60928 11.4821 9.51703 12.0578 9.32983L12.1026 9.31537C13.1727 8.96878 14.3212 8.94515 15.4047 9.24745L15.5507 9.36884Z" fill="#333333"/>
<path d="M15.9914 9.73751C15.8671 9.70716 15.7443 9.67104 15.6215 9.63057C14.4853 9.26205 13.2618 9.26205 12.1257 9.63057L12.0809 9.64502C11.4261 9.85769 10.7381 9.94974 10.0505 9.91671C10.0645 9.89225 10.08 9.8686 10.0967 9.8459C10.7613 9.87154 11.4252 9.77957 12.0578 9.57421L12.1026 9.55976C13.2536 9.18548 14.4936 9.18548 15.6446 9.55976C15.7139 9.58288 15.7891 9.60456 15.8556 9.62335L15.9914 9.73751Z" fill="#333333"/>
<path d="M16.2081 9.94978V10.0278C16.0097 9.98618 15.8139 9.93359 15.6213 9.8703C14.4853 9.50108 13.2616 9.50108 12.1256 9.8703L12.0808 9.88475C11.3819 10.1114 10.6459 10.2012 9.91309 10.1492C9.92387 10.1238 9.93643 10.0992 9.95066 10.0755C10.6619 10.1223 11.3755 10.033 12.0533 9.81249L12.0981 9.79804C13.2491 9.42376 14.4891 9.42376 15.6401 9.79804C15.8263 9.85959 16.016 9.91026 16.2081 9.94978Z" fill="#333333"/>
<path d="M16.2082 10.1911V10.2677C16.0099 10.226 15.814 10.1735 15.6215 10.1102C14.4855 9.74094 13.2617 9.74094 12.1257 10.1102L12.0809 10.1246C11.3476 10.3596 10.5744 10.4436 9.80774 10.3717C9.81641 10.3472 9.82797 10.3226 9.83953 10.298C10.5875 10.3621 11.3407 10.2761 12.0549 10.0451L12.0997 10.0307C13.2508 9.65709 14.4906 9.65709 15.6417 10.0307C15.8273 10.0951 16.0164 10.1486 16.2082 10.1911Z" fill="#333333"/>
<path d="M16.2081 10.4328V10.5166C16.0098 10.475 15.8139 10.4224 15.6214 10.3591C14.4855 9.98917 13.2615 9.98917 12.1256 10.3591L12.0808 10.3735C11.322 10.6197 10.52 10.7039 9.72668 10.6207C9.73391 10.5961 9.74258 10.5715 9.74981 10.5484C10.5292 10.6291 11.3169 10.5454 12.062 10.3027L12.1068 10.2883C13.2578 9.914 14.4978 9.914 15.6488 10.2883C15.8323 10.347 16.0191 10.3953 16.2081 10.4328Z" fill="#333333"/>
<path d="M16.2083 10.6729V10.7495C16.0099 10.7078 15.8141 10.6552 15.6215 10.5919C14.4854 10.2234 13.2619 10.2234 12.1258 10.5919L12.081 10.6064C11.3013 10.8574 10.4768 10.9382 9.66327 10.8434C9.66751 10.819 9.67331 10.7948 9.68061 10.7711C10.4811 10.862 11.2917 10.7802 12.0578 10.5312L12.1026 10.5168C13.2537 10.1425 14.4937 10.1425 15.6447 10.5168C15.8294 10.5796 16.0175 10.6317 16.2083 10.6729Z" fill="#333333"/>
<path d="M16.208 10.9127V10.9892C16.0096 10.9476 15.8138 10.895 15.6213 10.8317C14.4852 10.4625 13.2615 10.4625 12.1255 10.8317L12.0807 10.8462C11.2887 11.1025 10.4503 11.1829 9.62396 11.0817C9.62396 11.0572 9.62396 11.0312 9.63552 11.0066C10.451 11.1067 11.2786 11.0278 12.0605 10.7754L12.1053 10.7595C13.2563 10.3852 14.4963 10.3852 15.6473 10.7595C15.8311 10.8212 16.0183 10.8724 16.208 10.9127Z" fill="#333333"/>
<path d="M16.2082 11.1524V11.2304C16.0099 11.1888 15.814 11.1362 15.6215 11.0729C14.4856 10.703 13.2616 10.703 12.1257 11.0729L12.0809 11.0874C11.2806 11.3468 10.4328 11.4262 9.59821 11.32C9.59821 11.2955 9.59821 11.2709 9.59821 11.2463C10.4241 11.351 11.2628 11.2725 12.0549 11.0166L12.0997 11.0021C13.2508 10.6285 14.4906 10.6285 15.6417 11.0021C15.8275 11.0631 16.0167 11.1133 16.2082 11.1524Z" fill="#333333"/>
<path d="M16.2081 11.3922V11.4702C16.0098 11.4286 15.8139 11.376 15.6214 11.3127C14.4854 10.9435 13.2616 10.9435 12.1256 11.3127L12.0808 11.3272C11.2786 11.5873 10.4288 11.6668 9.59229 11.5598V11.4847C10.4208 11.5922 11.263 11.5143 12.0577 11.2563L12.1025 11.2419C13.2535 10.8676 14.4935 10.8676 15.6445 11.2419C15.8293 11.3028 16.0175 11.353 16.2081 11.3922Z" fill="#333333"/>
<path d="M16.2081 11.6322V11.7102C16.0098 11.6686 15.8139 11.616 15.6214 11.5527C14.4852 11.1842 13.2617 11.1842 12.1256 11.5527L12.0808 11.5686C11.2787 11.829 10.4287 11.908 9.59229 11.7998V11.7247C10.4208 11.8322 11.263 11.7542 12.0577 11.4963L12.1025 11.4819C13.2535 11.1076 14.4935 11.1076 15.6445 11.4819C15.8293 11.5428 16.0175 11.593 16.2081 11.6322Z" fill="#333333"/>
<path d="M16.2081 11.8721V11.9501C16.0098 11.9085 15.8139 11.8559 15.6214 11.7926C14.4854 11.4234 13.2616 11.4234 12.1256 11.7926L12.0808 11.807C11.2786 12.0672 10.4288 12.1466 9.59229 12.0397V11.9617C10.4208 12.069 11.2627 11.9915 12.0577 11.7348L12.1025 11.7189C13.2537 11.346 14.4933 11.346 15.6445 11.7189C15.8292 11.7808 16.0174 11.8319 16.2081 11.8721Z" fill="#333333"/>
<path d="M16.2081 12.1146V12.1912C16.0098 12.1495 15.8139 12.0969 15.6214 12.0336C14.4855 11.6637 13.2615 11.6637 12.1256 12.0336L12.0808 12.0481C11.2786 12.3082 10.4288 12.3877 9.59229 12.2808V12.2042C10.4207 12.3122 11.2629 12.2347 12.0577 11.9773L12.1025 11.9628C13.2535 11.5886 14.4935 11.5886 15.6445 11.9628C15.8293 12.0242 16.0175 12.0749 16.2081 12.1146Z" fill="#333333"/>
<path d="M16.2081 12.3548V12.4314C16.0098 12.3898 15.8139 12.3372 15.6214 12.2739C14.4852 11.9054 13.2617 11.9054 12.1256 12.2739L12.0808 12.2883C11.2786 12.5485 10.4288 12.6279 9.59229 12.521V12.4459C10.4208 12.5534 11.263 12.4754 12.0577 12.2175L12.1025 12.2031C13.2535 11.8288 14.4935 11.8288 15.6445 12.2031C15.8293 12.2644 16.0175 12.3151 16.2081 12.3548Z" fill="#333333"/>
<path d="M16.2081 12.5945V12.6711C16.0098 12.6294 15.8139 12.5769 15.6214 12.5136C14.4852 12.145 13.2617 12.145 12.1256 12.5136L12.0808 12.5295C11.2787 12.7899 10.4287 12.8689 9.59229 12.7607V12.6841C10.4211 12.7907 11.2632 12.7118 12.0577 12.4529L12.1025 12.4384C13.2535 12.0641 14.4935 12.0641 15.6445 12.4384C15.8292 12.5013 16.0174 12.5534 16.2081 12.5945Z" fill="#333333"/>
<path d="M16.2081 12.8289V12.9055C16.0098 12.8639 15.8139 12.8113 15.6214 12.748C14.4854 12.3788 13.2616 12.3788 12.1256 12.748L12.0808 12.7624C11.2786 13.0226 10.4288 13.102 9.59229 12.9951V12.9185C10.4208 13.0259 11.2627 12.9484 12.0577 12.6916L12.1025 12.6772C13.2536 12.3036 14.4934 12.3036 15.6445 12.6772C15.8293 12.7385 16.0175 12.7892 16.2081 12.8289Z" fill="#333333"/>
<path d="M16.2081 13.0746V13.1526C16.0098 13.111 15.8139 13.0584 15.6214 12.9951C14.4852 12.6265 13.2617 12.6265 12.1256 12.9951L12.0808 13.0095C11.2786 13.2697 10.4288 13.3491 9.59229 13.2422V13.167C10.4208 13.2746 11.263 13.1966 12.0577 12.9387L12.1025 12.9243C13.2535 12.55 14.4935 12.55 15.6445 12.9243C15.8293 12.9852 16.0175 13.0353 16.2081 13.0746Z" fill="#333333"/>
<path d="M16.2081 13.3143V13.3923C16.0098 13.3507 15.8139 13.2981 15.6214 13.2348C14.4852 12.8663 13.2617 12.8663 12.1256 13.2348L12.0808 13.2493C11.2786 13.5094 10.4288 13.5889 9.59229 13.4819V13.4068C10.4208 13.5144 11.263 13.4364 12.0577 13.1785L12.1025 13.164C13.2535 12.7897 14.4935 12.7897 15.6445 13.164C15.8293 13.2249 16.0175 13.2751 16.2081 13.3143Z" fill="#333333"/>
<path d="M16.2081 13.5513V13.6294C16.0098 13.5877 15.8139 13.5351 15.6214 13.4718C14.4854 13.1026 13.2616 13.1026 12.1256 13.4718L12.0808 13.4863C11.2787 13.7467 10.4287 13.8257 9.59229 13.7175V13.6424C10.4208 13.7497 11.2627 13.6722 12.0577 13.4155L12.1025 13.3996C13.2536 13.026 14.4934 13.026 15.6445 13.3996C15.8293 13.461 16.0175 13.5116 16.2081 13.5513Z" fill="#333333"/>
<path d="M16.2081 13.7955V13.8735C16.0098 13.8319 15.8139 13.7793 15.6214 13.716C14.4855 13.3461 13.2615 13.3461 12.1256 13.716L12.0808 13.7304C11.2786 13.9906 10.4288 14.07 9.59229 13.9631V13.8865C10.4208 13.9939 11.2627 13.9164 12.0577 13.6596L12.1025 13.6452C13.2536 13.2716 14.4934 13.2716 15.6445 13.6452C15.8293 13.7061 16.0175 13.7562 16.2081 13.7955Z" fill="#333333"/>
<path d="M16.2081 14.037V14.1136C16.0098 14.0719 15.8139 14.0193 15.6214 13.956C14.4852 13.5875 13.2617 13.5875 12.1256 13.956L12.0808 13.9705C11.2786 14.2306 10.4288 14.3101 9.59229 14.2031V14.1294C10.4208 14.237 11.263 14.159 12.0577 13.9011L12.1025 13.8867C13.2535 13.5124 14.4935 13.5124 15.6445 13.8867C15.8293 13.9475 16.0175 13.9977 16.2081 14.037Z" fill="#333333"/>
<path d="M16.2081 14.2737V14.3502C16.0098 14.3086 15.8139 14.256 15.6214 14.1927C14.4852 13.8242 13.2617 13.8242 12.1256 14.1927L12.0808 14.2086C11.2785 14.4683 10.4287 14.5473 9.59229 14.4398V14.3647C10.4214 14.4699 11.2635 14.3895 12.0577 14.1291L12.1025 14.1147C13.2535 13.7404 14.4935 13.7404 15.6445 14.1147C15.8291 14.1785 16.0173 14.2316 16.2081 14.2737Z" fill="#333333"/>
<path d="M16.208 14.5166V14.5932C16.0097 14.5515 15.8138 14.4989 15.6213 14.4357C14.4838 14.0642 13.2578 14.0632 12.1197 14.4328L12.0749 14.4472C11.2727 14.7074 10.4229 14.7868 9.58643 14.6799V14.6033C10.4149 14.7107 11.2569 14.6332 12.0518 14.3764L12.0966 14.3605C13.2477 13.9869 14.4875 13.9869 15.6386 14.3605C15.8252 14.4236 16.0153 14.4757 16.208 14.5166Z" fill="#333333"/>
<path d="M16.2081 14.7562V14.8343C16.0098 14.7926 15.8139 14.74 15.6214 14.6768C14.4855 14.3068 13.2615 14.3068 12.1256 14.6768L12.0808 14.6912C11.2786 14.9514 10.4288 15.0308 9.59229 14.9239V14.8516C10.4209 14.9578 11.2627 14.8798 12.0577 14.6233L12.1025 14.6088C13.2535 14.2346 14.4935 14.2346 15.6445 14.6088C15.8294 14.6688 16.0175 14.718 16.2081 14.7562Z" fill="#333333"/>
<path d="M16.2081 14.9966V15.0746C16.0098 15.033 15.8139 14.9804 15.6214 14.9171C14.4852 14.5485 13.2617 14.5485 12.1256 14.9171L12.0808 14.9315C11.7726 15.0293 11.4563 15.0995 11.1357 15.1411H9.59229V15.0789C10.4207 15.187 11.2629 15.1095 12.0577 14.852L12.1025 14.8376C13.2535 14.4633 14.4935 14.4633 15.6445 14.8376C15.8291 14.9014 16.0173 14.9545 16.2081 14.9966Z" fill="#333333"/>
<path d="M15.8441 15.1411H15.5883C14.4684 14.7827 13.2645 14.7827 12.1446 15.1411H11.8931L12.0579 15.0906L12.1027 15.0761C13.2537 14.7018 14.4937 14.7018 15.6447 15.0761C15.7112 15.1079 15.7762 15.1281 15.8441 15.1411Z" fill="#333333"/>
<path d="M14.9479 15.141H14.432C14.0586 15.1034 13.6825 15.1034 13.3091 15.141H12.7889C13.5022 15.0054 14.2346 15.0054 14.9479 15.141Z" fill="#333333"/>
<path d="M11.3655 17.5125C10.7806 17.621 10.1824 17.638 9.59229 17.563V17.5125H9.83073C10.1538 17.5414 10.4788 17.5414 10.8019 17.5125H11.3655Z" fill="#333333"/>
<path d="M15.4639 17.5125C15.5159 17.5269 15.5694 17.5428 15.6214 17.5601C15.8139 17.6234 16.0098 17.676 16.2081 17.7177V17.6411C16.0436 17.6069 15.881 17.5639 15.7211 17.5125H15.4639Z" fill="#333333"/>
<path d="M12.0157 17.5125H12.2643C12.2166 17.5255 12.1689 17.5399 12.1197 17.5558L12.0749 17.5703C11.2727 17.8304 10.4229 17.9099 9.58643 17.8029V17.7278C10.4003 17.8339 11.2275 17.7604 12.0099 17.5125H12.0157Z" fill="#333333"/>
<path d="M14.7369 17.5125C15.0451 17.5588 15.3487 17.6313 15.6445 17.7292C15.8294 17.7881 16.0176 17.8364 16.2081 17.8737V17.9503C16.0098 17.9087 15.8139 17.8561 15.6214 17.7928C14.4852 17.4243 13.2617 17.4243 12.1256 17.7928L12.0808 17.8087C11.2784 18.0677 10.4287 18.1466 9.59229 18.0399V17.9648C10.4204 18.0742 11.2625 17.9982 12.0577 17.7422L12.1025 17.7278C12.3939 17.6327 12.6926 17.5616 12.9956 17.5153L14.7369 17.5125Z" fill="#333333"/>
<path d="M16.208 18.1208V18.1974C16.0097 18.1557 15.8138 18.1031 15.6213 18.0398C14.4844 17.6666 13.2584 17.6635 12.1197 18.0312L12.0749 18.0456C11.2727 18.3058 10.4229 18.3852 9.58643 18.2783V18.2017C10.4149 18.3091 11.2569 18.2316 12.0518 17.9748L12.0966 17.9604C13.2477 17.5868 14.4875 17.5868 15.6386 17.9604C15.8251 18.0249 16.0153 18.0784 16.208 18.1208Z" fill="#333333"/>
<path d="M16.2081 18.3607V18.4387C16.0098 18.3971 15.8139 18.3445 15.6214 18.2812C14.4855 17.9113 13.2615 17.9113 12.1256 18.2812L12.0808 18.2957C11.2786 18.5558 10.4288 18.6353 9.59229 18.5283V18.4532C10.4208 18.5608 11.263 18.4828 12.0577 18.2248L12.1025 18.2104C13.2535 17.8361 14.4935 17.8361 15.6445 18.2104C15.8293 18.2713 16.0175 18.3215 16.2081 18.3607Z" fill="#333333"/>
<path d="M16.2081 18.6004V18.6785C16.0098 18.6368 15.8139 18.5842 15.6214 18.521C14.4852 18.1524 13.2617 18.1524 12.1256 18.521L12.0808 18.5354C11.2786 18.7956 10.4288 18.875 9.59229 18.7681V18.6929C10.4208 18.8005 11.263 18.7225 12.0577 18.4646L12.1025 18.4501C13.2535 18.0759 14.4935 18.0759 15.6445 18.4501C15.8293 18.511 16.0175 18.5612 16.2081 18.6004Z" fill="#333333"/>
<path d="M16.208 18.8406V18.9186C16.0097 18.8769 15.8138 18.8244 15.6213 18.7611C14.4843 18.3882 13.2583 18.3857 12.1197 18.7538L12.0749 18.7683C11.2728 19.0287 10.4228 19.1077 9.58643 18.9995V18.9244C10.415 19.0319 11.2571 18.954 12.0518 18.696L12.0966 18.6816C13.2476 18.3073 14.4876 18.3073 15.6386 18.6816C15.8252 18.7456 16.0153 18.7987 16.208 18.8406Z" fill="#333333"/>
<path d="M16.2081 19.0819V19.1599C16.0098 19.1182 15.8139 19.0657 15.6214 19.0024C14.4855 18.6325 13.2615 18.6325 12.1256 19.0024L12.0808 19.0168C11.2786 19.277 10.4288 19.3564 9.59229 19.2495V19.1729C10.4208 19.2803 11.2627 19.2028 12.0577 18.946L12.1025 18.9316C13.2536 18.558 14.4934 18.558 15.6445 18.9316C15.8293 18.9924 16.0175 19.0426 16.2081 19.0819Z" fill="#333333"/>
<path d="M16.2081 19.3231V19.3997C16.0098 19.358 15.8139 19.3055 15.6214 19.2422C14.4852 18.8736 13.2617 18.8736 12.1256 19.2422L12.0808 19.2566C11.2786 19.5168 10.4288 19.5962 9.59229 19.4893V19.4141C10.4207 19.5222 11.2629 19.4447 12.0577 19.1872L12.1025 19.1728C13.2535 18.7985 14.4935 18.7985 15.6445 19.1728C15.8293 19.2337 16.0175 19.2839 16.2081 19.3231Z" fill="#333333"/>
<path d="M16.208 19.563V19.6396C16.0097 19.5979 15.8138 19.5453 15.6213 19.4821C14.484 19.1104 13.2582 19.1084 12.1197 19.4763L12.0749 19.4922C11.2725 19.7511 10.4228 19.8301 9.58643 19.7234V19.6482C10.415 19.7558 11.2571 19.6778 12.0518 19.4199L12.0966 19.4055C13.2476 19.0312 14.4876 19.0312 15.6386 19.4055C15.8252 19.469 16.0153 19.5216 16.208 19.563Z" fill="#333333"/>
<path d="M16.2081 19.803V19.8796C16.0098 19.838 15.8139 19.7854 15.6214 19.7221C14.4854 19.3529 13.2616 19.3529 12.1256 19.7221L12.0808 19.7365C11.2787 19.9969 10.4287 20.0759 9.59229 19.9677V19.8926C10.4208 20 11.2627 19.9225 12.0577 19.6657L12.1025 19.6498C13.2536 19.2762 14.4934 19.2762 15.6445 19.6498C15.8293 19.7117 16.0174 19.7628 16.2081 19.803Z" fill="#333333"/>
<path d="M16.2081 20.0428V20.1209C16.0098 20.0792 15.8139 20.0266 15.6214 19.9633C14.4855 19.5934 13.2615 19.5934 12.1256 19.9633L12.0808 19.9778C11.2786 20.2379 10.4288 20.3174 9.59229 20.2105V20.1353C10.4207 20.2424 11.2625 20.1654 12.0577 19.9099L12.1025 19.8954C13.2536 19.5218 14.4934 19.5218 15.6445 19.8954C15.8294 19.9553 16.0176 20.0045 16.2081 20.0428Z" fill="#333333"/>
<path d="M16.208 20.283V20.361C16.0097 20.3194 15.8138 20.2668 15.6213 20.2035C14.4839 19.8323 13.2581 19.8308 12.1197 20.1992L12.0749 20.2136C11.2727 20.4738 10.4229 20.5532 9.58643 20.4463V20.3711C10.415 20.4787 11.2571 20.4007 12.0518 20.1428L12.0966 20.1284C13.2476 19.7541 14.4876 19.7541 15.6386 20.1284C15.8253 20.1909 16.0154 20.2426 16.208 20.283Z" fill="#333333"/>
<path d="M16.2081 20.5228V20.6008C16.0098 20.5592 15.8139 20.5066 15.6214 20.4433C14.4852 20.0748 13.2617 20.0748 12.1256 20.4433L12.0808 20.4592C11.2786 20.7195 10.4287 20.7985 9.59229 20.6904V20.6153C10.4208 20.7229 11.263 20.6449 12.0577 20.387L12.1025 20.3725C13.2535 19.9982 14.4935 19.9982 15.6445 20.3725C15.8293 20.4334 16.0175 20.4836 16.2081 20.5228Z" fill="#333333"/>
<path d="M16.2081 20.7641V20.8407C16.0098 20.799 15.8139 20.7464 15.6214 20.6832C14.4854 20.3139 13.2616 20.3139 12.1256 20.6832L12.0808 20.6976C11.278 20.9548 10.4282 21.0313 9.59229 20.9216V20.845C10.4208 20.9524 11.2627 20.8749 12.0577 20.6181L12.1025 20.6037C13.2536 20.2301 14.4934 20.2301 15.6445 20.6037C15.8291 20.668 16.0173 20.7215 16.2081 20.7641Z" fill="#333333"/>
<path d="M16.208 21.0057V21.0822C16.0097 21.0406 15.8138 20.988 15.6213 20.9247C14.4839 20.5526 13.2577 20.5516 12.1197 20.9218L12.0749 20.9363C11.2727 21.1964 10.4229 21.2759 9.58643 21.169V21.0924C10.4149 21.2004 11.257 21.1229 12.0518 20.8655L12.0966 20.851C13.2476 20.4767 14.4876 20.4767 15.6386 20.851C15.8253 20.9136 16.0154 20.9652 16.208 21.0057Z" fill="#333333"/>
<path d="M16.2081 21.2454V21.322C16.0098 21.2804 15.8139 21.2278 15.6214 21.1645C14.4852 20.796 13.2617 20.796 12.1256 21.1645L12.0808 21.179C11.2824 21.4382 10.4367 21.5181 9.60385 21.4131C9.6017 21.3876 9.6017 21.362 9.60385 21.3365C10.4296 21.4437 11.2688 21.3657 12.0606 21.1081L12.1054 21.0937C13.2564 20.7194 14.4964 20.7194 15.6474 21.0937C15.8312 21.155 16.0184 21.2056 16.2081 21.2454Z" fill="#333333"/>
<path d="M16.2081 21.4852V21.5618C16.0097 21.5201 15.8139 21.4675 15.6214 21.4042C14.4853 21.035 13.2616 21.035 12.1256 21.4042L12.0808 21.4187C11.292 21.6737 10.4573 21.7546 9.63418 21.6557C9.62821 21.6305 9.62434 21.6049 9.62262 21.5791C10.4415 21.6807 11.2728 21.6013 12.0577 21.3464L12.1025 21.332C13.2535 20.9577 14.4935 20.9577 15.6445 21.332C15.8292 21.3938 16.0174 21.445 16.2081 21.4852Z" fill="#333333"/>
<path d="M16.208 21.7249V21.8029C16.0097 21.7613 15.8138 21.7087 15.6213 21.6454C14.4838 21.2738 13.2576 21.2733 12.1198 21.644L12.075 21.6584C11.3022 21.9089 10.4848 21.9917 9.6775 21.9012L9.66016 21.8232C10.465 21.9175 11.2808 21.8372 12.0518 21.5876L12.0966 21.5732C13.2478 21.1996 14.4875 21.1996 15.6387 21.5732C15.8253 21.6347 16.0155 21.6854 16.208 21.7249Z" fill="#333333"/>
<path d="M16.2082 21.9649V22.043C16.0099 22.0013 15.814 21.9487 15.6215 21.8855C14.4856 21.5155 13.2616 21.5155 12.1257 21.8855L12.0809 21.8999C11.3327 22.1421 10.5426 22.2272 9.76002 22.1499C9.74984 22.1249 9.74116 22.0993 9.73401 22.0733C10.5172 22.1554 11.3088 22.0722 12.0578 21.8291L12.1026 21.8146C13.2536 21.4404 14.4936 21.4404 15.6446 21.8146C15.8294 21.8755 16.0176 21.9257 16.2082 21.9649Z" fill="#333333"/>
<path d="M16.2082 22.2047V22.2827C16.0099 22.2411 15.814 22.1885 15.6215 22.1252C14.4854 21.7567 13.2618 21.7567 12.1257 22.1252L12.0809 22.1397C11.3653 22.3714 10.611 22.4598 9.8612 22.3998C9.8482 22.3738 9.83663 22.3478 9.82507 22.3217C10.5788 22.3886 11.3382 22.3026 12.0578 22.0688L12.1026 22.0544C13.2536 21.6801 14.4936 21.6801 15.6446 22.0544C15.8294 22.1153 16.0176 22.1655 16.2082 22.2047Z" fill="#333333"/>
<path d="M16.2081 22.4444V22.5225C16.0097 22.4808 15.8139 22.4282 15.6213 22.3649C14.4834 21.9949 13.2574 21.9955 12.1198 22.3664L12.075 22.3808C11.4008 22.5998 10.6916 22.691 9.98389 22.6496C9.96799 22.6236 9.95354 22.5976 9.93909 22.5716C10.6536 22.6189 11.3705 22.5301 12.0519 22.31L12.0967 22.2941C13.2477 21.9199 14.4877 21.9199 15.6387 22.2941C15.8254 22.3552 16.0155 22.4054 16.2081 22.4444Z" fill="#333333"/>
<path d="M16.2082 22.6859V22.7639C16.0098 22.7222 15.814 22.6697 15.6215 22.6064C14.4856 22.2365 13.2616 22.2365 12.1257 22.6064L12.0809 22.6208C11.4575 22.8234 10.8039 22.9168 10.1487 22.8968C10.13 22.8723 10.1126 22.8463 10.0953 22.8202C10.7602 22.8465 11.4246 22.755 12.0578 22.55L12.1026 22.5356C13.2537 22.162 14.4935 22.162 15.6446 22.5356C15.8294 22.5964 16.0176 22.6466 16.2082 22.6859Z" fill="#333333"/>
<path d="M16.208 22.9276V23.0042C16.0097 22.9625 15.8138 22.9099 15.6213 22.8466C14.4852 22.4781 13.2617 22.4781 12.1255 22.8466L12.0807 22.8611C11.5207 23.0435 10.9356 23.1376 10.3466 23.14L10.2816 23.0649C10.8855 23.07 11.4862 22.9773 12.0605 22.7903L12.1053 22.7758C13.2563 22.4015 14.4963 22.4015 15.6473 22.7758C15.8312 22.8371 16.0184 22.8878 16.208 22.9276Z" fill="#333333"/>
<path d="M16.2082 23.1669V23.2435C16.0099 23.2018 15.814 23.1492 15.6215 23.0859C14.4833 22.7171 13.2575 22.7181 12.1199 23.0888L12.0751 23.1047C11.5883 23.2629 11.0822 23.3543 10.5708 23.3764C10.5447 23.3533 10.5202 23.3302 10.4956 23.3041C11.0247 23.2884 11.5488 23.1969 12.052 23.0325L12.0968 23.018C13.2478 22.6437 14.4878 22.6437 15.6388 23.018C15.8256 23.0786 16.0157 23.1283 16.2082 23.1669Z" fill="#333333"/>
<path d="M16.2082 23.4072V23.4838C16.0099 23.4422 15.814 23.3896 15.6215 23.3263C14.4855 22.9571 13.2617 22.9571 12.1257 23.3263L12.0809 23.3407C11.6836 23.4703 11.273 23.5551 10.8569 23.5936C10.8251 23.5734 10.7948 23.5503 10.7644 23.5272C11.2041 23.4923 11.6382 23.406 12.0578 23.2699L12.1026 23.254C13.2538 22.8811 14.4934 22.8811 15.6446 23.254C15.8294 23.3159 16.0176 23.367 16.2082 23.4072Z" fill="#333333"/>
<path d="M16.2082 23.6471V23.7251C16.0099 23.6835 15.814 23.6309 15.6215 23.5676C14.4856 23.1977 13.2616 23.1977 12.1257 23.5676L12.0809 23.582C11.7886 23.6773 11.4889 23.7483 11.1849 23.7945C11.1468 23.7762 11.1097 23.756 11.0737 23.7338C11.408 23.6907 11.7375 23.6162 12.0578 23.5112L12.1026 23.4968C13.2536 23.1225 14.4936 23.1225 15.6446 23.4968C15.8294 23.5577 16.0176 23.6078 16.2082 23.6471Z" fill="#333333"/>
<path d="M16.2081 23.8869V23.9649C16.0098 23.9233 15.8139 23.8707 15.6214 23.8074C14.4853 23.4389 13.2617 23.4389 12.1256 23.8074L12.0808 23.8218C11.9124 23.8786 11.7411 23.9269 11.5678 23.9664C11.5245 23.9519 11.4811 23.936 11.4377 23.9172C11.6476 23.8762 11.8546 23.8221 12.0577 23.7554L12.1025 23.7409C13.2535 23.3666 14.4935 23.3666 15.6445 23.7409C15.8294 23.8003 16.0176 23.8491 16.2081 23.8869Z" fill="#333333"/>
<path d="M16.2083 24.1268H15.8932C15.8022 24.1022 15.7112 24.0747 15.6216 24.0458C14.4855 23.6766 13.2618 23.6766 12.1258 24.0458L12.081 24.0603L12.0188 24.0791C11.9672 24.0714 11.9161 24.0608 11.8657 24.0473L12.0579 23.988L12.1027 23.9736C13.2537 23.5993 14.4937 23.5993 15.6447 23.9736C15.8294 24.0355 16.0176 24.0866 16.2083 24.1268Z" fill="#333333"/>
<path d="M15.3454 24.1285H15.0217C14.2592 23.9687 13.4719 23.9687 12.7095 24.1285H12.5534C12.5043 24.1285 12.4537 24.1285 12.4089 24.1285C13.3712 23.8742 14.3831 23.8742 15.3454 24.1285Z" fill="#333333"/>
<path d="M18.8246 8.52979C18.7135 8.56006 18.5996 8.58457 18.4872 8.6062V8.53123H18.8246V8.52979Z" fill="#333333"/>
<path d="M19.6823 8.52979C19.5132 8.56736 19.3456 8.6136 19.1808 8.6743C18.9538 8.74955 18.7221 8.8099 18.4872 8.85494V8.77979C18.7118 8.73646 18.9334 8.67853 19.1505 8.60638C19.2271 8.58181 19.3037 8.55724 19.3803 8.53701L19.6823 8.52979Z" fill="#333333"/>
<path d="M23.5364 8.87784C23.2675 8.83295 23.0024 8.76823 22.743 8.68419L22.6664 8.65962C22.5118 8.60904 22.3557 8.56713 22.1968 8.53101C22.3421 8.53226 22.4871 8.54531 22.6303 8.57002L22.6896 8.58881L22.7662 8.61338C22.9266 8.6654 23.0884 8.7102 23.2532 8.74633C23.3502 8.78427 23.4448 8.82819 23.5364 8.87784Z" fill="#333333"/>
<path d="M23.9845 9.17538C23.5616 9.14042 23.1441 9.05702 22.7402 8.92682L22.6636 8.90225C21.5308 8.53797 20.3118 8.54101 19.1808 8.91092C18.9538 8.98569 18.7221 9.04555 18.4872 9.09012V9.01497C18.7118 8.97164 18.9334 8.91371 19.1505 8.84156C20.2988 8.46613 21.5363 8.46259 22.6867 8.83144L22.7633 8.85601C23.1235 8.9734 23.495 9.05236 23.8717 9.09157C23.9112 9.11758 23.9488 9.14552 23.9845 9.17538Z" fill="#333333"/>
<path d="M24.2706 9.43413C23.7506 9.41503 23.2356 9.32459 22.7402 9.16533L22.6636 9.13932C21.5306 8.77652 20.3121 8.77955 19.1808 9.14799C18.9538 9.22276 18.7221 9.28262 18.4872 9.32719V9.25204C18.7118 9.20871 18.9334 9.15078 19.1505 9.07863C20.2991 8.70414 21.5366 8.70161 22.6867 9.0714L22.7633 9.09597C23.2259 9.24532 23.7058 9.33421 24.1911 9.36043C24.2186 9.38066 24.2446 9.40667 24.2706 9.43413Z" fill="#333333"/>
<path d="M24.483 9.67984C23.8914 9.67852 23.3036 9.5859 22.7402 9.40527L22.6636 9.3807C21.5316 9.01439 20.3129 9.01439 19.1808 9.3807C18.9538 9.45547 18.7221 9.51533 18.4872 9.55989V9.48475C18.7116 9.44122 18.9332 9.38379 19.1505 9.31278C20.2985 8.93619 21.5362 8.93214 22.6867 9.30122L22.7633 9.32723C23.2996 9.50016 23.8589 9.59079 24.4223 9.59602C24.4426 9.62782 24.4642 9.64949 24.483 9.67984Z" fill="#333333"/>
<path d="M24.6491 9.9167C24.5971 9.9167 24.5451 9.9167 24.493 9.9167C23.8983 9.91984 23.3068 9.82963 22.7401 9.64935L22.6693 9.62045C21.5373 9.25414 20.3185 9.25414 19.1865 9.62045C18.9595 9.6957 18.7278 9.75605 18.4929 9.80109V9.7245C18.7173 9.68097 18.9388 9.62354 19.1562 9.55253C20.3044 9.17641 21.5421 9.17287 22.6924 9.54241L22.769 9.56698C23.3625 9.75834 23.9837 9.84966 24.6072 9.83722C24.6227 9.86288 24.6367 9.88942 24.6491 9.9167Z" fill="#333333"/>
<path d="M24.7822 10.1507C24.6868 10.1507 24.59 10.1594 24.4931 10.1594C23.8981 10.1602 23.3065 10.0675 22.7402 9.88479L22.6636 9.86023C21.5308 9.49595 20.3118 9.49898 19.1808 9.8689C18.9538 9.94367 18.7221 10.0035 18.4872 10.0481V9.9715C18.7118 9.92608 18.9333 9.86672 19.1505 9.79375C20.2999 9.42161 21.5374 9.42161 22.6867 9.79375L22.7633 9.81832C23.4028 10.0235 24.0737 10.1131 24.7446 10.0828L24.7822 10.1507Z" fill="#333333"/>
<path d="M24.8891 10.3866C24.7576 10.3967 24.6246 10.4011 24.4931 10.4011C23.8981 10.4012 23.3067 10.3085 22.7402 10.1265L22.6636 10.1019C21.5308 9.73798 20.3121 9.74051 19.1808 10.1092C18.9538 10.1839 18.7221 10.2438 18.4872 10.2884V10.2132C18.7118 10.1699 18.9334 10.112 19.1505 10.0398C20.2988 9.66437 21.5363 9.66083 22.6867 10.0297L22.7633 10.0543C23.4392 10.272 24.1502 10.3598 24.8588 10.3129C24.8701 10.337 24.8802 10.3616 24.8891 10.3866Z" fill="#333333"/>
<path d="M24.9729 10.6204C24.814 10.6334 24.6536 10.6406 24.4931 10.6406C23.8984 10.6433 23.3069 10.5526 22.7402 10.3719L22.6636 10.3473C21.5316 9.98098 20.3129 9.98098 19.1808 10.3473C18.954 10.4227 18.7222 10.4826 18.4872 10.5265V10.4528C18.7118 10.4094 18.9334 10.3515 19.1505 10.2794C20.2986 9.90255 21.5365 9.89901 22.6867 10.2692L22.7633 10.2938C23.4681 10.5204 24.2105 10.6063 24.9484 10.5467C24.9581 10.5707 24.9663 10.5953 24.9729 10.6204Z" fill="#333333"/>
<path d="M25.0336 10.855C24.8544 10.8724 24.6738 10.8811 24.4931 10.8811C23.8981 10.8819 23.3065 10.7892 22.7402 10.6065L22.6636 10.5819C21.5316 10.2156 20.3129 10.2156 19.1808 10.5819C18.9538 10.6572 18.7221 10.7175 18.4872 10.7625V10.6874C18.7118 10.6441 18.9334 10.5861 19.1505 10.514C20.3002 10.1428 21.5377 10.1438 22.6867 10.5169L22.7633 10.5414C23.4904 10.775 24.2574 10.8585 25.0177 10.7871C25.0235 10.8059 25.0293 10.8305 25.0336 10.855Z" fill="#333333"/>
<path d="M25.0755 11.0946C24.8834 11.1147 24.6905 11.1248 24.4974 11.125C23.9023 11.1258 23.3108 11.0331 22.7445 10.8504L22.6679 10.8258C21.5349 10.4623 20.3162 10.4654 19.1851 10.8345C18.958 10.9093 18.7263 10.9691 18.4915 11.0137V10.9386C18.7161 10.8952 18.9377 10.8373 19.1548 10.7651C20.3031 10.3897 21.5406 10.3862 22.691 10.755L22.7676 10.7796C23.5099 11.0189 24.2939 11.101 25.0697 11.0209C25.073 11.0454 25.0749 11.07 25.0755 11.0946Z" fill="#333333"/>
<path d="M25.0987 11.3285C24.8976 11.3512 24.6954 11.3623 24.4931 11.3618C23.8985 11.3642 23.3071 11.274 22.7402 11.0944L22.6636 11.0699C21.5316 10.7036 20.3129 10.7036 19.1808 11.0699C18.9538 11.1446 18.7221 11.2045 18.4872 11.2491V11.1739C18.7118 11.1306 18.9334 11.0727 19.1505 11.0005C20.2988 10.6251 21.5363 10.6215 22.6867 10.9904L22.7633 11.0164C23.5148 11.2571 24.3083 11.3378 25.0929 11.2534C25.097 11.2782 25.0989 11.3034 25.0987 11.3285Z" fill="#333333"/>
<path d="M25.1044 11.4946V11.5683C24.9015 11.591 24.6974 11.6021 24.4931 11.6016C23.8981 11.6024 23.3065 11.5097 22.7402 11.327L22.6636 11.3024C21.5316 10.9361 20.3129 10.9361 19.1808 11.3024C18.954 11.3779 18.7222 11.4377 18.4872 11.4816V11.4065C18.7115 11.3644 18.9331 11.3084 19.1505 11.2388C20.2998 10.866 21.5375 10.866 22.6867 11.2388L22.7633 11.2634C23.5187 11.5043 24.3165 11.5831 25.1044 11.4946Z" fill="#333333"/>
<path d="M25.1043 11.7331V11.8083C24.9014 11.8309 24.6973 11.842 24.493 11.8415C23.8979 11.8423 23.3064 11.7497 22.7401 11.567L22.6693 11.5424C21.5365 11.1781 20.3175 11.1811 19.1865 11.5511C18.9594 11.6258 18.7277 11.6857 18.4929 11.7303V11.6537C18.7173 11.6101 18.9388 11.5527 19.1562 11.4817C20.3045 11.1063 21.542 11.1027 22.6924 11.4716L22.769 11.4961C23.522 11.7388 24.3179 11.8196 25.1043 11.7331Z" fill="#333333"/>
<path d="M25.1044 11.9746V12.0483C24.9015 12.0709 24.6974 12.082 24.4931 12.0815C23.8981 12.0828 23.3066 11.9907 22.7402 11.8084L22.6636 11.7824C21.5306 11.4196 20.3121 11.4226 19.1808 11.7911C18.9538 11.8658 18.7221 11.9257 18.4872 11.9702V11.8937C18.7116 11.8501 18.9332 11.7927 19.1505 11.7217C20.2988 11.3463 21.5363 11.3427 22.6867 11.7116L22.7633 11.7361C23.5184 11.9787 24.316 12.06 25.1044 11.9746Z" fill="#333333"/>
<path d="M25.1044 12.2145V12.2897C24.9015 12.3123 24.6974 12.3234 24.4931 12.3229C23.8981 12.323 23.3067 12.2304 22.7402 12.0483L22.6636 12.0238C21.5316 11.6575 20.3129 11.6575 19.1808 12.0238C18.9538 12.0985 18.7221 12.1584 18.4872 12.203V12.1293C18.7118 12.0859 18.9334 12.028 19.1505 11.9558C20.2985 11.5793 21.5362 11.5752 22.6867 11.9443L22.7633 11.9703C23.5179 12.2149 24.3156 12.2981 25.1044 12.2145Z" fill="#333333"/>
<path d="M25.1044 12.4545V12.5297C24.9015 12.5523 24.6974 12.5634 24.4931 12.5629C23.8981 12.5637 23.3065 12.4711 22.7402 12.2883L22.6636 12.2638C21.5316 11.8974 20.3129 11.8974 19.1808 12.2638C18.9538 12.339 18.7221 12.3994 18.4872 12.4444V12.3693C18.7118 12.3259 18.9334 12.268 19.1505 12.1958C20.2987 11.8197 21.5364 11.8162 22.6867 12.1857L22.7633 12.2103C23.5177 12.4562 24.3156 12.5394 25.1044 12.4545Z" fill="#333333"/>
<path d="M25.1044 12.6943V12.7695C24.9015 12.7921 24.6974 12.8032 24.4931 12.8027C23.8981 12.8035 23.3065 12.7109 22.7402 12.5281L22.6636 12.5036C21.5308 12.1393 20.3118 12.1423 19.1808 12.5122C18.9538 12.587 18.7221 12.6469 18.4872 12.6914V12.6163C18.7118 12.573 18.9334 12.515 19.1505 12.4429C20.2988 12.0674 21.5363 12.0639 22.6867 12.4328L22.7633 12.4573C23.5182 12.7008 24.3161 12.7816 25.1044 12.6943Z" fill="#333333"/>
<path d="M25.1044 12.9359V13.0111C24.3082 13.0974 23.5026 13.0151 22.7402 12.7697L22.6636 12.7452C21.5316 12.3788 20.3129 12.3788 19.1808 12.7452C18.9538 12.8199 18.7221 12.8798 18.4872 12.9243V12.8492C18.7118 12.8059 18.9334 12.7479 19.1505 12.6758C20.2988 12.3004 21.5363 12.2968 22.6867 12.6657L22.7633 12.6902C23.5179 12.9353 24.3155 13.019 25.1044 12.9359Z" fill="#333333"/>
<path d="M25.1044 13.1757V13.2509C24.9015 13.2735 24.6974 13.2846 24.4931 13.2841C23.8981 13.2849 23.3065 13.1923 22.7402 13.0095L22.6636 12.985C21.5316 12.6187 20.3129 12.6187 19.1808 12.985C18.9538 13.0602 18.7221 13.1206 18.4872 13.1656V13.089C18.7116 13.0455 18.9332 12.9881 19.1505 12.9171C20.2986 12.5402 21.5365 12.5367 22.6867 12.9069L22.7633 12.9315C23.5177 13.1774 24.3156 13.2607 25.1044 13.1757Z" fill="#333333"/>
<path d="M25.1044 13.4155V13.4907C24.9015 13.5133 24.6974 13.5244 24.4931 13.5239C23.8981 13.5247 23.3065 13.4321 22.7402 13.2493L22.6636 13.2248C21.5308 12.8608 20.3121 12.8633 19.1808 13.232C18.9538 13.3072 18.7221 13.3676 18.4872 13.4126V13.336C18.7116 13.2925 18.9332 13.2351 19.1505 13.1641C20.2988 12.7886 21.5363 12.7851 22.6867 13.154L22.7633 13.1785C23.5182 13.422 24.3161 13.5028 25.1044 13.4155Z" fill="#333333"/>
<path d="M25.1043 13.657V13.7307C24.9014 13.7533 24.6973 13.7644 24.493 13.7639C23.8979 13.7647 23.3064 13.6721 22.7401 13.4894L22.6693 13.4648C21.5363 13.1013 20.3176 13.1043 19.1865 13.4735C18.9594 13.5482 18.7277 13.6081 18.4929 13.6527V13.5761C18.7153 13.5333 18.9349 13.4768 19.1504 13.407C20.2987 13.0316 21.5362 13.028 22.6866 13.3969L22.7632 13.4214C23.5185 13.6631 24.3161 13.7433 25.1043 13.657Z" fill="#333333"/>
<path d="M25.1044 13.8969V13.9721C24.3082 14.0584 23.5026 13.9762 22.7402 13.7308L22.6636 13.7062C21.5308 13.3422 20.3121 13.3448 19.1808 13.7134C18.9538 13.7882 18.7221 13.848 18.4872 13.8926V13.8175C18.7118 13.7741 18.9334 13.7162 19.1505 13.644C20.2988 13.2686 21.5363 13.2651 22.6867 13.6339L22.7633 13.6585C23.5184 13.9011 24.316 13.9823 25.1044 13.8969Z" fill="#333333"/>
<path d="M25.1044 14.1364V14.2116C24.9015 14.2342 24.6974 14.2453 24.4931 14.2448C23.8981 14.2456 23.3065 14.153 22.7402 13.9702L22.6636 13.9457C21.5316 13.5794 20.3129 13.5794 19.1808 13.9457C18.9538 14.0209 18.7221 14.0813 18.4872 14.1263V14.0512C18.7118 14.0078 18.9334 13.9499 19.1505 13.8778C20.2986 13.5009 21.5365 13.4974 22.6867 13.8676L22.7633 13.8922C23.5177 14.1381 24.3156 14.2214 25.1044 14.1364Z" fill="#333333"/>
<path d="M25.1044 14.3765V14.4516C24.9015 14.4742 24.6974 14.4853 24.4931 14.4848C23.8981 14.4856 23.3065 14.393 22.7402 14.2103L22.6636 14.1857C21.5308 13.8214 20.3118 13.8245 19.1808 14.1944C18.9538 14.2691 18.7221 14.329 18.4872 14.3736V14.2984C18.7118 14.2551 18.9334 14.1972 19.1505 14.125C20.2988 13.7496 21.5363 13.746 22.6867 14.1149L22.7633 14.1395C23.5182 14.3829 24.3161 14.4637 25.1044 14.3765Z" fill="#333333"/>
<path d="M25.1044 14.6179V14.6916C24.9015 14.7142 24.6974 14.7253 24.4931 14.7248C23.8982 14.7254 23.3068 14.6333 22.7402 14.4517L22.6636 14.4257C21.5306 14.0629 20.3121 14.0659 19.1808 14.4344C18.9538 14.5091 18.7221 14.569 18.4872 14.6136V14.5384C18.7118 14.4951 18.9334 14.4372 19.1505 14.365C20.2988 13.9896 21.5363 13.986 22.6867 14.3549L22.7633 14.3794C23.5184 14.6221 24.316 14.7033 25.1044 14.6179Z" fill="#333333"/>
<path d="M25.1044 14.852V14.9271C24.9015 14.9498 24.6974 14.9609 24.4931 14.9604C23.8981 14.9605 23.3067 14.8678 22.7402 14.6858L22.6636 14.6612C21.5316 14.2949 20.3129 14.2949 19.1808 14.6612C18.9538 14.736 18.7221 14.7958 18.4872 14.8404V14.7653C18.7116 14.7217 18.9332 14.6643 19.1505 14.5933C20.2985 14.2167 21.5362 14.2127 22.6867 14.5817L22.7633 14.6077C23.5179 14.8523 24.3156 14.9355 25.1044 14.852Z" fill="#333333"/>
<path d="M25.1044 15.0978V15.1412H23.6723C23.356 15.0964 23.0441 15.0243 22.7402 14.9259L22.6636 14.9013C21.5308 14.5373 20.3121 14.5399 19.1808 14.9085C18.9538 14.9838 18.7221 15.0441 18.4872 15.0892V15.0126C18.7116 14.9691 18.9332 14.9116 19.1505 14.8406C20.2987 14.4645 21.5364 14.461 22.6867 14.8305L22.7633 14.8551C23.5178 15.1005 24.3157 15.1832 25.1044 15.0978Z" fill="#333333"/>
<path d="M22.9165 15.141H22.6694C21.5463 14.7804 20.3386 14.7804 19.2155 15.141H18.9568C19.0248 15.1222 19.0898 15.102 19.1563 15.0803C20.3046 14.7049 21.5421 14.7014 22.6925 15.0702L22.7691 15.0948L22.9165 15.141Z" fill="#333333"/>
<path d="M22.0247 15.141H21.5131C21.1288 15.1008 20.7414 15.1008 20.357 15.141H19.8411C20.5622 15.0008 21.3036 15.0008 22.0247 15.141Z" fill="#333333"/>
<path d="M18.8217 24.1279H18.4785V24.05C18.5953 24.0717 18.7092 24.1005 18.8217 24.1279Z" fill="#333333"/>
<path d="M22.1952 24.1269L22.3397 24.0907C22.4466 24.0647 22.5536 24.0329 22.6576 23.9997L22.7342 23.9737C22.9935 23.8896 23.2587 23.8249 23.5276 23.78C23.4337 23.8304 23.3373 23.8758 23.2386 23.9159C23.0767 23.9506 22.9177 23.9954 22.7602 24.0459L22.6836 24.0705L22.6316 24.0864H22.3426L19.6604 24.1196H19.3714C19.2991 24.0994 19.2269 24.0763 19.1561 24.0532C18.9366 23.9805 18.7126 23.9221 18.4855 23.8783V23.8118C18.7185 23.8564 18.9483 23.9163 19.1734 23.991C19.3337 24.0444 19.4968 24.0893 19.6619 24.1254H19.6778L22.1952 24.1269Z" fill="#333333"/>
<path d="M23.9786 23.4824C23.943 23.5133 23.9054 23.5422 23.8659 23.5691C23.4892 23.609 23.1178 23.688 22.7575 23.8047L22.6809 23.8293C21.533 24.1978 20.2982 24.1953 19.1519 23.822C18.9323 23.7494 18.7084 23.691 18.4813 23.6472V23.5706C18.7141 23.6153 18.9439 23.6747 19.1692 23.7483C20.3019 24.1194 21.5229 24.1229 22.6577 23.7584L22.7343 23.7339C23.1381 23.6027 23.5556 23.5183 23.9786 23.4824Z" fill="#333333"/>
<path d="M24.259 23.2239C24.2345 23.2513 24.2084 23.2774 24.181 23.3019C23.6956 23.3263 23.2155 23.4148 22.7532 23.5649L22.6766 23.5895C21.5288 23.958 20.294 23.9555 19.1476 23.5823C18.9286 23.5097 18.7051 23.4513 18.4785 23.4074V23.3308C18.7113 23.3756 18.9411 23.435 19.1664 23.5086C20.2991 23.8796 21.5201 23.8832 22.6549 23.5187L22.7315 23.4941C23.226 23.3347 23.7399 23.2437 24.259 23.2239Z" fill="#333333"/>
<path d="M24.4772 22.978C24.4584 23.004 24.4367 23.0301 24.4165 23.0546C23.853 23.0602 23.2936 23.1513 22.7575 23.3249L22.6809 23.3494C21.533 23.7185 20.2979 23.7154 19.1519 23.3408C18.9323 23.2686 18.7083 23.2107 18.4813 23.1673V23.0893C18.7141 23.1341 18.9439 23.1934 19.1692 23.2671C20.3019 23.6381 21.5229 23.6416 22.6577 23.2772L22.7343 23.2526C23.2975 23.0713 23.8855 22.9787 24.4772 22.978Z" fill="#333333"/>
<path d="M24.6434 22.741C24.6275 22.7656 24.6116 22.7901 24.5942 22.8147C23.971 22.8037 23.3503 22.8965 22.7575 23.0893L22.6809 23.1138C21.533 23.4829 20.2979 23.4798 19.1519 23.1052C18.9323 23.0325 18.7084 22.9741 18.4813 22.9303V22.8537C18.7141 22.8985 18.9439 22.9578 19.1692 23.0315C20.3019 23.4025 21.5229 23.406 22.6577 23.0416L22.7343 23.017C23.3504 22.8173 23.996 22.724 24.6434 22.741Z" fill="#333333"/>
<path d="M24.7763 22.511C24.7647 22.5356 24.7517 22.5587 24.7387 22.5833C24.0678 22.5529 23.3969 22.6425 22.7575 22.8477L22.6809 22.8723C21.533 23.2408 20.2982 23.2383 19.1519 22.8651C18.9323 22.7924 18.7084 22.734 18.4813 22.6902V22.6122C18.7143 22.6568 18.9441 22.7166 19.1692 22.7914C20.3019 23.1624 21.5229 23.166 22.6577 22.8015L22.7343 22.7769C23.3932 22.5648 24.0851 22.4747 24.7763 22.511Z" fill="#333333"/>
<path d="M24.8832 22.2728L24.8529 22.345C24.1444 22.2982 23.4333 22.386 22.7575 22.6037L22.6809 22.6283C21.533 22.9968 20.2982 22.9943 19.1519 22.621C18.9323 22.5484 18.7084 22.49 18.4813 22.4462V22.3667C18.7143 22.4113 18.9441 22.4711 19.1692 22.5459C20.3019 22.9169 21.5229 22.9205 22.6577 22.556L22.7343 22.5314C23.4275 22.3087 24.157 22.2209 24.8832 22.2728Z" fill="#333333"/>
<path d="M24.9671 22.0371C24.9598 22.0617 24.9512 22.0862 24.9425 22.1108C24.2044 22.0522 23.462 22.1391 22.7575 22.3666L22.6809 22.3912C21.533 22.7602 20.2979 22.7572 19.1519 22.3825C18.9323 22.3103 18.7083 22.2524 18.4813 22.2091V22.131C18.7143 22.1756 18.9441 22.2355 19.1692 22.3102C20.302 22.6806 21.5228 22.6841 22.6577 22.3204L22.7343 22.2958C23.4542 22.063 24.213 21.9751 24.9671 22.0371Z" fill="#333333"/>
<path d="M25.0278 21.8029C25.0234 21.8283 25.0176 21.8534 25.0104 21.8781C24.2506 21.8061 23.4842 21.8892 22.7575 22.1223L22.6809 22.1483C21.533 22.5174 20.2979 22.5143 19.1519 22.1397C18.9323 22.067 18.7084 22.0086 18.4813 21.9648V21.8882C18.7141 21.933 18.9439 21.9923 19.1692 22.066C20.3019 22.437 21.5229 22.4405 22.6577 22.0761L22.7343 22.0515C23.4741 21.8142 24.2543 21.7296 25.0278 21.8029Z" fill="#333333"/>
<path d="M25.0697 21.5678C25.0677 21.5925 25.0643 21.6171 25.0596 21.6415C24.2838 21.5614 23.4998 21.6435 22.7575 21.8828L22.6809 21.9074C21.5338 22.2783 20.299 22.2783 19.1519 21.9074C18.9323 21.8347 18.7084 21.7763 18.4813 21.7325V21.6444C18.7141 21.6891 18.9439 21.7485 19.1692 21.8221C20.3019 22.1932 21.5229 22.1967 22.6577 21.8322L22.7343 21.8077C23.4879 21.5674 24.283 21.4857 25.0697 21.5678Z" fill="#333333"/>
<path d="M25.0929 21.3302C25.095 21.3547 25.095 21.3793 25.0929 21.4039C24.3062 21.319 23.5105 21.4007 22.7575 21.6437L22.681 21.6683C21.5338 22.0392 20.299 22.0392 19.1519 21.6683C18.9317 21.5926 18.7067 21.5313 18.4785 21.4848V21.4082C18.7113 21.453 18.9411 21.5123 19.1664 21.5859C20.2991 21.957 21.5201 21.9605 22.6549 21.5961L22.7315 21.5715C23.4929 21.326 24.2975 21.2438 25.0929 21.3302Z" fill="#333333"/>
<path d="M25.0986 21.0891V21.1643C24.3101 21.0789 23.5125 21.1601 22.7575 21.4027L22.6809 21.4273C21.533 21.7964 20.2979 21.7933 19.1519 21.4186C18.9323 21.346 18.7084 21.2876 18.4813 21.2438V21.1686C18.7141 21.2134 18.9439 21.2728 19.1692 21.3464C20.302 21.7167 21.5228 21.7203 22.6577 21.3565L22.7343 21.3305C23.4968 21.0855 24.3023 21.0033 25.0986 21.0891Z" fill="#333333"/>
<path d="M25.0986 20.8492V20.9214C24.3103 20.8344 23.5126 20.9146 22.7575 21.157L22.6809 21.183C21.533 21.552 20.2979 21.549 19.1519 21.1743C18.9323 21.1017 18.7084 21.0433 18.4813 20.9995V20.9214C18.7141 20.9662 18.9439 21.0256 19.1692 21.0992C20.3019 21.4702 21.5229 21.4738 22.6577 21.1093L22.7343 21.0847C23.4973 20.8417 24.3027 20.7614 25.0986 20.8492Z" fill="#333333"/>
<path d="M25.0986 20.6096V20.6847C24.3102 20.5975 23.5123 20.6782 22.7575 20.9217L22.6809 20.9463C21.5338 21.3172 20.299 21.3172 19.1519 20.9463C18.9323 20.8736 18.7084 20.8152 18.4813 20.7714V20.6934C18.7143 20.738 18.9441 20.7978 19.1692 20.8726C20.3019 21.2436 21.5229 21.2472 22.6577 20.8827L22.7343 20.8581C23.4963 20.6107 24.3018 20.526 25.0986 20.6096Z" fill="#333333"/>
<path d="M25.0986 20.3693V20.4445C24.3102 20.3572 23.5123 20.438 22.7575 20.6815L22.6809 20.7061C21.5338 21.0769 20.299 21.0769 19.1519 20.7061C18.9323 20.6334 18.7084 20.575 18.4813 20.5312V20.4532C18.7143 20.4977 18.9441 20.5576 19.1692 20.6324C20.302 21.0027 21.5228 21.0062 22.6577 20.6425L22.7343 20.6179C23.4963 20.3705 24.3018 20.2858 25.0986 20.3693Z" fill="#333333"/>
<path d="M25.0986 20.1281V20.1989C24.3101 20.1135 23.5125 20.1947 22.7575 20.4373L22.6809 20.4619C21.533 20.831 20.2979 20.8279 19.1519 20.4532C18.9323 20.3806 18.7084 20.3222 18.4813 20.2784V20.2018C18.7143 20.2464 18.9441 20.3062 19.1692 20.381C20.3022 20.7509 21.523 20.7539 22.6577 20.3897L22.7343 20.3651C23.4972 20.1216 24.3026 20.0408 25.0986 20.1281Z" fill="#333333"/>
<path d="M25.0986 19.8882V19.9634C24.3102 19.8775 23.5126 19.9582 22.7575 20.2004L22.6809 20.2249C21.533 20.5935 20.2982 20.5909 19.1519 20.2177C18.9323 20.1451 18.7084 20.0867 18.4813 20.0428V19.9663C18.7141 20.011 18.9439 20.0704 19.1692 20.144C20.3019 20.515 21.5229 20.5186 22.6577 20.1541L22.7343 20.1296C23.4968 19.8846 24.3023 19.8023 25.0986 19.8882Z" fill="#333333"/>
<path d="M25.0986 19.6485V19.7236C24.3102 19.6364 23.5123 19.7171 22.7575 19.9606L22.6809 19.9852C21.533 20.3537 20.2982 20.3512 19.1519 19.978C18.9323 19.9053 18.7084 19.8469 18.4813 19.8031V19.7265C18.7141 19.7713 18.9439 19.8306 19.1692 19.9043C20.3019 20.2753 21.5229 20.2788 22.6577 19.9144L22.7343 19.8898C23.4968 19.6448 24.3023 19.5626 25.0986 19.6485Z" fill="#333333"/>
<path d="M25.0986 19.4068V19.4762C24.3101 19.3908 23.5125 19.472 22.7575 19.7146L22.6809 19.7392C21.533 20.1082 20.2979 20.1052 19.1519 19.7305C18.9323 19.6583 18.7083 19.6004 18.4813 19.5571V19.4805C18.7141 19.5253 18.9439 19.5846 19.1692 19.6583C20.302 20.0286 21.5228 20.0322 22.6577 19.6684L22.7343 19.6438C23.497 19.3996 24.3026 19.3188 25.0986 19.4068Z" fill="#333333"/>
<path d="M25.0986 19.1668V19.2419C24.3101 19.1565 23.5125 19.2378 22.7575 19.4804L22.6809 19.5049C21.533 19.874 20.2979 19.871 19.1519 19.4963C18.9323 19.4236 18.7084 19.3652 18.4813 19.3214V19.2448C18.7141 19.2896 18.9439 19.349 19.1692 19.4226C20.3019 19.7936 21.5229 19.7972 22.6577 19.4327L22.7343 19.4081C23.4968 19.1631 24.3023 19.0809 25.0986 19.1668Z" fill="#333333"/>
<path d="M25.0986 18.9273V19.0024C24.3102 18.9152 23.5123 18.9959 22.7575 19.2394L22.6809 19.264C21.533 19.6325 20.2982 19.63 19.1519 19.2568C18.9323 19.1841 18.7084 19.1257 18.4813 19.0819V19.0039C18.7143 19.0485 18.9441 19.1083 19.1692 19.1831C20.3019 19.5541 21.5229 19.5577 22.6577 19.1932L22.7343 19.1686C23.4968 18.9236 24.3023 18.8414 25.0986 18.9273Z" fill="#333333"/>
<path d="M25.0986 18.6873V18.7624C24.3102 18.6752 23.5123 18.756 22.7575 18.9994L22.6809 19.024C21.533 19.3925 20.2982 19.39 19.1519 19.0168C18.9323 18.9441 18.7084 18.8857 18.4813 18.8419V18.7639C18.7143 18.8085 18.9441 18.8683 19.1692 18.9431C20.3019 19.3141 21.5229 19.3177 22.6577 18.9532L22.7343 18.9286C23.4968 18.6836 24.3023 18.6014 25.0986 18.6873Z" fill="#333333"/>
<path d="M25.0987 18.446V18.5211C24.3102 18.4357 23.5126 18.517 22.7575 18.7596L22.681 18.7841C21.5331 19.1532 20.298 19.1502 19.1519 18.7755C18.9313 18.7056 18.7063 18.6501 18.4785 18.6093V18.5312C18.7115 18.5758 18.9413 18.6357 19.1664 18.7104C20.2993 19.0801 21.5199 19.0837 22.6549 18.7206L22.7315 18.6945C23.4944 18.4467 24.3009 18.362 25.0987 18.446Z" fill="#333333"/>
<path d="M25.0986 18.2061V18.2827C24.3103 18.1956 23.5126 18.2759 22.7575 18.5182L22.6809 18.5443C21.5327 18.9113 20.2982 18.9083 19.1519 18.5356C18.9323 18.4629 18.7084 18.4045 18.4813 18.3607V18.2841C18.7141 18.3289 18.9439 18.3883 19.1692 18.4619C20.3019 18.8329 21.5229 18.8365 22.6577 18.472L22.7343 18.4474C23.4968 18.2024 24.3023 18.1202 25.0986 18.2061Z" fill="#333333"/>
<path d="M25.0986 17.966V18.0412C24.3102 17.9539 23.5123 18.0347 22.7575 18.2782L22.6809 18.3027C21.5338 18.6736 20.299 18.6736 19.1519 18.3027C18.9323 18.2301 18.7084 18.1717 18.4813 18.1279V18.0513C18.7141 18.0961 18.9439 18.1554 19.1692 18.229C20.3019 18.6001 21.5229 18.6036 22.6577 18.2391L22.7343 18.2146C23.4963 17.9671 24.3018 17.8825 25.0986 17.966Z" fill="#333333"/>
<path d="M25.0987 17.7264V17.8015C24.3103 17.7143 23.5124 17.795 22.7575 18.0385L22.681 18.0631C21.5331 18.4321 20.298 18.4291 19.1519 18.0544C18.9313 17.9841 18.7064 17.9281 18.4785 17.8868V17.8102C18.7113 17.855 18.9411 17.9143 19.1664 17.9879C20.2991 18.359 21.5201 18.3625 22.6549 17.9981L22.7315 17.9735C23.4945 17.7261 24.301 17.6419 25.0987 17.7264Z" fill="#333333"/>
<path d="M25.0986 17.5125V17.5601C24.3101 17.4747 23.5125 17.556 22.7575 17.7986L22.6809 17.8232C21.533 18.1922 20.2979 18.1892 19.1519 17.8145C18.9323 17.7418 18.7084 17.6834 18.4813 17.6396V17.5645C18.7141 17.6092 18.9439 17.6686 19.1692 17.7422C20.3021 18.1119 21.5227 18.1154 22.6577 17.7523L22.7343 17.7263C23.0346 17.6292 23.3426 17.5577 23.6549 17.5125H25.0986Z" fill="#333333"/>
<path d="M22.9063 17.5125C22.8557 17.5255 22.8066 17.5414 22.7618 17.5572L22.6852 17.5818C21.5381 17.9527 20.3033 17.9527 19.1562 17.5818L18.9553 17.5197H19.201C20.3218 17.8788 21.5268 17.8788 22.6476 17.5197L22.9063 17.5125Z" fill="#333333"/>
<path d="M22.019 17.5125C21.2992 17.6512 20.5595 17.6512 19.8397 17.5125H20.3657C20.741 17.5515 21.1192 17.5515 21.4944 17.5125H22.019Z" fill="#333333"/>
<path d="M14.7977 9.21586V14.4414H8.18194V10.8055C8.17965 10.4161 8.25409 10.03 8.40101 9.66936C8.54793 9.30871 8.76445 8.98052 9.03821 8.70355C9.31196 8.42657 9.63759 8.20623 9.9965 8.0551C10.3554 7.90398 10.7406 7.82502 11.13 7.82275H13.1315" fill="#333333"/>
<path d="M8.18188 16.8071H14.7977V23.4229H11.1473C10.3608 23.4229 9.60655 23.1105 9.05043 22.5544C8.49431 21.9983 8.18188 21.244 8.18188 20.4575V16.8071Z" fill="#333333"/>
<path d="M23.694 14.4417H17.0782V7.82446H20.7286C21.118 7.82446 21.5036 7.90117 21.8634 8.05019C22.2232 8.19922 22.5501 8.41765 22.8254 8.69301C23.1008 8.96837 23.3192 9.29528 23.4683 9.65506C23.6173 10.0148 23.694 10.4004 23.694 10.7899V14.4417Z" fill="#333333"/>
<path d="M23.694 18.5715V20.4401C23.6942 21.198 23.4059 21.9276 22.8876 22.4806" fill="#333333"/>
<path d="M12.5692 19.0356H10.4102V21.1947H12.5692V19.0356Z" fill="#BDBDBD"/>
<path d="M12.5692 9.98511H10.4102V12.1441H12.5692V9.98511Z" fill="#BDBDBD"/>
<path d="M21.4655 9.98511H19.3065V12.1441H21.4655V9.98511Z" fill="#BDBDBD"/>
<path d="M21.4655 19.0356H19.3065V21.1947H21.4655V19.0356Z" fill="#333333"/>
<path d="M23.6938 16.4805H21.0536V17.1322H23.6938V16.4805Z" fill="#333333"/>
<path d="M17.4034 18.5716H16.7516V16.4805H18.9121V17.1322H17.4034V18.5716Z" fill="#333333"/>
<path d="M18.9121 23.7481H16.7516V21.1946H17.4034V23.0978H18.9121V23.7481Z" fill="#333333"/>
<path d="M23.126 22.7032L22.6505 22.2581C23.1149 21.7667 23.3735 21.1162 23.3731 20.4401V18.5715H24.0248V20.4401C24.0249 21.2815 23.7033 22.0911 23.126 22.7032Z" fill="#333333"/>
</svg>
