<svg width="25" height="24" viewBox="0 0 25 24" fill="none" xmlns="http://www.w3.org/2000/svg">
<path d="M8.97516 8.7981H9.19193C8.79953 8.91383 8.39255 8.9726 7.98344 8.97259C7.92925 8.97259 7.87505 8.97259 7.82086 8.97259V8.91624C8.2092 8.92919 8.5975 8.88945 8.97516 8.7981Z" fill="#333333"/>
<path d="M19.4278 8.83658V8.89511C18.7584 9.02418 18.0679 8.9926 17.413 8.80298H17.6297C18.2198 8.94279 18.833 8.95425 19.4278 8.83658Z" fill="#333333"/>
<path d="M9.60163 8.7981H9.86609C9.68658 8.83087 9.50951 8.87577 9.33608 8.93249L9.30248 8.94333C8.87515 9.08242 8.4285 9.15302 7.97911 9.15251C7.92491 9.15251 7.87072 9.15251 7.81653 9.15251V9.09724C8.31426 9.11653 8.81147 9.04755 9.28514 8.89347L9.31874 8.88264C9.41195 8.85012 9.50625 8.82194 9.60163 8.7981Z" fill="#333333"/>
<path d="M19.4278 9.01736V9.07372C18.7248 9.20893 17.9993 9.16722 17.3165 8.95233V8.8938C17.9985 9.11262 18.7249 9.15513 19.4278 9.01736Z" fill="#333333"/>
<path d="M9.31874 9.05997C9.51773 8.99487 9.72135 8.94487 9.92786 8.9104V8.96568C9.72727 8.99934 9.52947 9.04789 9.33608 9.11091L9.30248 9.12283C8.87497 9.26104 8.4284 9.33126 7.97911 9.33093C7.92491 9.33093 7.87072 9.33093 7.81653 9.33093V9.27566C8.31413 9.29565 8.81134 9.2274 9.28514 9.07406L9.31874 9.05997Z" fill="#333333"/>
<path d="M19.4278 9.19753V9.25498C18.7248 9.39094 17.999 9.34884 17.3165 9.1325V9.07397C17.9985 9.2928 18.7249 9.3353 19.4278 9.19753Z" fill="#333333"/>
<path d="M9.31874 9.23955C9.51783 9.17505 9.72143 9.12541 9.92786 9.09106V9.14851C9.72738 9.18124 9.52959 9.22869 9.33608 9.29049L9.30248 9.30133C8.87497 9.43954 8.4284 9.50976 7.97911 9.50943C7.92491 9.50943 7.87072 9.50943 7.81653 9.50943V9.45415C8.31417 9.4733 8.81129 9.40469 9.28514 9.25147L9.31874 9.23955Z" fill="#333333"/>
<path d="M19.4278 9.37711V9.43564C18.7248 9.57085 17.9993 9.52914 17.3165 9.31425V9.25464C17.9986 9.4731 18.725 9.51523 19.4278 9.37711Z" fill="#333333"/>
<path d="M9.31874 9.42057C9.51773 9.35547 9.72135 9.30547 9.92786 9.271V9.32844C9.72727 9.36211 9.52947 9.41065 9.33608 9.47368L9.30248 9.48451C8.87515 9.6236 8.4285 9.6942 7.97911 9.6937C7.92491 9.6937 7.87072 9.6937 7.81653 9.6937V9.63734C8.31441 9.65651 8.81173 9.58678 9.28514 9.43141L9.31874 9.42057Z" fill="#333333"/>
<path d="M19.4278 9.55827V9.61571C18.7248 9.75108 17.9991 9.70898 17.3165 9.49324V9.43579C17.9988 9.65318 18.7249 9.6953 19.4278 9.55827Z" fill="#333333"/>
<path d="M9.31874 9.60025C9.51773 9.53516 9.72135 9.48516 9.92786 9.45068V9.50704C9.72727 9.54071 9.52947 9.58926 9.33608 9.65228L9.30248 9.66312C8.87515 9.8022 8.4285 9.8728 7.97911 9.8723C7.92491 9.8723 7.87072 9.8723 7.81653 9.8723V9.81702C8.31413 9.83702 8.81134 9.76877 9.28514 9.61543L9.31874 9.60025Z" fill="#333333"/>
<path d="M19.4278 9.7382V9.79564C18.7248 9.93086 17.9993 9.88914 17.3165 9.67425V9.61572C17.9986 9.83418 18.725 9.87632 19.4278 9.7382Z" fill="#333333"/>
<path d="M9.31874 9.78043C9.51773 9.71533 9.72135 9.66533 9.92786 9.63086V9.6883C9.7273 9.72162 9.5295 9.7698 9.33608 9.83245L9.30248 9.84438C8.87479 9.98148 8.42823 10.0506 7.97911 10.0492C7.92491 10.0492 7.87072 10.0492 7.81653 10.0492V9.99503C8.31426 10.0143 8.81147 9.94534 9.28514 9.79127L9.31874 9.78043Z" fill="#333333"/>
<path d="M11.687 9.75879C11.9421 9.79839 12.1919 9.86674 12.4316 9.96255C12.271 9.9284 12.1125 9.88498 11.9569 9.83249C11.868 9.80648 11.7781 9.78191 11.687 9.75879Z" fill="#333333"/>
<path d="M19.4278 9.91788V9.97533C18.7249 10.1118 17.9989 10.0697 17.3165 9.85285V9.79541C17.9986 10.0139 18.725 10.056 19.4278 9.91788Z" fill="#333333"/>
<path d="M9.31874 9.9611C9.5178 9.89624 9.7214 9.84625 9.92786 9.81152V9.86897C9.72727 9.90263 9.52947 9.95118 9.33608 10.0142L9.30248 10.025C8.87502 10.1636 8.42846 10.2342 7.97911 10.2342C7.92491 10.2342 7.87072 10.2342 7.81653 10.2342V10.1779C8.31417 10.197 8.81129 10.1284 9.28514 9.97518L9.31874 9.9611Z" fill="#333333"/>
<path d="M12.9398 10.2149C12.6055 10.1884 12.2755 10.1222 11.9568 10.0176C11.4645 9.85654 10.9469 9.78747 10.4296 9.81387C10.4567 9.8052 10.4849 9.79761 10.512 9.79111C10.5727 9.77594 10.6334 9.76293 10.6973 9.75317C11.1312 9.75732 11.5618 9.82824 11.9741 9.96344C12.2498 10.0541 12.5342 10.1155 12.8228 10.1466C12.8618 10.1683 12.9019 10.191 12.9398 10.2149Z" fill="#333333"/>
<path d="M19.4278 10.098V10.1576C18.7181 10.2945 17.9853 10.2506 17.297 10.0297L17.2395 10.0102C16.4585 9.76002 15.6217 9.7412 14.8301 9.95601C15.0259 9.87929 15.2284 9.82088 15.4349 9.78151C15.9645 9.71866 16.5012 9.75542 17.0173 9.8899C17.0965 9.90941 17.1745 9.93217 17.2525 9.9571L17.31 9.97552C17.9942 10.1951 18.7229 10.2372 19.4278 10.098Z" fill="#333333"/>
<path d="M13.226 10.4079C12.7947 10.4027 12.3667 10.3318 11.9568 10.1976C11.1053 9.91998 10.1876 9.91998 9.33608 10.1976L9.30248 10.2085C8.87515 10.3475 8.4285 10.4181 7.97911 10.4176C7.92491 10.4176 7.87072 10.4176 7.81653 10.4176V10.3624C8.31432 10.3813 8.81153 10.312 9.28514 10.1575L9.31874 10.1467C9.51773 10.0816 9.72135 10.0316 9.92786 9.99711H9.96146C10.6354 9.88924 11.3254 9.94349 11.9742 10.1554C12.3534 10.2788 12.7482 10.3482 13.1469 10.3613C13.174 10.3743 13.2 10.3884 13.226 10.4079Z" fill="#333333"/>
<path d="M19.4277 10.279V10.3365C18.718 10.4733 17.9852 10.4293 17.2969 10.2086L17.2394 10.1902C16.3904 9.91542 15.4764 9.91542 14.6274 10.1902C14.4653 10.2431 14.3003 10.2866 14.1331 10.3202C14.1754 10.2899 14.2198 10.2617 14.2643 10.2346C14.3792 10.2075 14.4919 10.1761 14.6046 10.1392C15.4657 9.8566 16.3941 9.85395 17.2568 10.1316L17.3142 10.15C17.9964 10.3712 18.7236 10.4156 19.4277 10.279Z" fill="#333333"/>
<path d="M13.3821 10.5314C13.4027 10.5487 13.4244 10.5672 13.4449 10.5867C12.9403 10.6042 12.4364 10.5323 11.9568 10.3742C11.1051 10.0978 10.1878 10.0978 9.33608 10.3742L9.30248 10.3851C8.87497 10.523 8.42833 10.5925 7.97911 10.591C7.92491 10.591 7.87072 10.591 7.81653 10.591V10.5357C8.31426 10.555 8.81147 10.486 9.28514 10.332L9.31874 10.3211C10.1816 10.0404 11.1113 10.0404 11.9742 10.3211C12.4282 10.4703 12.9043 10.5414 13.3821 10.5314Z" fill="#333333"/>
<path d="M19.4277 10.4587V10.5162C18.718 10.653 17.9852 10.609 17.2969 10.3883L17.2394 10.3699C16.3906 10.097 15.4774 10.0985 14.6295 10.3742C14.3723 10.4595 14.1073 10.5193 13.8383 10.553C13.8645 10.5287 13.892 10.5059 13.9207 10.4847C14.1534 10.4499 14.3829 10.3959 14.6068 10.3232C15.468 10.0417 16.3961 10.039 17.2589 10.3157L17.3164 10.3341C17.9983 10.5535 18.7247 10.5963 19.4277 10.4587Z" fill="#333333"/>
<path d="M19.4278 10.6387V10.6994C18.7181 10.8374 17.985 10.7934 17.2969 10.5715L17.2395 10.5531C16.3897 10.281 15.4758 10.2833 14.6274 10.5596C13.7598 10.843 12.8245 10.843 11.9568 10.5596C11.1052 10.2827 10.1877 10.2827 9.33608 10.5596L9.30248 10.5705C8.87497 10.7087 8.4284 10.7789 7.97911 10.7786C7.92491 10.7786 7.87072 10.7786 7.81653 10.7786V10.7233C8.31417 10.7424 8.81129 10.6738 9.28514 10.5206L9.31874 10.5087C10.1816 10.228 11.1113 10.228 11.9742 10.5087C12.4892 10.6738 13.0312 10.7386 13.5707 10.6994L13.6791 10.6908C13.993 10.6614 14.3027 10.5974 14.6025 10.5C15.4637 10.2184 16.3918 10.2158 17.2547 10.4924L17.3121 10.5108C17.9951 10.732 18.7231 10.776 19.4278 10.6387Z" fill="#333333"/>
<path d="M19.4278 10.8186V10.8771C18.718 11.014 17.9852 10.97 17.2969 10.7492L17.2395 10.7308C16.3905 10.456 15.4764 10.456 14.6274 10.7308C13.7597 11.0136 12.8246 11.0136 11.9568 10.7308C11.1053 10.4531 10.1876 10.4531 9.33608 10.7308L9.30248 10.7416C8.87502 10.8802 8.42846 10.9508 7.97911 10.9508C7.92491 10.9508 7.87072 10.9508 7.81653 10.9508V10.8944C8.31417 10.9136 8.81129 10.845 9.28514 10.6918L9.31874 10.6809C10.1817 10.4007 11.1112 10.4007 11.9742 10.6809C12.8287 10.9607 13.7501 10.9607 14.6047 10.6809C15.4659 10.3993 16.394 10.3967 17.2568 10.6733L17.3143 10.6918C17.9967 10.9122 18.7239 10.9558 19.4278 10.8186Z" fill="#333333"/>
<path d="M19.4278 10.9995V11.057C18.718 11.1938 17.9852 11.1498 17.2969 10.9291L17.2395 10.9106C16.3905 10.6359 15.4764 10.6359 14.6274 10.9106C13.7599 11.1946 12.8244 11.1946 11.9568 10.9106C11.1053 10.633 10.1876 10.633 9.33608 10.9106L9.30248 10.9215C8.87527 11.0613 8.42862 11.1326 7.97911 11.1328C7.92491 11.1328 7.87072 11.1328 7.81653 11.1328V11.0776C8.31432 11.0965 8.81153 11.0271 9.28514 10.8727L9.31874 10.8619C10.1816 10.5812 11.1113 10.5812 11.9742 10.8619C12.8289 11.1404 13.75 11.1404 14.6047 10.8619C15.4657 10.5793 16.3942 10.5766 17.2568 10.8543L17.3143 10.8727C17.9967 11.0932 18.7239 11.1368 19.4278 10.9995Z" fill="#333333"/>
<path d="M19.4278 11.1794V11.2412C18.718 11.378 17.9852 11.3341 17.2969 11.1133L17.2395 11.0949C16.3899 10.8217 15.4757 10.8239 14.6274 11.1014C13.7598 11.3848 12.8245 11.3848 11.9568 11.1014C11.1051 10.825 10.1878 10.825 9.33608 11.1014L9.30248 11.1133C8.87497 11.2515 8.4284 11.3217 7.97911 11.3214C7.92491 11.3214 7.87072 11.3214 7.81653 11.3214V11.2661C8.31426 11.2854 8.81147 11.2164 9.28514 11.0624L9.31874 11.0515C10.1816 10.7708 11.1113 10.7708 11.9742 11.0515C12.8289 11.3301 13.75 11.3301 14.6047 11.0515C15.4659 10.7699 16.394 10.7673 17.2568 11.0439L17.3143 11.0624C17.9975 11.2796 18.7247 11.3198 19.4278 11.1794Z" fill="#333333"/>
<path d="M19.4278 11.3596V11.4171C18.7181 11.5551 17.985 11.5111 17.2969 11.2892L17.2395 11.2708C16.3897 10.9987 15.4758 11.0009 14.6274 11.2773C13.7598 11.5607 12.8245 11.5607 11.9568 11.2773C11.1052 11.0004 10.1877 11.0004 9.33608 11.2773L9.30248 11.2881C8.87497 11.4263 8.4284 11.4965 7.97911 11.4962C7.92491 11.4962 7.87072 11.4962 7.81653 11.4962V11.4409C8.31417 11.4601 8.81129 11.3915 9.28514 11.2382L9.31874 11.2263C10.1817 10.9461 11.1112 10.9461 11.9742 11.2263C12.8289 11.5049 13.75 11.5049 14.6047 11.2263C15.4659 10.9448 16.394 10.9421 17.2568 11.2187L17.3143 11.2372C17.9971 11.4562 18.7243 11.4983 19.4278 11.3596Z" fill="#333333"/>
<path d="M19.4278 11.5405V11.598C18.718 11.7349 17.9852 11.6909 17.2969 11.4701L17.2395 11.4516C16.3905 11.1769 15.4764 11.1769 14.6274 11.4516C13.7597 11.7345 12.8246 11.7345 11.9568 11.4516C11.1053 11.174 10.1876 11.174 9.33608 11.4516L9.30248 11.4625C8.8752 11.6021 8.42863 11.6738 7.97911 11.6749C7.92491 11.6749 7.87072 11.6749 7.81653 11.6749V11.6186C8.31417 11.6377 8.81129 11.5691 9.28514 11.4159L9.31874 11.405C10.1817 11.1249 11.1112 11.1249 11.9742 11.405C12.8287 11.6848 13.7501 11.6848 14.6047 11.405C15.4659 11.1235 16.394 11.1208 17.2568 11.3974L17.3143 11.417C17.9972 11.6353 18.7241 11.6778 19.4278 11.5405Z" fill="#333333"/>
<path d="M19.4278 11.7203V11.7832C18.718 11.92 17.9852 11.8761 17.2969 11.6553L17.2395 11.6369C16.3899 11.3639 15.4759 11.3658 14.6274 11.6423C13.7599 11.9263 12.8244 11.9263 11.9568 11.6423C11.1051 11.3659 10.1878 11.3659 9.33608 11.6423L9.30248 11.6531C8.87515 11.7922 8.4285 11.8628 7.97911 11.8623C7.92491 11.8623 7.87072 11.8623 7.81653 11.8623V11.807C8.31426 11.8263 8.81147 11.7573 9.28514 11.6033L9.31874 11.5924C10.1816 11.3117 11.1113 11.3117 11.9742 11.5924C12.8289 11.871 13.75 11.871 14.6047 11.5924C15.4658 11.3103 16.3941 11.3077 17.2568 11.5848L17.3143 11.6033C17.9975 11.8205 18.7247 11.8608 19.4278 11.7203Z" fill="#333333"/>
<path d="M19.4278 11.9003V11.9577C18.7181 12.0957 17.985 12.0517 17.2969 11.8298L17.2395 11.8114C16.3899 11.5382 15.4757 11.5405 14.6274 11.8179C13.7598 12.1013 12.8245 12.1013 11.9568 11.8179C11.1051 11.5415 10.1878 11.5415 9.33608 11.8179L9.30248 11.8298C8.87497 11.9681 8.4284 12.0383 7.97911 12.0379C7.92491 12.0379 7.87072 12.0379 7.81653 12.0379V11.9827C8.31426 12.002 8.81147 11.933 9.28514 11.7789L9.31874 11.7681C10.1816 11.4874 11.1113 11.4874 11.9742 11.7681C12.8289 12.0466 13.75 12.0466 14.6047 11.7681C15.4659 11.4865 16.394 11.4838 17.2568 11.7605L17.3143 11.7789C17.9972 11.9976 18.7244 12.0393 19.4278 11.9003Z" fill="#333333"/>
<path d="M10.8708 11.7409C10.817 11.7539 10.7641 11.7705 10.7126 11.7907C10.2455 11.7825 9.7803 11.8521 9.33608 11.9967L9.30248 12.0075C8.87502 12.146 8.42846 12.2166 7.97911 12.2167C7.92491 12.2167 7.87072 12.2167 7.81653 12.2167V12.1603C8.31417 12.1795 8.81129 12.1108 9.28514 11.9576L9.31874 11.9468C9.81906 11.7834 10.3452 11.7136 10.8708 11.7409Z" fill="#333333"/>
<path d="M14.6046 11.9461C14.9818 11.8228 15.3742 11.752 15.7708 11.7358C15.6918 11.7531 15.6146 11.7775 15.5399 11.8085C15.2302 11.8377 14.9247 11.9021 14.6295 12.0003C13.8028 12.2706 12.9136 12.2838 12.0792 12.0382C12.0395 12.0034 11.9975 11.9711 11.9535 11.9418L11.9763 11.9483C12.8303 12.2269 13.751 12.2261 14.6046 11.9461Z" fill="#333333"/>
<path d="M19.4278 12.0803V12.1388C18.7181 12.2757 17.9853 12.2317 17.297 12.0109L17.2396 11.9914C17.047 11.9287 16.8499 11.8809 16.6499 11.8483C16.5855 11.813 16.5176 11.7843 16.4473 11.7627C16.7222 11.7946 16.9934 11.8534 17.2569 11.9383L17.3143 11.9567C17.997 12.1761 18.7242 12.2186 19.4278 12.0803Z" fill="#333333"/>
<path d="M9.31874 12.1237C9.69413 12.001 10.0849 11.9317 10.4795 11.9177C10.4524 11.9361 10.4253 11.9567 10.3993 11.9784C10.0378 11.9976 9.68028 12.0643 9.33608 12.1768L9.30248 12.1876C8.87515 12.3267 8.4285 12.3973 7.97911 12.3968C7.92491 12.3968 7.87072 12.3968 7.81653 12.3968V12.3404C8.31422 12.3606 8.81153 12.292 9.28514 12.1377L9.31874 12.1237Z" fill="#333333"/>
<path d="M14.6047 12.1267C14.82 12.0556 15.0408 12.0019 15.2647 11.9663C15.2326 11.9891 15.2019 12.0137 15.1726 12.04C14.989 12.0731 14.8079 12.1191 14.6307 12.1777C13.8748 12.425 13.0652 12.458 12.2918 12.273C12.2755 12.2492 12.2571 12.2253 12.2386 12.2026C13.0186 12.4021 13.8391 12.3758 14.6047 12.1267Z" fill="#333333"/>
<path d="M19.4279 12.2613V12.3188C18.7181 12.4557 17.9853 12.4117 17.297 12.1909L17.2396 12.1725C17.1475 12.1421 17.0532 12.1161 16.9589 12.0933C16.9365 12.0673 16.9126 12.0424 16.8873 12.0186C17.012 12.0457 17.1355 12.0803 17.2569 12.1194L17.3144 12.1378C17.9972 12.3566 18.7242 12.3991 19.4279 12.2613Z" fill="#333333"/>
<path d="M9.31874 12.3035C9.62548 12.2019 9.94303 12.1364 10.2649 12.1084C10.2471 12.128 10.2305 12.1486 10.2151 12.1702C9.9162 12.1985 9.62139 12.2599 9.33608 12.3533L9.30248 12.3642C8.87515 12.5033 8.4285 12.5739 7.97911 12.5734C7.92491 12.5734 7.87072 12.5734 7.81653 12.5734V12.5181C8.31426 12.5374 8.81147 12.4684 9.28514 12.3143L9.31874 12.3035Z" fill="#333333"/>
<path d="M14.6046 12.3066C14.7423 12.2629 14.8824 12.2268 15.024 12.1982C15.0056 12.221 14.9872 12.2438 14.9699 12.2676C14.8539 12.2936 14.7401 12.3261 14.6274 12.363C13.9124 12.5973 13.1485 12.6399 12.412 12.4865L12.3795 12.4226C13.1182 12.583 13.8865 12.5429 14.6046 12.3066Z" fill="#333333"/>
<path d="M19.4278 12.4412V12.4986C18.7181 12.6356 17.9853 12.5916 17.297 12.3707L17.2396 12.3523C17.2005 12.3393 17.1615 12.3274 17.1214 12.3165C17.1073 12.2927 17.0932 12.2689 17.0781 12.2461C17.1377 12.2624 17.1973 12.2797 17.2569 12.2992L17.3143 12.3176C17.997 12.537 18.7242 12.5795 19.4278 12.4412Z" fill="#333333"/>
<path d="M9.31874 12.4835C9.5815 12.398 9.85191 12.3381 10.1262 12.3047C10.1143 12.3253 10.1034 12.347 10.0926 12.3676C9.8349 12.4002 9.58086 12.4571 9.33391 12.5377L9.30032 12.5486C8.87361 12.6873 8.42779 12.7582 7.97911 12.7588C7.92491 12.7588 7.87072 12.7588 7.81653 12.7588V12.7035C8.31417 12.7227 8.81129 12.6541 9.28514 12.5009L9.31874 12.4835Z" fill="#333333"/>
<path d="M14.6046 12.4867C14.6935 12.4575 14.7845 12.4315 14.8755 12.4087C14.8625 12.4304 14.8506 12.4531 14.8387 12.4759C14.7682 12.4943 14.6967 12.516 14.6219 12.5388C13.9325 12.7642 13.1972 12.8115 12.4846 12.6764C12.4792 12.6569 12.4716 12.6363 12.464 12.6168C13.1769 12.7571 13.9139 12.7124 14.6046 12.4867Z" fill="#333333"/>
<path d="M19.4279 12.6212V12.6787C18.7182 12.8166 17.9851 12.7726 17.297 12.5508L17.2396 12.5323L17.2179 12.5258C17.2104 12.5034 17.2017 12.4813 17.1919 12.4597L17.2569 12.4792L17.3144 12.4977C17.9971 12.717 18.7243 12.7595 19.4279 12.6212Z" fill="#333333"/>
<path d="M9.31874 12.6646C9.55182 12.5883 9.7912 12.5328 10.0341 12.4988C10.0257 12.5182 10.0185 12.5381 10.0124 12.5584C9.78278 12.5918 9.55649 12.6451 9.33608 12.7177L9.30248 12.7286C8.87502 12.8671 8.42846 12.9377 7.97911 12.9377C7.92491 12.9377 7.87072 12.9377 7.81653 12.9377V12.8814C8.31417 12.9005 8.81129 12.8319 9.28514 12.6787L9.31874 12.6646Z" fill="#333333"/>
<path d="M14.6047 12.6668C14.6622 12.6483 14.7196 12.6299 14.777 12.6147C14.7684 12.6364 14.7608 12.6581 14.7532 12.6809C14.7109 12.6917 14.6687 12.7047 14.6275 12.7188C13.9544 12.9392 13.2374 12.9902 12.54 12.8673L12.527 12.8077C13.2205 12.9347 13.9347 12.8863 14.6047 12.6668Z" fill="#333333"/>
<path d="M19.4278 12.8011V12.8596C18.718 12.9965 17.9852 12.9525 17.2969 12.7317L17.2774 12.7252C17.2716 12.7028 17.2662 12.6811 17.2612 12.6602L17.3143 12.6775C17.997 12.8969 18.7242 12.9394 19.4278 12.8011Z" fill="#333333"/>
<path d="M9.31867 12.8442C9.53082 12.7743 9.74831 12.7217 9.96898 12.687C9.96361 12.7063 9.95927 12.7258 9.95597 12.7455C9.74386 12.7797 9.53476 12.8304 9.33059 12.8973L9.29699 12.9081C8.86966 13.0472 8.42301 13.1178 7.97361 13.1173C7.91942 13.1173 7.86523 13.1173 7.81104 13.1173V13.062C8.30876 13.0813 8.80598 13.0123 9.27965 12.8583L9.31867 12.8442Z" fill="#333333"/>
<path d="M14.6046 12.8478C14.6414 12.8359 14.6783 12.824 14.7129 12.8142C14.7075 12.8348 14.7032 12.8554 14.6989 12.876L14.6252 12.8987C13.9567 13.1176 13.2448 13.1694 12.5518 13.0494C12.5518 13.0299 12.5518 13.0115 12.5518 12.992C13.2375 13.1133 13.9425 13.0638 14.6046 12.8478Z" fill="#333333"/>
<path d="M19.4279 12.9819V13.0393C18.7219 13.1757 17.993 13.1328 17.3079 12.9147C17.3079 12.8941 17.3079 12.8735 17.3003 12.854H17.3144C17.9968 13.0743 18.7239 13.1183 19.4279 12.9819Z" fill="#333333"/>
<path d="M9.31874 13.0243C9.52195 12.958 9.72993 12.9072 9.94087 12.8726C9.93764 12.8919 9.93547 12.9115 9.93437 12.9311C9.73151 12.9646 9.53151 13.0135 9.33608 13.0774L9.30248 13.0893C8.87514 13.2286 8.42858 13.3 7.97911 13.3007C7.92491 13.3007 7.87072 13.3007 7.81653 13.3007V13.2454C8.31426 13.2647 8.81147 13.1957 9.28514 13.0416L9.31874 13.0243Z" fill="#333333"/>
<path d="M14.6804 13.0037V13.0622L14.6295 13.0839C13.9596 13.3031 13.246 13.3541 12.5518 13.2324V13.1749C13.2395 13.2977 13.9469 13.2486 14.6111 13.0318L14.6804 13.0037Z" fill="#333333"/>
<path d="M19.4278 13.1616V13.2191C18.7248 13.3551 17.999 13.313 17.3165 13.0966V13.089C17.3165 13.0717 17.3165 13.0543 17.3165 13.0381C17.9985 13.2572 18.7249 13.2997 19.4278 13.1616Z" fill="#333333"/>
<path d="M9.31874 13.2042C9.51783 13.1396 9.72143 13.09 9.92786 13.0557V13.1131C9.7273 13.1469 9.5295 13.1954 9.33608 13.2583L9.30248 13.2692C8.87497 13.4074 8.4284 13.4776 7.97911 13.4773C7.92491 13.4773 7.87072 13.4773 7.81653 13.4773V13.422C8.31417 13.4411 8.81129 13.3725 9.28514 13.2193L9.31874 13.2042Z" fill="#333333"/>
<path d="M14.6871 13.1826C14.6876 13.1931 14.6876 13.2036 14.6871 13.214V13.2411L14.6264 13.2596C13.9569 13.479 13.2438 13.5304 12.5497 13.4091V13.3528C13.2375 13.4757 13.9451 13.4261 14.6091 13.2086L14.6871 13.1826Z" fill="#333333"/>
<path d="M19.4278 13.342V13.4005C18.7248 13.5359 17.9991 13.4938 17.3165 13.278V13.2195C17.9986 13.4379 18.725 13.4801 19.4278 13.342Z" fill="#333333"/>
<path d="M9.31874 13.3852C9.5178 13.3203 9.7214 13.2703 9.92786 13.2356V13.293C9.72727 13.3267 9.52947 13.3753 9.33608 13.4383L9.30248 13.4491C8.87502 13.5877 8.42846 13.6583 7.97911 13.6583C7.92491 13.6583 7.87072 13.6583 7.81653 13.6583V13.6019C8.31417 13.6211 8.81129 13.5525 9.28514 13.3993L9.31874 13.3852Z" fill="#333333"/>
<path d="M14.6047 13.3876C14.6329 13.3789 14.66 13.3692 14.6882 13.3616V13.4212L14.6275 13.4396C13.9576 13.6587 13.2441 13.7101 12.5497 13.5892V13.5317C13.2361 13.6539 13.9421 13.6044 14.6047 13.3876Z" fill="#333333"/>
<path d="M19.4278 13.5224V13.5798C18.7248 13.7152 17.9991 13.6731 17.3165 13.4573V13.3999C17.9988 13.6173 18.7249 13.6594 19.4278 13.5224Z" fill="#333333"/>
<path d="M9.31874 13.5653C9.51773 13.5002 9.72135 13.4502 9.92786 13.4158V13.4732C9.72727 13.5069 9.52947 13.5554 9.33608 13.6185L9.30248 13.6293C8.87539 13.7698 8.42873 13.8419 7.97911 13.8428C7.92491 13.8428 7.87072 13.8428 7.81653 13.8428V13.7875C8.31426 13.8068 8.81147 13.7378 9.28514 13.5838L9.31874 13.5653Z" fill="#333333"/>
<path d="M14.6047 13.5682C14.6329 13.5596 14.66 13.5498 14.6882 13.5422V13.6008L14.6275 13.6192C13.9578 13.8394 13.2441 13.8907 12.5497 13.7688V13.7124C13.2362 13.8336 13.9419 13.7841 14.6047 13.5682Z" fill="#333333"/>
<path d="M19.4278 13.7028V13.7602C18.7248 13.8955 17.9993 13.8537 17.3165 13.6389V13.5803C17.9986 13.7988 18.725 13.8409 19.4278 13.7028Z" fill="#333333"/>
<path d="M9.31874 13.745C9.51773 13.6799 9.72135 13.6299 9.92786 13.5955V13.6529C9.72727 13.6866 9.52947 13.7351 9.33608 13.7981L9.30248 13.8101C8.87497 13.9483 8.4284 14.0185 7.97911 14.0182C7.92491 14.0182 7.87072 14.0182 7.81653 14.0182V13.9629C8.31426 13.9822 8.81147 13.9132 9.28514 13.7591L9.31874 13.745Z" fill="#333333"/>
<path d="M14.6047 13.7484C14.6329 13.7398 14.66 13.73 14.6882 13.7224V13.782L14.6275 13.8004C13.9578 14.0204 13.2442 14.0722 12.5497 13.9511V13.8947C13.2364 14.0152 13.9421 13.965 14.6047 13.7484Z" fill="#333333"/>
<path d="M19.4278 13.883V13.9404C18.7249 14.0767 17.9991 14.035 17.3165 13.819V13.7605C17.9986 13.979 18.725 14.0211 19.4278 13.883Z" fill="#333333"/>
<path d="M9.31874 13.9249C9.51776 13.8601 9.72138 13.8105 9.92786 13.7764V13.8338C9.7273 13.8676 9.5295 13.9161 9.33608 13.979L9.30248 13.9899C8.87502 14.1284 8.42846 14.199 7.97911 14.1991C7.92491 14.1991 7.87072 14.1991 7.81653 14.1991V14.1427C8.31417 14.1619 8.81129 14.0932 9.28514 13.94L9.31874 13.9249Z" fill="#333333"/>
<path d="M14.6047 13.9279C14.6329 13.9192 14.66 13.9094 14.6882 13.9019V13.9615L14.6275 13.9799C13.9576 14.1992 13.244 14.2502 12.5497 14.1284V14.072C13.2361 14.1942 13.9421 14.1447 14.6047 13.9279Z" fill="#333333"/>
<path d="M19.4278 14.0592V14.1178C18.7248 14.2531 17.9991 14.211 17.3165 13.9953V13.9368C17.9986 14.1552 18.725 14.1974 19.4278 14.0592Z" fill="#333333"/>
<path d="M9.31874 14.1056C9.51773 14.0405 9.72135 13.9905 9.92786 13.9561V14.0135C9.72727 14.0472 9.52947 14.0957 9.33608 14.1587L9.30248 14.1696C8.87545 14.3105 8.42879 14.3829 7.97911 14.3842C7.92491 14.3842 7.87072 14.3842 7.81653 14.3842V14.3278C8.31417 14.347 8.81129 14.2784 9.28514 14.1251L9.31874 14.1056Z" fill="#333333"/>
<path d="M14.6047 14.1093C14.6329 14.1006 14.66 14.0908 14.6882 14.0833V14.1418L14.6275 14.1602C13.9576 14.3793 13.2441 14.4307 12.5497 14.3098V14.2523C13.2361 14.3744 13.9419 14.3253 14.6047 14.1093Z" fill="#333333"/>
<path d="M19.4278 14.2438V14.3013C18.7248 14.4366 17.9991 14.3945 17.3165 14.1788V14.1213C17.9986 14.3398 18.725 14.3819 19.4278 14.2438Z" fill="#333333"/>
<path d="M9.31874 14.2858C9.51773 14.2207 9.72135 14.1707 9.92786 14.1362V14.1937C9.72727 14.2273 9.52947 14.2759 9.33608 14.3389L9.30248 14.3497C8.87515 14.4888 8.4285 14.5594 7.97911 14.5589H7.81653V14.5037C8.31426 14.523 8.81147 14.454 9.28514 14.2999L9.31874 14.2858Z" fill="#333333"/>
<path d="M14.6047 14.2892C14.6329 14.2805 14.66 14.2708 14.6882 14.2632V14.3217L14.6275 14.3401C13.9581 14.5614 13.2443 14.6139 12.5497 14.493V14.4355C13.2363 14.5566 13.9422 14.5063 14.6047 14.2892Z" fill="#333333"/>
<path d="M19.4278 14.4235V14.4809C18.7248 14.6162 17.9993 14.5744 17.3165 14.3596V14.301C17.9986 14.5195 18.725 14.5616 19.4278 14.4235Z" fill="#333333"/>
<path d="M9.31874 14.466C9.51773 14.4009 9.72135 14.3509 9.92786 14.3164V14.3749C9.7273 14.4087 9.5295 14.4573 9.33608 14.5202L9.30248 14.531C8.87497 14.6692 8.4284 14.7394 7.97911 14.7391H7.81653V14.6838C8.31426 14.7031 8.81147 14.6341 9.28514 14.4801L9.31874 14.466Z" fill="#333333"/>
<path d="M14.6047 14.4689C14.6329 14.4602 14.66 14.4505 14.6882 14.4429V14.5025L14.6275 14.5209C13.9576 14.7402 13.244 14.7912 12.5497 14.6694V14.612C13.2361 14.734 13.9419 14.6849 14.6047 14.4689Z" fill="#333333"/>
<path d="M19.4278 14.6015V14.6589C18.7249 14.7954 17.9989 14.7533 17.3165 14.5364V14.479C17.9986 14.6975 18.725 14.7396 19.4278 14.6015Z" fill="#333333"/>
<path d="M9.31874 14.6468C9.51769 14.5805 9.72129 14.5291 9.92786 14.4929V14.5504C9.72727 14.584 9.52947 14.6326 9.33608 14.6956L9.30248 14.7064C8.87502 14.845 8.42846 14.9156 7.97911 14.9156C7.92491 14.9156 7.87072 14.9156 7.81653 14.9156V14.8593C8.31417 14.8784 8.81129 14.8098 9.28514 14.6566L9.31874 14.6468Z" fill="#333333"/>
<path d="M14.6047 14.6488C14.6329 14.6401 14.66 14.6304 14.6882 14.6228V14.6824L14.6275 14.7008C13.9576 14.9199 13.2441 14.9713 12.5497 14.8504V14.793C13.2361 14.9151 13.9421 14.8656 14.6047 14.6488Z" fill="#333333"/>
<path d="M19.4278 14.7834V14.8419C18.7248 14.9773 17.9991 14.9352 17.3165 14.7194V14.6609C17.9986 14.8793 18.725 14.9215 19.4278 14.7834Z" fill="#333333"/>
<path d="M9.31874 14.8268C9.51773 14.7617 9.72135 14.7117 9.92786 14.6772V14.7347C9.72727 14.7684 9.52947 14.8169 9.33608 14.8799L9.30248 14.8908C8.87515 15.0298 8.4285 15.1005 7.97911 15.0999C7.92491 15.0999 7.87072 15.0999 7.81653 15.0999V15.0447C8.31426 15.064 8.81147 14.995 9.28514 14.8409L9.31874 14.8268Z" fill="#333333"/>
<path d="M14.6047 14.83C14.6329 14.8213 14.66 14.8115 14.6882 14.804V14.8625L14.6275 14.8809C13.9581 15.1025 13.2444 15.1554 12.5497 15.0348V14.9795C13.2366 15.099 13.9424 15.0476 14.6047 14.83Z" fill="#333333"/>
<path d="M19.4278 14.9645V15.022C18.7248 15.1573 17.9991 15.1152 17.3165 14.8995V14.842C17.9986 15.0605 18.725 15.1026 19.4278 14.9645Z" fill="#333333"/>
<path d="M9.31874 15.0067C9.51773 14.9417 9.72135 14.8917 9.92786 14.8572V14.9146C9.72727 14.9483 9.52947 14.9968 9.33608 15.0599L9.30248 15.0718C8.87497 15.21 8.4284 15.2802 7.97911 15.2799C7.92491 15.2799 7.87072 15.2799 7.81653 15.2799V15.2246C8.31426 15.2439 8.81147 15.1749 9.28514 15.0208L9.31874 15.0067Z" fill="#333333"/>
<path d="M14.6047 15.0097C14.6329 15.001 14.66 14.9912 14.6882 14.9836V15.0422L14.6275 15.0606C13.9578 15.2808 13.2441 15.3321 12.5497 15.2102V15.1538C13.2362 15.275 13.9419 15.2255 14.6047 15.0097Z" fill="#333333"/>
<path d="M19.4278 15.1432V15.2007C18.7248 15.3366 17.999 15.2945 17.3165 15.0782V15.0208C17.9986 15.2392 18.725 15.2813 19.4278 15.1432Z" fill="#333333"/>
<path d="M9.31874 15.1864C9.51767 15.1206 9.72129 15.0698 9.92786 15.0347V15.0921C9.7273 15.1259 9.5295 15.1744 9.33608 15.2373L9.30248 15.2482C8.87497 15.3864 8.4284 15.4566 7.97911 15.4563C7.92491 15.4563 7.87072 15.4563 7.81653 15.4563V15.401C8.31417 15.4202 8.81129 15.3515 9.28514 15.1983L9.31874 15.1864Z" fill="#333333"/>
<path d="M14.6047 15.1896C14.6329 15.1809 14.66 15.1712 14.6882 15.1636V15.2232L14.6275 15.2416C13.9576 15.4609 13.244 15.5119 12.5497 15.3901V15.3337C13.2362 15.4549 13.9419 15.4054 14.6047 15.1896Z" fill="#333333"/>
<path d="M19.4278 15.3241V15.3816C18.7249 15.5181 17.9989 15.4759 17.3165 15.2591V15.2017C17.9986 15.4201 18.725 15.4623 19.4278 15.3241Z" fill="#333333"/>
<path d="M9.31874 15.3676C9.5178 15.3027 9.7214 15.2527 9.92786 15.218V15.2755C9.72727 15.3091 9.52947 15.3577 9.33608 15.4207L9.30248 15.4315C8.87502 15.5701 8.42846 15.6407 7.97911 15.6407C7.92491 15.6407 7.87072 15.6407 7.81653 15.6407V15.5768C8.31417 15.5959 8.81129 15.5273 9.28514 15.3741L9.31874 15.3676Z" fill="#333333"/>
<path d="M14.6047 15.37C14.6329 15.3613 14.66 15.3516 14.6882 15.344V15.4036L14.6275 15.422C13.958 15.643 13.2446 15.6962 12.5497 15.577V15.5196C13.2366 15.64 13.9425 15.5886 14.6047 15.37Z" fill="#333333"/>
<path d="M19.4278 15.5053V15.5627C18.7248 15.6981 17.9991 15.656 17.3165 15.4403V15.3828C17.9988 15.6002 18.7249 15.6423 19.4278 15.5053Z" fill="#333333"/>
<path d="M9.31874 15.5478C9.51773 15.4827 9.72135 15.4327 9.92786 15.3982V15.4556C9.7273 15.4894 9.5295 15.538 9.33608 15.6009L9.30248 15.6117C8.87515 15.7508 8.4285 15.8214 7.97911 15.8209C7.92491 15.8209 7.87072 15.8209 7.81653 15.8209V15.7656C8.31426 15.7849 8.81147 15.7159 9.28514 15.5619L9.31874 15.5478Z" fill="#333333"/>
<path d="M14.6047 15.5504C14.6329 15.5418 14.66 15.532 14.6882 15.5244V15.5829L14.6275 15.6014C13.9578 15.8215 13.2441 15.8729 12.5497 15.7509V15.6935C13.2361 15.8156 13.9419 15.7664 14.6047 15.5504Z" fill="#333333"/>
<path d="M19.4278 15.6852V15.7427C18.7248 15.878 17.9991 15.8359 17.3165 15.6202V15.5627C17.9986 15.7812 18.725 15.8233 19.4278 15.6852Z" fill="#333333"/>
<path d="M9.31874 15.7273C9.5177 15.6618 9.72132 15.6115 9.92786 15.5767V15.6341C9.72727 15.6678 9.52947 15.7163 9.33608 15.7793L9.30248 15.7913C8.87497 15.9295 8.4284 15.9997 7.97911 15.9994C7.92491 15.9994 7.87072 15.9994 7.81653 15.9994V15.9441C8.31426 15.9634 8.81147 15.8944 9.28514 15.7403L9.31874 15.7273Z" fill="#333333"/>
<path d="M14.6047 15.7306C14.6329 15.7219 14.66 15.7122 14.6882 15.7046V15.7642L14.6275 15.7826C13.9576 16.0019 13.244 16.0529 12.5497 15.9311V15.8737C13.2361 15.9958 13.9419 15.9466 14.6047 15.7306Z" fill="#333333"/>
<path d="M19.4278 15.8649V15.9224C18.7248 16.0583 17.999 16.0162 17.3165 15.7999V15.7424C17.9986 15.9609 18.725 16.003 19.4278 15.8649Z" fill="#333333"/>
<path d="M9.31874 15.9073C9.51776 15.8425 9.72138 15.7929 9.92786 15.7588V15.8162C9.7273 15.85 9.5295 15.8986 9.33608 15.9615L9.30248 15.9723C8.87497 16.1105 8.4284 16.1807 7.97911 16.1804C7.92491 16.1804 7.87072 16.1804 7.81653 16.1804V16.1186C8.31417 16.1378 8.81129 16.0692 9.28514 15.9159L9.31874 15.9073Z" fill="#333333"/>
<path d="M14.6047 15.9108C14.6329 15.9021 14.66 15.8924 14.6882 15.8848V15.9444L14.6275 15.9628C13.9576 16.1821 13.244 16.2331 12.5497 16.1113V16.0549C13.2362 16.1767 13.942 16.1272 14.6047 15.9108Z" fill="#333333"/>
<path d="M19.4278 16.0448V16.1034C18.7248 16.2386 17.9993 16.1969 17.3165 15.982V15.9224C17.9986 16.1408 18.725 16.183 19.4278 16.0448Z" fill="#333333"/>
<path d="M9.31874 16.0885C9.5178 16.0237 9.7214 15.9737 9.92786 15.939V15.9964C9.72727 16.0301 9.52947 16.0786 9.33608 16.1416L9.30248 16.1525C8.87515 16.2916 8.4285 16.3622 7.97911 16.3617H7.81653V16.3053C8.31417 16.3244 8.81129 16.2558 9.28514 16.1026L9.31874 16.0885Z" fill="#333333"/>
<path d="M14.6047 16.0916C14.6318 16.0829 14.66 16.0732 14.6882 16.0667V16.1241L14.6275 16.1425C13.9576 16.3616 13.2441 16.413 12.5497 16.2921V16.2357C13.2362 16.3569 13.9419 16.3074 14.6047 16.0916Z" fill="#333333"/>
<path d="M19.4278 16.227V16.2844C18.7248 16.4196 17.9993 16.3779 17.3165 16.163V16.1045C17.9988 16.3219 18.7249 16.364 19.4278 16.227Z" fill="#333333"/>
<path d="M9.31874 16.2682C9.51773 16.2031 9.72135 16.1531 9.92786 16.1187V16.1761C9.72727 16.2098 9.52947 16.2583 9.33608 16.3213L9.30248 16.3322C8.87515 16.4713 8.4285 16.5419 7.97911 16.5414H7.81653V16.4861C8.31426 16.5054 8.81147 16.4364 9.28514 16.2823L9.31874 16.2682Z" fill="#333333"/>
<path d="M14.6047 16.2716C14.6329 16.2629 14.66 16.2532 14.6882 16.2456V16.3041L14.6275 16.3226C13.9578 16.5427 13.2441 16.5941 12.5497 16.4721V16.4158C13.2362 16.5369 13.9419 16.4874 14.6047 16.2716Z" fill="#333333"/>
<path d="M19.4278 16.4059V16.4634C18.7248 16.5987 17.9991 16.5566 17.3165 16.3409V16.2834C17.9986 16.5019 18.725 16.544 19.4278 16.4059Z" fill="#333333"/>
<path d="M9.31874 16.4438C9.51773 16.3787 9.72135 16.3287 9.92786 16.2942V16.3527C9.7273 16.3865 9.5295 16.4351 9.33608 16.498L9.30248 16.5088C8.87497 16.647 8.4284 16.7172 7.97911 16.7169C7.92491 16.7169 7.87072 16.7169 7.81653 16.7169V16.6605C8.31426 16.6798 8.81147 16.6108 9.28514 16.4568L9.31874 16.4438Z" fill="#333333"/>
<path d="M14.6047 16.4515C14.6329 16.4429 14.66 16.4331 14.6882 16.4255V16.4851L14.6275 16.5036C13.9576 16.7228 13.244 16.7738 12.5497 16.6521V16.5957C13.2362 16.7169 13.9419 16.6674 14.6047 16.4515Z" fill="#333333"/>
<path d="M19.4278 16.5859V16.6433C18.7249 16.7798 17.9989 16.7377 17.3165 16.5208V16.4634C17.9986 16.6818 18.725 16.724 19.4278 16.5859Z" fill="#333333"/>
<path d="M9.31874 16.6291C9.5178 16.5642 9.7214 16.5142 9.92786 16.4795V16.5369C9.7273 16.5707 9.5295 16.6193 9.33608 16.6822L9.30248 16.693C8.87502 16.8316 8.42846 16.9022 7.97911 16.9022C7.92491 16.9022 7.87072 16.9022 7.81653 16.9022V16.8458C8.31417 16.865 8.81129 16.7964 9.28514 16.6432L9.31874 16.6291Z" fill="#333333"/>
<path d="M14.6047 16.6312C14.6329 16.6226 14.66 16.6128 14.6882 16.6052V16.6605L14.6275 16.6789C13.9576 16.8982 13.244 16.9492 12.5497 16.8274V16.7711C13.2358 16.8946 13.9417 16.8466 14.6047 16.6312Z" fill="#333333"/>
<path d="M19.4278 16.769V16.8275C18.7248 16.9627 17.9993 16.921 17.3165 16.7061V16.6465C17.9986 16.8649 18.725 16.9071 19.4278 16.769Z" fill="#333333"/>
<path d="M9.31874 16.8089C9.51783 16.7444 9.72143 16.6948 9.92786 16.6604V16.7178C9.72727 16.7515 9.52947 16.8001 9.33608 16.8631L9.30248 16.8739C8.87515 17.013 8.4285 17.0836 7.97911 17.0831H7.81653V17.0278C8.31426 17.0471 8.81147 16.9781 9.28514 16.8241L9.31874 16.8089Z" fill="#333333"/>
<path d="M14.6047 16.8124C14.6329 16.8037 14.66 16.794 14.6882 16.7864V16.8449L14.6275 16.8633C13.9577 17.0831 13.244 17.1341 12.5497 17.0118V16.9555C13.2361 17.0776 13.9419 17.0284 14.6047 16.8124Z" fill="#333333"/>
<path d="M19.4278 16.9467V17.0041C18.7248 17.1394 17.9993 17.0976 17.3165 16.8827V16.8242C17.9986 17.0427 18.725 17.0848 19.4278 16.9467Z" fill="#333333"/>
<path d="M9.31874 16.9858C9.51773 16.9207 9.72135 16.8707 9.92786 16.8362V16.8936C9.72727 16.9273 9.52947 16.9758 9.33608 17.0389L9.30248 17.0508C8.87497 17.189 8.4284 17.2592 7.97911 17.2589H7.81653V17.2025C8.31426 17.2218 8.81147 17.1528 9.28514 16.9988L9.31874 16.9858Z" fill="#333333"/>
<path d="M14.6047 16.9923C14.6329 16.9836 14.66 16.9739 14.6882 16.9663V17.0248L14.6275 17.0433C13.9578 17.2634 13.2441 17.3148 12.5497 17.1928V17.1354C13.2361 17.2575 13.9419 17.2083 14.6047 16.9923Z" fill="#333333"/>
<path d="M19.4278 17.1266V17.1841C18.7248 17.32 17.999 17.2779 17.3165 17.0616V17.0042C17.9986 17.2226 18.725 17.2647 19.4278 17.1266Z" fill="#333333"/>
<path d="M9.31874 17.1691C9.51773 17.104 9.72135 17.054 9.92786 17.0195V17.0781C9.7273 17.1119 9.5295 17.1604 9.33608 17.2233L9.30248 17.2341C8.87497 17.3723 8.4284 17.4426 7.97911 17.4422H7.81653V17.387C8.31417 17.4061 8.81129 17.3375 9.28514 17.1843L9.31874 17.1691Z" fill="#333333"/>
<path d="M14.6047 17.172C14.6329 17.1633 14.66 17.1536 14.6882 17.146V17.2024L14.6275 17.2208C13.9576 17.4401 13.244 17.491 12.5497 17.3693V17.3107C13.2357 17.4342 13.9416 17.3866 14.6047 17.172Z" fill="#333333"/>
<path d="M19.4278 17.311V17.3684C18.7249 17.5049 17.9989 17.4628 17.3165 17.2459V17.1885C17.9986 17.4069 18.725 17.4491 19.4278 17.311Z" fill="#333333"/>
<path d="M9.31874 17.3498C9.51786 17.2857 9.72146 17.2364 9.92786 17.2024V17.2598C9.72727 17.2935 9.52947 17.342 9.33608 17.4051L9.30248 17.4159C8.87502 17.5545 8.42846 17.6251 7.97911 17.6251C7.92491 17.6251 7.87072 17.6251 7.81653 17.6251V17.5687C8.31417 17.5879 8.81129 17.5193 9.28514 17.3661L9.31874 17.3498Z" fill="#333333"/>
<path d="M14.6047 17.3519C14.6329 17.3433 14.66 17.3335 14.6882 17.3259V17.3855L14.6275 17.404C13.9576 17.6231 13.2441 17.6744 12.5497 17.5535V17.4961C13.2361 17.6182 13.9421 17.5687 14.6047 17.3519Z" fill="#333333"/>
<path d="M19.4278 17.4876V17.5451C18.7245 17.6789 17.9989 17.6357 17.3165 17.4194V17.3608C17.9984 17.5797 18.7245 17.6233 19.4278 17.4876Z" fill="#333333"/>
<path d="M9.31874 17.5277C9.51773 17.4626 9.72135 17.4126 9.92786 17.3782V17.4356C9.72727 17.4693 9.52947 17.5178 9.33608 17.5809L9.30248 17.5917C9.02847 17.6814 8.74587 17.7424 8.45925 17.7738H7.81653V17.7445C8.31426 17.7638 8.81147 17.6948 9.28514 17.5408L9.31874 17.5277Z" fill="#333333"/>
<path d="M14.6046 17.5331C14.6328 17.5244 14.6599 17.5147 14.6881 17.5071V17.5656L14.6274 17.584C14.311 17.6879 13.9837 17.7544 13.6519 17.7824C13.3806 17.8053 13.1077 17.8028 12.8369 17.7748C12.7393 17.765 12.6428 17.7509 12.5464 17.7336V17.6772C13.2339 17.799 13.9408 17.7494 14.6046 17.5331Z" fill="#333333"/>
<path d="M19.4278 17.6673V17.7248C19.3114 17.7472 19.1944 17.7645 19.0766 17.7768C18.7801 17.8077 18.4811 17.8077 18.1846 17.7768C17.8901 17.7486 17.5994 17.689 17.3175 17.5991V17.5405C17.9989 17.7602 18.7249 17.8039 19.4278 17.6673Z" fill="#333333"/>
<path d="M9.31882 17.7099C9.51781 17.6448 9.72143 17.5948 9.92794 17.5603V17.6177C9.72735 17.6514 9.52955 17.7 9.33616 17.763L9.30256 17.7749H9.10205C9.16383 17.7576 9.22561 17.7391 9.2863 17.7196L9.31882 17.7099Z" fill="#333333"/>
<path d="M14.6041 17.713C14.6322 17.7043 14.6592 17.6946 14.6873 17.687V17.7443L14.6268 17.7627L14.5392 17.7897H14.3402C14.4289 17.767 14.5208 17.7443 14.6041 17.713Z" fill="#333333"/>
<path d="M17.5176 17.7834H17.3219H17.3165V17.7261C17.3835 17.747 17.4506 17.7661 17.5176 17.7834Z" fill="#333333"/>
<path d="M9.92756 17.7444V17.779H9.75238C9.80645 17.7628 9.867 17.7509 9.92756 17.7444Z" fill="#333333"/>
<path d="M11.92 6.402C11.5936 6.29718 11.2554 6.23382 10.9131 6.21341C10.9692 6.19425 11.0269 6.1801 11.0855 6.17114C11.3166 6.19479 11.5453 6.23756 11.7694 6.29904C11.8222 6.32938 11.8726 6.36381 11.92 6.402Z" fill="#333333"/>
<path d="M12.1367 6.64786C12.0771 6.63052 12.0164 6.61209 11.9568 6.59258C11.5172 6.4489 11.0569 6.3786 10.5944 6.38449C10.62 6.36412 10.6468 6.3453 10.6746 6.32812C11.1166 6.32978 11.5555 6.4011 11.9752 6.53948C12.0121 6.5514 12.0489 6.56332 12.0836 6.57307C12.1029 6.59681 12.1207 6.6218 12.1367 6.64786Z" fill="#333333"/>
<path d="M12.245 6.85499C12.1496 6.83223 12.0553 6.80405 11.9621 6.7737C11.4637 6.61031 10.9391 6.54157 10.4155 6.57102C10.4305 6.55055 10.4468 6.53101 10.4642 6.5125C10.9784 6.48972 11.4924 6.55984 11.9816 6.71951C12.0607 6.74552 12.1409 6.76937 12.2212 6.78996C12.2302 6.81122 12.2382 6.83292 12.245 6.85499Z" fill="#333333"/>
<path d="M12.2895 7.04801C12.1811 7.02091 12.0662 6.98948 11.9567 6.95371C11.421 6.77884 10.8558 6.71251 10.2941 6.75862C10.3039 6.73911 10.3136 6.7196 10.3245 6.70009C10.8825 6.66021 11.443 6.73017 11.9741 6.90603C12.0738 6.93854 12.1757 6.96781 12.2776 6.99273C12.2819 7.00682 12.2862 7.02742 12.2895 7.04801Z" fill="#333333"/>
<path d="M12.3026 7.21476V7.23102C12.1858 7.2047 12.0704 7.1725 11.9569 7.13456C11.3983 6.95145 10.8075 6.88757 10.2227 6.94705C10.2227 6.92755 10.2336 6.90804 10.2401 6.88853C10.8252 6.83251 11.4157 6.8982 11.9742 7.08145C12.0826 7.11722 12.191 7.14757 12.2994 7.17466C12.3026 7.18767 12.3026 7.20067 12.3026 7.21476Z" fill="#333333"/>
<path d="M12.2938 7.35128C12.2938 7.3697 12.2938 7.38921 12.2851 7.40656C12.1767 7.38054 12.0684 7.34911 11.96 7.31334C11.3923 7.12746 10.7915 7.06465 10.1976 7.12909L10.2041 7.07165C10.8019 7.01023 11.4059 7.07447 11.9773 7.26024C12.0792 7.29492 12.1854 7.32527 12.2938 7.35128Z" fill="#333333"/>
<path d="M12.257 7.52263C12.257 7.53997 12.2462 7.5584 12.2396 7.57574C12.1443 7.55298 12.05 7.5248 11.9568 7.49445C11.3894 7.30899 10.7892 7.24546 10.1955 7.30803C10.1944 7.28962 10.1944 7.27116 10.1955 7.25275C10.7961 7.18923 11.4034 7.2535 11.9774 7.44134C12.0684 7.47169 12.1616 7.49878 12.257 7.52263Z" fill="#333333"/>
<path d="M12.192 7.68543C12.1841 7.70296 12.175 7.71998 12.1649 7.73637C12.0927 7.71831 12.0233 7.69771 11.9568 7.67459C11.398 7.49246 10.8075 7.4286 10.2227 7.48709C10.2172 7.46858 10.2128 7.44976 10.2097 7.43073C10.8047 7.37049 11.4057 7.43547 11.9742 7.62148C12.0457 7.64533 12.1183 7.66484 12.192 7.68543Z" fill="#333333"/>
<path d="M12.0988 7.83916C12.0869 7.85542 12.075 7.87168 12.062 7.88685C12.0273 7.8771 11.9915 7.86626 11.9536 7.85434C11.4185 7.68169 10.8545 7.61722 10.2942 7.66466C10.2856 7.64732 10.278 7.6289 10.2704 7.61047C10.8471 7.55888 11.4283 7.62526 11.9785 7.80556L12.0988 7.83916Z" fill="#333333"/>
<path d="M11.9729 7.98107L11.9241 8.02551C11.4293 7.86682 10.9092 7.80176 10.3905 7.83367L10.3547 7.77947C10.9021 7.74205 11.4515 7.8105 11.9729 7.98107Z" fill="#333333"/>
<path d="M11.8051 8.11011C11.7834 8.12513 11.7606 8.13853 11.7368 8.15022C11.3483 8.04581 10.9468 7.99799 10.5446 8.00823C10.5251 7.98981 10.5056 7.97246 10.4861 7.95296C10.9313 7.93625 11.3763 7.98928 11.8051 8.11011Z" fill="#333333"/>
<path d="M11.5481 8.22624C11.5045 8.24002 11.46 8.25053 11.4148 8.25767C11.2273 8.22211 11.0375 8.20001 10.8469 8.19155C10.8057 8.17437 10.7658 8.15408 10.7277 8.13086C11.0036 8.13579 11.2784 8.16774 11.5481 8.22624Z" fill="#333333"/>
<path d="M16.3552 6.2234C16.1261 6.19994 15.8955 6.19595 15.6658 6.21148C15.8905 6.1382 16.1332 6.14239 16.3552 6.2234Z" fill="#333333"/>
<path d="M16.7247 6.45514C16.2488 6.36669 15.7614 6.35936 15.2831 6.43346C15.309 6.40958 15.3361 6.38715 15.3644 6.36626C15.7896 6.30787 16.2211 6.31408 16.6445 6.38469C16.6727 6.40642 16.6995 6.42996 16.7247 6.45514Z" fill="#333333"/>
<path d="M16.8991 6.67191C16.3092 6.53528 15.6968 6.52678 15.1032 6.64698C15.1173 6.62422 15.1325 6.60254 15.1487 6.58087C15.7129 6.47436 16.2927 6.48247 16.8536 6.60471C16.8699 6.62639 16.884 6.64806 16.8991 6.67191Z" fill="#333333"/>
<path d="M16.9925 6.87558C16.3409 6.70788 15.6585 6.69859 15.0026 6.84848C15.0101 6.82708 15.0188 6.80609 15.0286 6.78562C15.6688 6.6462 16.3324 6.6551 16.9687 6.81163C16.9777 6.83251 16.9857 6.85386 16.9925 6.87558Z" fill="#333333"/>
<path d="M17.0379 7.06769C16.3567 6.88537 15.6407 6.87569 14.9548 7.03951C14.9576 7.01978 14.9616 7.00024 14.9667 6.98098C15.6451 6.82222 16.3519 6.83114 17.026 7.00699C17.0311 7.02698 17.0351 7.04724 17.0379 7.06769Z" fill="#333333"/>
<path d="M17.0487 7.19214V7.2149C17.0487 7.22682 17.0487 7.23766 17.0487 7.24958C16.3585 7.06441 15.6329 7.05546 14.9384 7.22357V7.2149C14.9384 7.19864 14.9384 7.18239 14.9384 7.16613C15.633 6.99908 16.3584 7.00802 17.0487 7.19214Z" fill="#333333"/>
<path d="M17.0378 7.37001C17.0378 7.38952 17.0313 7.40794 17.027 7.42528C16.3489 7.2455 15.6368 7.23694 14.9547 7.40035C14.9547 7.38193 14.9482 7.3635 14.946 7.34399C15.6348 7.18036 16.3533 7.1893 17.0378 7.37001Z" fill="#333333"/>
<path d="M16.9978 7.54019C16.9925 7.55829 16.9859 7.57602 16.9783 7.59329C16.3298 7.42865 15.6514 7.42085 14.9992 7.57053C14.9925 7.55316 14.9867 7.53543 14.9819 7.51742C15.6461 7.36446 16.3372 7.37227 16.9978 7.54019Z" fill="#333333"/>
<path d="M16.9296 7.70258C16.9209 7.71992 16.9111 7.73727 16.9014 7.75352C16.3006 7.61432 15.6766 7.60766 15.0729 7.73401L15.0458 7.68307C15.6675 7.55021 16.3108 7.55688 16.9296 7.70258Z" fill="#333333"/>
<path d="M16.8278 7.86086C16.8152 7.87809 16.8015 7.89439 16.7866 7.90964C16.2582 7.80239 15.7141 7.79687 15.1836 7.89338L15.1435 7.84244C15.7006 7.73742 16.2731 7.74368 16.8278 7.86086Z" fill="#333333"/>
<path d="M16.6889 8.01258L16.6314 8.06027C16.2072 7.99094 15.7748 7.98655 15.3493 8.04726C15.3297 8.03209 15.3102 8.01583 15.2918 7.99849C15.7551 7.92673 16.2271 7.93149 16.6889 8.01258Z" fill="#333333"/>
<path d="M16.4623 8.16008C16.4272 8.17762 16.391 8.19283 16.3539 8.2056C16.1039 8.1805 15.8522 8.17759 15.6017 8.19693C15.5672 8.18398 15.5335 8.16877 15.5009 8.15141C15.8207 8.11874 16.1431 8.12165 16.4623 8.16008Z" fill="#333333"/>
<path d="M16.7886 8.27356V9.48097C16.4097 9.29098 15.9921 9.19085 15.5682 9.18833C15.1077 9.18795 14.6517 9.27928 14.2269 9.45699C13.802 9.6347 13.4168 9.89524 13.0938 10.2234C12.7707 9.89524 12.3855 9.6347 11.9607 9.45699C11.5358 9.27928 11.0799 9.18795 10.6193 9.18833C10.1966 9.1881 9.77946 9.28488 9.40002 9.47121V8.26923H7.2876V17.2467H9.39893V12.5515C9.39893 11.7928 9.88991 11.175 10.6508 11.175C11.3943 11.175 11.9384 11.7278 12.0283 12.4475C12.0283 12.519 12.0208 12.5905 12.0208 12.6642V17.2446H12.0403L14.1397 17.2662H14.1592V12.6848C14.1592 12.6122 14.1592 12.5407 14.1516 12.4681C14.2416 11.7484 14.7922 11.1674 15.5368 11.1674C16.2814 11.1674 16.7886 11.7928 16.7886 12.5526V17.2478L18.8999 17.2391V8.26489L16.7886 8.27356Z" fill="#333333"/>
<path d="M10.718 7.74171C11.301 7.74171 11.7736 7.26907 11.7736 6.68604C11.7736 6.10301 11.301 5.63037 10.718 5.63037C10.1349 5.63037 9.66229 6.10301 9.66229 6.68604C9.66229 7.26907 10.1349 7.74171 10.718 7.74171Z" fill="#333333"/>
<path d="M15.4642 7.74171C16.0472 7.74171 16.5198 7.26907 16.5198 6.68604C16.5198 6.10301 16.0472 5.63037 15.4642 5.63037C14.8811 5.63037 14.4085 6.10301 14.4085 6.68604C14.4085 7.26907 14.8811 7.74171 15.4642 7.74171Z" fill="#333333"/>
</svg>
