<svg width="25" height="25" viewBox="0 0 25 25" fill="none" xmlns="http://www.w3.org/2000/svg">
<path d="M10.2941 6.40039H11.4864C11.0909 6.4559 10.6896 6.4559 10.2941 6.40039Z" fill="#333333"/>
<path d="M16.4808 6.43941C16.179 6.45785 15.876 6.44478 15.5769 6.40039H16.2792C16.3483 6.40043 16.4167 6.41367 16.4808 6.43941Z" fill="#333333"/>
<path d="M12.2613 6.40039L12.2332 6.40906C11.4176 6.6762 10.5409 6.69356 9.71539 6.45892C9.74324 6.44459 9.77225 6.43263 9.8021 6.42315C10.5466 6.62217 11.3313 6.6143 12.0717 6.40039H12.2613Z" fill="#333333"/>
<path d="M15.0241 6.40071H14.8345H14.8453L14.9028 6.41914C15.4824 6.60487 16.0949 6.66582 16.6998 6.59797C16.6853 6.57936 16.6694 6.56196 16.6521 6.54595C16.1057 6.60341 15.5533 6.55296 15.0263 6.39746L15.0241 6.40071Z" fill="#333333"/>
<path d="M12.747 6.40087C12.5653 6.43486 12.3861 6.48084 12.2105 6.53852C11.3604 6.8138 10.4452 6.8138 9.59516 6.53852C9.579 6.55232 9.56413 6.56755 9.55072 6.58404H9.56264C10.4303 6.86743 11.3656 6.86743 12.2332 6.58404C13.0816 6.30756 13.9956 6.30528 14.8453 6.57753L14.9028 6.59596C15.5134 6.79466 16.1608 6.85391 16.7973 6.76938C16.7912 6.75123 16.784 6.7335 16.7756 6.71627C16.1538 6.79842 15.5215 6.7414 14.9244 6.54935L14.867 6.53093C14.6984 6.47628 14.5265 6.43283 14.3522 6.40087H12.747Z" fill="#333333"/>
<path d="M16.821 6.94281C16.1775 7.03451 15.5216 6.97892 14.9026 6.78023L14.8452 6.76072C13.9954 6.48862 13.0815 6.49089 12.2331 6.76722C11.3655 7.05062 10.4302 7.05062 9.56252 6.76722C9.52783 6.7553 9.49207 6.74446 9.45413 6.73471C9.46135 6.71721 9.46967 6.7002 9.47906 6.68377L9.57661 6.71412C10.4311 6.99389 11.3526 6.99389 12.2071 6.71412C13.0683 6.43255 13.9965 6.42989 14.8593 6.70653L14.9167 6.72495C15.5289 6.92191 16.178 6.97677 16.8145 6.88536C16.818 6.90434 16.8202 6.92353 16.821 6.94281Z" fill="#333333"/>
<path d="M16.8212 7.07493V7.13129C16.1776 7.223 15.5217 7.16741 14.9028 6.96872L14.8464 6.94487C13.9968 6.6719 13.0828 6.6738 12.2343 6.95029C11.3666 7.23316 10.4315 7.23316 9.56374 6.95029C9.51713 6.93512 9.46944 6.91994 9.42175 6.90694C9.42172 6.8876 9.4239 6.86833 9.42826 6.84949L9.58108 6.89718C10.4358 7.17575 11.3569 7.17575 12.2116 6.89718C13.0726 6.61474 14.0009 6.61171 14.8638 6.88851L14.9212 6.90802C15.5337 7.10701 16.1834 7.16408 16.8212 7.07493Z" fill="#333333"/>
<path d="M16.8211 7.24937V7.30573C16.1776 7.39744 15.5216 7.34185 14.9027 7.14315L14.8453 7.12473C13.9962 6.85 13.0822 6.85 12.2332 7.12473C11.3656 7.40873 10.4301 7.40873 9.56258 7.12473C9.51489 7.10847 9.4672 7.09438 9.41843 7.08137V7.02176C9.47262 7.03694 9.52681 7.05428 9.57992 7.07162C10.4346 7.35019 11.3557 7.35019 12.2104 7.07162C13.0727 6.79305 14.001 6.79419 14.8626 7.07487L14.92 7.0933C15.5335 7.28987 16.1838 7.34326 16.8211 7.24937Z" fill="#333333"/>
<path d="M16.8211 7.42955V7.487C16.1775 7.57889 15.5214 7.52292 14.9027 7.32334L14.8453 7.30491C13.9956 7.0317 13.0814 7.03398 12.2332 7.31141C11.3655 7.59481 10.4302 7.59481 9.56258 7.31141L9.41843 7.26698V7.20845C9.47262 7.22362 9.52681 7.24096 9.57992 7.2583C10.4346 7.53688 11.3557 7.53688 12.2104 7.2583C13.0716 6.97674 13.9998 6.97408 14.8626 7.25072L14.92 7.26914C15.5331 7.46717 16.1835 7.52204 16.8211 7.42955Z" fill="#333333"/>
<path d="M16.8211 7.60889V7.66633C16.1776 7.75804 15.5216 7.70245 14.9027 7.50376L14.8453 7.48533C13.9957 7.21236 13.0816 7.21426 12.2332 7.49075C11.3655 7.77415 10.4302 7.77415 9.56258 7.49075L9.41843 7.44631V7.38887L9.57992 7.43873C10.4344 7.7185 11.3559 7.7185 12.2104 7.43873C13.0716 7.15716 13.9998 7.1545 14.8626 7.43114L14.92 7.44956C15.5332 7.64722 16.1836 7.70173 16.8211 7.60889Z" fill="#333333"/>
<path d="M16.8211 7.78999V7.84635C16.1776 7.93806 15.5216 7.88247 14.9027 7.68378L14.8453 7.66535C13.9962 7.39062 13.0822 7.39062 12.2332 7.66535C11.3655 7.94875 10.4302 7.94875 9.56258 7.66535C9.51489 7.64909 9.4672 7.635 9.41843 7.622V7.56238C9.47262 7.57756 9.52681 7.5949 9.57992 7.61224C10.4346 7.89081 11.3557 7.89081 12.2104 7.61224C13.0727 7.33351 14.0012 7.33503 14.8626 7.61658L14.92 7.635C15.5338 7.83015 16.1839 7.88315 16.8211 7.78999Z" fill="#333333"/>
<path d="M16.8211 7.96999V8.02635C16.1776 8.11806 15.5216 8.06247 14.9027 7.86377L14.8453 7.84535C13.9962 7.57062 13.0822 7.57062 12.2332 7.84535C11.3656 8.12935 10.4301 8.12935 9.56258 7.84535C9.51489 7.82909 9.4672 7.815 9.41843 7.80199V7.74238C9.47262 7.75756 9.52681 7.7749 9.57992 7.79224C10.4346 8.07081 11.3557 8.07081 12.2104 7.79224C13.0716 7.51067 13.9998 7.50802 14.8626 7.78465L14.92 7.80308C15.5326 8.00328 16.183 8.06038 16.8211 7.96999Z" fill="#333333"/>
<path d="M16.8211 8.15001V8.20746C16.1775 8.29935 15.5214 8.24338 14.9027 8.0438L14.8453 8.02537C13.9955 7.75275 13.0815 7.75503 12.2332 8.03187C11.3655 8.31527 10.4302 8.31527 9.56258 8.03187L9.41843 7.98744V7.92891C9.47262 7.94408 9.52681 7.96142 9.57992 7.97876C10.4346 8.25734 11.3557 8.25734 12.2104 7.97876C13.0716 7.69719 13.9998 7.69454 14.8626 7.97118L14.92 7.9896C15.5331 8.18763 16.1835 8.2425 16.8211 8.15001Z" fill="#333333"/>
<path d="M16.8211 8.3301V8.38754C16.1776 8.47925 15.5216 8.42366 14.9027 8.22497L14.8453 8.20654C13.9962 7.93181 13.0822 7.93181 12.2332 8.20654C11.3654 8.48941 10.4303 8.48941 9.56258 8.20654C9.51489 8.19028 9.4672 8.17619 9.41843 8.16319V8.10249L9.57992 8.15235C10.4344 8.43212 11.3559 8.43212 12.2104 8.15235C13.0716 7.87078 13.9998 7.86812 14.8626 8.14476L14.92 8.16319C15.5326 8.36339 16.183 8.42049 16.8211 8.3301Z" fill="#333333"/>
<path d="M16.821 8.511V8.56736C16.1775 8.65907 15.5215 8.60348 14.9026 8.40479L14.8463 8.38636C13.9967 8.11339 13.0826 8.11529 12.2342 8.39178C11.3665 8.67518 10.4312 8.67518 9.56359 8.39178C9.5159 8.37552 9.46712 8.36143 9.41943 8.34734V8.28882C9.47363 8.30399 9.52782 8.32133 9.58093 8.33867C10.4356 8.61724 11.3567 8.61724 12.2114 8.33867C13.0725 8.05607 14.0009 8.05341 14.8636 8.33109L14.921 8.34951C15.5337 8.54773 16.1837 8.60298 16.821 8.511Z" fill="#333333"/>
<path d="M16.8211 8.69103V8.74739C16.1776 8.84017 15.5214 8.78456 14.9027 8.58481L14.8453 8.56639C13.9956 8.29318 13.0814 8.29545 12.2332 8.57289C11.3655 8.85629 10.4302 8.85629 9.56258 8.57289C9.51489 8.55663 9.4672 8.54254 9.41843 8.52953V8.46992C9.47262 8.4851 9.52681 8.50244 9.57992 8.51978C10.4346 8.79835 11.3557 8.79835 12.2104 8.51978C13.0716 8.23821 13.9998 8.23555 14.8626 8.51219L14.92 8.53062C15.5331 8.72864 16.1835 8.78352 16.8211 8.69103Z" fill="#333333"/>
<path d="M16.8211 8.87072V8.92816C16.1776 9.01986 15.5216 8.96428 14.9027 8.76558L14.8453 8.74607C13.9955 8.47397 13.0816 8.47625 12.2332 8.75258C11.3655 9.03597 10.4302 9.03597 9.56258 8.75258L9.41843 8.70814V8.64961L9.57992 8.69947C10.4346 8.97804 11.3557 8.97804 12.2104 8.69947C13.0716 8.4179 13.9998 8.41524 14.8626 8.69188L14.92 8.71031C15.5331 8.90833 16.1835 8.9632 16.8211 8.87072Z" fill="#333333"/>
<path d="M16.8211 9.05174V9.1081C16.1776 9.1998 15.5216 9.14422 14.9027 8.94552L14.8453 8.9271C13.9962 8.65236 13.0822 8.65236 12.2332 8.9271C11.3654 9.20997 10.4303 9.20997 9.56258 8.9271C9.51489 8.91084 9.4672 8.89675 9.41843 8.88374V8.82413C9.47262 8.8393 9.52681 8.85665 9.57992 8.87399C10.4346 9.15256 11.3557 9.15256 12.2104 8.87399C13.0715 8.59155 13.9997 8.58851 14.8626 8.86532L14.92 8.88483C15.5329 9.08398 16.183 9.14106 16.8211 9.05174Z" fill="#333333"/>
<path d="M16.8211 9.23161V9.28797C16.1776 9.37968 15.5216 9.32409 14.9027 9.12539L14.8453 9.10697C13.9962 8.83224 13.0822 8.83224 12.2332 9.10697C11.3656 9.39097 10.4301 9.39097 9.56258 9.10697C9.51489 9.09071 9.4672 9.07662 9.41843 9.06361V9.004C9.47262 9.01918 9.52681 9.03652 9.57992 9.05386C10.4346 9.33243 11.3557 9.33243 12.2104 9.05386C13.0716 8.77177 13.9998 8.76912 14.8626 9.04627L14.92 9.0647C15.5326 9.2649 16.183 9.322 16.8211 9.23161Z" fill="#333333"/>
<path d="M16.8211 9.41173V9.46917C16.1775 9.56106 15.5214 9.50509 14.9027 9.30551L14.8453 9.28709C13.9956 9.01388 13.0814 9.01615 12.2332 9.29359C11.3655 9.57699 10.4302 9.57699 9.56258 9.29359C9.51489 9.27733 9.4672 9.26324 9.41843 9.25024V9.19063C9.47262 9.2058 9.52681 9.22314 9.57992 9.24048C10.4346 9.51905 11.3557 9.51905 12.2104 9.24048C13.0716 8.95891 13.9998 8.95626 14.8626 9.2329L14.92 9.25132C15.5331 9.44934 16.1835 9.50422 16.8211 9.41173Z" fill="#333333"/>
<path d="M16.8211 9.59133V9.64877C16.1776 9.74048 15.5216 9.68489 14.9027 9.4862L14.8453 9.46777C13.9962 9.19304 13.0822 9.19304 12.2332 9.46777C11.3654 9.75064 10.4303 9.75064 9.56258 9.46777C9.51489 9.45151 9.4672 9.43742 9.41843 9.42442V9.36372L9.57992 9.41358C10.4344 9.69335 11.3559 9.69335 12.2104 9.41358C13.0716 9.13201 13.9998 9.12935 14.8626 9.40599L14.92 9.42442C15.5326 9.62462 16.183 9.68172 16.8211 9.59133Z" fill="#333333"/>
<path d="M16.8211 9.77248V9.82884C16.1776 9.92055 15.5216 9.86496 14.9027 9.66626L14.8453 9.64784C13.9957 9.37487 13.0816 9.37676 12.2332 9.65326C11.3655 9.93665 10.4302 9.93665 9.56258 9.65326C9.51489 9.637 9.4672 9.62291 9.41843 9.6099V9.55029C9.47262 9.56546 9.52681 9.58281 9.57992 9.60015C10.4346 9.87872 11.3557 9.87872 12.2104 9.60015C13.0715 9.31754 13.9999 9.31488 14.8626 9.59256L14.92 9.61099C15.5333 9.80832 16.1834 9.86354 16.8211 9.77248Z" fill="#333333"/>
<path d="M16.821 9.95241V10.0088C16.1775 10.1005 15.5215 10.0449 14.9026 9.8462L14.8463 9.82777C13.9972 9.55304 13.0832 9.55304 12.2342 9.82777C11.3666 10.1118 10.4311 10.1118 9.56359 9.82777C9.5159 9.81151 9.46821 9.79742 9.41943 9.78442V9.72481C9.47363 9.73998 9.52782 9.75732 9.58093 9.77466C10.4356 10.0532 11.3567 10.0532 12.2114 9.77466C13.0727 9.49309 14.0008 9.49044 14.8636 9.76707L14.921 9.7855C15.5333 9.98554 16.1833 10.0426 16.821 9.95241Z" fill="#333333"/>
<path d="M16.8211 10.1322V10.1896C16.1775 10.2815 15.5214 10.2256 14.9027 10.026L14.8453 10.0075C13.9956 9.73434 13.0814 9.73661 12.2332 10.0141C11.3655 10.2974 10.4302 10.2974 9.56258 10.0141L9.41843 9.96961V9.91108C9.47262 9.92626 9.52681 9.9436 9.57992 9.96094C10.4346 10.2395 11.3557 10.2395 12.2104 9.96094C13.0716 9.67937 13.9998 9.67672 14.8626 9.95335L14.92 9.97178C15.5331 10.1698 16.1835 10.2247 16.8211 10.1322Z" fill="#333333"/>
<path d="M16.8211 10.3125V10.37C16.1776 10.4617 15.5216 10.4061 14.9027 10.2074L14.8453 10.189C13.9962 9.91423 13.0822 9.91423 12.2332 10.189C11.3654 10.4718 10.4303 10.4718 9.56258 10.189C9.51489 10.1727 9.4672 10.1586 9.41843 10.1456V10.0849L9.57992 10.1348C10.4344 10.4145 11.3559 10.4145 12.2104 10.1348C13.0716 9.8532 13.9998 9.85055 14.8626 10.1272L14.92 10.1456C15.5326 10.3458 16.183 10.4029 16.8211 10.3125Z" fill="#333333"/>
<path d="M16.8211 10.4932V10.5496C16.1776 10.6413 15.5216 10.5857 14.9027 10.387L14.8453 10.3686C13.9962 10.0939 13.0822 10.0939 12.2332 10.3686C11.3656 10.6526 10.4301 10.6526 9.56258 10.3686C9.51489 10.3523 9.4672 10.3382 9.41843 10.3252V10.2656C9.47262 10.2808 9.52681 10.2981 9.57992 10.3155C10.4346 10.5941 11.3557 10.5941 12.2104 10.3155C13.0715 10.0329 13.9999 10.0302 14.8626 10.3079L14.92 10.3263C15.5326 10.5265 16.183 10.5836 16.8211 10.4932Z" fill="#333333"/>
<path d="M16.8211 10.6732V10.7296C16.1776 10.8213 15.5216 10.7657 14.9027 10.567L14.8453 10.5486C13.9956 10.2754 13.0814 10.2776 12.2332 10.5551C11.3655 10.8385 10.4302 10.8385 9.56258 10.5551C9.51489 10.5388 9.4672 10.5247 9.41843 10.5117V10.4521C9.47262 10.4673 9.52681 10.4846 9.57992 10.502C10.4346 10.7805 11.3557 10.7805 12.2104 10.502C13.0716 10.2204 13.9998 10.2177 14.8626 10.4944L14.92 10.5128C15.5331 10.7108 16.1835 10.7657 16.8211 10.6732Z" fill="#333333"/>
<path d="M16.8211 10.8529V10.9103C16.1776 11.002 15.5216 10.9465 14.9027 10.7478L14.8453 10.7283C13.9955 10.4556 13.0815 10.4579 12.2332 10.7348C11.3655 11.0181 10.4302 11.0181 9.56258 10.7348L9.41843 10.6903V10.6318L9.57992 10.6816C10.4346 10.9602 11.3557 10.9602 12.2104 10.6816C13.0716 10.4001 13.9998 10.3974 14.8626 10.6741L14.92 10.6925C15.5331 10.8905 16.1835 10.9454 16.8211 10.8529Z" fill="#333333"/>
<path d="M16.8211 11.0341V11.0905C16.1776 11.1822 15.5216 11.1266 14.9027 10.9279L14.8453 10.9095C13.9957 10.6365 13.0816 10.6384 12.2332 10.9149C11.3654 11.1978 10.4303 11.1978 9.56258 10.9149C9.51489 10.8987 9.4672 10.8846 9.41843 10.8716V10.8141C9.47262 10.8293 9.52681 10.8466 9.57992 10.864C10.4346 11.1425 11.3557 11.1425 12.2104 10.864C13.0715 10.5815 13.9997 10.5785 14.8626 10.8553L14.92 10.8748C15.5334 11.0714 16.1835 11.1259 16.8211 11.0341Z" fill="#333333"/>
<path d="M16.821 11.214V11.2703C16.1775 11.362 15.5215 11.3064 14.9026 11.1078L14.8463 11.085C13.9972 10.8103 13.0832 10.8103 12.2342 11.085C11.3666 11.369 10.4311 11.369 9.56359 11.085C9.5159 11.0687 9.46821 11.0546 9.41943 11.0416V10.982C9.47363 10.9972 9.52782 11.0145 9.58093 11.0319C10.4356 11.3105 11.3567 11.3105 12.2114 11.0319C13.0726 10.7498 14.0009 10.7471 14.8636 11.0243L14.921 11.0427C15.533 11.2442 16.1829 11.3028 16.821 11.214Z" fill="#333333"/>
<path d="M16.821 11.3942V11.4516C16.1774 11.5435 15.5214 11.4875 14.9026 11.2879L14.8463 11.2695C13.9966 10.9963 13.0824 10.9986 12.2342 11.276C11.3665 11.5594 10.4312 11.5594 9.56359 11.276C9.5159 11.2598 9.46821 11.2457 9.41943 11.2327V11.173C9.47363 11.1882 9.52782 11.2056 9.58093 11.2229C10.4356 11.5015 11.3567 11.5015 12.2114 11.2229C13.0727 10.9413 14.0008 10.9387 14.8636 11.2153L14.921 11.2337C15.5338 11.4316 16.1838 11.4865 16.821 11.3942Z" fill="#333333"/>
<path d="M16.8211 11.5741V11.6272C16.1776 11.7189 15.5216 11.6634 14.9027 11.4647L14.8453 11.4452C13.9955 11.1731 13.0816 11.1753 12.2332 11.4517C11.3654 11.7345 10.4303 11.7345 9.56258 11.4517C9.51489 11.4354 9.4672 11.4213 9.41843 11.4083V11.3476L9.57992 11.3975C10.4344 11.6772 11.3559 11.6772 12.2104 11.3975C13.0716 11.1159 13.9998 11.1132 14.8626 11.3899L14.92 11.4083C15.5327 11.6081 16.1831 11.6649 16.8211 11.5741Z" fill="#333333"/>
<path d="M16.821 11.7548V11.8111C16.1775 11.9028 15.5215 11.8473 14.9026 11.6486L14.8463 11.6269C13.9972 11.3522 13.0832 11.3522 12.2342 11.6269C11.3665 11.9098 10.4313 11.9098 9.56359 11.6269C9.5159 11.6106 9.46821 11.5965 9.41943 11.5835V11.5239C9.47363 11.5391 9.52782 11.5564 9.58093 11.5738C10.4356 11.8524 11.3567 11.8524 12.2114 11.5738C13.0725 11.2912 14.0009 11.2885 14.8636 11.5662L14.921 11.5846C15.5331 11.7858 16.183 11.844 16.821 11.7548Z" fill="#333333"/>
<path d="M16.8211 11.9348V11.9912C16.1776 12.0829 15.5216 12.0273 14.9027 11.8286L14.8453 11.8102C13.9962 11.5355 13.0822 11.5355 12.2332 11.8102C11.3656 12.0942 10.4301 12.0942 9.56258 11.8102C9.51489 11.7939 9.4672 11.7798 9.41843 11.7668V11.7072C9.47262 11.7224 9.52681 11.7397 9.57992 11.7571C10.4346 12.0357 11.3557 12.0357 12.2104 11.7571C13.0716 11.4755 13.9998 11.4729 14.8626 11.7495L14.92 11.7679C15.5326 11.9681 16.183 12.0252 16.8211 11.9348Z" fill="#333333"/>
<path d="M16.8211 12.1151V12.1693C16.1775 12.2612 15.5214 12.2052 14.9027 12.0056L14.8453 11.9872C13.9955 11.7151 13.0816 11.7174 12.2332 11.9937C11.3655 12.2771 10.4302 12.2771 9.56258 11.9937L9.41843 11.9525V11.894C9.47262 11.9092 9.52681 11.9265 9.57992 11.9439C10.4346 12.2224 11.3557 12.2224 12.2104 11.9439C13.0716 11.6623 13.9998 11.6596 14.8626 11.9363L14.92 11.9547C15.5331 12.1527 16.1835 12.2076 16.8211 12.1151Z" fill="#333333"/>
<path d="M16.821 12.2947V12.3521C16.1775 12.4438 15.5215 12.3882 14.9026 12.1895L14.8463 12.1689C13.9972 11.8942 13.0832 11.8942 12.2342 12.1689C11.3665 12.4518 10.4313 12.4518 9.56359 12.1689C9.5159 12.1527 9.46821 12.1386 9.41943 12.1256V12.0649L9.58093 12.1148C10.4354 12.3945 11.3569 12.3945 12.2114 12.1148C13.0727 11.8332 14.0008 11.8305 14.8636 12.1072L14.921 12.1256C15.5331 12.3264 16.1831 12.3842 16.821 12.2947Z" fill="#333333"/>
<path d="M16.8211 12.4757V12.532C16.1776 12.6237 15.5216 12.5681 14.9027 12.3694L14.8453 12.351C13.9962 12.0763 13.0822 12.0763 12.2332 12.351C11.3656 12.635 10.4301 12.635 9.56258 12.351C9.51489 12.3348 9.4672 12.3207 9.41843 12.3077V12.248C9.47262 12.2632 9.52681 12.2806 9.57992 12.2979C10.4346 12.5765 11.3557 12.5765 12.2104 12.2979C13.0715 12.0153 13.9999 12.0126 14.8626 12.2903L14.92 12.3087C15.5326 12.5089 16.183 12.566 16.8211 12.4757Z" fill="#333333"/>
<path d="M16.8211 12.6557V12.711C16.1776 12.8027 15.5216 12.7471 14.9027 12.5484L14.8453 12.53C13.9956 12.2568 13.0814 12.2591 12.2332 12.5365C11.3655 12.8199 10.4302 12.8199 9.56258 12.5365C9.51489 12.5203 9.4672 12.5062 9.41843 12.4932V12.4335C9.47262 12.4487 9.52681 12.4661 9.57992 12.4834C10.4346 12.762 11.3557 12.762 12.2104 12.4834C13.0716 12.2018 13.9998 12.1992 14.8626 12.4758L14.92 12.4942C15.5331 12.6926 16.1834 12.7479 16.8211 12.6557Z" fill="#333333"/>
<path d="M16.821 12.8356V12.893C16.1774 12.9849 15.5214 12.9289 14.9026 12.7293L14.8463 12.7109C13.9965 12.4388 13.0826 12.4411 12.2342 12.7174C11.3665 13.0008 10.4312 13.0008 9.56359 12.7174L9.41943 12.673V12.6145L9.58093 12.6643C10.4354 12.9441 11.3569 12.9441 12.2114 12.6643C13.0727 12.3827 14.0008 12.3801 14.8636 12.6567L14.921 12.6752C15.5338 12.873 16.1838 12.9279 16.821 12.8356Z" fill="#333333"/>
<path d="M16.8211 13.0165V13.0728C16.1776 13.1646 15.5216 13.109 14.9027 12.9103L14.8453 12.8918C13.9962 12.6171 13.0822 12.6171 12.2332 12.8918C11.3654 13.1747 10.4303 13.1747 9.56258 12.8918C9.51489 12.8756 9.4672 12.8615 9.41843 12.8485V12.7878L9.57992 12.8377C10.4344 13.1174 11.3559 13.1174 12.2104 12.8377C13.0716 12.5561 13.9998 12.5534 14.8626 12.8301L14.92 12.8496C15.5329 13.0487 16.183 13.1058 16.8211 13.0165Z" fill="#333333"/>
<path d="M16.8211 13.1966V13.253C16.1776 13.3447 15.5216 13.2891 14.9027 13.0904L14.8453 13.072C13.9962 12.7972 13.0822 12.7972 12.2332 13.072C11.3656 13.356 10.4301 13.356 9.56258 13.072C9.51489 13.0557 9.4672 13.0416 9.41843 13.0286V12.969C9.47262 12.9842 9.52681 13.0015 9.57992 13.0188C10.4346 13.2974 11.3557 13.2974 12.2104 13.0188C13.0715 12.7362 13.9999 12.7336 14.8626 13.0113L14.92 13.0297C15.5326 13.2299 16.183 13.287 16.8211 13.1966Z" fill="#333333"/>
<path d="M16.821 13.3765V13.4339C16.1774 13.5258 15.5214 13.4698 14.9026 13.2703L14.8463 13.2529C13.9966 12.9797 13.0824 12.982 12.2342 13.2594C11.3665 13.5428 10.4312 13.5428 9.56359 13.2594C9.5159 13.2432 9.46821 13.2291 9.41943 13.2161V13.1564C9.47363 13.1716 9.52782 13.189 9.58093 13.2063C10.4356 13.4849 11.3567 13.4849 12.2114 13.2063C13.0727 12.9247 14.0008 12.9221 14.8636 13.1987L14.921 13.2171C15.5339 13.4146 16.1838 13.4691 16.821 13.3765Z" fill="#333333"/>
<path d="M16.8211 13.5563V13.6137C16.1776 13.7054 15.5216 13.6498 14.9027 13.4511L14.8453 13.4316C13.9955 13.1595 13.0816 13.1618 12.2332 13.4381C11.3655 13.7215 10.4302 13.7215 9.56258 13.4381L9.41843 13.3937V13.3352L9.57992 13.385C10.4344 13.6648 11.3559 13.6648 12.2104 13.385C13.0716 13.1034 13.9998 13.1008 14.8626 13.3774L14.92 13.3959C15.5331 13.5939 16.1835 13.6488 16.8211 13.5563Z" fill="#333333"/>
<path d="M16.8211 13.7372V13.7947C16.1776 13.8864 15.5216 13.8308 14.9027 13.6321L14.8453 13.6137C13.9957 13.3407 13.0816 13.3426 12.2332 13.6191C11.3655 13.9025 10.4302 13.9025 9.56258 13.6191C9.51489 13.6028 9.4672 13.5887 9.41843 13.5757V13.5161C9.47262 13.5313 9.52681 13.5486 9.57992 13.566C10.4346 13.8445 11.3557 13.8445 12.2104 13.566C13.0715 13.2834 13.9999 13.2807 14.8626 13.5584L14.92 13.5768C15.5334 13.7738 16.1834 13.8286 16.8211 13.7372Z" fill="#333333"/>
<path d="M16.821 13.9175V13.9739C16.1775 14.0656 15.5215 14.01 14.9026 13.8113L14.8463 13.7951C13.9972 13.5203 13.0832 13.5203 12.2342 13.7951C11.3666 14.0791 10.4311 14.0791 9.56359 13.7951C9.5159 13.7788 9.46821 13.7647 9.41943 13.7517V13.6921C9.47363 13.7073 9.52782 13.7246 9.58093 13.7419C10.4356 14.0205 11.3567 14.0205 12.2114 13.7419C13.0727 13.4604 14.0008 13.4577 14.8636 13.7344L14.921 13.7528C15.5335 13.9521 16.1834 14.0085 16.821 13.9175Z" fill="#333333"/>
<path d="M16.8211 14.0973V14.1547C16.1775 14.2466 15.5214 14.1906 14.9027 13.9911L14.8453 13.9726C13.9955 13.7 13.0815 13.7023 12.2332 13.9791C11.3655 14.2625 10.4302 14.2625 9.56258 13.9791L9.41843 13.9347V13.8762C9.47262 13.8913 9.52681 13.9087 9.57992 13.926C10.4346 14.2046 11.3557 14.2046 12.2104 13.926C13.0716 13.6445 13.9998 13.6418 14.8626 13.9184L14.92 13.9369C15.5331 14.1349 16.1835 14.1898 16.8211 14.0973Z" fill="#333333"/>
<path d="M16.8211 14.2772V14.3368C16.1776 14.4285 15.5216 14.3729 14.9027 14.1742L14.8453 14.1558C13.9962 13.881 13.0822 13.881 12.2332 14.1558C11.3654 14.4386 10.4303 14.4386 9.56258 14.1558C9.51489 14.1395 9.4672 14.1254 9.41843 14.1124V14.0517L9.57992 14.1016C10.4344 14.3813 11.3559 14.3813 12.2104 14.1016C13.0716 13.82 13.9998 13.8173 14.8626 14.094L14.92 14.1124C15.5328 14.3119 16.1832 14.3682 16.8211 14.2772Z" fill="#333333"/>
<path d="M16.821 14.4582V14.5146C16.1775 14.6063 15.5215 14.5507 14.9026 14.352L14.8463 14.3369C13.9972 14.0621 13.0832 14.0621 12.2342 14.3369C11.3666 14.6208 10.4311 14.6208 9.56359 14.3369C9.5159 14.3206 9.46821 14.3065 9.41943 14.2935V14.2339C9.47363 14.2491 9.52782 14.2664 9.58093 14.2837C10.4356 14.5623 11.3567 14.5623 12.2114 14.2837C13.0725 14.0011 14.0009 13.9985 14.8636 14.2762L14.921 14.2946C15.5336 14.4935 16.1835 14.5495 16.821 14.4582Z" fill="#333333"/>
<path d="M16.8211 14.6378V14.6942C16.1776 14.7859 15.5216 14.7303 14.9027 14.5316L14.8453 14.5132C13.9956 14.24 13.0814 14.2422 12.2332 14.5197C11.3655 14.8031 10.4302 14.8031 9.56258 14.5197C9.51489 14.5034 9.4672 14.4893 9.41843 14.4763V14.4167C9.47262 14.4319 9.52681 14.4492 9.57992 14.4666C10.4346 14.7451 11.3557 14.7451 12.2104 14.4666C13.0716 14.185 13.9998 14.1823 14.8626 14.459L14.92 14.4774C15.5331 14.6754 16.1835 14.7303 16.8211 14.6378Z" fill="#333333"/>
<path d="M16.8211 14.8181V14.8788C16.1775 14.9707 15.5214 14.9147 14.9027 14.7151L14.8453 14.6967C13.9955 14.4241 13.0815 14.4263 12.2332 14.7032C11.3655 14.9866 10.4302 14.9866 9.56258 14.7032L9.41843 14.662V14.6035L9.57992 14.6533C10.4346 14.9319 11.3557 14.9319 12.2104 14.6533C13.0716 14.3718 13.9998 14.3691 14.8626 14.6457L14.92 14.6642C15.5336 14.86 16.184 14.9127 16.8211 14.8181Z" fill="#333333"/>
<path d="M16.821 14.999V15.0553C16.1775 15.147 15.5215 15.0914 14.9026 14.8928L14.8463 14.8787C13.9972 14.6039 13.0832 14.6039 12.2342 14.8787C11.3665 15.1615 10.4313 15.1615 9.56359 14.8787C9.5159 14.8624 9.46821 14.8483 9.41943 14.8353V14.7746L9.58093 14.8245C10.4354 15.1042 11.3569 15.1042 12.2114 14.8245C13.0727 14.5429 14.0008 14.5402 14.8636 14.8169L14.921 14.8364C15.5339 15.0339 16.1836 15.0895 16.821 14.999Z" fill="#333333"/>
<path d="M16.8211 15.1788V15.2351C16.1776 15.3268 15.5216 15.2713 14.9027 15.0726L14.8453 15.0541C13.9962 14.7794 13.0822 14.7794 12.2332 15.0541C11.3656 15.3381 10.4301 15.3381 9.56258 15.0541C9.51489 15.0379 9.4672 15.0238 9.41843 15.0108V14.9512C9.47262 14.9663 9.52681 14.9837 9.57992 15.001C10.4346 15.2796 11.3557 15.2796 12.2104 15.001C13.0715 14.7184 13.9999 14.7158 14.8626 14.9934L14.92 15.0119C15.5326 15.2121 16.183 15.2692 16.8211 15.1788Z" fill="#333333"/>
<path d="M16.8211 15.3589V15.4207C16.1776 15.5135 15.5214 15.4579 14.9027 15.2582L14.8453 15.2397C13.9956 14.9665 13.0814 14.9688 12.2332 15.2462C11.3655 15.5296 10.4302 15.5296 9.56258 15.2462C9.51489 15.23 9.4672 15.2159 9.41843 15.2029V15.1433C9.47262 15.1584 9.52681 15.1758 9.57992 15.1931C10.4346 15.4717 11.3557 15.4717 12.2104 15.1931C13.0716 14.9115 13.9998 14.9089 14.8626 15.1855L14.92 15.204C15.5336 15.4002 16.1839 15.4532 16.8211 15.3589Z" fill="#333333"/>
<path d="M16.8211 15.5387V15.5961C16.1776 15.6878 15.5216 15.6322 14.9027 15.4336L14.8453 15.414C13.9955 15.1419 13.0816 15.1442 12.2332 15.4205C11.3655 15.7039 10.4302 15.7039 9.56258 15.4205L9.41843 15.3761V15.3176L9.57992 15.3674C10.4344 15.6472 11.3559 15.6472 12.2104 15.3674C13.0716 15.0859 13.9998 15.0832 14.8626 15.3598L14.92 15.3783C15.5331 15.5763 16.1835 15.6312 16.8211 15.5387Z" fill="#333333"/>
<path d="M16.8211 15.7196V15.7759C16.1776 15.8676 15.5216 15.812 14.9027 15.6133L14.8453 15.5949C13.9962 15.3202 13.0822 15.3202 12.2332 15.5949C11.3654 15.8778 10.4303 15.8778 9.56258 15.5949C9.51489 15.5787 9.4672 15.5646 9.41843 15.5516V15.4919C9.47262 15.5071 9.52681 15.5245 9.57992 15.5418C10.4346 15.8204 11.3557 15.8204 12.2104 15.5418C13.0715 15.2592 13.9999 15.2565 14.8626 15.5342L14.92 15.5526C15.5329 15.7518 16.183 15.8089 16.8211 15.7196Z" fill="#333333"/>
<path d="M16.8211 15.8993V15.9557C16.1776 16.0474 15.5216 15.9918 14.9027 15.7931L14.8453 15.7747C13.9962 15.5 13.0822 15.5 12.2332 15.7747C11.3656 16.0587 10.4301 16.0587 9.56258 15.7747C9.51489 15.7584 9.4672 15.7443 9.41843 15.7313V15.6717C9.47262 15.6869 9.52681 15.7042 9.57992 15.7216C10.4346 16.0002 11.3557 16.0002 12.2104 15.7216C13.0716 15.4395 13.9998 15.4368 14.8626 15.714L14.92 15.7324C15.5326 15.9326 16.183 15.9897 16.8211 15.8993Z" fill="#333333"/>
<path d="M16.8211 16.0795V16.1369C16.1775 16.2288 15.5214 16.1728 14.9027 15.9732L14.8453 15.9548C13.9956 15.6816 13.0814 15.6839 12.2332 15.9613C11.3655 16.2447 10.4302 16.2447 9.56258 15.9613L9.41843 15.9169V15.8583C9.47262 15.8735 9.52681 15.8909 9.57992 15.9082C10.4346 16.1868 11.3557 16.1868 12.2104 15.9082C13.0716 15.6266 13.9998 15.624 14.8626 15.9006L14.92 15.919C15.5331 16.1171 16.1835 16.1719 16.8211 16.0795Z" fill="#333333"/>
<path d="M16.8211 16.2595V16.3169C16.1776 16.4086 15.5216 16.3531 14.9027 16.1544L14.8453 16.1359C13.9957 15.863 13.0816 15.8649 12.2332 16.1414C11.3654 16.4242 10.4303 16.4242 9.56258 16.1414C9.51489 16.1251 9.4672 16.111 9.41843 16.098V16.0373L9.57992 16.0872C10.4344 16.3669 11.3559 16.3669 12.2104 16.0872C13.0716 15.8056 13.9998 15.8029 14.8626 16.0796L14.92 16.098C15.5331 16.2964 16.1834 16.3516 16.8211 16.2595Z" fill="#333333"/>
<path d="M16.8211 16.4407V16.4971C16.1776 16.5888 15.5216 16.5332 14.9027 16.3345L14.8453 16.316C13.9957 16.0431 13.0816 16.045 12.2332 16.3215C11.3655 16.6049 10.4302 16.6049 9.56258 16.3215C9.51489 16.3052 9.4672 16.2911 9.41843 16.2781V16.2185C9.47262 16.2337 9.52681 16.251 9.57992 16.2684C10.4346 16.5469 11.3557 16.5469 12.2104 16.2684C13.0715 15.9858 13.9999 15.9831 14.8626 16.2608L14.92 16.2792C15.5331 16.4776 16.1834 16.5328 16.8211 16.4407Z" fill="#333333"/>
<path d="M16.8211 16.6203V16.6767C16.1776 16.7684 15.5216 16.7128 14.9027 16.5141L14.8453 16.4957C13.9956 16.2225 13.0814 16.2247 12.2332 16.5022C11.3655 16.7856 10.4302 16.7856 9.56258 16.5022C9.51489 16.4859 9.4672 16.4718 9.41843 16.4588V16.3959C9.47262 16.4111 9.52681 16.4285 9.57992 16.4458C10.4346 16.7244 11.3557 16.7244 12.2104 16.4458C13.0716 16.1642 13.9998 16.1616 14.8626 16.4382L14.92 16.4566C15.5329 16.6558 16.1832 16.7117 16.8211 16.6203Z" fill="#333333"/>
<path d="M16.8211 16.7999V16.8574C16.1775 16.9492 15.5214 16.8933 14.9027 16.6937L14.8453 16.6753C13.9955 16.4027 13.0815 16.4049 12.2332 16.6818C11.3655 16.9652 10.4302 16.9652 9.56258 16.6818L9.41843 16.6373V16.5788L9.57992 16.6287C10.4346 16.9072 11.3557 16.9072 12.2104 16.6287C13.0716 16.3471 13.9998 16.3444 14.8626 16.6211L14.92 16.6395C15.5331 16.8375 16.1835 16.8924 16.8211 16.7999Z" fill="#333333"/>
<path d="M16.8211 16.9813V17.0376C16.1776 17.1293 15.5216 17.0738 14.9027 16.8751L14.8453 16.8566C13.9957 16.5837 13.0816 16.5856 12.2332 16.8621C11.3654 17.1449 10.4303 17.1449 9.56258 16.8621C9.51489 16.8458 9.4672 16.8317 9.41843 16.8187V16.758L9.57992 16.8079C10.4344 17.0876 11.3559 17.0876 12.2104 16.8079C13.0716 16.5263 13.9998 16.5236 14.8626 16.8003L14.92 16.8198C15.5333 17.0171 16.1834 17.0723 16.8211 16.9813Z" fill="#333333"/>
<path d="M16.8211 17.1613V17.2176C16.1776 17.3093 15.5216 17.2537 14.9027 17.055L14.8453 17.0366C13.9957 16.7636 13.0816 16.7655 12.2332 17.042C11.3656 17.326 10.4301 17.326 9.56258 17.042C9.51489 17.0258 9.4672 17.0117 9.41843 16.9987V16.938C9.47262 16.9532 9.52681 16.9705 9.57992 16.9878C10.4346 17.2664 11.3557 17.2664 12.2104 16.9878C13.0715 16.7052 13.9999 16.7026 14.8626 16.9803L14.92 16.9987C15.533 17.1974 16.1833 17.253 16.8211 17.1613Z" fill="#333333"/>
<path d="M16.8211 17.3409V17.3973C16.1776 17.4895 15.5215 17.4339 14.9027 17.2347L14.8453 17.2163C13.9956 16.9431 13.0814 16.9454 12.2332 17.2228C11.3655 17.5062 10.4302 17.5062 9.56258 17.2228C9.51489 17.2065 9.4672 17.1924 9.41843 17.1794V17.1198C9.47262 17.135 9.52681 17.1523 9.57992 17.1697C10.4346 17.4483 11.3557 17.4483 12.2104 17.1697C13.0716 16.8881 13.9998 16.8855 14.8626 17.1621L14.92 17.1805C15.5331 17.3785 16.1835 17.4334 16.8211 17.3409Z" fill="#333333"/>
<path d="M16.8211 17.5211V17.5786C16.1776 17.6703 15.5216 17.6147 14.9027 17.416L14.8453 17.3965C13.9955 17.1244 13.0816 17.1266 12.2332 17.403C11.3655 17.6864 10.4302 17.6864 9.56258 17.403L9.41843 17.3585V17.3L9.57992 17.3499C10.4344 17.6296 11.3559 17.6296 12.2104 17.3499C13.0716 17.0683 13.9998 17.0656 14.8626 17.3423L14.92 17.3607C15.5331 17.5587 16.1835 17.6136 16.8211 17.5211Z" fill="#333333"/>
<path d="M16.8211 17.7021V17.7584C16.1776 17.8501 15.5216 17.7946 14.9027 17.5959L14.8453 17.5774C13.9962 17.3027 13.0822 17.3027 12.2332 17.5774C11.3654 17.8603 10.4303 17.8603 9.56258 17.5774C9.51489 17.5612 9.4672 17.5471 9.41843 17.5341V17.4799C9.47262 17.4951 9.52681 17.5124 9.57992 17.5297C10.4346 17.8083 11.3557 17.8083 12.2104 17.5297C13.0715 17.2473 13.9997 17.2443 14.8626 17.5211L14.92 17.5406C15.5331 17.739 16.1834 17.7942 16.8211 17.7021Z" fill="#333333"/>
<path d="M16.8211 17.8817V17.9381C16.1776 18.0298 15.5216 17.9742 14.9027 17.7755L14.8453 17.7571C13.9957 17.4841 13.0816 17.486 12.2332 17.7625C11.3656 18.0465 10.4301 18.0465 9.56258 17.7625C9.51489 17.7462 9.4672 17.7321 9.41843 17.7191V17.6595C9.47262 17.6747 9.52681 17.692 9.57992 17.7094C10.4346 17.9879 11.3557 17.9879 12.2104 17.7094C13.0716 17.4273 13.9998 17.4246 14.8626 17.7018L14.92 17.7202C15.5331 17.9186 16.1834 17.9739 16.8211 17.8817Z" fill="#333333"/>
<path d="M16.8211 18.0619V18.1193C16.1775 18.2112 15.5214 18.1552 14.9027 17.9557L14.8453 17.9372C13.9956 17.664 13.0814 17.6663 12.2332 17.9437C11.3655 18.2271 10.4302 18.2271 9.56258 17.9437L9.41843 17.8993V17.8408C9.47262 17.8559 9.52681 17.8733 9.57992 17.8906C10.4346 18.1692 11.3557 18.1692 12.2104 17.8906C13.0716 17.6091 13.9998 17.6064 14.8626 17.883L14.92 17.9015C15.5331 18.0995 16.1835 18.1544 16.8211 18.0619Z" fill="#333333"/>
<path d="M16.8211 18.2384V18.2959C16.1776 18.3876 15.5216 18.332 14.9027 18.1333L14.8453 18.1149C13.9957 17.8419 13.0816 17.8438 12.2332 18.1203C11.3655 18.4037 10.4302 18.4037 9.56258 18.1203L9.41843 18.0759V18.0217L9.57992 18.0715C10.4344 18.3513 11.3559 18.3513 12.2104 18.0715C13.0716 17.79 13.9998 17.7873 14.8626 18.064L14.92 18.0824C15.5335 18.2789 16.1838 18.3323 16.8211 18.2384Z" fill="#333333"/>
<path d="M16.8211 18.4227V18.479C16.1776 18.5707 15.5216 18.5152 14.9027 18.3165L14.8453 18.298C13.9962 18.0233 13.0822 18.0233 12.2332 18.298C11.3655 18.5814 10.4302 18.5814 9.56258 18.298C9.51489 18.2818 9.4672 18.2677 9.41843 18.2547V18.1951C9.47262 18.2102 9.52681 18.2276 9.57992 18.2449C10.4346 18.5235 11.3557 18.5235 12.2104 18.2449C13.0715 17.9623 13.9999 17.9597 14.8626 18.2373L14.92 18.2558C15.5326 18.456 16.183 18.5131 16.8211 18.4227Z" fill="#333333"/>
<path d="M16.8211 18.6028V18.6592C16.1776 18.7509 15.5216 18.6953 14.9027 18.4966L14.8453 18.4782C13.9962 18.2034 13.0822 18.2034 12.2332 18.4782C11.3656 18.7622 10.4301 18.7622 9.56258 18.4782C9.51489 18.4619 9.4672 18.4478 9.41843 18.4348V18.3752C9.47262 18.3904 9.52681 18.4077 9.57992 18.4251C10.4346 18.7036 11.3557 18.7036 12.2104 18.4251C13.0716 18.1435 13.9998 18.1408 14.8626 18.4175L14.92 18.4359C15.5326 18.6361 16.183 18.6932 16.8211 18.6028Z" fill="#333333"/>
<path d="M16.8211 18.7804V18.8379C16.1775 18.9298 15.5214 18.8738 14.9027 18.6742L14.8453 18.6558C13.9955 18.3832 13.0815 18.3855 12.2332 18.6623C11.3655 18.9457 10.4302 18.9457 9.56258 18.6623L9.41843 18.6179V18.5637C9.47262 18.5788 9.52681 18.5962 9.57992 18.6135C10.4346 18.8921 11.3557 18.8921 12.2104 18.6135C13.0716 18.332 13.9998 18.3293 14.8626 18.6059L14.92 18.6244C15.5335 18.8209 16.1838 18.8743 16.8211 18.7804Z" fill="#333333"/>
<path d="M16.8211 18.9624V19.0198C16.1776 19.1115 15.5216 19.0559 14.9027 18.8572L14.8453 18.8388C13.9957 18.5658 13.0816 18.5677 12.2332 18.8442C11.3654 19.1271 10.4303 19.1271 9.56258 18.8442C9.51489 18.828 9.4672 18.8139 9.41843 18.8009V18.7402L9.57992 18.79C10.4344 19.0698 11.3559 19.0698 12.2104 18.79C13.0716 18.5085 13.9998 18.5058 14.8626 18.7825L14.92 18.8009C15.5331 18.9993 16.1834 19.0545 16.8211 18.9624Z" fill="#333333"/>
<path d="M16.8168 19.1444C16.8147 19.1637 16.8114 19.1829 16.807 19.2019C16.1679 19.2907 15.517 19.2344 14.9027 19.0371L14.8453 19.0187C13.9957 18.7457 13.0816 18.7476 12.2332 19.0241C11.3656 19.3081 10.4301 19.3081 9.56258 19.0241C9.51489 19.0089 9.4672 18.9938 9.41843 18.9808V18.9211C9.47262 18.9363 9.52681 18.9537 9.57992 18.971C10.4346 19.2496 11.3557 19.2496 12.2104 18.971C13.0715 18.6884 13.9999 18.6857 14.8626 18.9634L14.92 18.9818C15.5317 19.1795 16.1804 19.2351 16.8168 19.1444Z" fill="#333333"/>
<path d="M16.7582 19.3321C16.7475 19.3542 16.7348 19.3752 16.7202 19.395C16.1084 19.4654 15.4886 19.4036 14.9026 19.214L14.8452 19.1955C13.9956 18.9223 13.0813 18.9246 12.2331 19.202C11.3655 19.4854 10.4301 19.4854 9.5625 19.202C9.51698 19.1869 9.47146 19.1728 9.42594 19.1609C9.42163 19.1405 9.41945 19.1198 9.41943 19.0991C9.47254 19.1142 9.52782 19.1316 9.57984 19.1489C10.4346 19.4275 11.3556 19.4275 12.2103 19.1489C13.0716 18.8674 13.9997 18.8647 14.8625 19.1413L14.92 19.1598C15.5125 19.352 16.1402 19.4108 16.7582 19.3321Z" fill="#333333"/>
<path d="M16.5805 19.5315C16.5378 19.5597 16.4915 19.582 16.4428 19.5976C15.9223 19.6254 15.4011 19.5578 14.9048 19.3982L14.8474 19.3786C13.9976 19.1065 13.0837 19.1088 12.2353 19.3851C11.3677 19.6685 10.4324 19.6685 9.56472 19.3851L9.50295 19.3667C9.48895 19.3442 9.47664 19.3206 9.46609 19.2963C9.50511 19.3071 9.54305 19.319 9.58207 19.332C10.4368 19.6106 11.3579 19.6106 12.2126 19.332C13.0738 19.0505 14.0019 19.0478 14.8647 19.3245L14.9222 19.3429C15.457 19.5151 16.0207 19.5792 16.5805 19.5315Z" fill="#333333"/>
<path d="M9.68393 19.5457C9.77801 19.5749 9.87425 19.5997 9.97049 19.6214H9.95967C9.86254 19.622 9.76713 19.5958 9.68393 19.5457Z" fill="#333333"/>
<path d="M15.2723 19.6215H15.0457C14.998 19.6085 14.9504 19.5934 14.9027 19.5782L14.8452 19.5598C13.9956 19.2868 13.0816 19.2887 12.2332 19.5652C12.1703 19.5858 12.1074 19.6042 12.0446 19.6215H11.8191C11.9514 19.5923 12.0814 19.5565 12.2104 19.5131C13.0714 19.2307 13.9997 19.2277 14.8626 19.5045L14.92 19.524C15.036 19.563 15.153 19.5944 15.2723 19.6215Z" fill="#333333"/>
<path d="M14.6383 19.6215H14.3912C13.834 19.5077 13.2597 19.5077 12.7025 19.6215H12.4619C13.1752 19.4338 13.925 19.4338 14.6383 19.6215Z" fill="#333333"/>
<path d="M15.566 5.73389H9.2483C8.9484 5.73389 8.70529 5.977 8.70529 6.27689V18.4116C8.70529 18.7115 8.9484 18.9547 9.2483 18.9547H15.566C15.8659 18.9547 16.1091 18.7115 16.1091 18.4116V6.27689C16.1091 5.977 15.8659 5.73389 15.566 5.73389Z" fill="#333333"/>
<path d="M13.9934 6.65967H10.8199V6.92413H13.9934V6.65967Z" fill="#BDBDBD"/>
<path d="M14.522 6.92352C14.5948 6.92352 14.6539 6.86445 14.6539 6.79159C14.6539 6.71873 14.5948 6.65967 14.522 6.65967C14.4491 6.65967 14.39 6.71873 14.39 6.79159C14.39 6.86445 14.4491 6.92352 14.522 6.92352Z" fill="#BDBDBD"/>
<path d="M10.7332 12.8931H10.2043V13.422H10.7332V12.8931Z" fill="#BDBDBD"/>
<path d="M12.6709 12.8931H12.142V13.422H12.6709V12.8931Z" fill="#BDBDBD"/>
<path d="M14.6099 12.8931H14.081V13.422H14.6099V12.8931Z" fill="#BDBDBD"/>
<path d="M10.7332 14.3843H10.2043V14.9132H10.7332V14.3843Z" fill="#BDBDBD"/>
<path d="M12.6709 14.3843H12.142V14.9132H12.6709V14.3843Z" fill="#BDBDBD"/>
<path d="M14.6099 14.3843H14.081V14.9132H14.6099V14.3843Z" fill="#BDBDBD"/>
<path d="M10.7332 15.8767H10.2043V16.4056H10.7332V15.8767Z" fill="#BDBDBD"/>
<path d="M12.6709 15.8767H12.142V16.4056H12.6709V15.8767Z" fill="#BDBDBD"/>
<path d="M14.6099 15.8767H14.081V16.4056H14.6099V15.8767Z" fill="#BDBDBD"/>
<path d="M12.6709 17.3682H12.142V17.8971H12.6709V17.3682Z" fill="#BDBDBD"/>
<path d="M11.8376 10.1843H10.2509V10.4488H11.8376V10.1843Z" fill="#BDBDBD"/>
<path d="M11.1764 9.52319H10.9119V11.1099H11.1764V9.52319Z" fill="#BDBDBD"/>
<path d="M10.5776 9.66069L10.3906 9.84766L11.5124 10.9699L11.6994 10.7829L10.5776 9.66069Z" fill="#BDBDBD"/>
<path d="M11.5124 9.66169L10.3904 10.7837L10.5774 10.9707L11.6994 9.84869L11.5124 9.66169Z" fill="#BDBDBD"/>
<path d="M14.2579 9.87988H12.6711V10.1443H14.2579V9.87988Z" fill="#BDBDBD"/>
<path d="M13.1652 9.52319H12.9007V11.1099H13.1652V9.52319Z" fill="#BDBDBD"/>
<path d="M13.9586 9.52319H13.6942V11.1099H13.9586V9.52319Z" fill="#BDBDBD"/>
<path d="M14.2579 10.4089H12.6711V10.6734H14.2579V10.4089Z" fill="#BDBDBD"/>
</svg>
