<svg width="25" height="25" viewBox="0 0 25 25" fill="none" xmlns="http://www.w3.org/2000/svg">
<path d="M15.6751 5.97911L15.5917 6.00512C15.0137 6.19376 14.4025 6.25839 13.7979 6.1948C13.8038 6.17668 13.8085 6.15822 13.812 6.13952C14.3791 6.19984 14.9525 6.14415 15.4974 5.97586H15.6058C15.6289 5.97564 15.6521 5.97672 15.6751 5.97911Z" fill="#333333"/>
<path d="M12.2428 5.97604C12.2428 5.99339 12.2428 6.01073 12.2428 6.02699C11.5912 5.92749 10.9255 5.9813 10.2983 6.18414L10.2647 6.19498H10.2582C10.2825 6.16456 10.3098 6.1366 10.3395 6.11153C10.5302 6.05112 10.7251 6.00511 10.9226 5.97388L12.2428 5.97604Z" fill="#333333"/>
<path d="M15.9549 6.08524C15.8324 6.11234 15.711 6.14593 15.5918 6.18495C14.9907 6.3825 14.3533 6.44432 13.7254 6.36595C13.7357 6.3493 13.7448 6.33191 13.7525 6.31393C14.3639 6.38635 14.9837 6.32496 15.569 6.13401C15.6738 6.09933 15.78 6.06898 15.8877 6.04297C15.9113 6.05497 15.9338 6.06912 15.9549 6.08524Z" fill="#333333"/>
<path d="M12.2644 6.15254C12.2683 6.17269 12.2734 6.19259 12.2796 6.21216C11.6175 6.10546 10.9395 6.15784 10.3016 6.36498L10.268 6.37582C10.229 6.38882 10.19 6.40074 10.1509 6.41158C10.1564 6.38887 10.164 6.36673 10.1737 6.34547L10.2507 6.32162L10.2843 6.31079C10.9228 6.10379 11.6011 6.04959 12.2644 6.15254Z" fill="#333333"/>
<path d="M16.1024 6.23394C15.9295 6.26664 15.7589 6.31082 15.5919 6.36617C14.9508 6.57535 14.2697 6.6314 13.603 6.52983C13.6193 6.51416 13.6341 6.49711 13.6475 6.47889C14.2921 6.57371 14.95 6.51731 15.5691 6.31414C15.7312 6.26117 15.8962 6.21774 16.0634 6.18408C16.0775 6.20034 16.0905 6.2166 16.1024 6.23394Z" fill="#333333"/>
<path d="M12.3338 6.34442C12.345 6.36657 12.3577 6.38793 12.3718 6.40837C11.6807 6.28103 10.9689 6.32797 10.3005 6.54493L10.2669 6.55577C10.2207 6.57094 10.1741 6.58503 10.1271 6.59804V6.57311C10.126 6.56194 10.126 6.55068 10.1271 6.53951L10.2496 6.50266L10.2832 6.49182C10.9448 6.27763 11.6484 6.22705 12.3338 6.34442Z" fill="#333333"/>
<path d="M16.1825 6.39965C15.9823 6.43369 15.7848 6.48259 15.5918 6.54597C14.8871 6.77594 14.135 6.82073 13.4079 6.67603C13.4333 6.66266 13.4579 6.64783 13.4816 6.63159C14.1779 6.762 14.8959 6.71466 15.5691 6.49395C15.7642 6.4297 15.9638 6.38006 16.1663 6.34546C16.1728 6.36317 16.1782 6.38127 16.1825 6.39965Z" fill="#333333"/>
<path d="M12.4963 6.55579C12.526 6.58471 12.5583 6.61083 12.5928 6.63382C11.8348 6.45334 11.0417 6.48484 10.3004 6.72487L10.2668 6.73571C10.2206 6.75088 10.174 6.76497 10.127 6.77798V6.71945L10.2495 6.68151L10.2831 6.67068C10.9981 6.43964 11.7612 6.40003 12.4963 6.55579Z" fill="#333333"/>
<path d="M16.2086 6.57296C15.9995 6.6074 15.7933 6.65777 15.5919 6.72362C14.769 6.9931 13.8839 7.00783 13.0524 6.76589C13.1035 6.76566 13.1544 6.75984 13.2042 6.74854C13.9836 6.94891 14.8041 6.92259 15.5691 6.67268C15.7769 6.60451 15.9896 6.55234 16.2053 6.5166C16.2076 6.5353 16.2087 6.55412 16.2086 6.57296Z" fill="#333333"/>
<path d="M16.2085 6.69861V6.75497C15.9993 6.78977 15.7932 6.8405 15.5918 6.90671C14.7245 7.19017 13.7895 7.19017 12.9223 6.90671C12.0702 6.63031 11.1525 6.63031 10.3004 6.90671L10.2668 6.91863C10.2206 6.9338 10.174 6.94789 10.127 6.9609V6.90237L10.2495 6.86444L10.2831 6.8536C11.1463 6.57289 12.0763 6.57289 12.9396 6.8536C13.7939 7.13216 14.7147 7.13216 15.569 6.8536C15.7779 6.78581 15.9917 6.734 16.2085 6.69861Z" fill="#333333"/>
<path d="M16.2085 6.87864V6.93608C15.9993 6.97089 15.7932 7.02161 15.5918 7.08782C14.7245 7.37128 13.7895 7.37128 12.9223 7.08782C12.0702 6.81091 11.1524 6.81091 10.3004 7.08782L10.2668 7.09866C10.2206 7.11383 10.174 7.12792 10.127 7.14093V7.0824C10.1682 7.07156 10.2083 7.05856 10.2495 7.04555L10.2831 7.03363C11.1464 6.75344 12.0763 6.75344 12.9396 7.03363C13.7938 7.31316 14.7148 7.31316 15.569 7.03363C15.7779 6.96584 15.9917 6.91403 16.2085 6.87864Z" fill="#333333"/>
<path d="M16.2085 7.05868V7.11612C15.9994 7.15056 15.7932 7.20092 15.5918 7.26677C14.7244 7.54963 13.7896 7.54963 12.9223 7.26677C12.0703 6.98934 11.1524 6.98934 10.3004 7.26677L10.2668 7.27761C10.2206 7.29279 10.174 7.30688 10.127 7.31988V7.26136L10.2495 7.22342L10.2831 7.21258C11.1464 6.93239 12.0763 6.93239 12.9396 7.21258C13.7938 7.49212 14.7148 7.49212 15.569 7.21258C15.778 7.14516 15.9917 7.09371 16.2085 7.05868Z" fill="#333333"/>
<path d="M16.2085 7.23973V7.29609C15.9994 7.33053 15.7932 7.38089 15.5918 7.44675C14.7246 7.73073 13.7894 7.73073 12.9223 7.44675C12.0702 7.17035 11.1525 7.17035 10.3004 7.44675L10.2668 7.45758C10.2206 7.47276 10.174 7.48685 10.127 7.49985V7.44241L10.2495 7.40448L10.2831 7.39364C11.1463 7.11293 12.0763 7.11293 12.9396 7.39364C13.7939 7.6722 14.7147 7.6722 15.569 7.39364C15.7777 7.32519 15.9915 7.27372 16.2085 7.23973Z" fill="#333333"/>
<path d="M16.2085 7.41945V7.47798C15.9993 7.5119 15.7931 7.56227 15.5918 7.62863C14.7245 7.91209 13.7895 7.91209 12.9223 7.62863C12.0702 7.35224 11.1525 7.35224 10.3004 7.62863L10.2668 7.64055C10.2206 7.65573 10.174 7.66982 10.127 7.68282V7.62429L10.2495 7.58636L10.2831 7.57552C11.1463 7.29481 12.0763 7.29481 12.9396 7.57552C13.7939 7.85461 14.7148 7.85461 15.569 7.57552C15.7779 7.50737 15.9917 7.45519 16.2085 7.41945Z" fill="#333333"/>
<path d="M16.2085 7.59944V7.6558C15.9995 7.68919 15.7933 7.73847 15.5918 7.8032C14.7245 8.08666 13.7895 8.08666 12.9223 7.8032C12.0702 7.52629 11.1524 7.52629 10.3004 7.8032L10.2668 7.81404C10.2206 7.82921 10.174 7.8433 10.127 7.85631V7.8032C10.1682 7.79236 10.2083 7.77936 10.2495 7.76635L10.2831 7.75443C11.1465 7.47476 12.0762 7.47476 12.9396 7.75443C13.7938 8.03397 14.7148 8.03397 15.569 7.75443C15.7779 7.68664 15.9917 7.63483 16.2085 7.59944Z" fill="#333333"/>
<path d="M16.2085 7.7805V7.83686C15.9994 7.8713 15.7932 7.92167 15.5918 7.98752C14.7244 8.27038 13.7896 8.27038 12.9223 7.98752C12.0703 7.71008 11.1524 7.71008 10.3004 7.98752L10.2668 7.99836C10.2206 8.01353 10.174 8.02762 10.127 8.04063V7.98318L10.2495 7.94525L10.2831 7.93441C11.1463 7.6537 12.0763 7.6537 12.9396 7.93441C13.7939 8.21297 14.7147 8.21297 15.569 7.93441C15.7777 7.86597 15.9915 7.8145 16.2085 7.7805Z" fill="#333333"/>
<path d="M16.2085 7.9606V8.02021C15.9994 8.05465 15.7932 8.10502 15.5918 8.17087C14.7246 8.45485 13.7894 8.45485 12.9223 8.17087C12.0702 7.89447 11.1525 7.89447 10.3004 8.17087L10.2668 8.1817C10.2206 8.19688 10.174 8.21097 10.127 8.22397V8.16653L10.2495 8.1286L10.2831 8.11776C11.1463 7.83705 12.0763 7.83705 12.9396 8.11776C13.7939 8.39632 14.7147 8.39632 15.569 8.11776C15.7779 8.04924 15.9916 7.9967 16.2085 7.9606Z" fill="#333333"/>
<path d="M16.2085 8.14025V8.19661C15.9994 8.23035 15.7933 8.27999 15.5918 8.3451C14.7245 8.62856 13.7895 8.62856 12.9223 8.3451C12.0702 8.06818 11.1524 8.06818 10.3004 8.3451L10.2668 8.35593C10.2206 8.37111 10.174 8.3852 10.127 8.3982V8.3451L10.2495 8.30716L10.2831 8.29632C11.1464 8.01613 12.0763 8.01613 12.9396 8.29632C13.7939 8.57541 14.7148 8.57541 15.569 8.29632C15.7779 8.22817 15.9917 8.17599 16.2085 8.14025Z" fill="#333333"/>
<path d="M16.2085 8.32029V8.37773C15.9994 8.41217 15.7932 8.46254 15.5918 8.52839C14.7244 8.81125 13.7896 8.81125 12.9223 8.52839C12.0703 8.25095 11.1524 8.25095 10.3004 8.52839L10.2668 8.53923C10.2206 8.5544 10.174 8.56849 10.127 8.5815V8.52297C10.1682 8.51213 10.2083 8.49912 10.2495 8.48612L10.2831 8.47528C11.1464 8.19509 12.0763 8.19509 12.9396 8.47528C13.7938 8.75482 14.7148 8.75482 15.569 8.47528C15.7779 8.40749 15.9917 8.35568 16.2085 8.32029Z" fill="#333333"/>
<path d="M16.2085 8.50102V8.56172C15.9994 8.59616 15.7932 8.64652 15.5918 8.71237C14.7245 8.99583 13.7895 8.99583 12.9223 8.71237C12.0702 8.43546 11.1524 8.43546 10.3004 8.71237L10.2668 8.72321C10.2206 8.73838 10.174 8.75247 10.127 8.76548V8.70262L10.2495 8.6701L10.2831 8.65926C11.1463 8.37855 12.0763 8.37855 12.9396 8.65926C13.7939 8.93782 14.7147 8.93782 15.569 8.65926C15.7775 8.58935 15.9914 8.53643 16.2085 8.50102Z" fill="#333333"/>
<path d="M16.2085 8.68106V8.7385C15.9993 8.77172 15.7931 8.82137 15.5918 8.88699C14.7245 9.17045 13.7895 9.17045 12.9223 8.88699C12.0702 8.6106 11.1525 8.6106 10.3004 8.88699L10.2668 8.89891C10.2206 8.91409 10.174 8.92818 10.127 8.94118V8.88699L10.2495 8.84905L10.2831 8.83822C11.1463 8.55751 12.0763 8.55751 12.9396 8.83822C13.7939 9.11678 14.7147 9.11678 15.569 8.83822C15.7779 8.7697 15.9916 8.71716 16.2085 8.68106Z" fill="#333333"/>
<path d="M16.2085 8.86092V8.91837C15.9993 8.95229 15.7931 9.00266 15.5918 9.06902C14.7245 9.35248 13.7895 9.35248 12.9223 9.06902C12.0702 8.79211 11.1524 8.79211 10.3004 9.06902L10.2668 9.07986C10.2206 9.09503 10.174 9.10912 10.127 9.12213V9.0636L10.2495 9.02567L10.2831 9.01483C11.1464 8.73464 12.0763 8.73464 12.9396 9.01483C13.7938 9.29437 14.7148 9.29437 15.569 9.01483C15.778 8.94741 15.9917 8.89596 16.2085 8.86092Z" fill="#333333"/>
<path d="M16.2085 9.04119V9.10405C15.9994 9.13849 15.7932 9.18885 15.5918 9.2547C14.7244 9.53756 13.7896 9.53756 12.9223 9.2547C12.0703 8.97727 11.1524 8.97727 10.3004 9.2547L10.2668 9.26554C10.2206 9.28072 10.174 9.29481 10.127 9.30781V9.25037L10.2495 9.21243L10.2831 9.2016C11.1464 8.92141 12.0763 8.92141 12.9396 9.2016C13.7938 9.48113 14.7148 9.48113 15.569 9.2016C15.7778 9.13197 15.9916 9.07835 16.2085 9.04119Z" fill="#333333"/>
<path d="M16.2085 9.22221V9.27857C15.9994 9.31301 15.7932 9.36338 15.5918 9.42923C14.7246 9.71321 13.7894 9.71321 12.9223 9.42923C12.0702 9.15231 11.1524 9.15231 10.3004 9.42923L10.2668 9.44006C10.2206 9.45524 10.174 9.46933 10.127 9.48233V9.42923L10.2495 9.39129L10.2831 9.38045C11.1463 9.09974 12.0763 9.09974 12.9396 9.38045C13.7939 9.65901 14.7147 9.65901 15.569 9.38045C15.7775 9.31054 15.9914 9.25762 16.2085 9.22221Z" fill="#333333"/>
<path d="M16.2085 9.40198V9.45942C15.9993 9.49334 15.7931 9.54372 15.5918 9.61008C14.7245 9.89354 13.7895 9.89354 12.9223 9.61008C12.0702 9.33368 11.1525 9.33368 10.3004 9.61008L10.2668 9.622C10.2206 9.63717 10.174 9.65126 10.127 9.66427V9.60574L10.2495 9.56781L10.2831 9.55697C11.1463 9.27626 12.0763 9.27626 12.9396 9.55697C13.7939 9.83553 14.7147 9.83553 15.569 9.55697C15.7779 9.48918 15.9917 9.43737 16.2085 9.40198Z" fill="#333333"/>
<path d="M16.2085 9.58163V9.63798C15.9993 9.67279 15.7932 9.72352 15.5918 9.78972C14.7245 10.0732 13.7895 10.0732 12.9223 9.78972C12.0702 9.51281 11.1524 9.51281 10.3004 9.78972L10.2668 9.80056C10.2206 9.81574 10.174 9.82983 10.127 9.84283V9.7843C10.1682 9.77347 10.2083 9.76046 10.2495 9.74745L10.2831 9.73553C11.1464 9.45534 12.0763 9.45534 12.9396 9.73553C13.7938 10.0151 14.7148 10.0151 15.569 9.73553C15.778 9.66811 15.9917 9.61666 16.2085 9.58163Z" fill="#333333"/>
<path d="M16.2085 9.76173V9.81918C15.9993 9.85397 15.7932 9.9047 15.5918 9.97091C14.7244 10.2538 13.7896 10.2538 12.9223 9.97091C12.0703 9.69348 11.1524 9.69348 10.3004 9.97091L10.2668 9.98175C10.2206 9.99693 10.174 10.011 10.127 10.024V9.96658L10.2495 9.92864L10.2831 9.91781C11.1463 9.6371 12.0763 9.6371 12.9396 9.91781C13.7939 10.1964 14.7147 10.1964 15.569 9.91781C15.7778 9.84915 15.9916 9.79696 16.2085 9.76173Z" fill="#333333"/>
<path d="M16.2085 9.94247V9.99883C15.9994 10.0333 15.7932 10.0836 15.5918 10.1495C14.7246 10.4335 13.7894 10.4335 12.9223 10.1495C12.0702 9.8731 11.1525 9.8731 10.3004 10.1495L10.2668 10.1603C10.2206 10.1755 10.174 10.1896 10.127 10.2026V10.1441L10.2495 10.1061L10.2831 10.0953C11.1463 9.81459 12.0763 9.81459 12.9396 10.0953C13.7939 10.3739 14.7147 10.3739 15.569 10.0953C15.7777 10.0272 15.9916 9.97611 16.2085 9.94247Z" fill="#333333"/>
<path d="M16.2085 10.1225V10.18C15.9993 10.2139 15.7931 10.2643 15.5918 10.3306C14.7245 10.6141 13.7895 10.6141 12.9223 10.3306C12.0702 10.0537 11.1524 10.0537 10.3004 10.3306L10.2668 10.3415C10.2206 10.3567 10.174 10.3707 10.127 10.3838V10.3252L10.2495 10.2873L10.2831 10.2764C11.1463 9.99574 12.0763 9.99574 12.9396 10.2764C13.7939 10.5555 14.7148 10.5555 15.569 10.2764C15.778 10.209 15.9917 10.1576 16.2085 10.1225Z" fill="#333333"/>
<path d="M16.2085 10.3027V10.3602C15.9993 10.3953 15.7931 10.4464 15.5918 10.513C14.7245 10.7965 13.7895 10.7965 12.9223 10.513C12.0702 10.2361 11.1524 10.2361 10.3004 10.513L10.2668 10.5238C10.2206 10.539 10.174 10.5531 10.127 10.5661V10.5076C10.1682 10.4967 10.2083 10.4837 10.2495 10.4707L10.2831 10.4599C11.1464 10.1797 12.0763 10.1797 12.9396 10.4599C13.7938 10.7394 14.7148 10.7394 15.569 10.4599C15.7779 10.3914 15.9916 10.3388 16.2085 10.3027Z" fill="#333333"/>
<path d="M16.2085 10.4836V10.54C15.9994 10.5744 15.7932 10.6248 15.5918 10.6906C14.7245 10.9741 13.7895 10.9741 12.9223 10.6906C12.0702 10.4142 11.1525 10.4142 10.3004 10.6906L10.2668 10.7015C10.2206 10.7167 10.174 10.7307 10.127 10.7438V10.6863L10.2495 10.6484L10.2831 10.6375C11.1463 10.3568 12.0763 10.3568 12.9396 10.6375C13.7939 10.9161 14.7147 10.9161 15.569 10.6375C15.7777 10.5691 15.9915 10.5176 16.2085 10.4836Z" fill="#333333"/>
<path d="M16.2085 10.6635V10.7209C15.9993 10.7548 15.7931 10.8052 15.5918 10.8716C14.7245 11.155 13.7895 11.155 12.9223 10.8716C12.0702 10.5952 11.1525 10.5952 10.3004 10.8716L10.2668 10.8835C10.2206 10.8986 10.174 10.9127 10.127 10.9257V10.8672L10.2495 10.8293L10.2831 10.8184C11.1463 10.5377 12.0763 10.5377 12.9396 10.8184C13.7939 11.097 14.7147 11.097 15.569 10.8184C15.7779 10.7507 15.9917 10.6988 16.2085 10.6635Z" fill="#333333"/>
<path d="M16.2085 10.8435V10.8999C15.9993 10.9357 15.7931 10.9876 15.5918 11.0549C14.7245 11.3383 13.7895 11.3383 12.9223 11.0549C12.0702 10.7779 11.1524 10.7779 10.3004 11.0549L10.2668 11.0657C10.2206 11.0809 10.174 11.095 10.127 11.108V11.0494C10.1682 11.0386 10.2083 11.0256 10.2495 11.0126L10.2831 11.0007C11.1464 10.7205 12.0763 10.7205 12.9396 11.0007C13.7938 11.2802 14.7148 11.2802 15.569 11.0007C15.7779 10.9321 15.9916 10.8796 16.2085 10.8435Z" fill="#333333"/>
<path d="M16.2085 11.0234V11.0809C15.9994 11.1153 15.7932 11.1657 15.5918 11.2315C14.7244 11.5144 13.7896 11.5144 12.9223 11.2315C12.0703 10.9541 11.1524 10.9541 10.3004 11.2315L10.2668 11.2424C10.2206 11.2575 10.174 11.2716 10.127 11.2846V11.2261C10.1682 11.2153 10.2083 11.2022 10.2495 11.1892L10.2831 11.1784C11.1464 10.8982 12.0763 10.8982 12.9396 11.1784C13.7938 11.4579 14.7148 11.4579 15.569 11.1784C15.7779 11.1106 15.9917 11.0588 16.2085 11.0234Z" fill="#333333"/>
<path d="M16.2085 11.2041V11.2604C15.9994 11.2949 15.7932 11.3452 15.5918 11.4111C14.7246 11.6951 13.7894 11.6951 12.9223 11.4111C12.0703 11.1337 11.1524 11.1337 10.3004 11.4111L10.2668 11.4219C10.2206 11.4371 10.174 11.4512 10.127 11.4642V11.4068L10.2495 11.3688L10.2831 11.358C11.1463 11.0773 12.0763 11.0773 12.9396 11.358C13.7939 11.6366 14.7147 11.6366 15.569 11.358C15.7777 11.2895 15.9915 11.2381 16.2085 11.2041Z" fill="#333333"/>
<path d="M16.2085 11.38V11.4364C15.9993 11.4712 15.7932 11.5219 15.5918 11.5881C14.7245 11.8716 13.7895 11.8716 12.9223 11.5881C12.0702 11.3117 11.1525 11.3117 10.3004 11.5881L10.2668 11.6C10.2206 11.6152 10.174 11.6293 10.127 11.6423V11.5838L10.2495 11.5458L10.2831 11.535C11.1463 11.2543 12.0763 11.2543 12.9396 11.535C13.7939 11.8136 14.7147 11.8136 15.569 11.535C15.7779 11.4672 15.9917 11.4154 16.2085 11.38Z" fill="#333333"/>
<path d="M16.2085 11.5639V11.6213C15.9993 11.6553 15.7931 11.7056 15.5918 11.772C14.7245 12.0555 13.7895 12.0555 12.9223 11.772C12.0702 11.4951 11.1524 11.4951 10.3004 11.772L10.2668 11.7828C10.2206 11.798 10.174 11.8121 10.127 11.8251V11.7666C10.1682 11.7557 10.2083 11.7427 10.2495 11.7297L10.2831 11.7178C11.1465 11.4381 12.0762 11.4381 12.9396 11.7178C13.7938 11.9973 14.7148 11.9973 15.569 11.7178C15.778 11.6504 15.9917 11.5989 16.2085 11.5639Z" fill="#333333"/>
<path d="M16.2085 11.7439V11.8013C15.9994 11.8358 15.7932 11.8861 15.5918 11.952C14.7244 12.2348 13.7896 12.2348 12.9223 11.952C12.0703 11.6745 11.1524 11.6745 10.3004 11.952L10.2668 11.9628C10.2206 11.978 10.174 11.9921 10.127 12.0051V11.9476L10.2495 11.9097L10.2831 11.8989C11.1464 11.6187 12.0763 11.6187 12.9396 11.8989C13.7938 12.1784 14.7148 12.1784 15.569 11.8989C15.7779 11.8311 15.9917 11.7793 16.2085 11.7439Z" fill="#333333"/>
<path d="M16.2085 11.9219V11.9782C15.9994 12.0127 15.7932 12.063 15.5918 12.1289C14.7246 12.4129 13.7894 12.4129 12.9223 12.1289C12.0702 11.8525 11.1525 11.8525 10.3004 12.1289L10.2668 12.1397C10.2206 12.1549 10.174 12.169 10.127 12.182V12.1245L10.2495 12.0866L10.2831 12.0758C11.1463 11.7951 12.0763 11.7951 12.9396 12.0758C13.7939 12.3543 14.7147 12.3543 15.569 12.0758C15.7777 12.0073 15.9915 11.9559 16.2085 11.9219Z" fill="#333333"/>
<path d="M16.2085 12.1051V12.1625C15.9993 12.1965 15.7931 12.2468 15.5918 12.3132C14.7245 12.5967 13.7895 12.5967 12.9223 12.3132C12.0702 12.0368 11.1525 12.0368 10.3004 12.3132L10.2668 12.3251C10.2206 12.3403 10.174 12.3544 10.127 12.3674V12.3089L10.2495 12.2709L10.2831 12.2601C11.1463 11.9794 12.0763 11.9794 12.9396 12.2601C13.7939 12.5392 14.7148 12.5392 15.569 12.2601C15.7779 12.1923 15.9917 12.1405 16.2085 12.1051Z" fill="#333333"/>
<path d="M16.2085 12.2849V12.3423C15.9994 12.3768 15.7932 12.4271 15.5918 12.493C14.7245 12.7764 13.7895 12.7764 12.9223 12.493C12.0702 12.2161 11.1524 12.2161 10.3004 12.493L10.2668 12.5038C10.2206 12.519 10.174 12.5331 10.127 12.5461V12.4876C10.1682 12.4767 10.2083 12.4637 10.2495 12.4507L10.2831 12.4399C11.1464 12.1597 12.0763 12.1597 12.9396 12.4399C13.7938 12.7194 14.7148 12.7194 15.569 12.4399C15.7779 12.3721 15.9917 12.3203 16.2085 12.2849Z" fill="#333333"/>
<path d="M16.2085 12.4636V12.52C15.9994 12.5544 15.7932 12.6048 15.5918 12.6706C14.7245 12.9541 13.7895 12.9541 12.9223 12.6706C12.0703 12.3932 11.1524 12.3932 10.3004 12.6706L10.2668 12.6815C10.2206 12.6966 10.174 12.7107 10.127 12.7237V12.6663L10.2495 12.6284L10.2831 12.6175C11.1463 12.3368 12.0763 12.3368 12.9396 12.6175C13.7939 12.8961 14.7147 12.8961 15.569 12.6175C15.7777 12.5491 15.9915 12.4976 16.2085 12.4636Z" fill="#333333"/>
<path d="M16.2085 12.6456V12.7031C15.9993 12.737 15.7931 12.7874 15.5918 12.8537C14.7245 13.1372 13.7895 13.1372 12.9223 12.8537C12.0702 12.5773 11.1525 12.5773 10.3004 12.8537L10.2668 12.8646C10.2206 12.8797 10.174 12.8938 10.127 12.9068V12.8494L10.2495 12.8115L10.2831 12.8006C11.1463 12.5199 12.0763 12.5199 12.9396 12.8006C13.7939 13.0792 14.7147 13.0792 15.569 12.8006C15.7779 12.7328 15.9917 12.681 16.2085 12.6456Z" fill="#333333"/>
<path d="M16.2085 12.826V12.8824C15.9993 12.9172 15.7932 12.9679 15.5918 13.0341C14.7245 13.3176 13.7895 13.3176 12.9223 13.0341C12.0702 12.7572 11.1524 12.7572 10.3004 13.0341L10.2668 13.0449C10.2206 13.0601 10.174 13.0742 10.127 13.0872V13.0287C10.1682 13.0179 10.2083 13.0048 10.2495 12.9918L10.2831 12.9799C11.1464 12.6997 12.0763 12.6997 12.9396 12.9799C13.7938 13.2595 14.7148 13.2595 15.569 12.9799C15.778 12.9125 15.9917 12.861 16.2085 12.826Z" fill="#333333"/>
<path d="M16.2085 13.0056V13.063C15.9994 13.0975 15.7932 13.1478 15.5918 13.2137C14.7244 13.4965 13.7896 13.4965 12.9223 13.2137C12.0703 12.9363 11.1524 12.9363 10.3004 13.2137L10.2668 13.2245C10.2206 13.2397 10.174 13.2538 10.127 13.2668V13.2083C10.1682 13.1974 10.2083 13.1844 10.2495 13.1714L10.2831 13.1606C11.1464 12.8804 12.0763 12.8804 12.9396 13.1606C13.7938 13.4401 14.7148 13.4401 15.569 13.1606C15.7779 13.0928 15.9917 13.041 16.2085 13.0056Z" fill="#333333"/>
<path d="M16.2085 13.1868V13.2431C15.9994 13.2776 15.7932 13.3279 15.5918 13.3938C14.7246 13.6778 13.7894 13.6778 12.9223 13.3938C12.0702 13.1169 11.1524 13.1169 10.3004 13.3938L10.2668 13.4046C10.2206 13.4198 10.174 13.4339 10.127 13.4469V13.3894L10.2495 13.3515L10.2831 13.3407C11.1463 13.0599 12.0763 13.0599 12.9396 13.3407C13.7939 13.6192 14.7147 13.6192 15.569 13.3407C15.7777 13.2722 15.9915 13.2207 16.2085 13.1868Z" fill="#333333"/>
<path d="M16.2085 13.3666V13.4229C15.9993 13.4577 15.7932 13.5085 15.5918 13.5747C14.7245 13.8581 13.7895 13.8581 12.9223 13.5747C12.0702 13.2983 11.1525 13.2983 10.3004 13.5747L10.2668 13.5866C10.2206 13.6018 10.174 13.6159 10.127 13.6289V13.5703L10.2495 13.5324L10.2831 13.5216C11.1463 13.2409 12.0763 13.2409 12.9396 13.5216C13.7939 13.8001 14.7147 13.8001 15.569 13.5216C15.7779 13.4538 15.9917 13.402 16.2085 13.3666Z" fill="#333333"/>
<path d="M16.2085 13.5477V13.6051C15.9993 13.6391 15.7931 13.6894 15.5918 13.7558C14.7245 14.0392 13.7895 14.0392 12.9223 13.7558C12.0702 13.4789 11.1524 13.4789 10.3004 13.7558L10.2668 13.7666C10.2206 13.7818 10.174 13.7959 10.127 13.8089V13.7504C10.1682 13.7395 10.2083 13.7265 10.2495 13.7135L10.2831 13.7016C11.1464 13.4214 12.0763 13.4214 12.9396 13.7016C13.7938 13.9811 14.7148 13.9811 15.569 13.7016C15.778 13.6342 15.9917 13.5827 16.2085 13.5477Z" fill="#333333"/>
<path d="M16.2085 13.7265V13.784C15.9994 13.8184 15.7932 13.8688 15.5918 13.9346C14.7244 14.2175 13.7896 14.2175 12.9223 13.9346C12.0703 13.6572 11.1524 13.6572 10.3004 13.9346L10.2668 13.9455C10.2206 13.9606 10.174 13.9747 10.127 13.9877V13.9303L10.2495 13.8924L10.2831 13.8815C11.1464 13.6013 12.0763 13.6013 12.9396 13.8815C13.7938 14.1611 14.7148 14.1611 15.569 13.8815C15.7778 13.8132 15.9916 13.7614 16.2085 13.7265Z" fill="#333333"/>
<path d="M16.2085 13.9072V13.9636C15.9994 13.998 15.7932 14.0484 15.5918 14.1142C14.7246 14.3982 13.7894 14.3982 12.9223 14.1142C12.0702 13.8378 11.1525 13.8378 10.3004 14.1142L10.2668 14.1251C10.2206 14.1402 10.174 14.1543 10.127 14.1673V14.1099L10.2495 14.072L10.2831 14.0611C11.1463 13.7804 12.0763 13.7804 12.9396 14.0611C13.7939 14.3397 14.7147 14.3397 15.569 14.0611C15.7777 13.9927 15.9915 13.9412 16.2085 13.9072Z" fill="#333333"/>
<path d="M16.2085 14.0895V14.1469C15.9993 14.1808 15.7931 14.2312 15.5918 14.2976C14.7245 14.581 13.7895 14.581 12.9223 14.2976C12.0702 14.0212 11.1525 14.0212 10.3004 14.2976L10.2668 14.3095L10.127 14.3518V14.2932L10.2495 14.2553L10.2831 14.2445C11.1463 13.9638 12.0763 13.9638 12.9396 14.2445C13.7939 14.523 14.7147 14.523 15.569 14.2445C15.7779 14.1767 15.9917 14.1249 16.2085 14.0895Z" fill="#333333"/>
<path d="M16.2085 14.2673V14.3237C15.9993 14.3585 15.7932 14.4092 15.5918 14.4754C14.7245 14.7589 13.7895 14.7589 12.9223 14.4754C12.0702 14.1985 11.1524 14.1985 10.3004 14.4754L10.2668 14.4862L10.127 14.5285V14.47C10.1682 14.4591 10.2083 14.4461 10.2495 14.4331L10.2831 14.4223C11.1464 14.1421 12.0763 14.1421 12.9396 14.4223C13.7938 14.7018 14.7148 14.7018 15.569 14.4223C15.7779 14.3545 15.9917 14.3027 16.2085 14.2673Z" fill="#333333"/>
<path d="M16.2085 14.4482V14.5046C15.9994 14.539 15.7932 14.5894 15.5918 14.6552C14.7244 14.9381 13.7896 14.9381 12.9223 14.6552C12.0703 14.3778 11.1524 14.3778 10.3004 14.6552L10.2668 14.6661C10.2206 14.6813 10.174 14.6953 10.127 14.7084V14.6509L10.2495 14.613L10.2831 14.6021C11.1463 14.3214 12.0763 14.3214 12.9396 14.6021C13.7939 14.8807 14.7147 14.8807 15.569 14.6021C15.7777 14.5337 15.9915 14.4822 16.2085 14.4482Z" fill="#333333"/>
<path d="M16.2085 14.6313V14.6877C15.9994 14.7221 15.7932 14.7725 15.5918 14.8383C14.7246 15.1223 13.7894 15.1223 12.9223 14.8383C12.0702 14.562 11.1525 14.562 10.3004 14.8383L10.2668 14.8492C10.2206 14.8644 10.174 14.8784 10.127 14.8915V14.834L10.2495 14.7961L10.2831 14.7852C11.1463 14.5045 12.0763 14.5045 12.9396 14.7852C13.7939 15.0638 14.7147 15.0638 15.569 14.7852C15.778 14.7178 15.9917 14.6664 16.2085 14.6313Z" fill="#333333"/>
<path d="M16.2085 14.8079V14.8643C15.9993 14.8991 15.7932 14.9498 15.5918 15.016C14.7245 15.2995 13.7895 15.2995 12.9223 15.016C12.0702 14.7391 11.1524 14.7391 10.3004 15.016L10.2668 15.0269C10.2206 15.0421 10.174 15.0561 10.127 15.0692V15.0106C10.1682 14.9998 10.2083 14.9868 10.2495 14.9738L10.2831 14.9619C11.1464 14.6817 12.0763 14.6817 12.9396 14.9619C13.7938 15.2414 14.7148 15.2414 15.569 14.9619C15.778 14.8944 15.9917 14.843 16.2085 14.8079Z" fill="#333333"/>
<path d="M16.2085 14.988V15.0455C15.9994 15.0799 15.7932 15.1303 15.5918 15.1961C14.7244 15.479 13.7896 15.479 12.9223 15.1961C12.0703 14.9187 11.1524 14.9187 10.3004 15.1961L10.2668 15.2069L10.127 15.2492V15.1907C10.1682 15.1799 10.2083 15.1668 10.2495 15.1538L10.2831 15.143C11.1464 14.8628 12.0763 14.8628 12.9396 15.143C13.7938 15.4225 14.7148 15.4225 15.569 15.143C15.7779 15.0752 15.9917 15.0234 16.2085 14.988Z" fill="#333333"/>
<path d="M16.2085 15.1734V15.2297C15.9994 15.2642 15.7932 15.3145 15.5918 15.3804C14.9893 15.5766 14.3511 15.6384 13.7221 15.5614C13.4503 15.5278 13.1825 15.4679 12.9223 15.3825C12.0702 15.1061 11.1525 15.1061 10.3004 15.3825L10.2668 15.3934L10.127 15.4356V15.3782L10.2495 15.3403L10.2831 15.3294C11.1463 15.0487 12.0763 15.0487 12.9396 15.3294C13.7939 15.608 14.7147 15.608 15.569 15.3294C15.7776 15.2602 15.9915 15.2081 16.2085 15.1734Z" fill="#333333"/>
<path d="M12.9396 15.5054C12.997 15.5238 13.0545 15.5422 13.1119 15.5574H12.9147C12.0636 15.2816 11.1472 15.2816 10.2961 15.5574H10.2896H10.127V15.5509L10.2495 15.513L10.2831 15.5021C11.1467 15.2225 12.0767 15.2236 12.9396 15.5054Z" fill="#333333"/>
<path d="M13.7222 15.5569H14.7768C14.4266 15.6002 14.0724 15.6002 13.7222 15.5569Z" fill="#333333"/>
<path d="M16.2085 15.3491V15.4066C15.9993 15.4405 15.793 15.4909 15.5918 15.5572H15.3967C15.4541 15.542 15.5116 15.5236 15.569 15.5052C15.7779 15.437 15.9917 15.3849 16.2085 15.3491Z" fill="#333333"/>
<path d="M12.453 15.5571H12.0964C11.7723 15.5203 11.4451 15.5203 11.1209 15.5571H10.7611C11.3195 15.4455 11.8946 15.4455 12.453 15.5571Z" fill="#333333"/>
<path d="M16.2082 15.5288V15.5569H16.0579C16.1055 15.5461 16.1563 15.5375 16.2082 15.5288Z" fill="#333333"/>
<path d="M14.8895 16.6235C14.4684 16.6864 14.0404 16.6864 13.6193 16.6235H14.8895Z" fill="#333333"/>
<path d="M10.154 16.6235H10.3422L10.3 16.6365L10.2665 16.6473C10.2204 16.6625 10.1739 16.6765 10.127 16.6895V16.6322L10.154 16.6235Z" fill="#333333"/>
<path d="M15.6384 16.6235L15.5918 16.6376C14.7245 16.9205 13.7897 16.9205 12.9223 16.6376C12.905 16.6322 12.8876 16.6257 12.8692 16.6213H13.0643C13.8425 16.8509 14.6705 16.8509 15.4488 16.6213L15.6384 16.6235Z" fill="#333333"/>
<path d="M12.3728 16.6236C12.5645 16.6577 12.7536 16.7055 12.9385 16.7666C13.7929 17.0452 14.7136 17.0452 15.568 16.7666C15.753 16.706 15.9421 16.6582 16.1337 16.6236H16.2074V16.6669C15.9983 16.7014 15.7922 16.7517 15.5907 16.8176C14.7235 17.1016 13.7884 17.1016 12.9212 16.8176C12.6029 16.713 12.2732 16.6472 11.9392 16.6214C11.7177 16.6041 11.4952 16.6041 11.2738 16.6214C10.942 16.6464 10.6145 16.7112 10.2983 16.8143L10.2647 16.8252C10.2185 16.8403 10.1718 16.8544 10.1249 16.8674V16.81L10.2474 16.7721L10.281 16.7612C10.4628 16.7017 10.6486 16.655 10.837 16.6214L12.3728 16.6236Z" fill="#333333"/>
<path d="M16.2085 16.7905V16.848C15.9993 16.8819 15.7931 16.9323 15.5918 16.9986C14.7245 17.2821 13.7895 17.2821 12.9223 16.9986C12.0702 16.7217 11.1524 16.7217 10.3004 16.9986L10.2668 17.0094L10.127 17.0517V16.9932C10.1682 16.9824 10.2083 16.9693 10.2495 16.9563L10.2831 16.9444C11.1463 16.6637 12.0763 16.6637 12.9396 16.9444C13.7938 17.224 14.7148 17.224 15.569 16.9444C15.778 16.877 15.9917 16.8255 16.2085 16.7905Z" fill="#333333"/>
<path d="M16.2085 16.9702V17.0276C15.9994 17.0621 15.7932 17.1124 15.5918 17.1783C14.7244 17.4611 13.7896 17.4611 12.9223 17.1783C12.0703 16.9009 11.1524 16.9009 10.3004 17.1783L10.2668 17.1891C10.2206 17.2043 10.174 17.2184 10.127 17.2314V17.1729C10.1682 17.162 10.2083 17.149 10.2495 17.136L10.2831 17.1252C11.1464 16.845 12.0763 16.845 12.9396 17.1252C13.7938 17.4047 14.7148 17.4047 15.569 17.1252C15.7779 17.0574 15.9917 17.0056 16.2085 16.9702Z" fill="#333333"/>
<path d="M16.2085 17.1511V17.2075C15.9994 17.2419 15.7932 17.2923 15.5918 17.3581C14.7245 17.6416 13.7895 17.6416 12.9223 17.3581C12.0702 17.0817 11.1525 17.0817 10.3004 17.3581L10.2668 17.369C10.2206 17.3841 10.174 17.3982 10.127 17.4112V17.3538L10.2495 17.3159L10.2831 17.305C11.1463 17.0243 12.0763 17.0243 12.9396 17.305C13.7939 17.5836 14.7147 17.5836 15.569 17.305C15.7777 17.2366 15.9915 17.1851 16.2085 17.1511Z" fill="#333333"/>
<path d="M16.2085 17.3314V17.3889C15.9993 17.4228 15.7931 17.4732 15.5918 17.5395C14.7245 17.823 13.7895 17.823 12.9223 17.5395C12.0702 17.2631 11.1525 17.2631 10.3004 17.5395L10.2668 17.5514C10.2206 17.5666 10.174 17.5807 10.127 17.5937V17.5352L10.2495 17.4972L10.2831 17.4864C11.1463 17.2057 12.0763 17.2057 12.9396 17.4864C13.7939 17.765 14.7147 17.765 15.569 17.4864C15.7779 17.4186 15.9917 17.3668 16.2085 17.3314Z" fill="#333333"/>
<path d="M16.2085 17.5113V17.5688C15.9993 17.6027 15.7931 17.6531 15.5918 17.7194C14.7245 18.0029 13.7895 18.0029 12.9223 17.7194C12.0702 17.4425 11.1524 17.4425 10.3004 17.7194L10.2668 17.7302L10.127 17.7725V17.714C10.1682 17.7032 10.2083 17.6901 10.2495 17.6771L10.2831 17.6652C11.1464 17.385 12.0763 17.385 12.9396 17.6652C13.7938 17.9448 14.7148 17.9448 15.569 17.6652C15.778 17.5978 15.9917 17.5463 16.2085 17.5113Z" fill="#333333"/>
<path d="M16.2085 17.6911V17.7486C15.9994 17.783 15.7932 17.8334 15.5918 17.8992C14.7244 18.1821 13.7896 18.1821 12.9223 17.8992C12.0703 17.6218 11.1524 17.6218 10.3004 17.8992L10.2668 17.9101L10.127 17.9523V17.8938C10.1682 17.883 10.2083 17.87 10.2495 17.857L10.2831 17.8461C11.1464 17.5659 12.0763 17.5659 12.9396 17.8461C13.7938 18.1257 14.7148 18.1257 15.569 17.8461C15.7779 17.7783 15.9917 17.7265 16.2085 17.6911Z" fill="#333333"/>
<path d="M16.2085 17.8721V17.9284C15.9994 17.9629 15.7932 18.0132 15.5918 18.0791C14.7246 18.3631 13.7894 18.3631 12.9223 18.0791C12.0702 17.8027 11.1525 17.8027 10.3004 18.0791L10.2668 18.0899L10.127 18.1322V18.0747L10.2495 18.0368L10.2831 18.026C11.1463 17.7453 12.0763 17.7453 12.9396 18.026C13.7939 18.3045 14.7147 18.3045 15.569 18.026C15.778 17.9585 15.9917 17.9071 16.2085 17.8721Z" fill="#333333"/>
<path d="M16.2085 18.0521V18.1085C15.9993 18.1433 15.7932 18.194 15.5918 18.2602C14.7245 18.5437 13.7895 18.5437 12.9223 18.2602C12.0702 17.9838 11.1525 17.9838 10.3004 18.2602L10.2668 18.2721C10.2206 18.2873 10.174 18.3014 10.127 18.3144V18.2559L10.2495 18.2179L10.2831 18.2071C11.1463 17.9264 12.0763 17.9264 12.9396 18.2071C13.7939 18.4857 14.7147 18.4857 15.569 18.2071C15.7779 18.1393 15.9917 18.0875 16.2085 18.0521Z" fill="#333333"/>
<path d="M16.2085 18.2319V18.2893C15.9993 18.3232 15.7931 18.3736 15.5918 18.44C14.7245 18.7234 13.7895 18.7234 12.9223 18.44C12.0702 18.1631 11.1524 18.1631 10.3004 18.44L10.2668 18.4508C10.2206 18.466 10.174 18.4801 10.127 18.4931V18.4346C10.1682 18.4237 10.2083 18.4107 10.2495 18.3977L10.2831 18.3858C11.1465 18.1061 12.0762 18.1061 12.9396 18.3858C13.7938 18.6653 14.7148 18.6653 15.569 18.3858C15.778 18.3184 15.9917 18.2669 16.2085 18.2319Z" fill="#333333"/>
<path d="M16.2085 18.4118V18.4693C15.9994 18.5037 15.7932 18.5541 15.5918 18.6199C14.7244 18.9028 13.7896 18.9028 12.9223 18.6199C12.0703 18.3425 11.1524 18.3425 10.3004 18.6199L10.2668 18.6308C10.2206 18.646 10.174 18.66 10.127 18.673V18.6156L10.2495 18.5777L10.2831 18.5668C11.1464 18.2866 12.0763 18.2866 12.9396 18.5668C13.7938 18.8464 14.7148 18.8464 15.569 18.5668C15.7778 18.4985 15.9916 18.4467 16.2085 18.4118Z" fill="#333333"/>
<path d="M12.9234 18.7437C12.8865 18.7484 12.8502 18.7567 12.815 18.7687C11.9944 18.525 11.1193 18.5355 10.3048 18.799L10.2712 18.8099L10.1314 18.8521V18.7947L10.2539 18.7567L10.2875 18.7459C11.1442 18.4692 12.0662 18.4685 12.9234 18.7437Z" fill="#333333"/>
<path d="M16.2085 18.593V18.6494C15.9994 18.6838 15.7932 18.7342 15.5918 18.8C14.9473 19.0124 14.2618 19.0696 13.591 18.9669C13.5645 18.9401 13.5359 18.9154 13.5054 18.8932C14.1929 19.0175 14.9005 18.9691 15.5647 18.7523C15.7749 18.6829 15.9901 18.6296 16.2085 18.593Z" fill="#333333"/>
<path d="M12.6394 18.8422C12.6164 18.8542 12.5947 18.8684 12.5743 18.8844C11.8212 18.7079 11.0342 18.7405 10.2983 18.9787L10.2647 18.9906C10.2213 19.0047 10.178 19.0177 10.1335 19.0297C10.1302 19.011 10.128 18.9922 10.127 18.9733L10.2473 18.9365L10.2809 18.9256C11.0439 18.6785 11.8608 18.6496 12.6394 18.8422Z" fill="#333333"/>
<path d="M16.2086 18.7727V18.8291C15.9994 18.8639 15.7933 18.9146 15.5919 18.9808C14.9951 19.176 14.3629 19.2382 13.7396 19.1629C13.7295 19.1418 13.7179 19.1216 13.7049 19.1022C14.3314 19.1849 14.9686 19.1256 15.5691 18.9288C15.778 18.8606 15.9918 18.8084 16.2086 18.7727Z" fill="#333333"/>
<path d="M12.4617 18.9832C12.4458 18.9981 12.4313 19.0144 12.4183 19.032C11.713 18.8938 10.9841 18.9379 10.3005 19.1599L10.2669 19.1707L10.1888 19.1945C10.18 19.1778 10.1723 19.1604 10.1661 19.1425L10.2495 19.1176L10.2831 19.1067C10.9866 18.8788 11.737 18.8362 12.4617 18.9832Z" fill="#333333"/>
<path d="M16.2075 18.9529C16.2092 18.972 16.2092 18.9912 16.2075 19.0103C16.0005 19.0448 15.7965 19.0951 15.5973 19.161C15.0229 19.3488 14.4155 19.4138 13.8144 19.3517C13.8108 19.3322 13.8058 19.313 13.7992 19.2943C14.3974 19.3596 15.0027 19.2964 15.5745 19.109C15.7813 19.0409 15.9929 18.9888 16.2075 18.9529Z" fill="#333333"/>
<path d="M12.3435 19.1414C12.3334 19.1587 12.3248 19.1761 12.3175 19.1934C11.6432 19.0789 10.9512 19.1291 10.3005 19.3397H10.2918C10.2774 19.3255 10.2643 19.3099 10.2528 19.2931L10.2832 19.2834C10.9482 19.0694 11.6554 19.0206 12.3435 19.1414Z" fill="#333333"/>
<path d="M16.1662 19.1401C16.1594 19.1616 16.1503 19.1824 16.1391 19.2019C15.9526 19.2356 15.7686 19.282 15.5885 19.3406C15.3069 19.4339 15.0163 19.4967 14.7214 19.5282H13.8315C13.8327 19.5112 13.8327 19.4942 13.8315 19.4772C14.4173 19.5367 15.009 19.4735 15.569 19.2919C15.7639 19.2265 15.9636 19.1757 16.1662 19.1401Z" fill="#333333"/>
<path d="M12.274 19.3094C12.2677 19.3274 12.263 19.3459 12.26 19.3647C11.6611 19.2731 11.0496 19.31 10.4662 19.4731C10.4426 19.4632 10.42 19.4509 10.399 19.4363C11.0069 19.2558 11.6473 19.2125 12.274 19.3094Z" fill="#333333"/>
<path d="M16.0415 19.3438C16.0143 19.3725 15.9842 19.3983 15.9516 19.4207C15.8302 19.4489 15.7099 19.4825 15.5917 19.5215L15.57 19.528H15.3717C15.4378 19.5107 15.5039 19.4912 15.569 19.4695C15.7239 19.4185 15.8817 19.3765 16.0415 19.3438Z" fill="#333333"/>
<path d="M12.2448 19.4862C12.2437 19.5003 12.2437 19.5144 12.2448 19.5285H12.1472C11.7907 19.483 11.4297 19.483 11.0731 19.5285H10.7307C11.2288 19.4246 11.7416 19.4103 12.2448 19.4862Z" fill="#333333"/>
<path d="M15.6374 15.0716V6.08646C15.6374 5.92807 15.5745 5.77617 15.4625 5.66418C15.3505 5.55218 15.1986 5.48926 15.0402 5.48926H13.2573C13.2612 5.59584 13.2436 5.70213 13.2056 5.80176C13.1675 5.90139 13.1097 5.99232 13.0357 6.06912C12.9617 6.14592 12.873 6.207 12.7748 6.24873C12.6767 6.29045 12.5711 6.31196 12.4645 6.31196C12.3578 6.31196 12.2522 6.29045 12.1541 6.24873C12.0559 6.207 11.9672 6.14592 11.8932 6.06912C11.8192 5.99232 11.7614 5.90139 11.7233 5.80176C11.6853 5.70213 11.6677 5.59584 11.6716 5.48926H10.1542C10.0756 5.48898 9.99774 5.50421 9.92503 5.5341C9.85233 5.56398 9.78624 5.60793 9.73055 5.66341C9.67487 5.71889 9.63068 5.78482 9.60054 5.85742C9.57039 5.93002 9.55487 6.00785 9.55487 6.08646V15.0716" fill="#333333"/>
<path d="M14.4256 15.0713H14.7424" stroke="#333333" stroke-width="0.508309" stroke-miterlimit="10"/>
<path d="M13.6301 15.0713H13.947" stroke="#333333" stroke-width="0.508309" stroke-miterlimit="10"/>
<path d="M12.8357 15.0713H13.1525" stroke="#333333" stroke-width="0.508309" stroke-miterlimit="10"/>
<path d="M12.04 15.0713H12.3569" stroke="#333333" stroke-width="0.508309" stroke-miterlimit="10"/>
<path d="M11.2456 15.0713H11.5624" stroke="#333333" stroke-width="0.508309" stroke-miterlimit="10"/>
<path d="M10.4501 15.0713H10.7669" stroke="#333333" stroke-width="0.508309" stroke-miterlimit="10"/>
<path d="M12.1365 10.2536C12.0068 10.2528 11.8819 10.2043 11.7855 10.1174C11.6892 10.0304 11.6282 9.91114 11.6141 9.78216C11.601 9.64391 11.6428 9.50607 11.7305 9.39837C11.8182 9.29068 11.9447 9.22179 12.0827 9.20656C12.2207 9.19133 12.3592 9.231 12.4682 9.31699C12.5773 9.40299 12.6481 9.52841 12.6654 9.66619C12.6731 9.7353 12.6671 9.80525 12.6477 9.87203C12.6283 9.93881 12.596 10.0011 12.5525 10.0554C12.509 10.1096 12.4552 10.1548 12.3943 10.1883C12.3333 10.2217 12.2663 10.2428 12.1972 10.2504C12.1771 10.2526 12.1568 10.2537 12.1365 10.2536ZM12.1365 9.46026H12.1073C12.0379 9.46837 11.9744 9.5034 11.9306 9.5578C11.8867 9.61285 11.8661 9.68286 11.8732 9.75289C11.8793 9.8048 11.9006 9.85373 11.9345 9.89357C11.9683 9.93341 12.0131 9.96237 12.0634 9.97684C12.1136 9.9913 12.167 9.99062 12.2168 9.97489C12.2666 9.95915 12.3107 9.92906 12.3435 9.88838C12.3652 9.86135 12.3813 9.83026 12.3908 9.79695C12.4002 9.76363 12.403 9.72876 12.3988 9.69437C12.3914 9.62988 12.3606 9.57034 12.3123 9.52701C12.264 9.48367 12.2014 9.45954 12.1365 9.45917V9.46026Z" fill="#BDBDBD"/>
<path d="M12.7456 12.1809C12.646 12.1807 12.5486 12.1524 12.4644 12.0993C12.3802 12.0461 12.3127 11.9703 12.2696 11.8805C12.2266 11.7907 12.2098 11.6906 12.2212 11.5917C12.2325 11.4928 12.2715 11.3991 12.3337 11.3214C12.3897 11.2515 12.4624 11.197 12.5452 11.1629C12.6279 11.1288 12.718 11.1163 12.8069 11.1265C12.8958 11.1367 12.9806 11.1693 13.0535 11.2212C13.1264 11.2731 13.1849 11.3427 13.2236 11.4234C13.2623 11.5041 13.2799 11.5933 13.2747 11.6826C13.2695 11.772 13.2417 11.8585 13.1939 11.9342C13.1462 12.0099 13.08 12.0722 13.0016 12.1154C12.9232 12.1585 12.8351 12.1811 12.7456 12.1809ZM12.7456 11.3875H12.7153C12.6726 11.393 12.632 11.4087 12.5968 11.4335C12.5617 11.4582 12.5331 11.4911 12.5135 11.5293C12.4939 11.5676 12.484 11.61 12.4845 11.653C12.485 11.696 12.496 11.7382 12.5165 11.7759C12.5369 11.8137 12.5663 11.8459 12.6021 11.8698C12.6378 11.8936 12.6788 11.9084 12.7216 11.9129C12.7643 11.9173 12.8075 11.9113 12.8474 11.8953C12.8873 11.8793 12.9226 11.8538 12.9505 11.821C12.9827 11.7823 13.0031 11.7352 13.0095 11.6852C13.0158 11.6353 13.0077 11.5845 12.9862 11.539C12.9647 11.4934 12.9306 11.455 12.888 11.4282C12.8454 11.4013 12.796 11.3872 12.7456 11.3875Z" fill="#BDBDBD"/>
<path d="M13.5006 9.17259L11.2411 11.9968L11.4477 12.162L13.7071 9.3378L13.5006 9.17259Z" fill="#BDBDBD"/>
<path d="M14.7424 14.9395H14.4256V15.2033H14.7424V14.9395Z" fill="#333333"/>
<path d="M13.947 14.9395H13.6301V15.2033H13.947V14.9395Z" fill="#333333"/>
<path d="M13.1525 14.9395H12.8357V15.2033H13.1525V14.9395Z" fill="#333333"/>
<path d="M12.3569 14.9395H12.04V15.2033H12.3569V14.9395Z" fill="#333333"/>
<path d="M11.5624 14.9395H11.2456V15.2033H11.5624V14.9395Z" fill="#333333"/>
<path d="M10.7669 14.9395H10.4501V15.2033H10.7669V14.9395Z" fill="#333333"/>
<path d="M9.55487 18.4446C9.55487 18.603 9.61779 18.7549 9.72979 18.8669C9.84178 18.9789 9.99368 19.0418 10.1521 19.0418H11.6695C11.677 18.8366 11.7639 18.6423 11.9118 18.4999C12.0596 18.3574 12.257 18.2778 12.4623 18.2778C12.6676 18.2778 12.865 18.3574 13.0128 18.4999C13.1607 18.6423 13.2475 18.8366 13.2551 19.0418H15.0381C15.1964 19.0418 15.3483 18.9789 15.4603 18.8669C15.5723 18.7549 15.6353 18.603 15.6353 18.4446V16.1382H9.55487V18.4446Z" fill="#333333"/>
</svg>
