<svg width="13" height="13" viewBox="0 0 13 13" fill="none" xmlns="http://www.w3.org/2000/svg">
<path d="M11.3454 1.0763C11.0056 1.06653 10.6682 1.01557 10.3407 0.924561C10.4393 0.924561 10.5325 0.924561 10.6214 0.934315C10.7827 0.968373 10.946 0.992265 11.1102 1.00585C11.1901 1.02418 11.2686 1.04772 11.3454 1.0763V1.0763Z" fill="#333333"/>
<path d="M11.6761 1.25311C11.61 1.25311 11.5428 1.25853 11.4767 1.25853C11.0318 1.25872 10.5897 1.18924 10.1663 1.0526L10.1089 1.03418C10.0081 1.00166 9.90509 0.972398 9.80212 0.947469C9.86174 0.94205 9.92026 0.937715 9.97662 0.935547L10.1262 0.981069L10.1836 0.999494C10.6419 1.14747 11.1221 1.21566 11.6035 1.20109C11.6287 1.21703 11.6529 1.2344 11.6761 1.25311Z" fill="#333333"/>
<path d="M11.8506 1.42513C11.7263 1.43597 11.6017 1.44139 11.4766 1.44139C11.0316 1.44053 10.5895 1.36994 10.1663 1.23221L10.1088 1.21378C9.79833 1.11335 9.47713 1.04969 9.15179 1.02411L9.20924 1.01544L9.37507 0.992676C9.63009 1.02532 9.88154 1.08156 10.1262 1.16067L10.1836 1.1791C10.708 1.34776 11.2602 1.41256 11.8094 1.36985L11.8506 1.42513Z" fill="#333333"/>
<path d="M11.9567 1.59238C11.7977 1.61059 11.6377 1.61963 11.4777 1.61947C11.0325 1.61921 10.59 1.54973 10.1662 1.41354L10.1088 1.39512C9.50966 1.20185 8.87489 1.14519 8.25104 1.22929C8.35942 1.19677 8.45914 1.16859 8.5621 1.14258C9.0912 1.11164 9.62147 1.17888 10.1261 1.34093L10.1835 1.35935C10.7463 1.53871 11.3403 1.59816 11.9274 1.53385C11.9383 1.55553 11.947 1.57395 11.9567 1.59238Z" fill="#333333"/>
<path d="M12.0163 1.76448C11.8366 1.78808 11.6556 1.79967 11.4744 1.79917C11.0303 1.79909 10.5889 1.72961 10.1662 1.59324L10.1087 1.57481C9.25972 1.30008 8.34569 1.30008 7.49667 1.57481C7.34917 1.62351 7.19899 1.66368 7.04688 1.69512C7.13358 1.65285 7.22137 1.61274 7.30808 1.57373C7.36336 1.55855 7.41647 1.54229 7.47066 1.52495C8.33172 1.24235 9.26017 1.23969 10.1228 1.51737L10.1803 1.53579C10.7677 1.72402 11.389 1.78208 12.0011 1.70596C12.0075 1.7251 12.0126 1.74465 12.0163 1.76448V1.76448Z" fill="#333333"/>
<path d="M12.0457 1.94147C11.857 1.96659 11.667 1.97926 11.4767 1.9794C11.0318 1.97959 10.5897 1.9101 10.1663 1.77347L10.1088 1.75505C9.25983 1.48032 8.3458 1.48032 7.49678 1.75505C7.1938 1.85544 6.88034 1.92089 6.5625 1.95014L6.68931 1.87969C6.95588 1.84631 7.21864 1.78751 7.47402 1.70411C8.33525 1.42254 9.26336 1.41988 10.1262 1.69652L10.1836 1.71494C10.7831 1.90823 11.4182 1.96489 12.0424 1.88077C12.0449 1.9009 12.046 1.92119 12.0457 1.94147V1.94147Z" fill="#333333"/>
<path d="M12.05 2.06372C12.05 2.08215 12.05 2.10166 12.05 2.12008C11.8607 2.14606 11.6699 2.15909 11.4788 2.1591C11.0332 2.15952 10.5903 2.09003 10.1663 1.95317L10.1088 1.93474C9.25903 1.66264 8.34516 1.66492 7.49674 1.94125C7.08736 2.07692 6.65984 2.15 6.22864 2.15802L6.32293 2.09949C6.71434 2.08486 7.10178 2.01554 7.47398 1.89356C8.33521 1.61199 9.26333 1.60933 10.1262 1.88597L10.1836 1.9044C10.7859 2.09667 11.4238 2.15112 12.05 2.06372V2.06372Z" fill="#333333"/>
<path d="M12.0359 2.24557C12.0345 2.2652 12.0319 2.28474 12.0283 2.30409C11.8458 2.32791 11.6619 2.33986 11.4777 2.33986C11.0326 2.3396 10.5901 2.27012 10.1663 2.13393L10.1088 2.11551C9.25982 1.84078 8.34579 1.84078 7.49677 2.11551C7.00077 2.27834 6.47913 2.34887 5.9577 2.3236L6.03574 2.27158C6.5236 2.28618 7.01029 2.21576 7.47401 2.06348C8.33524 1.78191 9.26335 1.77926 10.1262 2.05589L10.1836 2.0754C10.7808 2.2686 11.4135 2.32672 12.0359 2.24557V2.24557Z" fill="#333333"/>
<path d="M12.0087 2.43105C12.0087 2.45056 11.999 2.47007 11.9946 2.48958C11.3796 2.56304 10.756 2.50315 10.1662 2.314L10.1087 2.29557C9.25972 2.02084 8.34569 2.02084 7.49667 2.29557C6.9257 2.48537 6.32112 2.55258 5.72241 2.49283L5.79178 2.44297C6.35904 2.49248 6.93046 2.42686 7.47174 2.25005C8.33281 1.96744 9.26125 1.96479 10.1239 2.24246L10.1814 2.26089C10.7707 2.45075 11.3945 2.50885 12.0087 2.43105V2.43105Z" fill="#333333"/>
<path d="M11.9547 2.6172C11.9482 2.63671 11.9427 2.65513 11.9351 2.67464C11.7829 2.69159 11.6299 2.69991 11.4767 2.69957C11.0318 2.69976 10.5897 2.63027 10.1663 2.49364L10.1089 2.47521C9.25925 2.202 8.34503 2.20428 7.49679 2.48172C6.85869 2.69073 6.18047 2.74716 5.5166 2.64646C5.53719 2.6302 5.55779 2.61395 5.57946 2.59877C6.21458 2.68616 6.86124 2.62835 7.47078 2.42969C8.33201 2.14812 9.26013 2.14547 10.123 2.42211L10.1804 2.44053C10.7526 2.62448 11.3574 2.6847 11.9547 2.6172V2.6172Z" fill="#333333"/>
<path d="M11.8896 2.80388C11.8831 2.82339 11.8755 2.8429 11.8679 2.86132C11.7378 2.87433 11.6078 2.87975 11.4766 2.87975C11.0319 2.87977 10.5898 2.81066 10.1663 2.6749L10.1088 2.65539C9.25902 2.38329 8.34515 2.38556 7.49673 2.66189C6.79736 2.89047 6.05115 2.93636 5.32904 2.79521L5.3854 2.7486C6.08077 2.8781 6.79756 2.83039 7.46964 2.60987C8.33087 2.3283 9.25898 2.32564 10.1218 2.60228L10.1793 2.62071C10.7308 2.79834 11.3129 2.86069 11.8896 2.80388V2.80388Z" fill="#333333"/>
<path d="M11.8137 2.99022L11.792 3.05092C11.6836 3.05959 11.585 3.06284 11.482 3.06284C11.0352 3.06232 10.5913 2.99211 10.1662 2.85474L10.1088 2.83632C9.25974 2.56159 8.34571 2.56159 7.49669 2.83632C6.7425 3.08672 5.93371 3.12348 5.15991 2.94253L5.21302 2.89701C5.96087 3.06858 6.74132 3.03336 7.47067 2.79513C8.33171 2.51269 9.25999 2.50965 10.1228 2.78646L10.1803 2.80597C10.7075 2.97348 11.2624 3.03608 11.8137 2.99022V2.99022Z" fill="#333333"/>
<path d="M11.7248 3.17782C11.7161 3.19733 11.7064 3.21575 11.6966 3.23418C11.624 3.23418 11.5503 3.24068 11.4798 3.24068C11.0339 3.24117 10.5906 3.17168 10.1662 3.03475L10.1088 3.01632C9.25975 2.74159 8.34571 2.74159 7.49669 3.01632C6.68968 3.28165 5.82203 3.30126 5.00385 3.07268L5.05479 3.02716C5.84928 3.24233 6.6893 3.22086 7.47177 2.96538C8.33283 2.68277 9.26127 2.68012 10.1239 2.9578L10.1814 2.97622C10.6789 3.13862 11.2023 3.20699 11.7248 3.17782V3.17782Z" fill="#333333"/>
<path d="M11.6294 3.36223L11.598 3.41859H11.4766C11.0318 3.41948 10.5897 3.35073 10.1662 3.21483L10.1088 3.19641C9.25914 2.9232 8.34492 2.92547 7.49668 3.20291C6.63931 3.484 5.71522 3.48817 4.85535 3.21483L4.90304 3.17039C5.73931 3.42903 6.63518 3.42221 7.46742 3.15088C8.32865 2.86931 9.25677 2.86666 10.1196 3.1433L10.177 3.16172C10.6457 3.31293 11.1373 3.3808 11.6294 3.36223V3.36223Z" fill="#333333"/>
<path d="M1.80435 3.4353C1.83408 3.44554 1.86305 3.45785 1.89106 3.47215C1.60255 3.54482 1.3072 3.58696 1.00989 3.59788C1.03283 3.57618 1.05708 3.55591 1.08251 3.53718C1.32528 3.52438 1.56646 3.49029 1.80326 3.4353H1.80435Z" fill="#333333"/>
<path d="M11.5243 3.544L11.4907 3.60144H11.4766C11.0318 3.6011 10.5898 3.53163 10.1663 3.39551L10.1088 3.37709C9.25981 3.10236 8.34578 3.10236 7.49676 3.37709C6.62911 3.66048 5.6938 3.66048 4.82616 3.37709L4.71777 3.34566L4.76329 3.30014L4.83916 3.32398C5.69335 3.60352 6.6144 3.60352 7.46858 3.32398C8.32981 3.04241 9.25793 3.03975 10.1208 3.31639L10.1782 3.33482C10.6125 3.47741 11.0672 3.54807 11.5243 3.544Z" fill="#333333"/>
<path d="M2.02989 3.55615C2.04724 3.57024 2.06458 3.58325 2.08192 3.59842C1.6891 3.71826 1.28086 3.77997 0.870178 3.78159C0.879955 3.76186 0.89081 3.74269 0.902694 3.72415C1.28438 3.72042 1.66371 3.66388 2.02989 3.55615V3.55615Z" fill="#333333"/>
<path d="M11.4126 3.72506L11.3769 3.77925C10.9655 3.77086 10.5577 3.70221 10.1662 3.57549L10.1088 3.55706C9.25976 3.28233 8.34573 3.28233 7.49671 3.55706C6.62898 3.83994 5.69384 3.83994 4.82611 3.55706C4.74807 3.53105 4.66895 3.50721 4.58875 3.4877C4.60175 3.47252 4.61693 3.45627 4.6321 3.44109C4.70363 3.45952 4.77408 3.4812 4.84887 3.50396C5.70321 3.78252 6.62394 3.78252 7.47828 3.50396C8.33935 3.22135 9.26779 3.21869 10.1305 3.49637L10.1879 3.51479C10.5834 3.64553 10.9962 3.7164 11.4126 3.72506V3.72506Z" fill="#333333"/>
<path d="M2.20329 3.72636L2.21196 3.73828H2.2022L2.16861 3.74912C1.73158 3.89121 1.2744 3.96149 0.81488 3.95722C0.816819 3.93886 0.820447 3.92072 0.825719 3.90303C1.27547 3.90663 1.72292 3.83858 2.15126 3.70143L2.17402 3.69385L2.20329 3.72636Z" fill="#333333"/>
<path d="M11.2954 3.90174C11.2835 3.91908 11.2716 3.93751 11.2586 3.95485C10.8872 3.93712 10.5198 3.87005 10.1661 3.75542L10.1086 3.737C9.2596 3.46227 8.34557 3.46227 7.49655 3.737C6.629 4.021 5.6935 4.021 4.82595 3.737C4.70456 3.6969 4.581 3.66221 4.45636 3.62861L4.49863 3.58092C4.6146 3.60802 4.73057 3.64054 4.84438 3.67847C5.69872 3.95703 6.61945 3.95703 7.47379 3.67847C8.33502 3.3969 9.26314 3.39425 10.126 3.67088L10.1834 3.68931C10.5427 3.81047 10.9168 3.88194 11.2954 3.90174Z" fill="#333333"/>
<path d="M2.28443 3.83789L2.31911 3.88666C2.28009 3.8975 2.24107 3.90942 2.20205 3.92243L2.16845 3.93327C1.73272 4.07465 1.27715 4.14527 0.819064 4.14245C0.815354 4.12351 0.81318 4.1043 0.812561 4.08501C1.2669 4.08975 1.71899 4.02056 2.15111 3.88016L2.18471 3.86824C2.21723 3.8574 2.25408 3.84656 2.28443 3.83789Z" fill="#333333"/>
<path d="M11.1743 4.07413L11.1364 4.12724C10.8047 4.10269 10.4772 4.03828 10.1609 3.9354L10.1034 3.91697C9.25374 3.64435 8.33971 3.64663 7.49138 3.92347C6.62373 4.20687 5.68842 4.20687 4.82077 3.92347C4.65741 3.87022 4.4909 3.82714 4.3222 3.7945C4.33521 3.77716 4.3493 3.75981 4.36339 3.74356C4.5243 3.77665 4.68316 3.81899 4.8392 3.87037C5.69354 4.14893 6.61428 4.14893 7.46861 3.87037C8.32985 3.5888 9.25796 3.58614 10.1208 3.86278L10.1782 3.8812C10.5011 3.98605 10.8356 4.05084 11.1743 4.07413V4.07413Z" fill="#333333"/>
<path d="M2.39278 3.98853L2.42638 4.03621C2.35051 4.05572 2.27572 4.07848 2.20202 4.10233L2.16842 4.11317C1.75231 4.24922 1.31751 4.31944 0.879726 4.32127C0.870076 4.30347 0.861745 4.285 0.854797 4.26599C1.29641 4.26543 1.73523 4.19595 2.15541 4.06006L2.18901 4.04922C2.25404 4.02646 2.32233 4.00587 2.39278 3.98853Z" fill="#333333"/>
<path d="M11.0495 4.24336C11.0365 4.26178 11.0224 4.27913 11.0094 4.29647C10.723 4.26513 10.4405 4.20485 10.1662 4.11655L10.1087 4.09812C9.25972 3.82339 8.34568 3.82339 7.49666 4.09812C6.62893 4.38099 5.69379 4.38099 4.82606 4.09812C4.62311 4.03373 4.41547 3.98517 4.20502 3.95289C4.21694 3.93663 4.22995 3.91929 4.24404 3.90303C4.44847 3.93675 4.64996 3.9864 4.84665 4.05152C5.70084 4.33106 6.62189 4.33106 7.47607 4.05152C8.3373 3.76995 9.26542 3.76729 10.1282 4.04393L10.1857 4.06236C10.4664 4.15305 10.756 4.21372 11.0495 4.24336Z" fill="#333333"/>
<path d="M2.49916 4.13477C2.51109 4.15211 2.52193 4.16945 2.53385 4.18571C2.42546 4.21064 2.31708 4.24207 2.20219 4.27783L2.16859 4.28867C1.78873 4.41278 1.39312 4.48212 0.993701 4.4946C0.978616 4.47761 0.964848 4.45949 0.952515 4.44041C1.35956 4.43335 1.7634 4.36689 2.15125 4.24315L2.18485 4.23231C2.2889 4.19546 2.39295 4.16511 2.49916 4.13477Z" fill="#333333"/>
<path d="M10.9248 4.40911L10.8847 4.46005C10.6408 4.42722 10.4003 4.37244 10.1662 4.29639L10.1087 4.27796C9.25912 4.00499 8.34509 4.00689 7.49664 4.28338C6.62909 4.56738 5.69359 4.56738 4.82604 4.28338C4.58408 4.20347 4.33515 4.1465 4.08252 4.11322L4.11937 4.0612C4.36563 4.0958 4.6083 4.15239 4.84446 4.23028C5.6988 4.50884 6.61954 4.50884 7.47388 4.23028C8.33494 3.94767 9.26339 3.94501 10.1261 4.22269L10.1835 4.24111C10.4247 4.32042 10.673 4.37667 10.9248 4.40911V4.40911Z" fill="#333333"/>
<path d="M2.6063 4.29614C2.61714 4.3124 2.62906 4.32866 2.6399 4.346C2.49333 4.37652 2.34859 4.41523 2.20636 4.46197L2.17276 4.47389C1.83718 4.58439 1.48909 4.65248 1.1366 4.67657L1.09216 4.62455C1.45222 4.60368 1.8081 4.53666 2.15108 4.42512L2.18468 4.41428C2.32282 4.36678 2.46359 4.32733 2.6063 4.29614V4.29614Z" fill="#333333"/>
<path d="M10.7905 4.56851L10.7482 4.61837C10.5499 4.58442 10.3543 4.53624 10.163 4.47421L10.1055 4.45579C9.2559 4.18258 8.34168 4.18486 7.49344 4.46229C6.62579 4.74569 5.69048 4.74569 4.82284 4.46229C4.54439 4.37071 4.257 4.30894 3.96552 4.27804L4.00128 4.22493C4.28683 4.25754 4.56829 4.31928 4.84126 4.40918C5.6956 4.68774 6.61634 4.68774 7.47068 4.40918C8.33191 4.12761 9.26002 4.12496 10.1229 4.4016L10.1803 4.42002C10.3796 4.48516 10.5836 4.53481 10.7905 4.56851V4.56851Z" fill="#333333"/>
<path d="M2.7127 4.45996C2.72462 4.4773 2.73654 4.49356 2.74629 4.5109C2.56263 4.54346 2.38153 4.5891 2.20437 4.64747L2.17077 4.65831C1.88096 4.75152 1.58186 4.81294 1.27877 4.84148C1.26576 4.82413 1.25059 4.80571 1.23541 4.78837C1.5478 4.76022 1.85607 4.69733 2.15451 4.60086L2.18811 4.58894C2.35987 4.53418 2.53513 4.49109 2.7127 4.45996V4.45996Z" fill="#333333"/>
<path d="M10.6583 4.72655L10.616 4.77532C10.464 4.7445 10.3138 4.70506 10.1663 4.65718L10.1088 4.63767C9.25902 4.36557 8.34515 4.36785 7.49674 4.64418C6.62909 4.92757 5.69378 4.92757 4.82614 4.64418C4.51335 4.54156 4.18959 4.47608 3.86151 4.44909L3.89403 4.39706C4.21725 4.42518 4.53617 4.49027 4.84456 4.59107C5.69882 4.87015 6.61972 4.87015 7.47397 4.59107C8.33521 4.3095 9.26332 4.30684 10.1261 4.58348L10.1836 4.60191C10.3391 4.65309 10.4977 4.69472 10.6583 4.72655Z" fill="#333333"/>
<path d="M2.81883 4.61572L2.85134 4.66666C2.63074 4.70117 2.41327 4.75336 2.20103 4.82274L2.16743 4.83358C1.92045 4.91449 1.66645 4.97219 1.40874 5.00591L1.36755 4.95388C1.63359 4.92287 1.89602 4.86625 2.15118 4.7848L2.18477 4.77396C2.39161 4.70454 2.60362 4.65162 2.81883 4.61572Z" fill="#333333"/>
<path d="M10.5239 4.87846L10.4816 4.92615C10.3732 4.90122 10.2648 4.87087 10.1629 4.83727L10.1055 4.81885C9.25648 4.54411 8.34244 4.54411 7.49342 4.81885C6.62569 5.10172 5.69055 5.10172 4.82282 4.81885C4.47828 4.70563 4.12052 4.6375 3.75848 4.61617C3.76824 4.59774 3.77799 4.5804 3.78883 4.56306C4.14675 4.58551 4.50037 4.65325 4.84125 4.76465C5.69543 5.04419 6.61648 5.04419 7.47066 4.76465C8.33189 4.48308 9.26001 4.48043 10.1228 4.75707L10.1803 4.77658C10.293 4.82101 10.4079 4.85244 10.5239 4.87846Z" fill="#333333"/>
<path d="M2.92497 4.78516C2.93581 4.8025 2.94665 4.81984 2.95857 4.83718C2.70086 4.86979 2.44683 4.92676 2.19988 5.00735L2.16628 5.01818C1.95932 5.08614 1.74731 5.1376 1.53223 5.17209C1.51922 5.15475 1.50622 5.13741 1.49213 5.12115C1.71503 5.08751 1.93473 5.0353 2.14894 4.96508L2.18254 4.95424C2.42432 4.87529 2.67284 4.81869 2.92497 4.78516Z" fill="#333333"/>
<path d="M10.3894 5.02471L10.3449 5.07131C10.2842 5.05506 10.2236 5.03663 10.1629 5.01712L10.1054 4.9987C9.25639 4.72397 8.34236 4.72397 7.49334 4.9987C6.62614 5.28375 5.69064 5.28489 4.82274 5.00195C4.44764 4.88028 4.05718 4.8124 3.66302 4.80035C3.6717 4.78193 3.68145 4.7635 3.69121 4.74508C4.08158 4.76106 4.46786 4.8311 4.839 4.95318C5.69334 5.23174 6.61407 5.23174 7.46841 4.95318C8.32948 4.67057 9.25792 4.66791 10.1206 4.94559L10.178 4.96401C10.2496 4.98677 10.3189 5.00737 10.3894 5.02471Z" fill="#333333"/>
<path d="M3.02914 4.94751C3.04106 4.96485 3.0519 4.98328 3.06273 5.00062C2.77024 5.03067 2.48176 5.09171 2.20216 5.1827L2.16856 5.19463C2.00042 5.24999 1.8288 5.29417 1.65482 5.32686C1.64289 5.30952 1.62989 5.29326 1.61688 5.277C1.79794 5.24438 1.97649 5.19911 2.15122 5.14152L2.18482 5.13068C2.45917 5.04059 2.74212 4.9792 3.02914 4.94751V4.94751Z" fill="#333333"/>
<path d="M10.254 5.16652L10.2107 5.21096L10.1663 5.19687L10.1088 5.17845C9.2592 4.90524 8.34498 4.90751 7.49674 5.18495C6.62909 5.46835 5.69378 5.46835 4.82614 5.18495C4.42501 5.05316 4.00622 4.98299 3.58405 4.97685C3.59163 4.95842 3.6003 4.94 3.60897 4.92157C4.02903 4.92953 4.44552 5.00041 4.84456 5.13184C5.6989 5.4104 6.61964 5.4104 7.47397 5.13184C8.33521 4.85027 9.26332 4.84762 10.1261 5.12425L10.1836 5.14268L10.254 5.16652Z" fill="#333333"/>
<path d="M3.13423 5.11768C3.14507 5.13502 3.15591 5.15236 3.16566 5.17078C2.83801 5.19694 2.51459 5.2617 2.20212 5.36371L2.16852 5.37455C2.03846 5.41682 1.90623 5.45367 1.77184 5.48293C1.75991 5.46559 1.74799 5.44825 1.73499 5.43199C1.8756 5.40351 2.01454 5.36732 2.15118 5.32361L2.18478 5.31277C2.49278 5.21169 2.81134 5.14624 3.13423 5.11768Z" fill="#333333"/>
<path d="M10.1174 5.30435L10.0719 5.34987C9.23176 5.08626 8.33031 5.09156 7.49338 5.36504C6.62573 5.64844 5.69042 5.64844 4.82278 5.36504C4.39731 5.22597 3.95245 5.15537 3.50482 5.15586C3.51148 5.13707 3.51907 5.11862 3.52758 5.10059C3.97406 5.10409 4.41727 5.17723 4.84121 5.31736C5.69539 5.59689 6.61644 5.59689 7.47062 5.31736C8.3296 5.03512 9.25566 5.03056 10.1174 5.30435Z" fill="#333333"/>
<path d="M3.23721 5.2915C3.24805 5.30885 3.25889 5.32727 3.26864 5.3457C2.906 5.36493 2.54744 5.43161 2.20214 5.54404L2.16854 5.55488C2.07424 5.58523 1.97995 5.61341 1.88348 5.63617C1.87265 5.62027 1.86072 5.60401 1.84772 5.58739C1.9496 5.56355 2.05148 5.53429 2.15119 5.50177L2.18479 5.49093C2.52554 5.3794 2.87928 5.31237 3.23721 5.2915V5.2915Z" fill="#333333"/>
<path d="M9.9755 5.44075L9.92672 5.48628C9.1273 5.26801 8.28149 5.28836 7.49348 5.5448C6.62564 5.82732 5.6905 5.82694 4.82289 5.54372C4.37568 5.39739 3.90711 5.32705 3.43665 5.33562C3.44315 5.31611 3.44965 5.29769 3.45724 5.27926C3.9274 5.27461 4.39508 5.34786 4.84131 5.49603C5.69565 5.77459 6.61639 5.77459 7.47072 5.49603C8.28164 5.2293 9.15361 5.21006 9.9755 5.44075V5.44075Z" fill="#333333"/>
<path d="M3.33802 5.46484L3.37054 5.52012C2.97304 5.5324 2.57929 5.60101 2.20107 5.72388L2.16747 5.73472C2.10894 5.75423 2.05041 5.77157 1.9908 5.78783L1.95612 5.73906C2.02115 5.72172 2.08618 5.70221 2.15012 5.68161L2.18372 5.67077C2.55705 5.54884 2.94556 5.47953 3.33802 5.46484V5.46484Z" fill="#333333"/>
<path d="M9.82038 5.5816L9.76944 5.62604C9.01595 5.45071 8.22886 5.48482 7.49336 5.72467C6.62581 6.00867 5.69031 6.00867 4.82276 5.72467C4.35687 5.5722 3.86795 5.50215 3.37799 5.51766C3.38449 5.49923 3.38991 5.47972 3.39642 5.4613C3.8865 5.44797 4.37523 5.5191 4.84118 5.67156C5.69552 5.95012 6.61626 5.95012 7.4706 5.67156C8.23029 5.42387 9.04397 5.39272 9.82038 5.5816V5.5816Z" fill="#333333"/>
<path d="M9.65474 5.72487L9.59838 5.77039C8.89655 5.63763 8.17257 5.68423 7.49355 5.90587C6.62591 6.18927 5.6906 6.18927 4.82295 5.90587C3.97131 5.62897 3.05385 5.62897 2.20221 5.90587L2.16861 5.91671L2.09599 5.93839L2.06348 5.88961C2.0931 5.88167 2.12237 5.873 2.15127 5.8636L2.18487 5.85168C3.04821 5.57149 3.97804 5.57149 4.84138 5.85168C5.69572 6.13024 6.61645 6.13024 7.47079 5.85168C8.17575 5.62226 8.92797 5.57858 9.65474 5.72487V5.72487Z" fill="#333333"/>
<path d="M9.55162 5.94391C8.86398 5.82069 8.15654 5.86947 7.49231 6.08589C6.62459 6.36876 5.68944 6.36876 4.82172 6.08589C3.9702 5.80824 3.05249 5.80824 2.20097 6.08589C2.19086 6.06927 2.18002 6.05302 2.16846 6.03712L2.18905 6.03062C3.05239 5.75043 3.98222 5.75043 4.84556 6.03062C5.69974 6.31015 6.62079 6.31015 7.47497 6.03062C8.11916 5.82019 8.80386 5.76449 9.47359 5.86804V5.86804L9.55162 5.94391Z" fill="#333333"/>
<path d="M9.86596 6.19416C9.08424 5.99222 8.2611 6.01779 7.49342 6.26786C6.62577 6.55125 5.69046 6.55125 4.82282 6.26786C4.0032 6.00036 3.12152 5.98902 2.29529 6.23534C2.28583 6.2188 2.27533 6.20287 2.26385 6.18765C3.10541 5.93199 4.00525 5.94145 4.84124 6.21475C5.69558 6.49331 6.61632 6.49331 7.47066 6.21475C8.21078 5.97128 9.0032 5.93381 9.76299 6.10636C9.79768 6.13563 9.83236 6.16272 9.86596 6.19416Z" fill="#333333"/>
<path d="M10.1858 6.46489L10.1631 6.45839L10.1056 6.43996C9.256 6.16675 8.34178 6.16903 7.49354 6.44647C6.6259 6.72986 5.69059 6.72986 4.82294 6.44647C4.03682 6.19038 3.19306 6.16929 2.39513 6.38577L2.36261 6.337C3.17642 6.11152 4.03865 6.13113 4.84137 6.39336C5.69571 6.67192 6.61644 6.67192 7.47078 6.39336C8.31914 6.11587 9.23284 6.10943 10.085 6.37493C10.1186 6.40419 10.1522 6.43454 10.1858 6.46489Z" fill="#333333"/>
<path d="M10.4675 6.72523C10.3645 6.7003 10.2637 6.67212 10.1629 6.63961L10.1055 6.6201C9.25571 6.34799 8.34184 6.35027 7.49342 6.6266C6.62578 6.91 5.69047 6.91 4.82282 6.6266C4.06936 6.38049 3.26187 6.3512 2.49255 6.54206C2.4828 6.52472 2.47196 6.50846 2.46112 6.4922C3.24767 6.29358 4.07439 6.32176 4.84558 6.57349C5.69984 6.85258 6.62074 6.85258 7.475 6.57349C8.33623 6.29192 9.26434 6.28927 10.1272 6.5659L10.1846 6.58433C10.2511 6.60601 10.3183 6.62552 10.3862 6.64286C10.4101 6.66995 10.4393 6.69705 10.4675 6.72523Z" fill="#333333"/>
<path d="M10.6985 6.95263C10.5171 6.92062 10.3382 6.87608 10.163 6.81932L10.1056 6.8009C9.25602 6.52793 8.34198 6.52982 7.49353 6.80632C6.6258 7.08919 5.69066 7.08919 4.82293 6.80632C4.10157 6.57029 3.32995 6.53285 2.58912 6.69793L2.55878 6.64699C3.31553 6.47705 4.10412 6.5145 4.84136 6.75537C5.69554 7.03491 6.61659 7.03491 7.47077 6.75537C8.332 6.47381 9.26012 6.47115 10.1229 6.74779L10.1804 6.7673C10.3276 6.81494 10.4774 6.85402 10.6291 6.88435L10.6985 6.95263Z" fill="#333333"/>
<path d="M10.901 7.16956C10.6504 7.13675 10.4033 7.08087 10.1629 7.00265L10.1055 6.98423C9.25647 6.70949 8.34243 6.70949 7.49341 6.98423C6.62586 7.26822 5.69036 7.26822 4.82281 6.98423C4.13336 6.76128 3.39835 6.71838 2.68764 6.85958C2.67788 6.84224 2.66813 6.8249 2.65729 6.80864C3.3851 6.66163 4.13855 6.70532 4.84449 6.93545C5.69883 7.21401 6.61957 7.21401 7.47391 6.93545C8.33505 6.65336 9.26333 6.65071 10.1261 6.92786L10.1835 6.94629C10.3986 7.01578 10.619 7.06762 10.8425 7.10128L10.901 7.16956Z" fill="#333333"/>
<path d="M11.0767 7.36572C10.7662 7.33782 10.4597 7.27529 10.163 7.17929L10.1056 7.16087C9.25597 6.88766 8.34175 6.88993 7.49351 7.16737C6.62587 7.45077 5.69056 7.45077 4.82291 7.16737C4.16408 6.95241 3.4626 6.90217 2.77986 7.02105C2.7701 7.00371 2.76035 6.98637 2.74951 6.97011C3.44796 6.84403 4.16679 6.89356 4.84134 7.11426C5.69568 7.39282 6.61641 7.39282 7.47075 7.11426C8.33198 6.83269 9.2601 6.83004 10.1229 7.10668L10.1804 7.1251C10.4541 7.21376 10.7364 7.2737 11.0225 7.30394C11.042 7.32561 11.0594 7.34512 11.0767 7.36572Z" fill="#333333"/>
<path d="M11.2382 7.55865C10.8728 7.53881 10.5114 7.47215 10.163 7.36031L10.1056 7.3408C9.25579 7.0687 8.34192 7.07097 7.4935 7.3473C6.62586 7.6307 5.69055 7.6307 4.8229 7.3473C4.1941 7.14192 3.52588 7.08697 2.87198 7.18689L2.84271 7.13378C3.51192 7.02991 4.19618 7.08486 4.84024 7.29419C5.69443 7.57373 6.61547 7.57373 7.46966 7.29419C8.33089 7.01262 9.259 7.00997 10.1218 7.28661L10.1793 7.30503C10.5064 7.41076 10.8453 7.47556 11.1883 7.49796L11.2382 7.55865Z" fill="#333333"/>
<path d="M11.3833 7.7441C10.9698 7.73642 10.5597 7.66776 10.1662 7.54033L10.1087 7.52191C9.25972 7.24718 8.34568 7.24718 7.49667 7.52191C6.62894 7.80478 5.69379 7.80478 4.82607 7.52191C4.22763 7.32573 3.59285 7.2661 2.96835 7.34741L2.93909 7.29539C3.57918 7.2089 4.23053 7.26818 4.84449 7.4688C5.69883 7.74736 6.61957 7.74736 7.4739 7.4688C8.33497 7.18619 9.26341 7.18354 10.1261 7.46121L10.1835 7.47964C10.5588 7.60048 10.9492 7.66762 11.3432 7.67907L11.3833 7.7441Z" fill="#333333"/>
<path d="M11.5179 7.92825H11.4767C11.0307 7.92877 10.5874 7.85928 10.163 7.72232L10.1056 7.70389C9.25658 7.42916 8.34255 7.42916 7.49353 7.70389C6.62598 7.98789 5.69048 7.98789 4.82293 7.70389C4.62715 7.63941 4.42679 7.58978 4.22356 7.5554C4.22356 7.5554 4.22356 7.5554 4.22356 7.5554C3.83837 7.48935 3.44585 7.47731 3.05734 7.51964L3.02808 7.46545C3.63951 7.39648 4.25863 7.45968 4.84352 7.65078C5.69786 7.92934 6.6186 7.92934 7.47293 7.65078C8.33408 7.3687 9.26236 7.36604 10.1251 7.6432L10.1826 7.66162C10.6028 7.79716 11.0416 7.86591 11.4832 7.86538L11.5179 7.92825Z" fill="#333333"/>
<path d="M4.26689 7.69197L4.2864 7.75266C3.90953 7.68247 3.52489 7.66351 3.14294 7.6963C3.13319 7.67788 3.12452 7.65945 3.11584 7.64211C3.50002 7.60663 3.88723 7.6234 4.26689 7.69197V7.69197Z" fill="#333333"/>
<path d="M11.639 8.10278C11.5848 8.10278 11.5306 8.10278 11.4764 8.10278C11.0305 8.10331 10.5872 8.03382 10.1628 7.89685L10.1054 7.87843C9.25567 7.60581 8.34164 7.60808 7.4933 7.88493C6.62565 8.16833 5.69035 8.16833 4.8227 7.88493C4.72624 7.8535 4.62978 7.82532 4.53115 7.80147C4.50786 7.77461 4.48288 7.74927 4.45636 7.7256C4.58636 7.75524 4.71477 7.79141 4.84113 7.83399C5.69546 8.11255 6.6162 8.11255 7.47054 7.83399C8.33177 7.55242 9.25989 7.54976 10.1227 7.8264L10.1802 7.84483C10.6395 7.99277 11.1209 8.06096 11.6032 8.04642L11.639 8.10278Z" fill="#333333"/>
<path d="M4.32544 7.8826C4.33195 7.9032 4.33845 7.9227 4.34278 7.9433C3.97665 7.86956 3.60234 7.84478 3.22967 7.8696C3.21992 7.85117 3.21125 7.83383 3.20258 7.8154C3.57819 7.78894 3.95566 7.81153 4.32544 7.8826V7.8826Z" fill="#333333"/>
<path d="M11.7509 8.27705C11.6599 8.28355 11.5677 8.2868 11.4767 8.2868C11.0308 8.2868 10.5876 8.21732 10.1631 8.08087L10.1056 8.06245C9.25605 7.78948 8.34201 7.79138 7.49356 8.06787C6.62584 8.35074 5.69069 8.35074 4.82296 8.06787C4.78395 8.05486 4.74601 8.04294 4.70699 8.0321C4.68893 8.00681 4.67159 7.98188 4.65497 7.95732C4.71783 7.97466 4.77961 7.99308 4.84139 8.01368C5.69557 8.29321 6.61662 8.29321 7.4708 8.01368C8.33203 7.73211 9.26015 7.72945 10.123 8.00609L10.1804 8.02451C10.6762 8.18423 11.1973 8.25075 11.7173 8.22069C11.7292 8.2402 11.7401 8.25862 11.7509 8.27705Z" fill="#333333"/>
<path d="M4.37856 8.07351C4.38398 8.0941 4.3894 8.11361 4.39373 8.13421C4.03776 8.05827 3.67344 8.02876 3.30989 8.04642C3.30194 8.02835 3.29327 8.00993 3.28387 7.99114C3.65079 7.97168 4.01869 7.99936 4.37856 8.07351Z" fill="#333333"/>
<path d="M11.8538 8.44966C11.7281 8.46158 11.6034 8.467 11.4777 8.467C11.0314 8.4676 10.5877 8.39811 10.163 8.26107L10.1056 8.24264C9.25653 7.96791 8.3425 7.96791 7.49348 8.24264C6.64381 8.52119 5.7284 8.52763 4.8749 8.26107C4.85539 8.23614 4.83697 8.21013 4.81854 8.18411L4.8413 8.1917C5.69564 8.47026 6.61638 8.47026 7.47072 8.1917C8.33178 7.90909 9.26023 7.90644 10.1229 8.18411L10.1803 8.20254C10.7103 8.37293 11.2686 8.43738 11.8234 8.39221C11.8343 8.41497 11.844 8.43231 11.8538 8.44966Z" fill="#333333"/>
<path d="M4.42194 8.26323C4.42194 8.28273 4.43061 8.30333 4.43603 8.32392C4.09328 8.24713 3.74231 8.21327 3.3912 8.22312C3.38361 8.20361 3.37494 8.18519 3.36627 8.16676C3.72079 8.15541 4.07535 8.1878 4.42194 8.26323V8.26323Z" fill="#333333"/>
<path d="M11.9493 8.62087C11.3489 8.68688 10.7414 8.62558 10.1663 8.44095L10.1089 8.42253C9.25987 8.1478 8.34584 8.1478 7.49682 8.42253C6.70792 8.68172 5.86071 8.70619 5.05816 8.49298L4.99963 8.41927C5.81091 8.64921 6.67225 8.63261 7.47406 8.37159C8.33529 8.09002 9.2634 8.08736 10.1262 8.364L10.1837 8.38242C10.7447 8.56301 11.3372 8.62429 11.9233 8.56234C11.9308 8.5851 11.9395 8.60353 11.9493 8.62087Z" fill="#333333"/>
<path d="M4.46309 8.45188C4.46775 8.47228 4.47137 8.4929 4.47393 8.51366C4.1461 8.43706 3.81016 8.40066 3.47354 8.40528C3.46595 8.38685 3.45836 8.36734 3.44861 8.34892C3.78967 8.34242 4.13028 8.37699 4.46309 8.45188V8.45188Z" fill="#333333"/>
<path d="M12.0347 8.79529C11.8497 8.82001 11.6632 8.83232 11.4765 8.83214C11.0305 8.83267 10.5873 8.76318 10.1629 8.62621L10.1054 8.60778C9.25565 8.33568 8.34178 8.33796 7.49336 8.61429C6.76613 8.85198 5.98862 8.89127 5.24113 8.72809L5.18152 8.65872C5.93893 8.83741 6.73091 8.80403 7.4706 8.56226C8.33183 8.28069 9.25995 8.27803 10.1228 8.55467L10.1802 8.5731C10.7703 8.7613 11.3945 8.81755 12.0087 8.73784C12.0188 8.75519 12.0275 8.77433 12.0347 8.79529Z" fill="#333333"/>
<path d="M4.49667 8.64036C4.49667 8.66095 4.50317 8.68046 4.50534 8.69997C4.1942 8.62315 3.87526 8.58241 3.5548 8.57858C3.5483 8.56015 3.54071 8.54173 3.53204 8.52222C3.85705 8.52449 4.18072 8.56413 4.49667 8.64036V8.64036Z" fill="#333333"/>
<path d="M12.1172 8.96034C11.4634 9.05867 10.7957 9.00452 10.1663 8.8021L10.1088 8.78367C9.25924 8.5107 8.34521 8.5126 7.49676 8.78909C6.83282 9.00607 6.12603 9.05815 5.43745 8.94083L5.37567 8.87255C6.07569 9.00532 6.79793 8.95871 7.47508 8.73707C8.33631 8.4555 9.26443 8.45284 10.1273 8.72948L10.1847 8.74899C10.7999 8.94454 11.4514 8.99754 12.0901 8.90398C12.0988 8.92457 12.1064 8.94191 12.1172 8.96034Z" fill="#333333"/>
<path d="M4.52367 8.82699C4.52367 8.84758 4.53018 8.86817 4.53234 8.88768C4.2351 8.81298 3.93048 8.77154 3.62408 8.76412C3.61758 8.7457 3.60999 8.72619 3.60132 8.70776C3.91223 8.71325 4.22158 8.75324 4.52367 8.82699V8.82699Z" fill="#333333"/>
<path d="M12.1854 9.12942C11.9515 9.16836 11.7147 9.18794 11.4776 9.18795C11.0313 9.18855 10.5876 9.11906 10.1629 8.98201L10.1055 8.96359C9.25643 8.68886 8.3424 8.68886 7.49338 8.96359C6.89325 9.16042 6.25713 9.22259 5.63025 9.14568L5.56738 9.08065C6.20632 9.17002 6.85722 9.11257 7.47062 8.91265C8.33168 8.63004 9.26013 8.62738 10.1228 8.90506L10.1802 8.92349C10.8203 9.12968 11.5002 9.18021 12.1637 9.07089C12.1713 9.09365 12.1778 9.11208 12.1854 9.12942Z" fill="#333333"/>
<path d="M4.54649 9.01234C4.54649 9.03185 4.54649 9.05136 4.55408 9.07195C4.27286 8.9995 3.98476 8.95699 3.69459 8.94514C3.68809 8.92563 3.6805 8.9072 3.67291 8.8877C3.96769 8.89825 4.26052 8.94003 4.54649 9.01234Z" fill="#333333"/>
<path d="M12.2484 9.29733C11.9942 9.34461 11.7363 9.36819 11.4778 9.36778C11.0314 9.36839 10.5878 9.2989 10.1631 9.16185L10.1056 9.14343C9.256 8.87022 8.34178 8.87249 7.49354 9.14993C6.95781 9.32505 6.39297 9.39353 5.83091 9.35153L5.76697 9.28866C6.34233 9.34228 6.92257 9.27736 7.47186 9.0979C8.33309 8.81633 9.26121 8.81368 10.124 9.09032L10.1815 9.10874C10.8428 9.32155 11.5464 9.36808 12.2299 9.24422V9.25181L12.2484 9.29733Z" fill="#333333"/>
<path d="M4.56591 9.19872C4.56591 9.21932 4.56591 9.23883 4.56591 9.25834C4.30172 9.18879 4.0312 9.14594 3.75845 9.13044C3.75194 9.11093 3.74544 9.09251 3.73785 9.073C4.01736 9.08739 4.29474 9.12951 4.56591 9.19872V9.19872Z" fill="#333333"/>
<path d="M12.3046 9.46751C12.0319 9.52164 11.7546 9.54887 11.4765 9.5488C11.0306 9.54879 10.5874 9.47932 10.1629 9.34287L10.1055 9.32336C9.25569 9.05126 8.34182 9.05353 7.4934 9.32986C7.02113 9.48413 6.52575 9.55563 6.02913 9.54121L5.96735 9.48268C6.47672 9.50601 6.98608 9.4366 7.47064 9.27784C8.33187 8.99627 9.25999 8.99361 10.1228 9.27025L10.1803 9.28868C10.8611 9.50791 11.5864 9.5508 12.2883 9.41332C12.2948 9.43174 12.3003 9.44583 12.3046 9.46751Z" fill="#333333"/>
<path d="M4.58008 9.38305V9.44158C4.33154 9.37644 4.0776 9.334 3.82139 9.31477C3.81586 9.2953 3.80935 9.27613 3.80188 9.25732C4.06469 9.27437 4.32527 9.31647 4.58008 9.38305V9.38305Z" fill="#333333"/>
<path d="M12.3534 9.63852C12.0649 9.69822 11.7711 9.72836 11.4766 9.72848C11.0306 9.72901 10.5873 9.65952 10.1629 9.52255L10.1055 9.50413C9.25591 9.23116 8.34187 9.23305 7.49342 9.50955C7.08601 9.64416 6.6608 9.71722 6.23182 9.72632L6.17004 9.67212C6.61187 9.67108 7.05079 9.60049 7.47066 9.46294C8.33172 9.18033 9.26017 9.17768 10.1228 9.45535L10.1803 9.47378C10.8781 9.6975 11.6219 9.7367 12.3393 9.58758C12.3449 9.60431 12.3496 9.62132 12.3534 9.63852V9.63852Z" fill="#333333"/>
<path d="M4.5899 9.56497C4.5899 9.58556 4.5899 9.60507 4.5899 9.62458C4.36002 9.56197 4.12495 9.52025 3.88757 9.49993C3.88757 9.48042 3.87564 9.46092 3.86914 9.44141C4.1125 9.46176 4.35365 9.5031 4.5899 9.56497V9.56497Z" fill="#333333"/>
<path d="M12.3935 9.80983C11.6534 9.97074 10.884 9.93335 10.163 9.70145L10.1055 9.68302C9.25592 9.41005 8.34189 9.41195 7.49344 9.68844C7.1514 9.80163 6.79625 9.87047 6.43669 9.89329C6.41501 9.87595 6.39333 9.85861 6.37274 9.84018C6.74609 9.82163 7.11531 9.75347 7.47068 9.6375C8.33174 9.35489 9.26019 9.35224 10.1229 9.62991L10.1803 9.64834C10.8916 9.87849 11.6512 9.91589 12.3816 9.75672C12.3865 9.7742 12.3905 9.79193 12.3935 9.80983V9.80983Z" fill="#333333"/>
<path d="M4.59642 9.74702C4.59642 9.76653 4.59642 9.78604 4.59642 9.80554C4.38331 9.74793 4.1658 9.70806 3.94611 9.68632C3.94611 9.66681 3.93528 9.6473 3.92877 9.62671C4.15428 9.64821 4.3776 9.68845 4.59642 9.74702V9.74702Z" fill="#333333"/>
<path d="M12.4227 9.98777C11.6743 10.1534 10.8952 10.116 10.1661 9.87938L10.1087 9.86096C9.25909 9.58775 8.34487 9.59002 7.49663 9.86746C7.21879 9.95878 6.93219 10.0209 6.64148 10.0528C6.62088 10.0376 6.59921 10.0203 6.57861 10.0029C6.88304 9.97371 7.1833 9.91083 7.47387 9.81543C8.3351 9.53386 9.26322 9.53121 10.126 9.80785L10.1835 9.82627C10.9062 10.0589 11.6782 10.0926 12.4184 9.92382C12.4184 9.94658 12.4206 9.965 12.4227 9.98777Z" fill="#333333"/>
<path d="M4.5985 9.92812C4.5985 9.94763 4.5985 9.96714 4.5985 9.98665C4.40288 9.93379 4.20364 9.89539 4.00239 9.87176C4.00239 9.85225 3.99155 9.83274 3.98505 9.81323C4.19216 9.83585 4.39724 9.87425 4.5985 9.92812V9.92812Z" fill="#333333"/>
<path d="M12.4423 10.159C12.1263 10.2318 11.803 10.2682 11.4787 10.2674C11.0333 10.268 10.5905 10.1992 10.1662 10.0636L10.1087 10.0452C9.25915 9.77221 8.34511 9.77411 7.49667 10.0506C7.2844 10.1204 7.06696 10.1733 6.84636 10.2088L6.78241 10.1622C7.01791 10.1277 7.24999 10.073 7.47607 9.99858C8.3353 9.71712 9.26133 9.71332 10.1228 9.98774L10.1803 10.0062C10.9098 10.2408 11.6892 10.2734 12.4358 10.1005C12.4423 10.1221 12.4423 10.1406 12.4423 10.159Z" fill="#333333"/>
<path d="M4.03925 9.99976C4.22795 10.0229 4.41482 10.0591 4.59851 10.1081V10.1656C4.42068 10.1166 4.23957 10.0804 4.05659 10.0572L4.03925 9.99976Z" fill="#333333"/>
<path d="M12.4423 10.2815C12.4423 10.301 12.4423 10.3205 12.4423 10.34C12.1255 10.4124 11.8015 10.4487 11.4765 10.4484C11.0306 10.4489 10.5873 10.3794 10.1629 10.2425L10.1055 10.224C9.25589 9.95107 8.34185 9.95296 7.4934 10.2295C7.34427 10.2779 7.19268 10.3184 7.03927 10.3508C7.01868 10.3368 6.99809 10.3227 6.97858 10.3075C7.14511 10.2747 7.30944 10.2316 7.47064 10.1785C8.33171 9.89591 9.26015 9.89325 10.1228 10.1709L10.1803 10.1894C10.9119 10.4252 11.6939 10.457 12.4423 10.2815V10.2815Z" fill="#333333"/>
<path d="M4.08911 10.1873C4.26017 10.21 4.4296 10.2436 4.59635 10.2881C4.59635 10.3076 4.59635 10.3271 4.59635 10.3455C4.43495 10.302 4.27096 10.2687 4.10537 10.2458C4.0967 10.2263 4.0967 10.2046 4.08911 10.1873Z" fill="#333333"/>
<path d="M12.4337 10.4632C12.4318 10.4832 12.429 10.5031 12.425 10.5228C11.6765 10.6914 10.8965 10.6562 10.1663 10.4209L10.1088 10.4025C9.25923 10.1295 8.3452 10.1314 7.49675 10.4079C7.41113 10.4361 7.3255 10.461 7.2388 10.4827L7.1781 10.4415C7.27781 10.4176 7.37645 10.3895 7.47399 10.3569C8.33522 10.0754 9.26334 10.0727 10.1262 10.3494L10.1836 10.3678C10.9112 10.6025 11.6888 10.6354 12.4337 10.4632V10.4632Z" fill="#333333"/>
<path d="M4.1347 10.3745C4.28852 10.396 4.44089 10.4268 4.591 10.4666C4.591 10.4861 4.591 10.5046 4.591 10.5241C4.44624 10.4851 4.2993 10.4547 4.15096 10.433C4.14446 10.4135 4.14012 10.394 4.1347 10.3745Z" fill="#333333"/>
<path d="M12.4012 10.6508C12.3973 10.6713 12.3923 10.6916 12.3861 10.7115C11.6484 10.8715 10.8817 10.8341 10.1631 10.6031L10.1057 10.5847C9.25588 10.3126 8.342 10.3149 7.49358 10.5912L7.43181 10.6107L7.36786 10.5706L7.47082 10.5392C8.33183 10.2569 9.25994 10.2535 10.123 10.5294L10.1804 10.5479C10.8983 10.7794 11.665 10.8149 12.4012 10.6508V10.6508Z" fill="#333333"/>
<path d="M4.17578 10.5598C4.31272 10.5805 4.4484 10.6087 4.58222 10.6444V10.7018C4.45325 10.6671 4.32318 10.64 4.19204 10.6183C4.18767 10.5986 4.18224 10.579 4.17578 10.5598Z" fill="#333333"/>
<path d="M12.3405 10.8452C12.3318 10.8669 12.3231 10.8875 12.3134 10.9081C12.0383 10.9632 11.7583 10.9908 11.4777 10.9905C11.0318 10.9904 10.5886 10.921 10.1641 10.7845L10.1067 10.7661C9.30274 10.5079 8.44004 10.4954 7.629 10.7303C7.60732 10.7188 7.58564 10.7058 7.56396 10.6913C8.39958 10.4379 9.29258 10.445 10.124 10.7119L10.1815 10.7314C10.8793 10.9549 11.623 10.9941 12.3405 10.8452Z" fill="#333333"/>
<path d="M4.21484 10.7463C4.33487 10.7658 4.45382 10.7907 4.57169 10.822C4.57169 10.8415 4.57169 10.8599 4.57169 10.8793C4.45914 10.8489 4.34508 10.8244 4.22998 10.8058C4.22241 10.7863 4.21917 10.7658 4.21484 10.7463Z" fill="#333333"/>
<path d="M12.2375 11.0444C12.2235 11.0671 12.2083 11.0888 12.192 11.1105C11.5147 11.2237 10.8201 11.1732 10.1663 10.9631L10.1089 10.9446C9.37721 10.7092 8.59526 10.6773 7.84688 10.8525C7.82303 10.8395 7.79919 10.8265 7.77643 10.8124C8.55175 10.6193 9.36563 10.6467 10.1262 10.8915L10.1837 10.91C10.8467 11.1237 11.5523 11.1699 12.2375 11.0444V11.0444Z" fill="#333333"/>
<path d="M4.24951 10.9329C4.35765 10.9502 4.45713 10.9718 4.55986 10.9988C4.55986 11.0183 4.55986 11.0378 4.55986 11.0561C4.46254 11.0302 4.36414 11.0086 4.26465 10.9913C4.26068 10.9715 4.25563 10.952 4.24951 10.9329V10.9329Z" fill="#333333"/>
<path d="M12.0695 11.2527C12.0457 11.2755 12.0218 11.2983 11.9958 11.3188C11.8235 11.3396 11.6502 11.3501 11.4767 11.3503C11.0307 11.3508 10.5874 11.2813 10.163 11.1443L10.1056 11.1259C9.45454 10.9165 8.7624 10.8681 8.08855 10.985C8.06182 10.972 8.03472 10.9579 8.00726 10.9428C8.71219 10.8083 9.43957 10.8526 10.1229 11.0717L10.1804 11.0902C10.7898 11.2862 11.4356 11.3417 12.0695 11.2527V11.2527Z" fill="#333333"/>
<path d="M4.27979 11.1189C4.36846 11.134 4.45713 11.1524 4.54472 11.1751C4.54472 11.1946 4.54472 11.213 4.54472 11.2314C4.46253 11.2097 4.37927 11.1924 4.29492 11.1773C4.29095 11.1576 4.2859 11.1381 4.27979 11.1189V11.1189Z" fill="#333333"/>
<path d="M11.792 11.4626C11.7519 11.4867 11.7103 11.5081 11.6673 11.5265C11.6056 11.5265 11.5427 11.5265 11.4809 11.5265C11.0346 11.5266 10.5911 11.4571 10.1662 11.3206L10.1088 11.3011C9.54944 11.1216 8.95889 11.0603 8.37461 11.1212C8.34318 11.1071 8.31067 11.0919 8.27924 11.0757C8.89863 10.9981 9.5275 11.0569 10.1218 11.248L10.1792 11.2664C10.699 11.4359 11.2468 11.5025 11.792 11.4626V11.4626Z" fill="#333333"/>
<path d="M4.31335 11.3035C4.38797 11.3175 4.4615 11.3337 4.52963 11.3521C4.52963 11.3705 4.52963 11.39 4.52963 11.4084C4.46042 11.3911 4.39121 11.3759 4.32092 11.3619C4.31335 11.3424 4.31335 11.3229 4.31335 11.3035Z" fill="#333333"/>
<path d="M11.2999 11.6511C11.231 11.6688 11.1612 11.6825 11.0908 11.6923C10.7766 11.6645 10.4664 11.6016 10.1662 11.5048L10.1088 11.4864C9.66446 11.3446 9.19968 11.2775 8.73339 11.288L8.612 11.2371C9.12362 11.2118 9.63556 11.2798 10.1229 11.4376L10.1803 11.456C10.5429 11.5716 10.9196 11.6372 11.2999 11.6511V11.6511Z" fill="#333333"/>
<path d="M4.33191 11.4875C4.39247 11.4994 4.45302 11.5124 4.5125 11.5276C4.5125 11.547 4.5125 11.5654 4.5125 11.5838C4.45626 11.5697 4.40436 11.5578 4.3438 11.5459L4.33191 11.4875Z" fill="#333333"/>
<path d="M10.512 11.7219C10.4155 11.7219 10.3191 11.711 10.2215 11.7002L10.163 11.6829L10.1055 11.6644C9.83735 11.5775 9.56098 11.5183 9.28073 11.4878L9.20594 11.4618L9.07263 11.4141C9.4298 11.4353 9.78277 11.5024 10.1229 11.6135L10.1803 11.6319C10.2898 11.6677 10.4003 11.698 10.512 11.7219Z" fill="#333333"/>
<path d="M4.49418 11.7031L4.48769 11.7582L4.35685 11.7301C4.35685 11.7107 4.35685 11.6901 4.35144 11.6707C4.39902 11.6815 4.4466 11.6912 4.49418 11.7031Z" fill="#333333"/>
<path d="M4.47553 11.8803L4.46899 11.9359C4.43739 11.9282 4.4047 11.9206 4.37201 11.9152C4.37201 11.8955 4.37201 11.8748 4.37201 11.8552C4.40361 11.8629 4.43957 11.8705 4.47553 11.8803Z" fill="#333333"/>
<path d="M4.45424 12.0556C4.45424 12.074 4.45424 12.0924 4.44776 12.1108L4.38287 12.0967C4.38287 12.0773 4.38287 12.0578 4.38287 12.0383L4.45424 12.0556Z" fill="#333333"/>
<path d="M4.43478 12.2304C4.43478 12.2499 4.43478 12.2683 4.42721 12.2867L4.39044 12.2791C4.39152 12.2596 4.39152 12.2402 4.39044 12.2207L4.43478 12.2304Z" fill="#333333"/>
<path d="M4.41319 12.4066L4.40667 12.4631C4.40276 12.462 4.39862 12.462 4.39471 12.4631C4.39471 12.4446 4.39471 12.4251 4.39471 12.4055L4.41319 12.4066Z" fill="#333333"/>
<path d="M8.93507 5.34545C10.5771 4.11419 13.9565 -0.29056 8.67711 0.486558C6.37827 0.806293 3.52775 2.67268 2.8471 5.00187C2.49163 4.37803 2.10006 3.77547 1.67438 3.19726C1.04033 2.40063 -0.21477 3.17884 0.488647 4.00039C2.48293 6.35017 3.867 9.17901 3.867 12.0306C4.03174 10.6216 4.30054 8.71838 3.69141 7.02974C3.84478 7.11688 3.97926 7.23367 4.08702 7.37332C5.17087 8.96983 6.82373 10.2997 8.67711 10.9348C10.3668 11.5505 12.6191 11.1863 11.7032 8.72271C11.2111 7.37657 10.0579 6.1941 8.93507 5.34545Z" fill="#333333"/>
</svg>
